{
	"asset":{
		"generator":"Khronos glTF Blender I/O v3.6.28",
		"version":"2.0"
	},
	"scene":0,
	"scenes":[
		{
			"name":"Scene",
			"nodes":[
				0
			]
		}
	],
	"nodes":[
		{
			"mesh":0,
			"name":"tube-col"
		}
	],
	"materials":[
		{
			"doubleSided":true,
			"name":"Material.003",
			"pbrMetallicRoughness":{
				"baseColorTexture":{
					"index":0
				},
				"metallicFactor":0,
				"roughnessFactor":0.5
			}
		}
	],
	"meshes":[
		{
			"name":"Cylinder.002",
			"primitives":[
				{
					"attributes":{
						"POSITION":0,
						"NORMAL":1,
						"TEXCOORD_0":2
					},
					"indices":3,
					"material":0
				}
			]
		}
	],
	"textures":[
		{
			"sampler":0,
			"source":0
		}
	],
	"images":[
		{
			"mimeType":"image/png",
			"name":"KATTOT",
			"uri":"KATTOT.png"
		}
	],
	"accessors":[
		{
			"bufferView":0,
			"componentType":5126,
			"count":18176,
			"max":[
				28.095335006713867,
				17.6294002532959,
				7.022558689117432
			],
			"min":[
				-45.4730339050293,
				-12.719006538391113,
				-7.022562026977539
			],
			"type":"VEC3"
		},
		{
			"bufferView":1,
			"componentType":5126,
			"count":18176,
			"type":"VEC3"
		},
		{
			"bufferView":2,
			"componentType":5126,
			"count":18176,
			"type":"VEC2"
		},
		{
			"bufferView":3,
			"componentType":5123,
			"count":27264,
			"type":"SCALAR"
		}
	],
	"bufferViews":[
		{
			"buffer":0,
			"byteLength":218112,
			"byteOffset":0,
			"target":34962
		},
		{
			"buffer":0,
			"byteLength":218112,
			"byteOffset":218112,
			"target":34962
		},
		{
			"buffer":0,
			"byteLength":145408,
			"byteOffset":436224,
			"target":34962
		},
		{
			"buffer":0,
			"byteLength":54528,
			"byteOffset":581632,
			"target":34963
		}
	],
	"samplers":[
		{
			"magFilter":9729,
			"minFilter":9987
		}
	],
	"buffers":[
		{
			"byteLength":636160,
			"uri":"disco_tube1.bin"
		}
	]
}
