{
	"asset":{
		"generator":"Khronos glTF Blender I/O v3.6.28",
		"version":"2.0"
	},
	"scene":0,
	"scenes":[
		{
			"name":"Scene",
			"nodes":[
				0,
				1,
				2,
				3,
				4,
				5,
				6,
				7,
				8,
				9,
				10,
				11
			]
		}
	],
	"nodes":[
		{
			"mesh":0,
			"name":"Platform1-col",
			"translation":[
				0.516883134841919,
				0,
				0
			]
		},
		{
			"mesh":1,
			"name":"Ramp-col",
			"translation":[
				0.516883134841919,
				0,
				0
			]
		},
		{
			"mesh":2,
			"name":"Platform2-col",
			"translation":[
				0.516883134841919,
				0,
				0
			]
		},
		{
			"mesh":3,
			"name":"Gate-col",
			"translation":[
				0,
				-34.62896728515625,
				118.02538299560547
			]
		},
		{
			"mesh":4,
			"name":"Platform3-col",
			"translation":[
				0,
				-34.62896728515625,
				118.02538299560547
			]
		},
		{
			"mesh":5,
			"name":"Funnel-col",
			"rotation":[
				0,
				-0.004188179038465023,
				0,
				0.9999912977218628
			],
			"scale":[
				1.4492413997650146,
				1.4492413997650146,
				1.4492413997650146
			],
			"translation":[
				-16.6451416015625,
				-57.68962097167969,
				-79.14936065673828
			]
		},
		{
			"mesh":6,
			"name":"Cube-col.001",
			"translation":[
				150.53207397460938,
				-34.598548889160156,
				603.6444702148438
			]
		},
		{
			"mesh":7,
			"name":"Cube-col.002",
			"translation":[
				30.075241088867188,
				-34.53778076171875,
				347.01220703125
			]
		},
		{
			"mesh":8,
			"name":"Cube-col.003",
			"translation":[
				150.53207397460938,
				-34.598548889160156,
				847.1838989257812
			]
		},
		{
			"mesh":9,
			"name":"Cube-col.004",
			"translation":[
				150.53207397460938,
				-34.598548889160156,
				1108.4854736328125
			]
		},
		{
			"mesh":10,
			"name":"Billboard1-col",
			"translation":[
				0,
				-35.90724182128906,
				186.72134399414062
			]
		},
		{
			"mesh":11,
			"name":"Billboard2-col",
			"translation":[
				0,
				-35.90724182128906,
				450.0869140625
			]
		}
	],
	"materials":[
		{
			"doubleSided":true,
			"name":"Bricks.001",
			"pbrMetallicRoughness":{
				"baseColorTexture":{
					"index":0
				},
				"metallicFactor":0,
				"roughnessFactor":0.5
			}
		},
		{
			"doubleSided":true,
			"name":"Bricks",
			"pbrMetallicRoughness":{
				"baseColorTexture":{
					"index":1
				},
				"metallicFactor":0,
				"roughnessFactor":0.5
			}
		},
		{
			"doubleSided":true,
			"name":"Material.004",
			"pbrMetallicRoughness":{
				"baseColorTexture":{
					"index":2
				},
				"metallicFactor":0,
				"roughnessFactor":0.5
			}
		},
		{
			"doubleSided":true,
			"name":"BrickSpeed",
			"pbrMetallicRoughness":{
				"baseColorTexture":{
					"index":3
				},
				"metallicFactor":0,
				"roughnessFactor":0.5
			}
		},
		{
			"doubleSided":true,
			"name":"Material.001",
			"pbrMetallicRoughness":{
				"baseColorTexture":{
					"index":4
				},
				"metallicFactor":0,
				"roughnessFactor":0.5
			}
		},
		{
			"doubleSided":true,
			"name":"Material.003",
			"pbrMetallicRoughness":{
				"baseColorTexture":{
					"index":5
				},
				"metallicFactor":0,
				"roughnessFactor":0.5
			}
		},
		{
			"alphaMode":"BLEND",
			"doubleSided":true,
			"name":"Material.002",
			"pbrMetallicRoughness":{
				"baseColorFactor":[
					1,
					1,
					1,
					0.32374101877212524
				],
				"baseColorTexture":{
					"index":6
				},
				"metallicFactor":0,
				"roughnessFactor":0.5
			}
		},
		{
			"doubleSided":true,
			"name":"Material.010",
			"pbrMetallicRoughness":{
				"baseColorTexture":{
					"index":7
				},
				"metallicFactor":0,
				"roughnessFactor":0.5
			}
		},
		{
			"doubleSided":true,
			"name":"Material.011",
			"pbrMetallicRoughness":{
				"baseColorTexture":{
					"index":8
				},
				"metallicFactor":0,
				"roughnessFactor":0.5
			}
		},
		{
			"doubleSided":true,
			"name":"Material.012",
			"pbrMetallicRoughness":{
				"baseColorTexture":{
					"index":9
				},
				"metallicFactor":0,
				"roughnessFactor":0.5
			}
		},
		{
			"doubleSided":true,
			"name":"Material.013",
			"pbrMetallicRoughness":{
				"baseColorTexture":{
					"index":10
				},
				"metallicFactor":0,
				"roughnessFactor":0.5
			}
		},
		{
			"doubleSided":true,
			"name":"Billboard.004",
			"pbrMetallicRoughness":{
				"baseColorTexture":{
					"index":11
				},
				"metallicFactor":0,
				"roughnessFactor":0.5
			}
		},
		{
			"doubleSided":true,
			"name":"Billboard.002",
			"pbrMetallicRoughness":{
				"baseColorTexture":{
					"index":12
				},
				"metallicFactor":0,
				"roughnessFactor":0.5
			}
		}
	],
	"meshes":[
		{
			"name":"Plane",
			"primitives":[
				{
					"attributes":{
						"POSITION":0,
						"NORMAL":1,
						"TEXCOORD_0":2
					},
					"indices":3,
					"material":0
				}
			]
		},
		{
			"name":"Cylinder",
			"primitives":[
				{
					"attributes":{
						"POSITION":4,
						"NORMAL":5,
						"TEXCOORD_0":6
					},
					"indices":7,
					"material":1
				}
			]
		},
		{
			"name":"Plane.001",
			"primitives":[
				{
					"attributes":{
						"POSITION":8,
						"NORMAL":9,
						"TEXCOORD_0":10
					},
					"indices":11,
					"material":2
				},
				{
					"attributes":{
						"POSITION":12,
						"NORMAL":13,
						"TEXCOORD_0":14
					},
					"indices":15,
					"material":3
				}
			]
		},
		{
			"name":"Cube.002",
			"primitives":[
				{
					"attributes":{
						"POSITION":16,
						"NORMAL":17,
						"TEXCOORD_0":18
					},
					"indices":19,
					"material":4
				}
			]
		},
		{
			"name":"Plane.002",
			"primitives":[
				{
					"attributes":{
						"POSITION":20,
						"NORMAL":21,
						"TEXCOORD_0":22
					},
					"indices":23,
					"material":5
				}
			]
		},
		{
			"name":"Cylinder.001",
			"primitives":[
				{
					"attributes":{
						"POSITION":24,
						"NORMAL":25,
						"TEXCOORD_0":26
					},
					"indices":27,
					"material":6
				}
			]
		},
		{
			"name":"Cube.007",
			"primitives":[
				{
					"attributes":{
						"POSITION":28,
						"NORMAL":29,
						"TEXCOORD_0":30
					},
					"indices":31,
					"material":7
				}
			]
		},
		{
			"name":"Cube.008",
			"primitives":[
				{
					"attributes":{
						"POSITION":32,
						"NORMAL":33,
						"TEXCOORD_0":34
					},
					"indices":35,
					"material":8
				}
			]
		},
		{
			"name":"Cube.009",
			"primitives":[
				{
					"attributes":{
						"POSITION":36,
						"NORMAL":37,
						"TEXCOORD_0":38
					},
					"indices":31,
					"material":9
				}
			]
		},
		{
			"name":"Cube.010",
			"primitives":[
				{
					"attributes":{
						"POSITION":39,
						"NORMAL":40,
						"TEXCOORD_0":41
					},
					"indices":31,
					"material":10
				}
			]
		},
		{
			"name":"Cube.001",
			"primitives":[
				{
					"attributes":{
						"POSITION":42,
						"NORMAL":43,
						"TEXCOORD_0":44
					},
					"indices":45,
					"material":11
				}
			]
		},
		{
			"name":"Cube.003",
			"primitives":[
				{
					"attributes":{
						"POSITION":46,
						"NORMAL":47,
						"TEXCOORD_0":48
					},
					"indices":45,
					"material":12
				}
			]
		}
	],
	"textures":[
		{
			"sampler":0,
			"source":0
		},
		{
			"sampler":0,
			"source":0
		},
		{
			"sampler":0,
			"source":0
		},
		{
			"sampler":0,
			"source":1
		},
		{
			"sampler":0,
			"source":0
		},
		{
			"sampler":0,
			"source":0
		},
		{
			"sampler":0,
			"source":2
		},
		{
			"sampler":0,
			"source":3
		},
		{
			"sampler":0,
			"source":3
		},
		{
			"sampler":0,
			"source":3
		},
		{
			"sampler":0,
			"source":3
		},
		{
			"sampler":0,
			"source":4
		},
		{
			"sampler":0,
			"source":4
		}
	],
	"images":[
		{
			"mimeType":"image/png",
			"name":"Tutshngl",
			"uri":"Tutshngl.png"
		},
		{
			"mimeType":"image/png",
			"name":"n_tutsh",
			"uri":"n_tutsh.png"
		},
		{
			"mimeType":"image/png",
			"name":"freeze",
			"uri":"freeze.png"
		},
		{
			"mimeType":"image/png",
			"name":"BETON",
			"uri":"BETON.png"
		},
		{
			"mimeType":"image/png",
			"name":"balls",
			"uri":"balls.png"
		}
	],
	"accessors":[
		{
			"bufferView":0,
			"componentType":5126,
			"count":110,
			"max":[
				4.745943069458008,
				3.1342644691467285,
				4.578985214233398
			],
			"min":[
				-6.646848678588867,
				-2.9690074920654297,
				-38.908447265625
			],
			"type":"VEC3"
		},
		{
			"bufferView":1,
			"componentType":5126,
			"count":110,
			"type":"VEC3"
		},
		{
			"bufferView":2,
			"componentType":5126,
			"count":110,
			"type":"VEC2"
		},
		{
			"bufferView":3,
			"componentType":5123,
			"count":186,
			"type":"SCALAR"
		},
		{
			"bufferView":4,
			"componentType":5126,
			"count":6626,
			"max":[
				33.65330123901367,
				8.148127555847168,
				-27.61054039001465
			],
			"min":[
				-2.9006357192993164,
				-2.3021979331970215,
				-55.2216911315918
			],
			"type":"VEC3"
		},
		{
			"bufferView":5,
			"componentType":5126,
			"count":6626,
			"type":"VEC3"
		},
		{
			"bufferView":6,
			"componentType":5126,
			"count":6626,
			"type":"VEC2"
		},
		{
			"bufferView":7,
			"componentType":5123,
			"count":10062,
			"type":"SCALAR"
		},
		{
			"bufferView":8,
			"componentType":5126,
			"count":108,
			"max":[
				37.60939025878906,
				29.775169372558594,
				54.45937728881836
			],
			"min":[
				25.876598358154297,
				-5.172287940979004,
				-29.68482780456543
			],
			"type":"VEC3"
		},
		{
			"bufferView":9,
			"componentType":5126,
			"count":108,
			"type":"VEC3"
		},
		{
			"bufferView":10,
			"componentType":5126,
			"count":108,
			"type":"VEC2"
		},
		{
			"bufferView":11,
			"componentType":5123,
			"count":174,
			"type":"SCALAR"
		},
		{
			"bufferView":12,
			"componentType":5126,
			"count":4,
			"max":[
				36.369388580322266,
				27.736690521240234,
				53.893863677978516
			],
			"min":[
				27.116596221923828,
				-1.3019721508026123,
				17.363035202026367
			],
			"type":"VEC3"
		},
		{
			"bufferView":13,
			"componentType":5126,
			"count":4,
			"type":"VEC3"
		},
		{
			"bufferView":14,
			"componentType":5126,
			"count":4,
			"type":"VEC2"
		},
		{
			"bufferView":15,
			"componentType":5123,
			"count":6,
			"type":"SCALAR"
		},
		{
			"bufferView":16,
			"componentType":5126,
			"count":56,
			"max":[
				156.4215850830078,
				4.760876655578613,
				378.5103454589844
			],
			"min":[
				144.9642333984375,
				-2.2333993911743164,
				375.9806213378906
			],
			"type":"VEC3"
		},
		{
			"bufferView":17,
			"componentType":5126,
			"count":56,
			"type":"VEC3"
		},
		{
			"bufferView":18,
			"componentType":5126,
			"count":56,
			"type":"VEC2"
		},
		{
			"bufferView":19,
			"componentType":5123,
			"count":96,
			"type":"SCALAR"
		},
		{
			"bufferView":20,
			"componentType":5126,
			"count":132,
			"max":[
				162.9278106689453,
				2.356353998184204,
				1092.4320068359375
			],
			"min":[
				17.469711303710938,
				-4.455619812011719,
				220.38026428222656
			],
			"type":"VEC3"
		},
		{
			"bufferView":21,
			"componentType":5126,
			"count":132,
			"type":"VEC3"
		},
		{
			"bufferView":22,
			"componentType":5126,
			"count":132,
			"type":"VEC2"
		},
		{
			"bufferView":23,
			"componentType":5123,
			"count":240,
			"type":"SCALAR"
		},
		{
			"bufferView":24,
			"componentType":5126,
			"count":8192,
			"max":[
				44.59609603881836,
				83.33572387695312,
				297.6949157714844
			],
			"min":[
				25.24880599975586,
				25.047809600830078,
				244.59768676757812
			],
			"type":"VEC3"
		},
		{
			"bufferView":25,
			"componentType":5126,
			"count":8192,
			"type":"VEC3"
		},
		{
			"bufferView":26,
			"componentType":5126,
			"count":8192,
			"type":"VEC2"
		},
		{
			"bufferView":27,
			"componentType":5123,
			"count":12288,
			"type":"SCALAR"
		},
		{
			"bufferView":28,
			"componentType":5126,
			"count":24,
			"max":[
				10.17393970489502,
				2.3240251541137695,
				-2.5
			],
			"min":[
				-11.149493217468262,
				-2.3360793590545654,
				-7.500526428222656
			],
			"type":"VEC3"
		},
		{
			"bufferView":29,
			"componentType":5126,
			"count":24,
			"type":"VEC3"
		},
		{
			"bufferView":30,
			"componentType":5126,
			"count":24,
			"type":"VEC2"
		},
		{
			"bufferView":31,
			"componentType":5123,
			"count":36,
			"type":"SCALAR"
		},
		{
			"bufferView":32,
			"componentType":5126,
			"count":28,
			"max":[
				6.537274360656738,
				4.950016021728516,
				6.196161270141602
			],
			"min":[
				-6.823582649230957,
				-2.3360793590545654,
				-6.830604553222656
			],
			"type":"VEC3"
		},
		{
			"bufferView":33,
			"componentType":5126,
			"count":28,
			"type":"VEC3"
		},
		{
			"bufferView":34,
			"componentType":5126,
			"count":28,
			"type":"VEC2"
		},
		{
			"bufferView":35,
			"componentType":5123,
			"count":48,
			"type":"SCALAR"
		},
		{
			"bufferView":36,
			"componentType":5126,
			"count":24,
			"max":[
				10.17393970489502,
				2.3240251541137695,
				-2.5
			],
			"min":[
				-11.149493217468262,
				-2.3360793590545654,
				-7.500526428222656
			],
			"type":"VEC3"
		},
		{
			"bufferView":37,
			"componentType":5126,
			"count":24,
			"type":"VEC3"
		},
		{
			"bufferView":38,
			"componentType":5126,
			"count":24,
			"type":"VEC2"
		},
		{
			"bufferView":39,
			"componentType":5126,
			"count":24,
			"max":[
				10.17393970489502,
				2.3240251541137695,
				-2.5
			],
			"min":[
				-11.149493217468262,
				-2.3360793590545654,
				-7.500526428222656
			],
			"type":"VEC3"
		},
		{
			"bufferView":40,
			"componentType":5126,
			"count":24,
			"type":"VEC3"
		},
		{
			"bufferView":41,
			"componentType":5126,
			"count":24,
			"type":"VEC2"
		},
		{
			"bufferView":42,
			"componentType":5126,
			"count":114,
			"max":[
				160.64939880371094,
				21.307796478271484,
				525.5509643554688
			],
			"min":[
				139.576171875,
				-2.4221529960632324,
				522.1996459960938
			],
			"type":"VEC3"
		},
		{
			"bufferView":43,
			"componentType":5126,
			"count":114,
			"type":"VEC3"
		},
		{
			"bufferView":44,
			"componentType":5126,
			"count":114,
			"type":"VEC2"
		},
		{
			"bufferView":45,
			"componentType":5123,
			"count":216,
			"type":"SCALAR"
		},
		{
			"bufferView":46,
			"componentType":5126,
			"count":114,
			"max":[
				160.64939880371094,
				21.307796478271484,
				525.5509643554688
			],
			"min":[
				139.576171875,
				-2.4221529960632324,
				522.1996459960938
			],
			"type":"VEC3"
		},
		{
			"bufferView":47,
			"componentType":5126,
			"count":114,
			"type":"VEC3"
		},
		{
			"bufferView":48,
			"componentType":5126,
			"count":114,
			"type":"VEC2"
		}
	],
	"bufferViews":[
		{
			"buffer":0,
			"byteLength":1320,
			"byteOffset":0,
			"target":34962
		},
		{
			"buffer":0,
			"byteLength":1320,
			"byteOffset":1320,
			"target":34962
		},
		{
			"buffer":0,
			"byteLength":880,
			"byteOffset":2640,
			"target":34962
		},
		{
			"buffer":0,
			"byteLength":372,
			"byteOffset":3520,
			"target":34963
		},
		{
			"buffer":0,
			"byteLength":79512,
			"byteOffset":3892,
			"target":34962
		},
		{
			"buffer":0,
			"byteLength":79512,
			"byteOffset":83404,
			"target":34962
		},
		{
			"buffer":0,
			"byteLength":53008,
			"byteOffset":162916,
			"target":34962
		},
		{
			"buffer":0,
			"byteLength":20124,
			"byteOffset":215924,
			"target":34963
		},
		{
			"buffer":0,
			"byteLength":1296,
			"byteOffset":236048,
			"target":34962
		},
		{
			"buffer":0,
			"byteLength":1296,
			"byteOffset":237344,
			"target":34962
		},
		{
			"buffer":0,
			"byteLength":864,
			"byteOffset":238640,
			"target":34962
		},
		{
			"buffer":0,
			"byteLength":348,
			"byteOffset":239504,
			"target":34963
		},
		{
			"buffer":0,
			"byteLength":48,
			"byteOffset":239852,
			"target":34962
		},
		{
			"buffer":0,
			"byteLength":48,
			"byteOffset":239900,
			"target":34962
		},
		{
			"buffer":0,
			"byteLength":32,
			"byteOffset":239948,
			"target":34962
		},
		{
			"buffer":0,
			"byteLength":12,
			"byteOffset":239980,
			"target":34963
		},
		{
			"buffer":0,
			"byteLength":672,
			"byteOffset":239992,
			"target":34962
		},
		{
			"buffer":0,
			"byteLength":672,
			"byteOffset":240664,
			"target":34962
		},
		{
			"buffer":0,
			"byteLength":448,
			"byteOffset":241336,
			"target":34962
		},
		{
			"buffer":0,
			"byteLength":192,
			"byteOffset":241784,
			"target":34963
		},
		{
			"buffer":0,
			"byteLength":1584,
			"byteOffset":241976,
			"target":34962
		},
		{
			"buffer":0,
			"byteLength":1584,
			"byteOffset":243560,
			"target":34962
		},
		{
			"buffer":0,
			"byteLength":1056,
			"byteOffset":245144,
			"target":34962
		},
		{
			"buffer":0,
			"byteLength":480,
			"byteOffset":246200,
			"target":34963
		},
		{
			"buffer":0,
			"byteLength":98304,
			"byteOffset":246680,
			"target":34962
		},
		{
			"buffer":0,
			"byteLength":98304,
			"byteOffset":344984,
			"target":34962
		},
		{
			"buffer":0,
			"byteLength":65536,
			"byteOffset":443288,
			"target":34962
		},
		{
			"buffer":0,
			"byteLength":24576,
			"byteOffset":508824,
			"target":34963
		},
		{
			"buffer":0,
			"byteLength":288,
			"byteOffset":533400,
			"target":34962
		},
		{
			"buffer":0,
			"byteLength":288,
			"byteOffset":533688,
			"target":34962
		},
		{
			"buffer":0,
			"byteLength":192,
			"byteOffset":533976,
			"target":34962
		},
		{
			"buffer":0,
			"byteLength":72,
			"byteOffset":534168,
			"target":34963
		},
		{
			"buffer":0,
			"byteLength":336,
			"byteOffset":534240,
			"target":34962
		},
		{
			"buffer":0,
			"byteLength":336,
			"byteOffset":534576,
			"target":34962
		},
		{
			"buffer":0,
			"byteLength":224,
			"byteOffset":534912,
			"target":34962
		},
		{
			"buffer":0,
			"byteLength":96,
			"byteOffset":535136,
			"target":34963
		},
		{
			"buffer":0,
			"byteLength":288,
			"byteOffset":535232,
			"target":34962
		},
		{
			"buffer":0,
			"byteLength":288,
			"byteOffset":535520,
			"target":34962
		},
		{
			"buffer":0,
			"byteLength":192,
			"byteOffset":535808,
			"target":34962
		},
		{
			"buffer":0,
			"byteLength":288,
			"byteOffset":536000,
			"target":34962
		},
		{
			"buffer":0,
			"byteLength":288,
			"byteOffset":536288,
			"target":34962
		},
		{
			"buffer":0,
			"byteLength":192,
			"byteOffset":536576,
			"target":34962
		},
		{
			"buffer":0,
			"byteLength":1368,
			"byteOffset":536768,
			"target":34962
		},
		{
			"buffer":0,
			"byteLength":1368,
			"byteOffset":538136,
			"target":34962
		},
		{
			"buffer":0,
			"byteLength":912,
			"byteOffset":539504,
			"target":34962
		},
		{
			"buffer":0,
			"byteLength":432,
			"byteOffset":540416,
			"target":34963
		},
		{
			"buffer":0,
			"byteLength":1368,
			"byteOffset":540848,
			"target":34962
		},
		{
			"buffer":0,
			"byteLength":1368,
			"byteOffset":542216,
			"target":34962
		},
		{
			"buffer":0,
			"byteLength":912,
			"byteOffset":543584,
			"target":34962
		}
	],
	"samplers":[
		{
			"magFilter":9729,
			"minFilter":9987
		}
	],
	"buffers":[
		{
			"byteLength":544496,
			"uri":"chase.bin"
		}
	]
}
