{
	"asset":{
		"generator":"Khronos glTF Blender I/O v3.6.28",
		"version":"2.0"
	},
	"scene":0,
	"scenes":[
		{
			"name":"Scene",
			"nodes":[
				0,
				1,
				2,
				3,
				4
			]
		}
	],
	"nodes":[
		{
			"mesh":0,
			"name":"Plane1-col",
			"translation":[
				16.133745193481445,
				-4.9765448570251465,
				-0.8600921630859375
			]
		},
		{
			"mesh":1,
			"name":"Ramp-col",
			"translation":[
				15.226909637451172,
				-4.9765448570251465,
				-12.51516056060791
			]
		},
		{
			"mesh":2,
			"name":"Plane2-col",
			"scale":[
				0.9206174612045288,
				0.9206174612045288,
				0.9206174612045288
			],
			"translation":[
				18.23120880126953,
				-7.4045891761779785,
				-13.581319808959961
			]
		},
		{
			"mesh":3,
			"name":"Sphere-col",
			"rotation":[
				-0.0002700604381971061,
				0.0009825981687754393,
				-0.005244238302111626,
				0.9999858140945435
			],
			"scale":[
				1.7512364387512207,
				1.7512365579605103,
				1.7512366771697998
			],
			"translation":[
				30.239330291748047,
				-46.47124481201172,
				-394.44146728515625
			]
		},
		{
			"mesh":4,
			"name":"Gate-col",
			"rotation":[
				0,
				0,
				-0.11472965031862259,
				0.9933967590332031
			],
			"scale":[
				1.1649394035339355,
				1.1649394035339355,
				1.164939284324646
			],
			"translation":[
				57.59728240966797,
				-10.407893180847168,
				-14.416044235229492
			]
		}
	],
	"materials":[
		{
			"doubleSided":true,
			"name":"Material.001",
			"pbrMetallicRoughness":{
				"baseColorTexture":{
					"index":0
				},
				"metallicFactor":0,
				"roughnessFactor":0.10000000149011612
			}
		},
		{
			"alphaMode":"BLEND",
			"doubleSided":true,
			"name":"Material.002",
			"pbrMetallicRoughness":{
				"baseColorFactor":[
					1,
					1,
					1,
					0.5
				],
				"baseColorTexture":{
					"index":1
				},
				"metallicFactor":0,
				"roughnessFactor":0
			}
		},
		{
			"doubleSided":true,
			"name":"Material.003",
			"pbrMetallicRoughness":{
				"baseColorTexture":{
					"index":2
				},
				"metallicFactor":0,
				"roughnessFactor":0.30000001192092896
			}
		},
		{
			"doubleSided":true,
			"name":"Material.004",
			"pbrMetallicRoughness":{
				"baseColorTexture":{
					"index":3
				},
				"metallicFactor":0,
				"roughnessFactor":0.10000000149011612
			}
		},
		{
			"alphaMode":"BLEND",
			"doubleSided":true,
			"name":"Material.006",
			"pbrMetallicRoughness":{
				"baseColorFactor":[
					1,
					1,
					1,
					0.5
				],
				"baseColorTexture":{
					"index":4
				},
				"metallicFactor":0,
				"roughnessFactor":0
			}
		},
		{
			"doubleSided":true,
			"name":"Material.005",
			"pbrMetallicRoughness":{
				"baseColorTexture":{
					"index":5
				},
				"metallicFactor":0,
				"roughnessFactor":0.10000000149011612
			}
		},
		{
			"doubleSided":true,
			"name":"Material",
			"pbrMetallicRoughness":{
				"baseColorTexture":{
					"index":6
				},
				"metallicFactor":0,
				"roughnessFactor":0.10000000149011612
			}
		}
	],
	"meshes":[
		{
			"name":"Plane",
			"primitives":[
				{
					"attributes":{
						"POSITION":0,
						"NORMAL":1,
						"TEXCOORD_0":2
					},
					"indices":3,
					"material":0
				},
				{
					"attributes":{
						"POSITION":4,
						"NORMAL":5,
						"TEXCOORD_0":6
					},
					"indices":7,
					"material":1
				}
			]
		},
		{
			"name":"Cylinder.001",
			"primitives":[
				{
					"attributes":{
						"POSITION":8,
						"NORMAL":9,
						"TEXCOORD_0":10
					},
					"indices":11,
					"material":2
				}
			]
		},
		{
			"name":"Plane.001",
			"primitives":[
				{
					"attributes":{
						"POSITION":12,
						"NORMAL":13,
						"TEXCOORD_0":14
					},
					"indices":15,
					"material":3
				},
				{
					"attributes":{
						"POSITION":16,
						"NORMAL":17,
						"TEXCOORD_0":18
					},
					"indices":19,
					"material":4
				}
			]
		},
		{
			"name":"Sphere.002",
			"primitives":[
				{
					"attributes":{
						"POSITION":20,
						"NORMAL":21,
						"TEXCOORD_0":22
					},
					"indices":23,
					"material":5
				}
			]
		},
		{
			"name":"Cube.002",
			"primitives":[
				{
					"attributes":{
						"POSITION":24,
						"NORMAL":25,
						"TEXCOORD_0":26
					},
					"indices":27,
					"material":6
				}
			]
		}
	],
	"textures":[
		{
			"sampler":0,
			"source":0
		},
		{
			"sampler":0,
			"source":1
		},
		{
			"sampler":0,
			"source":2
		},
		{
			"sampler":0,
			"source":0
		},
		{
			"sampler":0,
			"source":1
		},
		{
			"sampler":0,
			"source":0
		},
		{
			"sampler":0,
			"source":0
		}
	],
	"images":[
		{
			"mimeType":"image/png",
			"name":"rrr",
			"uri":"rrr.png"
		},
		{
			"mimeType":"image/png",
			"name":"freeze",
			"uri":"freeze.png"
		},
		{
			"mimeType":"image/png",
			"name":"rrr",
			"uri":"rrr-1.png"
		}
	],
	"accessors":[
		{
			"bufferView":0,
			"componentType":5126,
			"count":241,
			"max":[
				51.17816925048828,
				2.7822601795196533,
				10.772957801818848
			],
			"min":[
				-22.819299697875977,
				-8.304329872131348,
				-59.78592300415039
			],
			"type":"VEC3"
		},
		{
			"bufferView":1,
			"componentType":5126,
			"count":241,
			"type":"VEC3"
		},
		{
			"bufferView":2,
			"componentType":5126,
			"count":241,
			"type":"VEC2"
		},
		{
			"bufferView":3,
			"componentType":5123,
			"count":420,
			"type":"SCALAR"
		},
		{
			"bufferView":4,
			"componentType":5126,
			"count":190,
			"max":[
				51.28069305419922,
				5.554932594299316,
				10.772957801818848
			],
			"min":[
				-22.98750114440918,
				-8.293889045715332,
				-59.952022552490234
			],
			"type":"VEC3"
		},
		{
			"bufferView":5,
			"componentType":5126,
			"count":190,
			"type":"VEC3"
		},
		{
			"bufferView":6,
			"componentType":5126,
			"count":190,
			"type":"VEC2"
		},
		{
			"bufferView":7,
			"componentType":5123,
			"count":312,
			"type":"SCALAR"
		},
		{
			"bufferView":8,
			"componentType":5126,
			"count":8968,
			"max":[
				51.29716873168945,
				-7.996039390563965,
				37.39596176147461
			],
			"min":[
				6.609233856201172,
				-39.8508415222168,
				26.91645050048828
			],
			"type":"VEC3"
		},
		{
			"bufferView":9,
			"componentType":5126,
			"count":8968,
			"type":"VEC3"
		},
		{
			"bufferView":10,
			"componentType":5126,
			"count":8968,
			"type":"VEC2"
		},
		{
			"bufferView":11,
			"componentType":5123,
			"count":13452,
			"type":"SCALAR"
		},
		{
			"bufferView":12,
			"componentType":5126,
			"count":56,
			"max":[
				37.2557373046875,
				-36.94303894042969,
				50.665382385253906
			],
			"min":[
				-27.541366577148438,
				-51.79142379760742,
				-396.9393005371094
			],
			"type":"VEC3"
		},
		{
			"bufferView":13,
			"componentType":5126,
			"count":56,
			"type":"VEC3"
		},
		{
			"bufferView":14,
			"componentType":5126,
			"count":56,
			"type":"VEC2"
		},
		{
			"bufferView":15,
			"componentType":5123,
			"count":96,
			"type":"SCALAR"
		},
		{
			"bufferView":16,
			"componentType":5126,
			"count":142,
			"max":[
				30.504179000854492,
				-34.773887634277344,
				50.665382385253906
			],
			"min":[
				-27.541366577148438,
				-51.79142379760742,
				-413.99969482421875
			],
			"type":"VEC3"
		},
		{
			"bufferView":17,
			"componentType":5126,
			"count":142,
			"type":"VEC3"
		},
		{
			"bufferView":18,
			"componentType":5126,
			"count":142,
			"type":"VEC2"
		},
		{
			"bufferView":19,
			"componentType":5123,
			"count":222,
			"type":"SCALAR"
		},
		{
			"bufferView":20,
			"componentType":5126,
			"count":119396,
			"max":[
				17.296920776367188,
				31.71578598022461,
				13.509974479675293
			],
			"min":[
				-18.929101943969727,
				-10.654830932617188,
				-20.76418113708496
			],
			"type":"VEC3"
		},
		{
			"bufferView":21,
			"componentType":5126,
			"count":119396,
			"type":"VEC3"
		},
		{
			"bufferView":22,
			"componentType":5126,
			"count":119396,
			"type":"VEC2"
		},
		{
			"bufferView":23,
			"componentType":5125,
			"count":179184,
			"type":"SCALAR"
		},
		{
			"bufferView":24,
			"componentType":5126,
			"count":56,
			"max":[
				8.603858947753906,
				4.506840229034424,
				1.1572893857955933
			],
			"min":[
				-0.99249267578125,
				-2.4544153213500977,
				-1.0142451524734497
			],
			"type":"VEC3"
		},
		{
			"bufferView":25,
			"componentType":5126,
			"count":56,
			"type":"VEC3"
		},
		{
			"bufferView":26,
			"componentType":5126,
			"count":56,
			"type":"VEC2"
		},
		{
			"bufferView":27,
			"componentType":5123,
			"count":96,
			"type":"SCALAR"
		}
	],
	"bufferViews":[
		{
			"buffer":0,
			"byteLength":2892,
			"byteOffset":0,
			"target":34962
		},
		{
			"buffer":0,
			"byteLength":2892,
			"byteOffset":2892,
			"target":34962
		},
		{
			"buffer":0,
			"byteLength":1928,
			"byteOffset":5784,
			"target":34962
		},
		{
			"buffer":0,
			"byteLength":840,
			"byteOffset":7712,
			"target":34963
		},
		{
			"buffer":0,
			"byteLength":2280,
			"byteOffset":8552,
			"target":34962
		},
		{
			"buffer":0,
			"byteLength":2280,
			"byteOffset":10832,
			"target":34962
		},
		{
			"buffer":0,
			"byteLength":1520,
			"byteOffset":13112,
			"target":34962
		},
		{
			"buffer":0,
			"byteLength":624,
			"byteOffset":14632,
			"target":34963
		},
		{
			"buffer":0,
			"byteLength":107616,
			"byteOffset":15256,
			"target":34962
		},
		{
			"buffer":0,
			"byteLength":107616,
			"byteOffset":122872,
			"target":34962
		},
		{
			"buffer":0,
			"byteLength":71744,
			"byteOffset":230488,
			"target":34962
		},
		{
			"buffer":0,
			"byteLength":26904,
			"byteOffset":302232,
			"target":34963
		},
		{
			"buffer":0,
			"byteLength":672,
			"byteOffset":329136,
			"target":34962
		},
		{
			"buffer":0,
			"byteLength":672,
			"byteOffset":329808,
			"target":34962
		},
		{
			"buffer":0,
			"byteLength":448,
			"byteOffset":330480,
			"target":34962
		},
		{
			"buffer":0,
			"byteLength":192,
			"byteOffset":330928,
			"target":34963
		},
		{
			"buffer":0,
			"byteLength":1704,
			"byteOffset":331120,
			"target":34962
		},
		{
			"buffer":0,
			"byteLength":1704,
			"byteOffset":332824,
			"target":34962
		},
		{
			"buffer":0,
			"byteLength":1136,
			"byteOffset":334528,
			"target":34962
		},
		{
			"buffer":0,
			"byteLength":444,
			"byteOffset":335664,
			"target":34963
		},
		{
			"buffer":0,
			"byteLength":1432752,
			"byteOffset":336108,
			"target":34962
		},
		{
			"buffer":0,
			"byteLength":1432752,
			"byteOffset":1768860,
			"target":34962
		},
		{
			"buffer":0,
			"byteLength":955168,
			"byteOffset":3201612,
			"target":34962
		},
		{
			"buffer":0,
			"byteLength":716736,
			"byteOffset":4156780,
			"target":34963
		},
		{
			"buffer":0,
			"byteLength":672,
			"byteOffset":4873516,
			"target":34962
		},
		{
			"buffer":0,
			"byteLength":672,
			"byteOffset":4874188,
			"target":34962
		},
		{
			"buffer":0,
			"byteLength":448,
			"byteOffset":4874860,
			"target":34962
		},
		{
			"buffer":0,
			"byteLength":192,
			"byteOffset":4875308,
			"target":34963
		}
	],
	"samplers":[
		{
			"magFilter":9729,
			"minFilter":9987
		}
	],
	"buffers":[
		{
			"byteLength":4875500,
			"uri":"lazermaze.bin"
		}
	]
}
