{
	"asset":{
		"generator":"Khronos glTF Blender I/O v3.6.28",
		"version":"2.0"
	},
	"extensionsUsed":[
		"KHR_materials_emissive_strength"
	],
	"scene":0,
	"scenes":[
		{
			"name":"Scene",
			"nodes":[
				0,
				1,
				2,
				3,
				4,
				5,
				6,
				7,
				8,
				9,
				10,
				11,
				12,
				13,
				14,
				15,
				16
			]
		}
	],
	"nodes":[
		{
			"mesh":0,
			"name":"Platform1-col"
		},
		{
			"mesh":1,
			"name":"Platform2-col"
		},
		{
			"mesh":2,
			"name":"Loop1-col"
		},
		{
			"mesh":3,
			"name":"Loop2-col"
		},
		{
			"mesh":4,
			"name":"Loop3-col"
		},
		{
			"mesh":5,
			"name":"StrLmp1_Post.001-col"
		},
		{
			"mesh":6,
			"name":"StrLmp1_Lamp.001-col"
		},
		{
			"mesh":7,
			"name":"StrLmp1_Post.002-col"
		},
		{
			"mesh":8,
			"name":"StrLmp1_Lamp.002-col"
		},
		{
			"mesh":9,
			"name":"StrLmp1_Post.003-col"
		},
		{
			"mesh":10,
			"name":"StrLmp1_Lamp.003-col"
		},
		{
			"mesh":11,
			"name":"StrLmp1_Post.004-col"
		},
		{
			"mesh":12,
			"name":"StrLmp1_Lamp.004-col"
		},
		{
			"mesh":13,
			"name":"StrLmp1_Post.002-col.001"
		},
		{
			"mesh":14,
			"name":"StrLmp1_Lamp.002-col.001"
		},
		{
			"mesh":15,
			"name":"StrLmp1_Post.002-col.002",
			"translation":[
				63.156044006347656,
				-3.3223042488098145,
				-60.846561431884766
			]
		},
		{
			"mesh":16,
			"name":"StrLmp1_Lamp.002-col.002",
			"translation":[
				63.156044006347656,
				-3.3223042488098145,
				-60.846561431884766
			]
		}
	],
	"materials":[
		{
			"doubleSided":true,
			"name":"Material",
			"pbrMetallicRoughness":{
				"baseColorTexture":{
					"index":0
				},
				"metallicFactor":0,
				"roughnessFactor":0.5
			}
		},
		{
			"doubleSided":true,
			"name":"Material.001",
			"pbrMetallicRoughness":{
				"baseColorTexture":{
					"index":1
				},
				"metallicFactor":0,
				"roughnessFactor":0.5
			}
		},
		{
			"alphaMode":"BLEND",
			"doubleSided":true,
			"emissiveFactor":[
				0.43854618072509766,
				0.08948508650064468,
				0.27267590165138245
			],
			"name":"Material.002",
			"pbrMetallicRoughness":{
				"baseColorFactor":[
					1,
					1,
					1,
					0.5
				],
				"baseColorTexture":{
					"index":2
				},
				"metallicFactor":0,
				"roughnessFactor":0
			}
		},
		{
			"alphaMode":"BLEND",
			"doubleSided":true,
			"emissiveFactor":[
				0.43854618072509766,
				0.08948508650064468,
				0.27267590165138245
			],
			"name":"Material.003",
			"pbrMetallicRoughness":{
				"baseColorFactor":[
					1,
					1,
					1,
					0.5
				],
				"baseColorTexture":{
					"index":3
				},
				"metallicFactor":0,
				"roughnessFactor":0
			}
		},
		{
			"alphaMode":"BLEND",
			"doubleSided":true,
			"emissiveFactor":[
				0.43854618072509766,
				0.08948508650064468,
				0.27267590165138245
			],
			"name":"Material.004",
			"pbrMetallicRoughness":{
				"baseColorFactor":[
					1,
					1,
					1,
					0.5
				],
				"baseColorTexture":{
					"index":4
				},
				"metallicFactor":0,
				"roughnessFactor":0
			}
		},
		{
			"doubleSided":true,
			"name":"M_Street_Lamp_1.001",
			"pbrMetallicRoughness":{
				"baseColorTexture":{
					"index":5
				},
				"metallicFactor":0,
				"roughnessFactor":0.5
			}
		},
		{
			"alphaMode":"BLEND",
			"doubleSided":true,
			"emissiveFactor":[
				1,
				0.8631572290471519,
				0.0015176346579033543
			],
			"extensions":{
				"KHR_materials_emissive_strength":{
					"emissiveStrength":1.0000001192092896
				}
			},
			"name":"Material.006",
			"pbrMetallicRoughness":{
				"baseColorFactor":[
					1,
					1,
					1,
					0.8621370196342468
				],
				"baseColorTexture":{
					"index":6
				},
				"metallicFactor":0,
				"roughnessFactor":0
			}
		},
		{
			"doubleSided":true,
			"name":"M_Street_Lamp_1.002",
			"pbrMetallicRoughness":{
				"baseColorTexture":{
					"index":7
				},
				"metallicFactor":0,
				"roughnessFactor":0.5
			}
		},
		{
			"alphaMode":"BLEND",
			"doubleSided":true,
			"emissiveFactor":[
				0.8970856070518494,
				0.8383427262306213,
				0.01228289119899273
			],
			"name":"Material.007",
			"pbrMetallicRoughness":{
				"baseColorFactor":[
					0.800000011920929,
					0.800000011920929,
					0.800000011920929,
					1
				],
				"metallicFactor":0,
				"roughnessFactor":0.5
			}
		}
	],
	"meshes":[
		{
			"name":"Plane.001",
			"primitives":[
				{
					"attributes":{
						"POSITION":0,
						"NORMAL":1,
						"TEXCOORD_0":2
					},
					"indices":3,
					"material":0
				}
			]
		},
		{
			"name":"Circle.005",
			"primitives":[
				{
					"attributes":{
						"POSITION":4,
						"NORMAL":5,
						"TEXCOORD_0":6
					},
					"indices":7,
					"material":1
				}
			]
		},
		{
			"name":"Cube.007",
			"primitives":[
				{
					"attributes":{
						"POSITION":8,
						"NORMAL":9,
						"TEXCOORD_0":10
					},
					"indices":11,
					"material":2
				}
			]
		},
		{
			"name":"Cube.001",
			"primitives":[
				{
					"attributes":{
						"POSITION":12,
						"NORMAL":13,
						"TEXCOORD_0":14
					},
					"indices":15,
					"material":3
				}
			]
		},
		{
			"name":"Cube.002",
			"primitives":[
				{
					"attributes":{
						"POSITION":16,
						"NORMAL":17,
						"TEXCOORD_0":18
					},
					"indices":19,
					"material":4
				}
			]
		},
		{
			"name":"Cylinder.001",
			"primitives":[
				{
					"attributes":{
						"POSITION":20,
						"NORMAL":21,
						"TEXCOORD_0":22
					},
					"indices":23,
					"material":5
				}
			]
		},
		{
			"name":"Sphere.001",
			"primitives":[
				{
					"attributes":{
						"POSITION":24,
						"NORMAL":25,
						"TEXCOORD_0":26
					},
					"indices":27,
					"material":6
				}
			]
		},
		{
			"name":"Cylinder.002",
			"primitives":[
				{
					"attributes":{
						"POSITION":28,
						"NORMAL":29,
						"TEXCOORD_0":30
					},
					"indices":31,
					"material":7
				}
			]
		},
		{
			"name":"Sphere.003",
			"primitives":[
				{
					"attributes":{
						"POSITION":32,
						"NORMAL":33,
						"TEXCOORD_0":34
					},
					"indices":35,
					"material":8
				}
			]
		},
		{
			"name":"Cylinder.003",
			"primitives":[
				{
					"attributes":{
						"POSITION":36,
						"NORMAL":37,
						"TEXCOORD_0":38
					},
					"indices":31,
					"material":7
				}
			]
		},
		{
			"name":"Sphere.004",
			"primitives":[
				{
					"attributes":{
						"POSITION":39,
						"NORMAL":40,
						"TEXCOORD_0":41
					},
					"indices":35,
					"material":8
				}
			]
		},
		{
			"name":"Cylinder.004",
			"primitives":[
				{
					"attributes":{
						"POSITION":42,
						"NORMAL":43,
						"TEXCOORD_0":44
					},
					"indices":31,
					"material":7
				}
			]
		},
		{
			"name":"Sphere.005",
			"primitives":[
				{
					"attributes":{
						"POSITION":45,
						"NORMAL":46,
						"TEXCOORD_0":47
					},
					"indices":35,
					"material":8
				}
			]
		},
		{
			"name":"Cylinder.005",
			"primitives":[
				{
					"attributes":{
						"POSITION":48,
						"NORMAL":49,
						"TEXCOORD_0":50
					},
					"indices":31,
					"material":7
				}
			]
		},
		{
			"name":"Sphere.006",
			"primitives":[
				{
					"attributes":{
						"POSITION":51,
						"NORMAL":52,
						"TEXCOORD_0":53
					},
					"indices":35,
					"material":8
				}
			]
		},
		{
			"name":"Cylinder.006",
			"primitives":[
				{
					"attributes":{
						"POSITION":54,
						"NORMAL":55,
						"TEXCOORD_0":56
					},
					"indices":31,
					"material":7
				}
			]
		},
		{
			"name":"Sphere.007",
			"primitives":[
				{
					"attributes":{
						"POSITION":57,
						"NORMAL":58,
						"TEXCOORD_0":59
					},
					"indices":35,
					"material":8
				}
			]
		}
	],
	"textures":[
		{
			"sampler":0,
			"source":0
		},
		{
			"sampler":0,
			"source":0
		},
		{
			"sampler":0,
			"source":1
		},
		{
			"sampler":0,
			"source":1
		},
		{
			"sampler":0,
			"source":1
		},
		{
			"sampler":0,
			"source":2
		},
		{
			"sampler":0,
			"source":1
		},
		{
			"sampler":0,
			"source":2
		}
	],
	"images":[
		{
			"mimeType":"image/png",
			"name":"Tutshngl",
			"uri":"Tutshngl.png"
		},
		{
			"mimeType":"image/png",
			"name":"puna",
			"uri":"puna.png"
		},
		{
			"mimeType":"image/png",
			"name":"BETON.BMP",
			"uri":"BETON_BMP.png"
		}
	],
	"accessors":[
		{
			"bufferView":0,
			"componentType":5126,
			"count":1842,
			"max":[
				5.208446025848389,
				17.20450210571289,
				3.4074501991271973
			],
			"min":[
				-33.61453628540039,
				-3.4976470470428467,
				-67.27738189697266
			],
			"type":"VEC3"
		},
		{
			"bufferView":1,
			"componentType":5126,
			"count":1842,
			"type":"VEC3"
		},
		{
			"bufferView":2,
			"componentType":5126,
			"count":1842,
			"type":"VEC2"
		},
		{
			"bufferView":3,
			"componentType":5123,
			"count":2934,
			"type":"SCALAR"
		},
		{
			"bufferView":4,
			"componentType":5126,
			"count":649,
			"max":[
				-40.9923210144043,
				19.191577911376953,
				14.561417579650879
			],
			"min":[
				-127.10982513427734,
				10.05220890045166,
				-123.1084213256836
			],
			"type":"VEC3"
		},
		{
			"bufferView":5,
			"componentType":5126,
			"count":649,
			"type":"VEC3"
		},
		{
			"bufferView":6,
			"componentType":5126,
			"count":649,
			"type":"VEC2"
		},
		{
			"bufferView":7,
			"componentType":5123,
			"count":1044,
			"type":"SCALAR"
		},
		{
			"bufferView":8,
			"componentType":5126,
			"count":571,
			"max":[
				-54.720550537109375,
				40.07925796508789,
				29.691471099853516
			],
			"min":[
				-65.51856994628906,
				10.871219635009766,
				0.2931809425354004
			],
			"type":"VEC3"
		},
		{
			"bufferView":9,
			"componentType":5126,
			"count":571,
			"type":"VEC3"
		},
		{
			"bufferView":10,
			"componentType":5126,
			"count":571,
			"type":"VEC2"
		},
		{
			"bufferView":11,
			"componentType":5123,
			"count":909,
			"type":"SCALAR"
		},
		{
			"bufferView":12,
			"componentType":5126,
			"count":575,
			"max":[
				-112.45862579345703,
				40.021995544433594,
				-47.377708435058594
			],
			"min":[
				-141.86331176757812,
				10.8495454788208,
				-58.41024398803711
			],
			"type":"VEC3"
		},
		{
			"bufferView":13,
			"componentType":5126,
			"count":575,
			"type":"VEC3"
		},
		{
			"bufferView":14,
			"componentType":5126,
			"count":575,
			"type":"VEC2"
		},
		{
			"bufferView":15,
			"componentType":5123,
			"count":909,
			"type":"SCALAR"
		},
		{
			"bufferView":16,
			"componentType":5126,
			"count":573,
			"max":[
				-54.75157928466797,
				40.07925796508789,
				-108.60060119628906
			],
			"min":[
				-65.54959869384766,
				10.871219635009766,
				-137.9989013671875
			],
			"type":"VEC3"
		},
		{
			"bufferView":17,
			"componentType":5126,
			"count":573,
			"type":"VEC3"
		},
		{
			"bufferView":18,
			"componentType":5126,
			"count":573,
			"type":"VEC2"
		},
		{
			"bufferView":19,
			"componentType":5123,
			"count":909,
			"type":"SCALAR"
		},
		{
			"bufferView":20,
			"componentType":5126,
			"count":12428,
			"max":[
				-57.10672378540039,
				23.425395965576172,
				-50.074615478515625
			],
			"min":[
				-63.34169006347656,
				16.795013427734375,
				-56.30958938598633
			],
			"type":"VEC3"
		},
		{
			"bufferView":21,
			"componentType":5126,
			"count":12428,
			"type":"VEC3"
		},
		{
			"bufferView":22,
			"componentType":5126,
			"count":12428,
			"type":"VEC2"
		},
		{
			"bufferView":23,
			"componentType":5123,
			"count":50304,
			"type":"SCALAR"
		},
		{
			"bufferView":24,
			"componentType":5126,
			"count":794,
			"max":[
				-57.31675338745117,
				29.21868133544922,
				-50.284664154052734
			],
			"min":[
				-63.13163375854492,
				23.38583755493164,
				-56.09953689575195
			],
			"type":"VEC3"
		},
		{
			"bufferView":25,
			"componentType":5126,
			"count":794,
			"type":"VEC3"
		},
		{
			"bufferView":26,
			"componentType":5126,
			"count":794,
			"type":"VEC2"
		},
		{
			"bufferView":27,
			"componentType":5123,
			"count":3360,
			"type":"SCALAR"
		},
		{
			"bufferView":28,
			"componentType":5126,
			"count":6448,
			"max":[
				-64.5888442993164,
				19.051513671875,
				-4.238492012023926
			],
			"min":[
				-65.63605499267578,
				13.391587257385254,
				-5.28570556640625
			],
			"type":"VEC3"
		},
		{
			"bufferView":29,
			"componentType":5126,
			"count":6448,
			"type":"VEC3"
		},
		{
			"bufferView":30,
			"componentType":5126,
			"count":6448,
			"type":"VEC2"
		},
		{
			"bufferView":31,
			"componentType":5123,
			"count":31248,
			"type":"SCALAR"
		},
		{
			"bufferView":32,
			"componentType":5126,
			"count":794,
			"max":[
				-63.98023223876953,
				21.319101333618164,
				-3.629871368408203
			],
			"min":[
				-66.24468994140625,
				19.04764747619629,
				-5.894325256347656
			],
			"type":"VEC3"
		},
		{
			"bufferView":33,
			"componentType":5126,
			"count":794,
			"type":"VEC3"
		},
		{
			"bufferView":34,
			"componentType":5126,
			"count":794,
			"type":"VEC2"
		},
		{
			"bufferView":35,
			"componentType":5123,
			"count":3360,
			"type":"SCALAR"
		},
		{
			"bufferView":36,
			"componentType":5126,
			"count":6448,
			"max":[
				-54.66318130493164,
				19.051513671875,
				-101.21973419189453
			],
			"min":[
				-55.71038818359375,
				13.391587257385254,
				-102.26693725585938
			],
			"type":"VEC3"
		},
		{
			"bufferView":37,
			"componentType":5126,
			"count":6448,
			"type":"VEC3"
		},
		{
			"bufferView":38,
			"componentType":5126,
			"count":6448,
			"type":"VEC2"
		},
		{
			"bufferView":39,
			"componentType":5126,
			"count":794,
			"max":[
				-54.054561614990234,
				21.319101333618164,
				-100.6111068725586
			],
			"min":[
				-56.319007873535156,
				19.04764747619629,
				-102.87555694580078
			],
			"type":"VEC3"
		},
		{
			"bufferView":40,
			"componentType":5126,
			"count":794,
			"type":"VEC3"
		},
		{
			"bufferView":41,
			"componentType":5126,
			"count":794,
			"type":"VEC2"
		},
		{
			"bufferView":42,
			"componentType":5126,
			"count":6448,
			"max":[
				-106.59986114501953,
				19.051515579223633,
				-57.50356674194336
			],
			"min":[
				-107.64705657958984,
				13.39158821105957,
				-58.5507698059082
			],
			"type":"VEC3"
		},
		{
			"bufferView":43,
			"componentType":5126,
			"count":6448,
			"type":"VEC3"
		},
		{
			"bufferView":44,
			"componentType":5126,
			"count":6448,
			"type":"VEC2"
		},
		{
			"bufferView":45,
			"componentType":5126,
			"count":794,
			"max":[
				-105.99124908447266,
				21.319103240966797,
				-56.89494323730469
			],
			"min":[
				-108.25569152832031,
				19.047651290893555,
				-59.159393310546875
			],
			"type":"VEC3"
		},
		{
			"bufferView":46,
			"componentType":5126,
			"count":794,
			"type":"VEC3"
		},
		{
			"bufferView":47,
			"componentType":5126,
			"count":794,
			"type":"VEC2"
		},
		{
			"bufferView":48,
			"componentType":5126,
			"count":6448,
			"max":[
				-64.5888442993164,
				19.051513671875,
				-4.238492012023926
			],
			"min":[
				-65.63605499267578,
				13.391587257385254,
				-5.28570556640625
			],
			"type":"VEC3"
		},
		{
			"bufferView":49,
			"componentType":5126,
			"count":6448,
			"type":"VEC3"
		},
		{
			"bufferView":50,
			"componentType":5126,
			"count":6448,
			"type":"VEC2"
		},
		{
			"bufferView":51,
			"componentType":5126,
			"count":794,
			"max":[
				-63.98023223876953,
				21.319101333618164,
				-3.629871368408203
			],
			"min":[
				-66.24468994140625,
				19.04764747619629,
				-5.894325256347656
			],
			"type":"VEC3"
		},
		{
			"bufferView":52,
			"componentType":5126,
			"count":794,
			"type":"VEC3"
		},
		{
			"bufferView":53,
			"componentType":5126,
			"count":794,
			"type":"VEC2"
		},
		{
			"bufferView":54,
			"componentType":5126,
			"count":6448,
			"max":[
				-64.5888442993164,
				19.051513671875,
				-4.238492012023926
			],
			"min":[
				-65.63605499267578,
				13.391587257385254,
				-5.28570556640625
			],
			"type":"VEC3"
		},
		{
			"bufferView":55,
			"componentType":5126,
			"count":6448,
			"type":"VEC3"
		},
		{
			"bufferView":56,
			"componentType":5126,
			"count":6448,
			"type":"VEC2"
		},
		{
			"bufferView":57,
			"componentType":5126,
			"count":794,
			"max":[
				-63.98023223876953,
				21.319101333618164,
				-3.629871368408203
			],
			"min":[
				-66.24468994140625,
				19.04764747619629,
				-5.894325256347656
			],
			"type":"VEC3"
		},
		{
			"bufferView":58,
			"componentType":5126,
			"count":794,
			"type":"VEC3"
		},
		{
			"bufferView":59,
			"componentType":5126,
			"count":794,
			"type":"VEC2"
		}
	],
	"bufferViews":[
		{
			"buffer":0,
			"byteLength":22104,
			"byteOffset":0,
			"target":34962
		},
		{
			"buffer":0,
			"byteLength":22104,
			"byteOffset":22104,
			"target":34962
		},
		{
			"buffer":0,
			"byteLength":14736,
			"byteOffset":44208,
			"target":34962
		},
		{
			"buffer":0,
			"byteLength":5868,
			"byteOffset":58944,
			"target":34963
		},
		{
			"buffer":0,
			"byteLength":7788,
			"byteOffset":64812,
			"target":34962
		},
		{
			"buffer":0,
			"byteLength":7788,
			"byteOffset":72600,
			"target":34962
		},
		{
			"buffer":0,
			"byteLength":5192,
			"byteOffset":80388,
			"target":34962
		},
		{
			"buffer":0,
			"byteLength":2088,
			"byteOffset":85580,
			"target":34963
		},
		{
			"buffer":0,
			"byteLength":6852,
			"byteOffset":87668,
			"target":34962
		},
		{
			"buffer":0,
			"byteLength":6852,
			"byteOffset":94520,
			"target":34962
		},
		{
			"buffer":0,
			"byteLength":4568,
			"byteOffset":101372,
			"target":34962
		},
		{
			"buffer":0,
			"byteLength":1818,
			"byteOffset":105940,
			"target":34963
		},
		{
			"buffer":0,
			"byteLength":6900,
			"byteOffset":107760,
			"target":34962
		},
		{
			"buffer":0,
			"byteLength":6900,
			"byteOffset":114660,
			"target":34962
		},
		{
			"buffer":0,
			"byteLength":4600,
			"byteOffset":121560,
			"target":34962
		},
		{
			"buffer":0,
			"byteLength":1818,
			"byteOffset":126160,
			"target":34963
		},
		{
			"buffer":0,
			"byteLength":6876,
			"byteOffset":127980,
			"target":34962
		},
		{
			"buffer":0,
			"byteLength":6876,
			"byteOffset":134856,
			"target":34962
		},
		{
			"buffer":0,
			"byteLength":4584,
			"byteOffset":141732,
			"target":34962
		},
		{
			"buffer":0,
			"byteLength":1818,
			"byteOffset":146316,
			"target":34963
		},
		{
			"buffer":0,
			"byteLength":149136,
			"byteOffset":148136,
			"target":34962
		},
		{
			"buffer":0,
			"byteLength":149136,
			"byteOffset":297272,
			"target":34962
		},
		{
			"buffer":0,
			"byteLength":99424,
			"byteOffset":446408,
			"target":34962
		},
		{
			"buffer":0,
			"byteLength":100608,
			"byteOffset":545832,
			"target":34963
		},
		{
			"buffer":0,
			"byteLength":9528,
			"byteOffset":646440,
			"target":34962
		},
		{
			"buffer":0,
			"byteLength":9528,
			"byteOffset":655968,
			"target":34962
		},
		{
			"buffer":0,
			"byteLength":6352,
			"byteOffset":665496,
			"target":34962
		},
		{
			"buffer":0,
			"byteLength":6720,
			"byteOffset":671848,
			"target":34963
		},
		{
			"buffer":0,
			"byteLength":77376,
			"byteOffset":678568,
			"target":34962
		},
		{
			"buffer":0,
			"byteLength":77376,
			"byteOffset":755944,
			"target":34962
		},
		{
			"buffer":0,
			"byteLength":51584,
			"byteOffset":833320,
			"target":34962
		},
		{
			"buffer":0,
			"byteLength":62496,
			"byteOffset":884904,
			"target":34963
		},
		{
			"buffer":0,
			"byteLength":9528,
			"byteOffset":947400,
			"target":34962
		},
		{
			"buffer":0,
			"byteLength":9528,
			"byteOffset":956928,
			"target":34962
		},
		{
			"buffer":0,
			"byteLength":6352,
			"byteOffset":966456,
			"target":34962
		},
		{
			"buffer":0,
			"byteLength":6720,
			"byteOffset":972808,
			"target":34963
		},
		{
			"buffer":0,
			"byteLength":77376,
			"byteOffset":979528,
			"target":34962
		},
		{
			"buffer":0,
			"byteLength":77376,
			"byteOffset":1056904,
			"target":34962
		},
		{
			"buffer":0,
			"byteLength":51584,
			"byteOffset":1134280,
			"target":34962
		},
		{
			"buffer":0,
			"byteLength":9528,
			"byteOffset":1185864,
			"target":34962
		},
		{
			"buffer":0,
			"byteLength":9528,
			"byteOffset":1195392,
			"target":34962
		},
		{
			"buffer":0,
			"byteLength":6352,
			"byteOffset":1204920,
			"target":34962
		},
		{
			"buffer":0,
			"byteLength":77376,
			"byteOffset":1211272,
			"target":34962
		},
		{
			"buffer":0,
			"byteLength":77376,
			"byteOffset":1288648,
			"target":34962
		},
		{
			"buffer":0,
			"byteLength":51584,
			"byteOffset":1366024,
			"target":34962
		},
		{
			"buffer":0,
			"byteLength":9528,
			"byteOffset":1417608,
			"target":34962
		},
		{
			"buffer":0,
			"byteLength":9528,
			"byteOffset":1427136,
			"target":34962
		},
		{
			"buffer":0,
			"byteLength":6352,
			"byteOffset":1436664,
			"target":34962
		},
		{
			"buffer":0,
			"byteLength":77376,
			"byteOffset":1443016,
			"target":34962
		},
		{
			"buffer":0,
			"byteLength":77376,
			"byteOffset":1520392,
			"target":34962
		},
		{
			"buffer":0,
			"byteLength":51584,
			"byteOffset":1597768,
			"target":34962
		},
		{
			"buffer":0,
			"byteLength":9528,
			"byteOffset":1649352,
			"target":34962
		},
		{
			"buffer":0,
			"byteLength":9528,
			"byteOffset":1658880,
			"target":34962
		},
		{
			"buffer":0,
			"byteLength":6352,
			"byteOffset":1668408,
			"target":34962
		},
		{
			"buffer":0,
			"byteLength":77376,
			"byteOffset":1674760,
			"target":34962
		},
		{
			"buffer":0,
			"byteLength":77376,
			"byteOffset":1752136,
			"target":34962
		},
		{
			"buffer":0,
			"byteLength":51584,
			"byteOffset":1829512,
			"target":34962
		},
		{
			"buffer":0,
			"byteLength":9528,
			"byteOffset":1881096,
			"target":34962
		},
		{
			"buffer":0,
			"byteLength":9528,
			"byteOffset":1890624,
			"target":34962
		},
		{
			"buffer":0,
			"byteLength":6352,
			"byteOffset":1900152,
			"target":34962
		}
	],
	"samplers":[
		{
			"magFilter":9729,
			"minFilter":9987
		}
	],
	"buffers":[
		{
			"byteLength":1906504,
			"uri":"loops.bin"
		}
	]
}
