{
	"asset":{
		"generator":"Khronos glTF Blender I/O v4.1.63",
		"version":"2.0"
	},
	"scene":0,
	"scenes":[
		{
			"name":"Scene",
			"nodes":[
				0
			]
		}
	],
	"nodes":[
		{
			"mesh":0,
			"name":"Plane-col"
		}
	],
	"materials":[
		{
			"doubleSided":true,
			"name":"Material.002",
			"pbrMetallicRoughness":{
				"baseColorTexture":{
					"index":0
				},
				"metallicFactor":0,
				"roughnessFactor":0.5
			}
		},
		{
			"alphaMode":"BLEND",
			"doubleSided":true,
			"name":"Material.004",
			"pbrMetallicRoughness":{
				"baseColorFactor":[
					1,
					1,
					1,
					0.4732620120048523
				],
				"baseColorTexture":{
					"index":1
				},
				"metallicFactor":0,
				"roughnessFactor":0.5
			}
		}
	],
	"meshes":[
		{
			"name":"Plane.001",
			"primitives":[
				{
					"attributes":{
						"POSITION":0,
						"NORMAL":1,
						"TEXCOORD_0":2
					},
					"indices":3,
					"material":0
				},
				{
					"attributes":{
						"POSITION":4,
						"NORMAL":5,
						"TEXCOORD_0":6
					},
					"indices":7,
					"material":1
				}
			]
		}
	],
	"textures":[
		{
			"sampler":0,
			"source":0
		},
		{
			"sampler":0,
			"source":1
		}
	],
	"images":[
		{
			"mimeType":"image/png",
			"name":"seko3",
			"uri":"seko3.png"
		},
		{
			"mimeType":"image/png",
			"name":"grid",
			"uri":"grid.png"
		}
	],
	"accessors":[
		{
			"bufferView":0,
			"componentType":5126,
			"count":8,
			"max":[
				3.651182174682617,
				-0.11335977911949158,
				3.651181936264038
			],
			"min":[
				-3.6511824131011963,
				-0.1554596722126007,
				-3.651181697845459
			],
			"type":"VEC3"
		},
		{
			"bufferView":1,
			"componentType":5126,
			"count":8,
			"type":"VEC3"
		},
		{
			"bufferView":2,
			"componentType":5126,
			"count":8,
			"type":"VEC2"
		},
		{
			"bufferView":3,
			"componentType":5123,
			"count":12,
			"type":"SCALAR"
		},
		{
			"bufferView":4,
			"componentType":5126,
			"count":44,
			"max":[
				3.651182174682617,
				0.13440972566604614,
				3.651181936264038
			],
			"min":[
				-3.6511824131011963,
				-0.1554596722126007,
				-3.651181697845459
			],
			"type":"VEC3"
		},
		{
			"bufferView":5,
			"componentType":5126,
			"count":44,
			"type":"VEC3"
		},
		{
			"bufferView":6,
			"componentType":5126,
			"count":44,
			"type":"VEC2"
		},
		{
			"bufferView":7,
			"componentType":5123,
			"count":72,
			"type":"SCALAR"
		}
	],
	"bufferViews":[
		{
			"buffer":0,
			"byteLength":96,
			"byteOffset":0,
			"target":34962
		},
		{
			"buffer":0,
			"byteLength":96,
			"byteOffset":96,
			"target":34962
		},
		{
			"buffer":0,
			"byteLength":64,
			"byteOffset":192,
			"target":34962
		},
		{
			"buffer":0,
			"byteLength":24,
			"byteOffset":256,
			"target":34963
		},
		{
			"buffer":0,
			"byteLength":528,
			"byteOffset":280,
			"target":34962
		},
		{
			"buffer":0,
			"byteLength":528,
			"byteOffset":808,
			"target":34962
		},
		{
			"buffer":0,
			"byteLength":352,
			"byteOffset":1336,
			"target":34962
		},
		{
			"buffer":0,
			"byteLength":144,
			"byteOffset":1688,
			"target":34963
		}
	],
	"samplers":[
		{
			"magFilter":9729,
			"minFilter":9987
		}
	],
	"buffers":[
		{
			"byteLength":1832,
			"uri":"bounce_simple.bin"
		}
	]
}
