{
	"asset":{
		"generator":"Khronos glTF Blender I/O v4.1.63",
		"version":"2.0"
	},
	"extensionsUsed":[
		"KHR_materials_specular"
	],
	"scene":0,
	"scenes":[
		{
			"name":"Scene",
			"nodes":[
				0,
				1,
				2,
				3,
				4,
				5,
				6
			]
		}
	],
	"nodes":[
		{
			"mesh":0,
			"name":"Plane1-col",
			"translation":[
				-2.7865853309631348,
				-2.041534662246704,
				-2.7613844871520996
			]
		},
		{
			"mesh":1,
			"name":"Plance4-col",
			"translation":[
				4.866138458251953,
				7.438294410705566,
				-1.2100540399551392
			]
		},
		{
			"mesh":2,
			"name":"Wing1-col",
			"rotation":[
				0,
				0,
				-0.7071068286895752,
				0.7071068286895752
			],
			"translation":[
				-2.7925772666931152,
				0.007502689957618713,
				-2.7605457305908203
			]
		},
		{
			"mesh":3,
			"name":"Plan2-col",
			"rotation":[
				0,
				-0.7071067094802856,
				0,
				0.7071068286895752
			],
			"translation":[
				-1.5623009204864502,
				0.815143346786499,
				-9.540910720825195
			]
		},
		{
			"mesh":4,
			"name":"Wing2-col",
			"rotation":[
				0.5,
				-0.4999999403953552,
				-0.5,
				0.5000000596046448
			],
			"translation":[
				-1.5631399154663086,
				2.864180564880371,
				-9.546902656555176
			]
		},
		{
			"mesh":5,
			"name":"Plane3-col",
			"rotation":[
				0,
				-1,
				0,
				7.549790126404332e-08
			],
			"translation":[
				5.822752475738525,
				2.8104794025421143,
				-8.796713829040527
			]
		},
		{
			"mesh":6,
			"name":"Wing3-col",
			"rotation":[
				0.7071068286895752,
				-0.7071068286895752,
				0,
				5.338509012631221e-08
			],
			"translation":[
				5.828744411468506,
				4.859516620635986,
				-8.797553062438965
			]
		}
	],
	"materials":[
		{
			"doubleSided":true,
			"name":"Material.002",
			"pbrMetallicRoughness":{
				"baseColorTexture":{
					"index":0
				},
				"metallicFactor":0,
				"roughnessFactor":0.5
			}
		},
		{
			"alphaMode":"BLEND",
			"doubleSided":true,
			"name":"Material.004",
			"pbrMetallicRoughness":{
				"baseColorFactor":[
					1,
					1,
					1,
					0.4732620120048523
				],
				"baseColorTexture":{
					"index":1
				},
				"metallicFactor":0,
				"roughnessFactor":0.5
			}
		},
		{
			"doubleSided":true,
			"name":"Material.003",
			"pbrMetallicRoughness":{
				"baseColorTexture":{
					"index":2
				},
				"metallicFactor":0,
				"roughnessFactor":0.5
			}
		},
		{
			"alphaMode":"BLEND",
			"doubleSided":true,
			"name":"Material.001",
			"pbrMetallicRoughness":{
				"baseColorFactor":[
					1,
					1,
					1,
					0.4732620120048523
				],
				"baseColorTexture":{
					"index":3
				},
				"metallicFactor":0,
				"roughnessFactor":0.5
			}
		},
		{
			"doubleSided":true,
			"extensions":{
				"KHR_materials_specular":{
					"specularFactor":0
				}
			},
			"name":"Metal",
			"pbrMetallicRoughness":{
				"baseColorTexture":{
					"index":4
				},
				"metallicFactor":0
			}
		},
		{
			"doubleSided":true,
			"extensions":{
				"KHR_materials_specular":{
					"specularFactor":0
				}
			},
			"name":"Material",
			"pbrMetallicRoughness":{
				"baseColorTexture":{
					"index":5
				},
				"metallicFactor":0
			}
		}
	],
	"meshes":[
		{
			"name":"Plane.001",
			"primitives":[
				{
					"attributes":{
						"POSITION":0,
						"NORMAL":1,
						"TEXCOORD_0":2
					},
					"indices":3,
					"material":0
				},
				{
					"attributes":{
						"POSITION":4,
						"NORMAL":5,
						"TEXCOORD_0":6
					},
					"indices":7,
					"material":1
				}
			]
		},
		{
			"name":"Plane.002",
			"primitives":[
				{
					"attributes":{
						"POSITION":8,
						"NORMAL":9,
						"TEXCOORD_0":10
					},
					"indices":11,
					"material":2
				},
				{
					"attributes":{
						"POSITION":12,
						"NORMAL":13,
						"TEXCOORD_0":14
					},
					"indices":7,
					"material":3
				}
			]
		},
		{
			"name":"Cylinder",
			"primitives":[
				{
					"attributes":{
						"POSITION":15,
						"NORMAL":16,
						"TEXCOORD_0":17
					},
					"indices":18,
					"material":4
				},
				{
					"attributes":{
						"POSITION":19,
						"NORMAL":20,
						"TEXCOORD_0":21
					},
					"indices":22,
					"material":5
				}
			]
		},
		{
			"name":"Plane.003",
			"primitives":[
				{
					"attributes":{
						"POSITION":23,
						"NORMAL":24,
						"TEXCOORD_0":25
					},
					"indices":3,
					"material":0
				},
				{
					"attributes":{
						"POSITION":26,
						"NORMAL":27,
						"TEXCOORD_0":28
					},
					"indices":7,
					"material":1
				}
			]
		},
		{
			"name":"Cylinder.001",
			"primitives":[
				{
					"attributes":{
						"POSITION":29,
						"NORMAL":30,
						"TEXCOORD_0":31
					},
					"indices":18,
					"material":4
				},
				{
					"attributes":{
						"POSITION":32,
						"NORMAL":33,
						"TEXCOORD_0":34
					},
					"indices":22,
					"material":5
				}
			]
		},
		{
			"name":"Plane.004",
			"primitives":[
				{
					"attributes":{
						"POSITION":35,
						"NORMAL":36,
						"TEXCOORD_0":37
					},
					"indices":3,
					"material":0
				},
				{
					"attributes":{
						"POSITION":38,
						"NORMAL":39,
						"TEXCOORD_0":40
					},
					"indices":7,
					"material":1
				}
			]
		},
		{
			"name":"Cylinder.002",
			"primitives":[
				{
					"attributes":{
						"POSITION":41,
						"NORMAL":42,
						"TEXCOORD_0":43
					},
					"indices":18,
					"material":4
				},
				{
					"attributes":{
						"POSITION":44,
						"NORMAL":45,
						"TEXCOORD_0":46
					},
					"indices":22,
					"material":5
				}
			]
		}
	],
	"textures":[
		{
			"sampler":0,
			"source":0
		},
		{
			"sampler":0,
			"source":1
		},
		{
			"sampler":0,
			"source":0
		},
		{
			"sampler":0,
			"source":1
		},
		{
			"sampler":0,
			"source":2
		},
		{
			"sampler":0,
			"source":2
		}
	],
	"images":[
		{
			"mimeType":"image/png",
			"name":"seko3",
			"uri":"seko3.png"
		},
		{
			"mimeType":"image/png",
			"name":"grid",
			"uri":"grid.png"
		},
		{
			"mimeType":"image/png",
			"name":"Metal7",
			"uri":"Metal7.png"
		}
	],
	"accessors":[
		{
			"bufferView":0,
			"componentType":5126,
			"count":604,
			"max":[
				3.724555015563965,
				2.049037456512451,
				3.6409153938293457
			],
			"min":[
				-3.5778095722198486,
				-1.4688782691955566,
				-3.6614482402801514
			],
			"type":"VEC3"
		},
		{
			"bufferView":1,
			"componentType":5126,
			"count":604,
			"type":"VEC3"
		},
		{
			"bufferView":2,
			"componentType":5126,
			"count":604,
			"type":"VEC2"
		},
		{
			"bufferView":3,
			"componentType":5123,
			"count":1188,
			"type":"SCALAR"
		},
		{
			"bufferView":4,
			"componentType":5126,
			"count":44,
			"max":[
				3.724555015563965,
				2.296806812286377,
				3.6409153938293457
			],
			"min":[
				-3.5778095722198486,
				2.0069375038146973,
				-3.6614482402801514
			],
			"type":"VEC3"
		},
		{
			"bufferView":5,
			"componentType":5126,
			"count":44,
			"type":"VEC3"
		},
		{
			"bufferView":6,
			"componentType":5126,
			"count":44,
			"type":"VEC2"
		},
		{
			"bufferView":7,
			"componentType":5123,
			"count":72,
			"type":"SCALAR"
		},
		{
			"bufferView":8,
			"componentType":5126,
			"count":8,
			"max":[
				3.651182174682617,
				-0.11335977911949158,
				3.651181936264038
			],
			"min":[
				-3.6511824131011963,
				-0.1554596722126007,
				-3.651181697845459
			],
			"type":"VEC3"
		},
		{
			"bufferView":9,
			"componentType":5126,
			"count":8,
			"type":"VEC3"
		},
		{
			"bufferView":10,
			"componentType":5126,
			"count":8,
			"type":"VEC2"
		},
		{
			"bufferView":11,
			"componentType":5123,
			"count":12,
			"type":"SCALAR"
		},
		{
			"bufferView":12,
			"componentType":5126,
			"count":44,
			"max":[
				3.651182174682617,
				0.13440972566604614,
				3.651181936264038
			],
			"min":[
				-3.6511824131011963,
				-0.1554596722126007,
				-3.651181697845459
			],
			"type":"VEC3"
		},
		{
			"bufferView":13,
			"componentType":5126,
			"count":44,
			"type":"VEC3"
		},
		{
			"bufferView":14,
			"componentType":5126,
			"count":44,
			"type":"VEC2"
		},
		{
			"bufferView":15,
			"componentType":5126,
			"count":184,
			"max":[
				0.7708152532577515,
				0.8291221857070923,
				0.7708151340484619
			],
			"min":[
				-0.7708153128623962,
				-0.8291221857070923,
				-0.7708154320716858
			],
			"type":"VEC3"
		},
		{
			"bufferView":16,
			"componentType":5126,
			"count":184,
			"type":"VEC3"
		},
		{
			"bufferView":17,
			"componentType":5126,
			"count":184,
			"type":"VEC2"
		},
		{
			"bufferView":18,
			"componentType":5123,
			"count":360,
			"type":"SCALAR"
		},
		{
			"bufferView":19,
			"componentType":5126,
			"count":26,
			"max":[
				0.15037864446640015,
				0.8291221857070923,
				3.3597359657287598
			],
			"min":[
				-0.15037859976291656,
				-0.8291221857070923,
				0.7560040950775146
			],
			"type":"VEC3"
		},
		{
			"bufferView":20,
			"componentType":5126,
			"count":26,
			"type":"VEC3"
		},
		{
			"bufferView":21,
			"componentType":5126,
			"count":26,
			"type":"VEC2"
		},
		{
			"bufferView":22,
			"componentType":5123,
			"count":48,
			"type":"SCALAR"
		},
		{
			"bufferView":23,
			"componentType":5126,
			"count":604,
			"max":[
				3.724555015563965,
				2.049037456512451,
				3.6409153938293457
			],
			"min":[
				-3.5778095722198486,
				-1.4688782691955566,
				-3.6614482402801514
			],
			"type":"VEC3"
		},
		{
			"bufferView":24,
			"componentType":5126,
			"count":604,
			"type":"VEC3"
		},
		{
			"bufferView":25,
			"componentType":5126,
			"count":604,
			"type":"VEC2"
		},
		{
			"bufferView":26,
			"componentType":5126,
			"count":44,
			"max":[
				3.724555015563965,
				2.296806812286377,
				3.6409153938293457
			],
			"min":[
				-3.5778095722198486,
				2.0069375038146973,
				-3.6614482402801514
			],
			"type":"VEC3"
		},
		{
			"bufferView":27,
			"componentType":5126,
			"count":44,
			"type":"VEC3"
		},
		{
			"bufferView":28,
			"componentType":5126,
			"count":44,
			"type":"VEC2"
		},
		{
			"bufferView":29,
			"componentType":5126,
			"count":184,
			"max":[
				0.7708152532577515,
				0.8291221857070923,
				0.7708151340484619
			],
			"min":[
				-0.7708153128623962,
				-0.8291221857070923,
				-0.7708154320716858
			],
			"type":"VEC3"
		},
		{
			"bufferView":30,
			"componentType":5126,
			"count":184,
			"type":"VEC3"
		},
		{
			"bufferView":31,
			"componentType":5126,
			"count":184,
			"type":"VEC2"
		},
		{
			"bufferView":32,
			"componentType":5126,
			"count":26,
			"max":[
				0.15037864446640015,
				0.8291221857070923,
				3.3597359657287598
			],
			"min":[
				-0.15037859976291656,
				-0.8291221857070923,
				0.7560040950775146
			],
			"type":"VEC3"
		},
		{
			"bufferView":33,
			"componentType":5126,
			"count":26,
			"type":"VEC3"
		},
		{
			"bufferView":34,
			"componentType":5126,
			"count":26,
			"type":"VEC2"
		},
		{
			"bufferView":35,
			"componentType":5126,
			"count":604,
			"max":[
				3.724555015563965,
				2.049037456512451,
				3.6409153938293457
			],
			"min":[
				-3.5778095722198486,
				-1.4688782691955566,
				-3.6614482402801514
			],
			"type":"VEC3"
		},
		{
			"bufferView":36,
			"componentType":5126,
			"count":604,
			"type":"VEC3"
		},
		{
			"bufferView":37,
			"componentType":5126,
			"count":604,
			"type":"VEC2"
		},
		{
			"bufferView":38,
			"componentType":5126,
			"count":44,
			"max":[
				3.724555015563965,
				2.296806812286377,
				3.6409153938293457
			],
			"min":[
				-3.5778095722198486,
				2.0069375038146973,
				-3.6614482402801514
			],
			"type":"VEC3"
		},
		{
			"bufferView":39,
			"componentType":5126,
			"count":44,
			"type":"VEC3"
		},
		{
			"bufferView":40,
			"componentType":5126,
			"count":44,
			"type":"VEC2"
		},
		{
			"bufferView":41,
			"componentType":5126,
			"count":184,
			"max":[
				0.7708152532577515,
				0.8291221857070923,
				0.7708151340484619
			],
			"min":[
				-0.7708153128623962,
				-0.8291221857070923,
				-0.7708154320716858
			],
			"type":"VEC3"
		},
		{
			"bufferView":42,
			"componentType":5126,
			"count":184,
			"type":"VEC3"
		},
		{
			"bufferView":43,
			"componentType":5126,
			"count":184,
			"type":"VEC2"
		},
		{
			"bufferView":44,
			"componentType":5126,
			"count":26,
			"max":[
				0.15037864446640015,
				0.8291221857070923,
				3.3597359657287598
			],
			"min":[
				-0.15037859976291656,
				-0.8291221857070923,
				0.7560040950775146
			],
			"type":"VEC3"
		},
		{
			"bufferView":45,
			"componentType":5126,
			"count":26,
			"type":"VEC3"
		},
		{
			"bufferView":46,
			"componentType":5126,
			"count":26,
			"type":"VEC2"
		}
	],
	"bufferViews":[
		{
			"buffer":0,
			"byteLength":7248,
			"byteOffset":0,
			"target":34962
		},
		{
			"buffer":0,
			"byteLength":7248,
			"byteOffset":7248,
			"target":34962
		},
		{
			"buffer":0,
			"byteLength":4832,
			"byteOffset":14496,
			"target":34962
		},
		{
			"buffer":0,
			"byteLength":2376,
			"byteOffset":19328,
			"target":34963
		},
		{
			"buffer":0,
			"byteLength":528,
			"byteOffset":21704,
			"target":34962
		},
		{
			"buffer":0,
			"byteLength":528,
			"byteOffset":22232,
			"target":34962
		},
		{
			"buffer":0,
			"byteLength":352,
			"byteOffset":22760,
			"target":34962
		},
		{
			"buffer":0,
			"byteLength":144,
			"byteOffset":23112,
			"target":34963
		},
		{
			"buffer":0,
			"byteLength":96,
			"byteOffset":23256,
			"target":34962
		},
		{
			"buffer":0,
			"byteLength":96,
			"byteOffset":23352,
			"target":34962
		},
		{
			"buffer":0,
			"byteLength":64,
			"byteOffset":23448,
			"target":34962
		},
		{
			"buffer":0,
			"byteLength":24,
			"byteOffset":23512,
			"target":34963
		},
		{
			"buffer":0,
			"byteLength":528,
			"byteOffset":23536,
			"target":34962
		},
		{
			"buffer":0,
			"byteLength":528,
			"byteOffset":24064,
			"target":34962
		},
		{
			"buffer":0,
			"byteLength":352,
			"byteOffset":24592,
			"target":34962
		},
		{
			"buffer":0,
			"byteLength":2208,
			"byteOffset":24944,
			"target":34962
		},
		{
			"buffer":0,
			"byteLength":2208,
			"byteOffset":27152,
			"target":34962
		},
		{
			"buffer":0,
			"byteLength":1472,
			"byteOffset":29360,
			"target":34962
		},
		{
			"buffer":0,
			"byteLength":720,
			"byteOffset":30832,
			"target":34963
		},
		{
			"buffer":0,
			"byteLength":312,
			"byteOffset":31552,
			"target":34962
		},
		{
			"buffer":0,
			"byteLength":312,
			"byteOffset":31864,
			"target":34962
		},
		{
			"buffer":0,
			"byteLength":208,
			"byteOffset":32176,
			"target":34962
		},
		{
			"buffer":0,
			"byteLength":96,
			"byteOffset":32384,
			"target":34963
		},
		{
			"buffer":0,
			"byteLength":7248,
			"byteOffset":32480,
			"target":34962
		},
		{
			"buffer":0,
			"byteLength":7248,
			"byteOffset":39728,
			"target":34962
		},
		{
			"buffer":0,
			"byteLength":4832,
			"byteOffset":46976,
			"target":34962
		},
		{
			"buffer":0,
			"byteLength":528,
			"byteOffset":51808,
			"target":34962
		},
		{
			"buffer":0,
			"byteLength":528,
			"byteOffset":52336,
			"target":34962
		},
		{
			"buffer":0,
			"byteLength":352,
			"byteOffset":52864,
			"target":34962
		},
		{
			"buffer":0,
			"byteLength":2208,
			"byteOffset":53216,
			"target":34962
		},
		{
			"buffer":0,
			"byteLength":2208,
			"byteOffset":55424,
			"target":34962
		},
		{
			"buffer":0,
			"byteLength":1472,
			"byteOffset":57632,
			"target":34962
		},
		{
			"buffer":0,
			"byteLength":312,
			"byteOffset":59104,
			"target":34962
		},
		{
			"buffer":0,
			"byteLength":312,
			"byteOffset":59416,
			"target":34962
		},
		{
			"buffer":0,
			"byteLength":208,
			"byteOffset":59728,
			"target":34962
		},
		{
			"buffer":0,
			"byteLength":7248,
			"byteOffset":59936,
			"target":34962
		},
		{
			"buffer":0,
			"byteLength":7248,
			"byteOffset":67184,
			"target":34962
		},
		{
			"buffer":0,
			"byteLength":4832,
			"byteOffset":74432,
			"target":34962
		},
		{
			"buffer":0,
			"byteLength":528,
			"byteOffset":79264,
			"target":34962
		},
		{
			"buffer":0,
			"byteLength":528,
			"byteOffset":79792,
			"target":34962
		},
		{
			"buffer":0,
			"byteLength":352,
			"byteOffset":80320,
			"target":34962
		},
		{
			"buffer":0,
			"byteLength":2208,
			"byteOffset":80672,
			"target":34962
		},
		{
			"buffer":0,
			"byteLength":2208,
			"byteOffset":82880,
			"target":34962
		},
		{
			"buffer":0,
			"byteLength":1472,
			"byteOffset":85088,
			"target":34962
		},
		{
			"buffer":0,
			"byteLength":312,
			"byteOffset":86560,
			"target":34962
		},
		{
			"buffer":0,
			"byteLength":312,
			"byteOffset":86872,
			"target":34962
		},
		{
			"buffer":0,
			"byteLength":208,
			"byteOffset":87184,
			"target":34962
		}
	],
	"samplers":[
		{
			"magFilter":9729,
			"minFilter":9987
		}
	],
	"buffers":[
		{
			"byteLength":87392,
			"uri":"bounce.bin"
		}
	]
}
