{
	"asset":{
		"generator":"Khronos glTF Blender I/O v4.1.63",
		"version":"2.0"
	},
	"scene":0,
	"scenes":[
		{
			"name":"Scene",
			"nodes":[
				0,
				1,
				2
			]
		}
	],
	"nodes":[
		{
			"mesh":0,
			"name":"ramp2-col",
			"rotation":[
				-0.005124602001160383,
				0.706727921962738,
				0.004998499061912298,
				0.7074492573738098
			],
			"translation":[
				89.92781066894531,
				-30.64940643310547,
				-106.39315795898438
			]
		},
		{
			"mesh":1,
			"name":"tower-col",
			"rotation":[
				0.298836350440979,
				-0.6408563852310181,
				0.6408563256263733,
				0.298836350440979
			],
			"translation":[
				148.44766235351562,
				25.92266845703125,
				-106.18000793457031
			]
		},
		{
			"mesh":2,
			"name":"ramp1-col.001",
			"translation":[
				18.525291442871094,
				4.473943710327148,
				-57.87537384033203
			]
		}
	],
	"materials":[
		{
			"doubleSided":true,
			"name":"stone",
			"pbrMetallicRoughness":{
				"baseColorTexture":{
					"index":0
				},
				"metallicFactor":0,
				"roughnessFactor":0.5
			}
		},
		{
			"doubleSided":true,
			"name":"speed",
			"pbrMetallicRoughness":{
				"baseColorTexture":{
					"index":1
				},
				"metallicFactor":0,
				"roughnessFactor":0.5
			}
		}
	],
	"meshes":[
		{
			"name":"B\u00e9zierCurve.001",
			"primitives":[
				{
					"attributes":{
						"POSITION":0,
						"NORMAL":1,
						"TEXCOORD_0":2
					},
					"indices":3,
					"material":0
				},
				{
					"attributes":{
						"POSITION":4,
						"NORMAL":5,
						"TEXCOORD_0":6
					},
					"indices":7,
					"material":1
				}
			]
		},
		{
			"name":"Cube.001",
			"primitives":[
				{
					"attributes":{
						"POSITION":8,
						"NORMAL":9,
						"TEXCOORD_0":10
					},
					"indices":11,
					"material":0
				}
			]
		},
		{
			"name":"Circle.001",
			"primitives":[
				{
					"attributes":{
						"POSITION":12,
						"NORMAL":13,
						"TEXCOORD_0":14
					},
					"indices":15,
					"material":0
				}
			]
		}
	],
	"textures":[
		{
			"sampler":0,
			"source":0
		},
		{
			"sampler":0,
			"source":1
		}
	],
	"images":[
		{
			"mimeType":"image/png",
			"name":"KIVI",
			"uri":"KIVI.png"
		},
		{
			"mimeType":"image/png",
			"name":"n_tutsh",
			"uri":"n_tutsh.png"
		}
	],
	"accessors":[
		{
			"bufferView":0,
			"componentType":5126,
			"count":528,
			"max":[
				73.38995361328125,
				45.20524215698242,
				5.27788782119751
			],
			"min":[
				-44.57381057739258,
				-11.339652061462402,
				-4.786370277404785
			],
			"type":"VEC3"
		},
		{
			"bufferView":1,
			"componentType":5126,
			"count":528,
			"type":"VEC3"
		},
		{
			"bufferView":2,
			"componentType":5126,
			"count":528,
			"type":"VEC2"
		},
		{
			"bufferView":3,
			"componentType":5123,
			"count":936,
			"type":"SCALAR"
		},
		{
			"bufferView":4,
			"componentType":5126,
			"count":4,
			"max":[
				47.20535659790039,
				9.859391212463379,
				5.274484634399414
			],
			"min":[
				5.766839981079102,
				9.812803268432617,
				-4.786370277404785
			],
			"type":"VEC3"
		},
		{
			"bufferView":5,
			"componentType":5126,
			"count":4,
			"type":"VEC3"
		},
		{
			"bufferView":6,
			"componentType":5126,
			"count":4,
			"type":"VEC2"
		},
		{
			"bufferView":7,
			"componentType":5123,
			"count":6,
			"type":"SCALAR"
		},
		{
			"bufferView":8,
			"componentType":5126,
			"count":998,
			"max":[
				52.925071716308594,
				66.77019500732422,
				67.89999389648438
			],
			"min":[
				-66.20685577392578,
				-60.482364654541016,
				-17.625564575195312
			],
			"type":"VEC3"
		},
		{
			"bufferView":9,
			"componentType":5126,
			"count":998,
			"type":"VEC3"
		},
		{
			"bufferView":10,
			"componentType":5126,
			"count":998,
			"type":"VEC2"
		},
		{
			"bufferView":11,
			"componentType":5123,
			"count":1746,
			"type":"SCALAR"
		},
		{
			"bufferView":12,
			"componentType":5126,
			"count":742,
			"max":[
				78.29790496826172,
				-4.72037935256958,
				97.9211654663086
			],
			"min":[
				-23.02184295654297,
				-46.451263427734375,
				-36.75172805786133
			],
			"type":"VEC3"
		},
		{
			"bufferView":13,
			"componentType":5126,
			"count":742,
			"type":"VEC3"
		},
		{
			"bufferView":14,
			"componentType":5126,
			"count":742,
			"type":"VEC2"
		},
		{
			"bufferView":15,
			"componentType":5123,
			"count":1386,
			"type":"SCALAR"
		}
	],
	"bufferViews":[
		{
			"buffer":0,
			"byteLength":6336,
			"byteOffset":0,
			"target":34962
		},
		{
			"buffer":0,
			"byteLength":6336,
			"byteOffset":6336,
			"target":34962
		},
		{
			"buffer":0,
			"byteLength":4224,
			"byteOffset":12672,
			"target":34962
		},
		{
			"buffer":0,
			"byteLength":1872,
			"byteOffset":16896,
			"target":34963
		},
		{
			"buffer":0,
			"byteLength":48,
			"byteOffset":18768,
			"target":34962
		},
		{
			"buffer":0,
			"byteLength":48,
			"byteOffset":18816,
			"target":34962
		},
		{
			"buffer":0,
			"byteLength":32,
			"byteOffset":18864,
			"target":34962
		},
		{
			"buffer":0,
			"byteLength":12,
			"byteOffset":18896,
			"target":34963
		},
		{
			"buffer":0,
			"byteLength":11976,
			"byteOffset":18908,
			"target":34962
		},
		{
			"buffer":0,
			"byteLength":11976,
			"byteOffset":30884,
			"target":34962
		},
		{
			"buffer":0,
			"byteLength":7984,
			"byteOffset":42860,
			"target":34962
		},
		{
			"buffer":0,
			"byteLength":3492,
			"byteOffset":50844,
			"target":34963
		},
		{
			"buffer":0,
			"byteLength":8904,
			"byteOffset":54336,
			"target":34962
		},
		{
			"buffer":0,
			"byteLength":8904,
			"byteOffset":63240,
			"target":34962
		},
		{
			"buffer":0,
			"byteLength":5936,
			"byteOffset":72144,
			"target":34962
		},
		{
			"buffer":0,
			"byteLength":2772,
			"byteOffset":78080,
			"target":34963
		}
	],
	"samplers":[
		{
			"magFilter":9729,
			"minFilter":9987
		}
	],
	"buffers":[
		{
			"byteLength":80852,
			"uri":"castlecoaster.bin"
		}
	]
}
