{
	"asset":{
		"generator":"Khronos glTF Blender I/O v4.1.63",
		"version":"2.0"
	},
	"scene":0,
	"scenes":[
		{
			"name":"Scene",
			"nodes":[
				0,
				1,
				2,
				3,
				4,
				5,
				6,
				7,
				8,
				9,
				10,
				11
			]
		}
	],
	"nodes":[
		{
			"mesh":0,
			"name":"ramp2-col",
			"rotation":[
				-0.005124602001160383,
				0.706727921962738,
				0.004998499061912298,
				0.7074492573738098
			],
			"translation":[
				89.4570083618164,
				-30.64940643310547,
				-106.39315795898438
			]
		},
		{
			"mesh":1,
			"name":"tower-col",
			"rotation":[
				0.298836350440979,
				-0.6408563852310181,
				0.6408563256263733,
				0.298836350440979
			],
			"translation":[
				127.08154296875,
				25.92266845703125,
				-106.18000793457031
			]
		},
		{
			"mesh":2,
			"name":"ramp1-col.001",
			"translation":[
				18.05449104309082,
				4.473943710327148,
				-57.87537384033203
			]
		},
		{
			"mesh":3,
			"name":"lamp-col",
			"rotation":[
				0,
				-0.4589170813560486,
				0,
				0.8884791135787964
			],
			"translation":[
				39.81555938720703,
				-13.595600128173828,
				24.672380447387695
			]
		},
		{
			"mesh":4,
			"name":"lamp-col.001",
			"rotation":[
				0,
				0.350494384765625,
				0,
				0.9365648627281189
			],
			"translation":[
				81.305908203125,
				-13.595600128173828,
				37.96611022949219
			]
		},
		{
			"mesh":5,
			"name":"lamp-col.002",
			"rotation":[
				-0.0014757601311430335,
				-0.18809764087200165,
				0.0031461906619369984,
				0.9821441769599915
			],
			"translation":[
				50.755645751953125,
				-13.595600128173828,
				36.83339309692383
			]
		},
		{
			"mesh":6,
			"name":"lamp-col.003",
			"rotation":[
				0,
				0.09845578670501709,
				0,
				0.9951414465904236
			],
			"translation":[
				66.54216003417969,
				-13.595600128173828,
				41.57014846801758
			]
		},
		{
			"mesh":7,
			"name":"lamp-col.004",
			"rotation":[
				0,
				0.5945793986320496,
				0,
				0.8040369153022766
			],
			"translation":[
				93.03431701660156,
				-13.595600128173828,
				27.06193733215332
			]
		},
		{
			"mesh":8,
			"name":"tower-col.001",
			"rotation":[
				0.298836350440979,
				-0.6408563852310181,
				0.6408563256263733,
				0.298836350440979
			],
			"translation":[
				127.08154296875,
				7.747617721557617,
				-25.68929672241211
			]
		},
		{
			"mesh":9,
			"name":"cone-col.003",
			"rotation":[
				-0.1530459225177765,
				-0.6903455257415771,
				0.1530459076166153,
				0.6903456449508667
			],
			"translation":[
				111.61585235595703,
				-9.967143058776855,
				-34.237876892089844
			]
		},
		{
			"mesh":10,
			"name":"tower-col.002",
			"rotation":[
				0.298836350440979,
				-0.6408563852310181,
				0.6408563256263733,
				0.298836350440979
			],
			"translation":[
				127.08154296875,
				-7.56777286529541,
				48.30497360229492
			]
		},
		{
			"mesh":11,
			"name":"cone-col.001",
			"rotation":[
				-0.1530459225177765,
				-0.6903455257415771,
				0.1530459076166153,
				0.6903456449508667
			],
			"translation":[
				111.61585235595703,
				-25.48147201538086,
				40.87529754638672
			]
		}
	],
	"materials":[
		{
			"doubleSided":true,
			"name":"stone",
			"pbrMetallicRoughness":{
				"baseColorTexture":{
					"index":0
				},
				"metallicFactor":0,
				"roughnessFactor":0.5
			}
		},
		{
			"doubleSided":true,
			"name":"speed",
			"pbrMetallicRoughness":{
				"baseColorTexture":{
					"index":1
				},
				"metallicFactor":0,
				"roughnessFactor":0.5
			}
		},
		{
			"doubleSided":true,
			"name":"wood",
			"pbrMetallicRoughness":{
				"baseColorTexture":{
					"index":2
				},
				"metallicFactor":0,
				"roughnessFactor":0.5
			}
		},
		{
			"doubleSided":true,
			"name":"stone.010",
			"pbrMetallicRoughness":{
				"baseColorTexture":{
					"index":3
				},
				"metallicFactor":0,
				"roughnessFactor":0.5
			}
		}
	],
	"meshes":[
		{
			"name":"B\u00e9zierCurve.001",
			"primitives":[
				{
					"attributes":{
						"POSITION":0,
						"NORMAL":1,
						"TEXCOORD_0":2
					},
					"indices":3,
					"material":0
				},
				{
					"attributes":{
						"POSITION":4,
						"NORMAL":5,
						"TEXCOORD_0":6
					},
					"indices":7,
					"material":1
				}
			]
		},
		{
			"name":"Cube.001",
			"primitives":[
				{
					"attributes":{
						"POSITION":8,
						"NORMAL":9,
						"TEXCOORD_0":10
					},
					"indices":11,
					"material":0
				}
			]
		},
		{
			"name":"Circle.001",
			"primitives":[
				{
					"attributes":{
						"POSITION":12,
						"NORMAL":13,
						"TEXCOORD_0":14
					},
					"indices":15,
					"material":0
				}
			]
		},
		{
			"name":"Cube.002",
			"primitives":[
				{
					"attributes":{
						"POSITION":16,
						"NORMAL":17,
						"TEXCOORD_0":18
					},
					"indices":19,
					"material":0
				}
			]
		},
		{
			"name":"Cube.003",
			"primitives":[
				{
					"attributes":{
						"POSITION":20,
						"NORMAL":21,
						"TEXCOORD_0":22
					},
					"indices":19,
					"material":0
				}
			]
		},
		{
			"name":"Cube.004",
			"primitives":[
				{
					"attributes":{
						"POSITION":23,
						"NORMAL":24,
						"TEXCOORD_0":25
					},
					"indices":19,
					"material":0
				}
			]
		},
		{
			"name":"Cube.005",
			"primitives":[
				{
					"attributes":{
						"POSITION":26,
						"NORMAL":27,
						"TEXCOORD_0":28
					},
					"indices":19,
					"material":0
				}
			]
		},
		{
			"name":"Cube.006",
			"primitives":[
				{
					"attributes":{
						"POSITION":29,
						"NORMAL":30,
						"TEXCOORD_0":31
					},
					"indices":19,
					"material":0
				}
			]
		},
		{
			"name":"Cube.007",
			"primitives":[
				{
					"attributes":{
						"POSITION":32,
						"NORMAL":33,
						"TEXCOORD_0":34
					},
					"indices":35,
					"material":0
				},
				{
					"attributes":{
						"POSITION":36,
						"NORMAL":37,
						"TEXCOORD_0":38
					},
					"indices":39,
					"material":2
				}
			]
		},
		{
			"name":"Cone.003",
			"primitives":[
				{
					"attributes":{
						"POSITION":40,
						"NORMAL":41,
						"TEXCOORD_0":42
					},
					"indices":43,
					"material":0
				}
			]
		},
		{
			"name":"Cube.008",
			"primitives":[
				{
					"attributes":{
						"POSITION":44,
						"NORMAL":45,
						"TEXCOORD_0":46
					},
					"indices":47,
					"material":0
				},
				{
					"attributes":{
						"POSITION":48,
						"NORMAL":49,
						"TEXCOORD_0":50
					},
					"indices":51,
					"material":2
				}
			]
		},
		{
			"name":"Cone.004",
			"primitives":[
				{
					"attributes":{
						"POSITION":52,
						"NORMAL":53,
						"TEXCOORD_0":54
					},
					"indices":43,
					"material":3
				}
			]
		}
	],
	"textures":[
		{
			"sampler":0,
			"source":0
		},
		{
			"sampler":0,
			"source":1
		},
		{
			"sampler":0,
			"source":2
		},
		{
			"sampler":0,
			"source":0
		}
	],
	"images":[
		{
			"mimeType":"image/png",
			"name":"KIVI",
			"uri":"KIVI.png"
		},
		{
			"mimeType":"image/png",
			"name":"n_tutsh",
			"uri":"n_tutsh.png"
		},
		{
			"mimeType":"image/png",
			"name":"Cedfence",
			"uri":"Cedfence.png"
		}
	],
	"accessors":[
		{
			"bufferView":0,
			"componentType":5126,
			"count":436,
			"max":[
				67.90962982177734,
				55.60192108154297,
				5.922204971313477
			],
			"min":[
				-56.013343811035156,
				-11.341775894165039,
				-4.786370277404785
			],
			"type":"VEC3"
		},
		{
			"bufferView":1,
			"componentType":5126,
			"count":436,
			"type":"VEC3"
		},
		{
			"bufferView":2,
			"componentType":5126,
			"count":436,
			"type":"VEC2"
		},
		{
			"bufferView":3,
			"componentType":5123,
			"count":786,
			"type":"SCALAR"
		},
		{
			"bufferView":4,
			"componentType":5126,
			"count":4,
			"max":[
				47.20535659790039,
				9.859391212463379,
				5.274484634399414
			],
			"min":[
				5.766839981079102,
				9.812803268432617,
				-4.786370277404785
			],
			"type":"VEC3"
		},
		{
			"bufferView":5,
			"componentType":5126,
			"count":4,
			"type":"VEC3"
		},
		{
			"bufferView":6,
			"componentType":5126,
			"count":4,
			"type":"VEC2"
		},
		{
			"bufferView":7,
			"componentType":5123,
			"count":6,
			"type":"SCALAR"
		},
		{
			"bufferView":8,
			"componentType":5126,
			"count":998,
			"max":[
				40.72300720214844,
				50.174339294433594,
				67.89999389648438
			],
			"min":[
				-64.34003448486328,
				-58.25757598876953,
				-17.625564575195312
			],
			"type":"VEC3"
		},
		{
			"bufferView":9,
			"componentType":5126,
			"count":998,
			"type":"VEC3"
		},
		{
			"bufferView":10,
			"componentType":5126,
			"count":998,
			"type":"VEC2"
		},
		{
			"bufferView":11,
			"componentType":5123,
			"count":1746,
			"type":"SCALAR"
		},
		{
			"bufferView":12,
			"componentType":5126,
			"count":769,
			"max":[
				76.44461059570312,
				-4.72037935256958,
				96.585693359375
			],
			"min":[
				-23.02184295654297,
				-46.451263427734375,
				-36.75172805786133
			],
			"type":"VEC3"
		},
		{
			"bufferView":13,
			"componentType":5126,
			"count":769,
			"type":"VEC3"
		},
		{
			"bufferView":14,
			"componentType":5126,
			"count":769,
			"type":"VEC2"
		},
		{
			"bufferView":15,
			"componentType":5123,
			"count":1389,
			"type":"SCALAR"
		},
		{
			"bufferView":16,
			"componentType":5126,
			"count":88,
			"max":[
				3.6374542713165283,
				10.136825561523438,
				3.6374552249908447
			],
			"min":[
				-3.637455940246582,
				-17.038597106933594,
				-3.6374552249908447
			],
			"type":"VEC3"
		},
		{
			"bufferView":17,
			"componentType":5126,
			"count":88,
			"type":"VEC3"
		},
		{
			"bufferView":18,
			"componentType":5126,
			"count":88,
			"type":"VEC2"
		},
		{
			"bufferView":19,
			"componentType":5123,
			"count":132,
			"type":"SCALAR"
		},
		{
			"bufferView":20,
			"componentType":5126,
			"count":88,
			"max":[
				3.6374542713165283,
				10.136825561523438,
				3.6374552249908447
			],
			"min":[
				-3.637455940246582,
				-17.038597106933594,
				-3.6374552249908447
			],
			"type":"VEC3"
		},
		{
			"bufferView":21,
			"componentType":5126,
			"count":88,
			"type":"VEC3"
		},
		{
			"bufferView":22,
			"componentType":5126,
			"count":88,
			"type":"VEC2"
		},
		{
			"bufferView":23,
			"componentType":5126,
			"count":88,
			"max":[
				3.6374542713165283,
				10.136825561523438,
				3.6374552249908447
			],
			"min":[
				-3.637455940246582,
				-17.038597106933594,
				-3.6374552249908447
			],
			"type":"VEC3"
		},
		{
			"bufferView":24,
			"componentType":5126,
			"count":88,
			"type":"VEC3"
		},
		{
			"bufferView":25,
			"componentType":5126,
			"count":88,
			"type":"VEC2"
		},
		{
			"bufferView":26,
			"componentType":5126,
			"count":88,
			"max":[
				3.6374542713165283,
				10.136825561523438,
				3.6374552249908447
			],
			"min":[
				-3.637455940246582,
				-17.038597106933594,
				-3.6374552249908447
			],
			"type":"VEC3"
		},
		{
			"bufferView":27,
			"componentType":5126,
			"count":88,
			"type":"VEC3"
		},
		{
			"bufferView":28,
			"componentType":5126,
			"count":88,
			"type":"VEC2"
		},
		{
			"bufferView":29,
			"componentType":5126,
			"count":88,
			"max":[
				3.6374542713165283,
				10.136825561523438,
				3.6374552249908447
			],
			"min":[
				-3.637455940246582,
				-17.038597106933594,
				-3.6374552249908447
			],
			"type":"VEC3"
		},
		{
			"bufferView":30,
			"componentType":5126,
			"count":88,
			"type":"VEC3"
		},
		{
			"bufferView":31,
			"componentType":5126,
			"count":88,
			"type":"VEC2"
		},
		{
			"bufferView":32,
			"componentType":5126,
			"count":59,
			"max":[
				40.72300720214844,
				12.249357223510742,
				49.699798583984375
			],
			"min":[
				-8.669588088989258,
				-37.246673583984375,
				-17.601112365722656
			],
			"type":"VEC3"
		},
		{
			"bufferView":33,
			"componentType":5126,
			"count":59,
			"type":"VEC3"
		},
		{
			"bufferView":34,
			"componentType":5126,
			"count":59,
			"type":"VEC2"
		},
		{
			"bufferView":35,
			"componentType":5123,
			"count":129,
			"type":"SCALAR"
		},
		{
			"bufferView":36,
			"componentType":5126,
			"count":116,
			"max":[
				11.411930084228516,
				19.479522705078125,
				22.533557891845703
			],
			"min":[
				-19.258913040161133,
				-11.52207088470459,
				0.6481267213821411
			],
			"type":"VEC3"
		},
		{
			"bufferView":37,
			"componentType":5126,
			"count":116,
			"type":"VEC3"
		},
		{
			"bufferView":38,
			"componentType":5126,
			"count":116,
			"type":"VEC2"
		},
		{
			"bufferView":39,
			"componentType":5123,
			"count":198,
			"type":"SCALAR"
		},
		{
			"bufferView":40,
			"componentType":5126,
			"count":3840,
			"max":[
				20.45669937133789,
				33.335853576660156,
				1.9603462219238281
			],
			"min":[
				-3.0671656131744385,
				-14.013999938964844,
				-31.17067527770996
			],
			"type":"VEC3"
		},
		{
			"bufferView":41,
			"componentType":5126,
			"count":3840,
			"type":"VEC3"
		},
		{
			"bufferView":42,
			"componentType":5126,
			"count":3840,
			"type":"VEC2"
		},
		{
			"bufferView":43,
			"componentType":5123,
			"count":5736,
			"type":"SCALAR"
		},
		{
			"bufferView":44,
			"componentType":5126,
			"count":100,
			"max":[
				40.72300720214844,
				12.249357223510742,
				34.35926818847656
			],
			"min":[
				-8.669588088989258,
				-37.246673583984375,
				-17.601112365722656
			],
			"type":"VEC3"
		},
		{
			"bufferView":45,
			"componentType":5126,
			"count":100,
			"type":"VEC3"
		},
		{
			"bufferView":46,
			"componentType":5126,
			"count":100,
			"type":"VEC2"
		},
		{
			"bufferView":47,
			"componentType":5123,
			"count":174,
			"type":"SCALAR"
		},
		{
			"bufferView":48,
			"componentType":5126,
			"count":120,
			"max":[
				33.96695327758789,
				19.479522705078125,
				22.533557891845703
			],
			"min":[
				-19.258913040161133,
				-30.57283592224121,
				0.6481267213821411
			],
			"type":"VEC3"
		},
		{
			"bufferView":49,
			"componentType":5126,
			"count":120,
			"type":"VEC3"
		},
		{
			"bufferView":50,
			"componentType":5126,
			"count":120,
			"type":"VEC2"
		},
		{
			"bufferView":51,
			"componentType":5123,
			"count":204,
			"type":"SCALAR"
		},
		{
			"bufferView":52,
			"componentType":5126,
			"count":3840,
			"max":[
				20.45669937133789,
				33.335853576660156,
				1.9603462219238281
			],
			"min":[
				-3.0671656131744385,
				-14.013999938964844,
				-31.17067527770996
			],
			"type":"VEC3"
		},
		{
			"bufferView":53,
			"componentType":5126,
			"count":3840,
			"type":"VEC3"
		},
		{
			"bufferView":54,
			"componentType":5126,
			"count":3840,
			"type":"VEC2"
		}
	],
	"bufferViews":[
		{
			"buffer":0,
			"byteLength":5232,
			"byteOffset":0,
			"target":34962
		},
		{
			"buffer":0,
			"byteLength":5232,
			"byteOffset":5232,
			"target":34962
		},
		{
			"buffer":0,
			"byteLength":3488,
			"byteOffset":10464,
			"target":34962
		},
		{
			"buffer":0,
			"byteLength":1572,
			"byteOffset":13952,
			"target":34963
		},
		{
			"buffer":0,
			"byteLength":48,
			"byteOffset":15524,
			"target":34962
		},
		{
			"buffer":0,
			"byteLength":48,
			"byteOffset":15572,
			"target":34962
		},
		{
			"buffer":0,
			"byteLength":32,
			"byteOffset":15620,
			"target":34962
		},
		{
			"buffer":0,
			"byteLength":12,
			"byteOffset":15652,
			"target":34963
		},
		{
			"buffer":0,
			"byteLength":11976,
			"byteOffset":15664,
			"target":34962
		},
		{
			"buffer":0,
			"byteLength":11976,
			"byteOffset":27640,
			"target":34962
		},
		{
			"buffer":0,
			"byteLength":7984,
			"byteOffset":39616,
			"target":34962
		},
		{
			"buffer":0,
			"byteLength":3492,
			"byteOffset":47600,
			"target":34963
		},
		{
			"buffer":0,
			"byteLength":9228,
			"byteOffset":51092,
			"target":34962
		},
		{
			"buffer":0,
			"byteLength":9228,
			"byteOffset":60320,
			"target":34962
		},
		{
			"buffer":0,
			"byteLength":6152,
			"byteOffset":69548,
			"target":34962
		},
		{
			"buffer":0,
			"byteLength":2778,
			"byteOffset":75700,
			"target":34963
		},
		{
			"buffer":0,
			"byteLength":1056,
			"byteOffset":78480,
			"target":34962
		},
		{
			"buffer":0,
			"byteLength":1056,
			"byteOffset":79536,
			"target":34962
		},
		{
			"buffer":0,
			"byteLength":704,
			"byteOffset":80592,
			"target":34962
		},
		{
			"buffer":0,
			"byteLength":264,
			"byteOffset":81296,
			"target":34963
		},
		{
			"buffer":0,
			"byteLength":1056,
			"byteOffset":81560,
			"target":34962
		},
		{
			"buffer":0,
			"byteLength":1056,
			"byteOffset":82616,
			"target":34962
		},
		{
			"buffer":0,
			"byteLength":704,
			"byteOffset":83672,
			"target":34962
		},
		{
			"buffer":0,
			"byteLength":1056,
			"byteOffset":84376,
			"target":34962
		},
		{
			"buffer":0,
			"byteLength":1056,
			"byteOffset":85432,
			"target":34962
		},
		{
			"buffer":0,
			"byteLength":704,
			"byteOffset":86488,
			"target":34962
		},
		{
			"buffer":0,
			"byteLength":1056,
			"byteOffset":87192,
			"target":34962
		},
		{
			"buffer":0,
			"byteLength":1056,
			"byteOffset":88248,
			"target":34962
		},
		{
			"buffer":0,
			"byteLength":704,
			"byteOffset":89304,
			"target":34962
		},
		{
			"buffer":0,
			"byteLength":1056,
			"byteOffset":90008,
			"target":34962
		},
		{
			"buffer":0,
			"byteLength":1056,
			"byteOffset":91064,
			"target":34962
		},
		{
			"buffer":0,
			"byteLength":704,
			"byteOffset":92120,
			"target":34962
		},
		{
			"buffer":0,
			"byteLength":708,
			"byteOffset":92824,
			"target":34962
		},
		{
			"buffer":0,
			"byteLength":708,
			"byteOffset":93532,
			"target":34962
		},
		{
			"buffer":0,
			"byteLength":472,
			"byteOffset":94240,
			"target":34962
		},
		{
			"buffer":0,
			"byteLength":258,
			"byteOffset":94712,
			"target":34963
		},
		{
			"buffer":0,
			"byteLength":1392,
			"byteOffset":94972,
			"target":34962
		},
		{
			"buffer":0,
			"byteLength":1392,
			"byteOffset":96364,
			"target":34962
		},
		{
			"buffer":0,
			"byteLength":928,
			"byteOffset":97756,
			"target":34962
		},
		{
			"buffer":0,
			"byteLength":396,
			"byteOffset":98684,
			"target":34963
		},
		{
			"buffer":0,
			"byteLength":46080,
			"byteOffset":99080,
			"target":34962
		},
		{
			"buffer":0,
			"byteLength":46080,
			"byteOffset":145160,
			"target":34962
		},
		{
			"buffer":0,
			"byteLength":30720,
			"byteOffset":191240,
			"target":34962
		},
		{
			"buffer":0,
			"byteLength":11472,
			"byteOffset":221960,
			"target":34963
		},
		{
			"buffer":0,
			"byteLength":1200,
			"byteOffset":233432,
			"target":34962
		},
		{
			"buffer":0,
			"byteLength":1200,
			"byteOffset":234632,
			"target":34962
		},
		{
			"buffer":0,
			"byteLength":800,
			"byteOffset":235832,
			"target":34962
		},
		{
			"buffer":0,
			"byteLength":348,
			"byteOffset":236632,
			"target":34963
		},
		{
			"buffer":0,
			"byteLength":1440,
			"byteOffset":236980,
			"target":34962
		},
		{
			"buffer":0,
			"byteLength":1440,
			"byteOffset":238420,
			"target":34962
		},
		{
			"buffer":0,
			"byteLength":960,
			"byteOffset":239860,
			"target":34962
		},
		{
			"buffer":0,
			"byteLength":408,
			"byteOffset":240820,
			"target":34963
		},
		{
			"buffer":0,
			"byteLength":46080,
			"byteOffset":241228,
			"target":34962
		},
		{
			"buffer":0,
			"byteLength":46080,
			"byteOffset":287308,
			"target":34962
		},
		{
			"buffer":0,
			"byteLength":30720,
			"byteOffset":333388,
			"target":34962
		}
	],
	"samplers":[
		{
			"magFilter":9729,
			"minFilter":9987
		}
	],
	"buffers":[
		{
			"byteLength":364108,
			"uri":"castlecoaster.bin"
		}
	]
}
