{
	"asset":{
		"generator":"Khronos glTF Blender I/O v3.6.28",
		"version":"2.0"
	},
	"extensionsUsed":[
		"KHR_materials_specular",
		"KHR_materials_ior"
	],
	"scene":0,
	"scenes":[
		{
			"name":"Scene",
			"nodes":[
				0,
				1,
				2,
				3
			]
		}
	],
	"nodes":[
		{
			"mesh":0,
			"name":"tower-col"
		},
		{
			"mesh":1,
			"name":"wall1-col"
		},
		{
			"mesh":2,
			"name":"wall2-col"
		},
		{
			"mesh":3,
			"name":"ramp-col"
		}
	],
	"materials":[
		{
			"doubleSided":true,
			"extensions":{
				"KHR_materials_specular":{
					"specularColorFactor":[
						0,
						0,
						0
					]
				},
				"KHR_materials_ior":{
					"ior":1.4500000476837158
				}
			},
			"name":"Stone",
			"pbrMetallicRoughness":{
				"baseColorTexture":{
					"index":0
				},
				"metallicFactor":0,
				"roughnessFactor":0.699999988079071
			}
		},
		{
			"extensions":{
				"KHR_materials_specular":{
					"specularColorFactor":[
						0,
						0,
						0
					]
				},
				"KHR_materials_ior":{
					"ior":1.4500000476837158
				}
			},
			"name":"Grass",
			"pbrMetallicRoughness":{
				"baseColorTexture":{
					"index":1
				},
				"metallicFactor":0,
				"roughnessFactor":0.5
			}
		}
	],
	"meshes":[
		{
			"name":"Cylinder.001",
			"primitives":[
				{
					"attributes":{
						"POSITION":0,
						"NORMAL":1,
						"TEXCOORD_0":2
					},
					"indices":3,
					"material":0
				},
				{
					"attributes":{
						"POSITION":4,
						"NORMAL":5,
						"TEXCOORD_0":6
					},
					"indices":7,
					"material":0
				}
			]
		},
		{
			"name":"Cube.001",
			"primitives":[
				{
					"attributes":{
						"POSITION":8,
						"NORMAL":9,
						"TEXCOORD_0":10
					},
					"indices":11,
					"material":1
				},
				{
					"attributes":{
						"POSITION":12,
						"NORMAL":13,
						"TEXCOORD_0":14
					},
					"indices":15,
					"material":1
				}
			]
		},
		{
			"name":"Cube.004",
			"primitives":[
				{
					"attributes":{
						"POSITION":16,
						"NORMAL":17,
						"TEXCOORD_0":18
					},
					"indices":19,
					"material":1
				}
			]
		},
		{
			"name":"Cube.005",
			"primitives":[
				{
					"attributes":{
						"POSITION":20,
						"NORMAL":21,
						"TEXCOORD_0":22
					},
					"indices":23,
					"material":0
				}
			]
		}
	],
	"textures":[
		{
			"sampler":0,
			"source":0
		},
		{
			"sampler":0,
			"source":1
		}
	],
	"images":[
		{
			"mimeType":"image/png",
			"name":"KIVI",
			"uri":"KIVI.png"
		},
		{
			"mimeType":"image/png",
			"name":"Grass",
			"uri":"Grass.png"
		}
	],
	"accessors":[
		{
			"bufferView":0,
			"componentType":5126,
			"count":1323,
			"max":[
				21.675180435180664,
				13.84866714477539,
				-184.74560546875
			],
			"min":[
				-21.451169967651367,
				-47.64615249633789,
				-227.8719482421875
			],
			"type":"VEC3"
		},
		{
			"bufferView":1,
			"componentType":5126,
			"count":1323,
			"type":"VEC3"
		},
		{
			"bufferView":2,
			"componentType":5126,
			"count":1323,
			"type":"VEC2"
		},
		{
			"bufferView":3,
			"componentType":5123,
			"count":2367,
			"type":"SCALAR"
		},
		{
			"bufferView":4,
			"componentType":5126,
			"count":109,
			"max":[
				11.510589599609375,
				13.84866714477539,
				-184.74560546875
			],
			"min":[
				-13.59695816040039,
				1.4645633697509766,
				-220.01771545410156
			],
			"type":"VEC3"
		},
		{
			"bufferView":5,
			"componentType":5126,
			"count":109,
			"type":"VEC3"
		},
		{
			"bufferView":6,
			"componentType":5126,
			"count":109,
			"type":"VEC2"
		},
		{
			"bufferView":7,
			"componentType":5123,
			"count":243,
			"type":"SCALAR"
		},
		{
			"bufferView":8,
			"componentType":5126,
			"count":82,
			"max":[
				5.247158050537109,
				1.465865135192871,
				7.563385009765625
			],
			"min":[
				-5.144857883453369,
				-47.646156311035156,
				-185.67410278320312
			],
			"type":"VEC3"
		},
		{
			"bufferView":9,
			"componentType":5126,
			"count":82,
			"type":"VEC3"
		},
		{
			"bufferView":10,
			"componentType":5126,
			"count":82,
			"type":"VEC2"
		},
		{
			"bufferView":11,
			"componentType":5123,
			"count":204,
			"type":"SCALAR"
		},
		{
			"bufferView":12,
			"componentType":5126,
			"count":104,
			"max":[
				4.178041458129883,
				1.465865135192871,
				-76.62350463867188
			],
			"min":[
				-4.075741291046143,
				-33.89487838745117,
				-115.27426147460938
			],
			"type":"VEC3"
		},
		{
			"bufferView":13,
			"componentType":5126,
			"count":104,
			"type":"VEC3"
		},
		{
			"bufferView":14,
			"componentType":5126,
			"count":104,
			"type":"VEC2"
		},
		{
			"bufferView":15,
			"componentType":5123,
			"count":156,
			"type":"SCALAR"
		},
		{
			"bufferView":16,
			"componentType":5126,
			"count":24,
			"max":[
				5.247175693511963,
				8.779634475708008,
				-226.97093200683594
			],
			"min":[
				-5.144831657409668,
				-47.646156311035156,
				-346.6065673828125
			],
			"type":"VEC3"
		},
		{
			"bufferView":17,
			"componentType":5126,
			"count":24,
			"type":"VEC3"
		},
		{
			"bufferView":18,
			"componentType":5126,
			"count":24,
			"type":"VEC2"
		},
		{
			"bufferView":19,
			"componentType":5123,
			"count":36,
			"type":"SCALAR"
		},
		{
			"bufferView":20,
			"componentType":5126,
			"count":18,
			"max":[
				3.740114688873291,
				12.243637084960938,
				-327.549072265625
			],
			"min":[
				-3.6377758979797363,
				8.779638290405273,
				-346.6065368652344
			],
			"type":"VEC3"
		},
		{
			"bufferView":21,
			"componentType":5126,
			"count":18,
			"type":"VEC3"
		},
		{
			"bufferView":22,
			"componentType":5126,
			"count":18,
			"type":"VEC2"
		},
		{
			"bufferView":23,
			"componentType":5123,
			"count":24,
			"type":"SCALAR"
		}
	],
	"bufferViews":[
		{
			"buffer":0,
			"byteLength":15876,
			"byteOffset":0,
			"target":34962
		},
		{
			"buffer":0,
			"byteLength":15876,
			"byteOffset":15876,
			"target":34962
		},
		{
			"buffer":0,
			"byteLength":10584,
			"byteOffset":31752,
			"target":34962
		},
		{
			"buffer":0,
			"byteLength":4734,
			"byteOffset":42336,
			"target":34963
		},
		{
			"buffer":0,
			"byteLength":1308,
			"byteOffset":47072,
			"target":34962
		},
		{
			"buffer":0,
			"byteLength":1308,
			"byteOffset":48380,
			"target":34962
		},
		{
			"buffer":0,
			"byteLength":872,
			"byteOffset":49688,
			"target":34962
		},
		{
			"buffer":0,
			"byteLength":486,
			"byteOffset":50560,
			"target":34963
		},
		{
			"buffer":0,
			"byteLength":984,
			"byteOffset":51048,
			"target":34962
		},
		{
			"buffer":0,
			"byteLength":984,
			"byteOffset":52032,
			"target":34962
		},
		{
			"buffer":0,
			"byteLength":656,
			"byteOffset":53016,
			"target":34962
		},
		{
			"buffer":0,
			"byteLength":408,
			"byteOffset":53672,
			"target":34963
		},
		{
			"buffer":0,
			"byteLength":1248,
			"byteOffset":54080,
			"target":34962
		},
		{
			"buffer":0,
			"byteLength":1248,
			"byteOffset":55328,
			"target":34962
		},
		{
			"buffer":0,
			"byteLength":832,
			"byteOffset":56576,
			"target":34962
		},
		{
			"buffer":0,
			"byteLength":312,
			"byteOffset":57408,
			"target":34963
		},
		{
			"buffer":0,
			"byteLength":288,
			"byteOffset":57720,
			"target":34962
		},
		{
			"buffer":0,
			"byteLength":288,
			"byteOffset":58008,
			"target":34962
		},
		{
			"buffer":0,
			"byteLength":192,
			"byteOffset":58296,
			"target":34962
		},
		{
			"buffer":0,
			"byteLength":72,
			"byteOffset":58488,
			"target":34963
		},
		{
			"buffer":0,
			"byteLength":216,
			"byteOffset":58560,
			"target":34962
		},
		{
			"buffer":0,
			"byteLength":216,
			"byteOffset":58776,
			"target":34962
		},
		{
			"buffer":0,
			"byteLength":144,
			"byteOffset":58992,
			"target":34962
		},
		{
			"buffer":0,
			"byteLength":48,
			"byteOffset":59136,
			"target":34963
		}
	],
	"samplers":[
		{
			"magFilter":9729,
			"minFilter":9987
		}
	],
	"buffers":[
		{
			"byteLength":59184,
			"uri":"castle.bin"
		}
	]
}
