{
	"asset":{
		"generator":"Khronos glTF Blender I/O v4.1.63",
		"version":"2.0"
	},
	"extensionsUsed":[
		"KHR_materials_specular"
	],
	"scene":0,
	"scenes":[
		{
			"name":"Scene",
			"nodes":[
				0,
				1,
				2,
				3,
				4,
				5,
				6,
				7,
				8,
				9,
				10,
				11,
				12,
				13,
				14
			]
		}
	],
	"nodes":[
		{
			"mesh":0,
			"name":"ramp2-col",
			"rotation":[
				-0.005124602001160383,
				0.706727921962738,
				0.004998499061912298,
				0.7074492573738098
			],
			"translation":[
				8.965956687927246,
				-3.0437142848968506,
				-10.67813491821289
			]
		},
		{
			"mesh":1,
			"name":"tower-col",
			"rotation":[
				0.298836350440979,
				-0.6408563852310181,
				0.6408563256263733,
				0.298836350440979
			],
			"translation":[
				12.728407859802246,
				2.613492727279663,
				-10.656818389892578
			]
		},
		{
			"mesh":2,
			"name":"ramp1-col.001",
			"translation":[
				1.8256990909576416,
				0.4686199426651001,
				-5.826354026794434
			]
		},
		{
			"mesh":3,
			"name":"lamp-col",
			"rotation":[
				0,
				-0.4589170813560486,
				0,
				0.8884791135787964
			],
			"translation":[
				4.0018086433410645,
				-1.3383339643478394,
				2.428419828414917
			]
		},
		{
			"mesh":4,
			"name":"lamp-col.001",
			"rotation":[
				0,
				0.350494384765625,
				0,
				0.9365648627281189
			],
			"translation":[
				8.150848388671875,
				-1.3383339643478394,
				3.757794141769409
			]
		},
		{
			"mesh":5,
			"name":"lamp-col.002",
			"rotation":[
				-0.0014757601311430335,
				-0.18809764087200165,
				0.0031461906619369984,
				0.9821441769599915
			],
			"translation":[
				5.095818042755127,
				-1.3383339643478394,
				3.6445205211639404
			]
		},
		{
			"mesh":6,
			"name":"lamp-col.003",
			"rotation":[
				0,
				0.09845578670501709,
				0,
				0.9951414465904236
			],
			"translation":[
				6.674469470977783,
				-1.3383339643478394,
				4.118195533752441
			]
		},
		{
			"mesh":7,
			"name":"lamp-col.004",
			"rotation":[
				0,
				0.5945793986320496,
				0,
				0.8040369153022766
			],
			"translation":[
				9.323683738708496,
				-1.3383339643478394,
				2.6673762798309326
			]
		},
		{
			"mesh":8,
			"name":"tower-col.001",
			"rotation":[
				0.298836350440979,
				-0.6408563852310181,
				0.6408563256263733,
				0.298836350440979
			],
			"translation":[
				12.728407859802246,
				0.7959877252578735,
				-2.6077475547790527
			]
		},
		{
			"mesh":9,
			"name":"cone-col.003",
			"rotation":[
				-0.1530459225177765,
				-0.6903455257415771,
				0.1530459076166153,
				0.6903456449508667
			],
			"translation":[
				11.181838035583496,
				-0.975488543510437,
				-3.4626057147979736
			]
		},
		{
			"mesh":10,
			"name":"tower-col.002",
			"rotation":[
				0.298836350440979,
				-0.6408563852310181,
				0.6408563256263733,
				0.298836350440979
			],
			"translation":[
				12.728407859802246,
				-0.7355517148971558,
				4.791680335998535
			]
		},
		{
			"mesh":11,
			"name":"cone-col.001",
			"rotation":[
				-0.1530459225177765,
				-0.6903455257415771,
				0.1530459076166153,
				0.6903456449508667
			],
			"translation":[
				11.181838035583496,
				-2.526921033859253,
				4.048710823059082
			]
		},
		{
			"mesh":12,
			"name":"cone-col.002",
			"rotation":[
				-0.009440979920327663,
				-0.04258543625473976,
				0.21623362600803375,
				0.9753668904304504
			],
			"translation":[
				10.264275550842285,
				1.6822677850723267,
				-8.574750900268555
			]
		},
		{
			"mesh":13,
			"name":"arrow1",
			"translation":[
				10.136438369750977,
				1.9299660921096802,
				-17.2576904296875
			]
		},
		{
			"mesh":14,
			"name":"arrow2",
			"translation":[
				7.798004150390625,
				1.9299660921096802,
				-17.2576904296875
			]
		}
	],
	"materials":[
		{
			"doubleSided":true,
			"extensions":{
				"KHR_materials_specular":{
					"specularFactor":0
				}
			},
			"name":"stone",
			"pbrMetallicRoughness":{
				"baseColorTexture":{
					"index":0
				},
				"metallicFactor":0
			}
		},
		{
			"doubleSided":true,
			"name":"speed",
			"pbrMetallicRoughness":{
				"baseColorTexture":{
					"index":1
				},
				"metallicFactor":0,
				"roughnessFactor":0.5
			}
		},
		{
			"doubleSided":true,
			"name":"wood",
			"pbrMetallicRoughness":{
				"baseColorTexture":{
					"index":2
				},
				"metallicFactor":0,
				"roughnessFactor":0.5
			}
		},
		{
			"doubleSided":true,
			"name":"stone.010",
			"pbrMetallicRoughness":{
				"baseColorTexture":{
					"index":3
				},
				"metallicFactor":0,
				"roughnessFactor":0.5
			}
		},
		{
			"doubleSided":true,
			"extensions":{
				"KHR_materials_specular":{
					"specularFactor":0
				}
			},
			"name":"stone.001",
			"pbrMetallicRoughness":{
				"baseColorTexture":{
					"index":4
				},
				"metallicFactor":0
			}
		},
		{
			"doubleSided":true,
			"extensions":{
				"KHR_materials_specular":{
					"specularFactor":0
				}
			},
			"name":"stone.002",
			"pbrMetallicRoughness":{
				"baseColorTexture":{
					"index":5
				},
				"metallicFactor":0
			}
		}
	],
	"meshes":[
		{
			"name":"B\u00e9zierCurve.001",
			"primitives":[
				{
					"attributes":{
						"POSITION":0,
						"NORMAL":1,
						"TEXCOORD_0":2
					},
					"indices":3,
					"material":0
				},
				{
					"attributes":{
						"POSITION":4,
						"NORMAL":5,
						"TEXCOORD_0":6
					},
					"indices":7,
					"material":1
				}
			]
		},
		{
			"name":"Cube.001",
			"primitives":[
				{
					"attributes":{
						"POSITION":8,
						"NORMAL":9,
						"TEXCOORD_0":10
					},
					"indices":11,
					"material":0
				}
			]
		},
		{
			"name":"Circle.001",
			"primitives":[
				{
					"attributes":{
						"POSITION":12,
						"NORMAL":13,
						"TEXCOORD_0":14
					},
					"indices":15,
					"material":0
				}
			]
		},
		{
			"name":"Cube.002",
			"primitives":[
				{
					"attributes":{
						"POSITION":16,
						"NORMAL":17,
						"TEXCOORD_0":18
					},
					"indices":19,
					"material":0
				}
			]
		},
		{
			"name":"Cube.003",
			"primitives":[
				{
					"attributes":{
						"POSITION":20,
						"NORMAL":21,
						"TEXCOORD_0":22
					},
					"indices":19,
					"material":0
				}
			]
		},
		{
			"name":"Cube.004",
			"primitives":[
				{
					"attributes":{
						"POSITION":23,
						"NORMAL":24,
						"TEXCOORD_0":25
					},
					"indices":19,
					"material":0
				}
			]
		},
		{
			"name":"Cube.005",
			"primitives":[
				{
					"attributes":{
						"POSITION":26,
						"NORMAL":27,
						"TEXCOORD_0":28
					},
					"indices":19,
					"material":0
				}
			]
		},
		{
			"name":"Cube.006",
			"primitives":[
				{
					"attributes":{
						"POSITION":29,
						"NORMAL":30,
						"TEXCOORD_0":31
					},
					"indices":19,
					"material":0
				}
			]
		},
		{
			"name":"Cube.007",
			"primitives":[
				{
					"attributes":{
						"POSITION":32,
						"NORMAL":33,
						"TEXCOORD_0":34
					},
					"indices":35,
					"material":0
				},
				{
					"attributes":{
						"POSITION":36,
						"NORMAL":37,
						"TEXCOORD_0":38
					},
					"indices":39,
					"material":2
				}
			]
		},
		{
			"name":"Cone.003",
			"primitives":[
				{
					"attributes":{
						"POSITION":40,
						"NORMAL":41,
						"TEXCOORD_0":42
					},
					"indices":43,
					"material":0
				}
			]
		},
		{
			"name":"Cube.008",
			"primitives":[
				{
					"attributes":{
						"POSITION":44,
						"NORMAL":45,
						"TEXCOORD_0":46
					},
					"indices":47,
					"material":0
				},
				{
					"attributes":{
						"POSITION":48,
						"NORMAL":49,
						"TEXCOORD_0":50
					},
					"indices":51,
					"material":2
				}
			]
		},
		{
			"name":"Cone.004",
			"primitives":[
				{
					"attributes":{
						"POSITION":52,
						"NORMAL":53,
						"TEXCOORD_0":54
					},
					"indices":43,
					"material":3
				}
			]
		},
		{
			"name":"Cone.001",
			"primitives":[
				{
					"attributes":{
						"POSITION":55,
						"NORMAL":56,
						"TEXCOORD_0":57
					},
					"indices":58,
					"material":4
				}
			]
		},
		{
			"name":"Cube",
			"primitives":[
				{
					"attributes":{
						"POSITION":59,
						"NORMAL":60,
						"TEXCOORD_0":61
					},
					"indices":62,
					"material":0
				}
			]
		},
		{
			"name":"Cube.009",
			"primitives":[
				{
					"attributes":{
						"POSITION":63,
						"NORMAL":64,
						"TEXCOORD_0":65
					},
					"indices":62,
					"material":5
				}
			]
		}
	],
	"textures":[
		{
			"sampler":0,
			"source":0
		},
		{
			"sampler":0,
			"source":1
		},
		{
			"sampler":0,
			"source":2
		},
		{
			"sampler":0,
			"source":0
		},
		{
			"sampler":0,
			"source":0
		},
		{
			"sampler":0,
			"source":0
		}
	],
	"images":[
		{
			"mimeType":"image/png",
			"name":"KIVI",
			"uri":"KIVI.png"
		},
		{
			"mimeType":"image/png",
			"name":"n_tutsh",
			"uri":"n_tutsh.png"
		},
		{
			"mimeType":"image/png",
			"name":"Cedfence",
			"uri":"Cedfence.png"
		}
	],
	"accessors":[
		{
			"bufferView":0,
			"componentType":5126,
			"count":366,
			"max":[
				6.790964603424072,
				5.5601935386657715,
				0.592220664024353
			],
			"min":[
				-5.601335525512695,
				-1.134547472000122,
				-0.4774036705493927
			],
			"type":"VEC3"
		},
		{
			"bufferView":1,
			"componentType":5126,
			"count":366,
			"type":"VEC3"
		},
		{
			"bufferView":2,
			"componentType":5126,
			"count":366,
			"type":"VEC2"
		},
		{
			"bufferView":3,
			"componentType":5123,
			"count":642,
			"type":"SCALAR"
		},
		{
			"bufferView":4,
			"componentType":5126,
			"count":4,
			"max":[
				2.973206043243408,
				0.9853573441505432,
				0.5292288661003113
			],
			"min":[
				-2.5587852001190186,
				0.9809561967849731,
				-0.4754425585269928
			],
			"type":"VEC3"
		},
		{
			"bufferView":5,
			"componentType":5126,
			"count":4,
			"type":"VEC3"
		},
		{
			"bufferView":6,
			"componentType":5126,
			"count":4,
			"type":"VEC2"
		},
		{
			"bufferView":7,
			"componentType":5123,
			"count":6,
			"type":"SCALAR"
		},
		{
			"bufferView":8,
			"componentType":5126,
			"count":1040,
			"max":[
				4.072301864624023,
				5.017435073852539,
				6.790000915527344
			],
			"min":[
				-6.434004783630371,
				-5.825758934020996,
				-1.7625569105148315
			],
			"type":"VEC3"
		},
		{
			"bufferView":9,
			"componentType":5126,
			"count":1040,
			"type":"VEC3"
		},
		{
			"bufferView":10,
			"componentType":5126,
			"count":1040,
			"type":"VEC2"
		},
		{
			"bufferView":11,
			"componentType":5123,
			"count":1746,
			"type":"SCALAR"
		},
		{
			"bufferView":12,
			"componentType":5126,
			"count":801,
			"max":[
				7.644463062286377,
				-0.47203806042671204,
				9.658571243286133
			],
			"min":[
				-2.302184820175171,
				-4.645127296447754,
				-3.675173759460449
			],
			"type":"VEC3"
		},
		{
			"bufferView":13,
			"componentType":5126,
			"count":801,
			"type":"VEC3"
		},
		{
			"bufferView":14,
			"componentType":5126,
			"count":801,
			"type":"VEC2"
		},
		{
			"bufferView":15,
			"componentType":5123,
			"count":1455,
			"type":"SCALAR"
		},
		{
			"bufferView":16,
			"componentType":5126,
			"count":88,
			"max":[
				0.3637455105781555,
				1.0136828422546387,
				0.3637455999851227
			],
			"min":[
				-0.36374568939208984,
				-1.7038601636886597,
				-0.3637455999851227
			],
			"type":"VEC3"
		},
		{
			"bufferView":17,
			"componentType":5126,
			"count":88,
			"type":"VEC3"
		},
		{
			"bufferView":18,
			"componentType":5126,
			"count":88,
			"type":"VEC2"
		},
		{
			"bufferView":19,
			"componentType":5123,
			"count":132,
			"type":"SCALAR"
		},
		{
			"bufferView":20,
			"componentType":5126,
			"count":88,
			"max":[
				0.3637455105781555,
				1.0136828422546387,
				0.3637455999851227
			],
			"min":[
				-0.36374568939208984,
				-1.7038601636886597,
				-0.3637455999851227
			],
			"type":"VEC3"
		},
		{
			"bufferView":21,
			"componentType":5126,
			"count":88,
			"type":"VEC3"
		},
		{
			"bufferView":22,
			"componentType":5126,
			"count":88,
			"type":"VEC2"
		},
		{
			"bufferView":23,
			"componentType":5126,
			"count":88,
			"max":[
				0.3637455105781555,
				1.0136828422546387,
				0.3637455999851227
			],
			"min":[
				-0.36374568939208984,
				-1.7038601636886597,
				-0.3637455999851227
			],
			"type":"VEC3"
		},
		{
			"bufferView":24,
			"componentType":5126,
			"count":88,
			"type":"VEC3"
		},
		{
			"bufferView":25,
			"componentType":5126,
			"count":88,
			"type":"VEC2"
		},
		{
			"bufferView":26,
			"componentType":5126,
			"count":88,
			"max":[
				0.3637455105781555,
				1.0136828422546387,
				0.3637455999851227
			],
			"min":[
				-0.36374568939208984,
				-1.7038601636886597,
				-0.3637455999851227
			],
			"type":"VEC3"
		},
		{
			"bufferView":27,
			"componentType":5126,
			"count":88,
			"type":"VEC3"
		},
		{
			"bufferView":28,
			"componentType":5126,
			"count":88,
			"type":"VEC2"
		},
		{
			"bufferView":29,
			"componentType":5126,
			"count":88,
			"max":[
				0.3637455105781555,
				1.0136828422546387,
				0.3637455999851227
			],
			"min":[
				-0.36374568939208984,
				-1.7038601636886597,
				-0.3637455999851227
			],
			"type":"VEC3"
		},
		{
			"bufferView":30,
			"componentType":5126,
			"count":88,
			"type":"VEC3"
		},
		{
			"bufferView":31,
			"componentType":5126,
			"count":88,
			"type":"VEC2"
		},
		{
			"bufferView":32,
			"componentType":5126,
			"count":59,
			"max":[
				4.072301864624023,
				1.2249360084533691,
				4.9699811935424805
			],
			"min":[
				-0.8669590353965759,
				-3.724668264389038,
				-1.760111689567566
			],
			"type":"VEC3"
		},
		{
			"bufferView":33,
			"componentType":5126,
			"count":59,
			"type":"VEC3"
		},
		{
			"bufferView":34,
			"componentType":5126,
			"count":59,
			"type":"VEC2"
		},
		{
			"bufferView":35,
			"componentType":5123,
			"count":129,
			"type":"SCALAR"
		},
		{
			"bufferView":36,
			"componentType":5126,
			"count":116,
			"max":[
				1.1411932706832886,
				1.9479527473449707,
				2.2533562183380127
			],
			"min":[
				-1.9258917570114136,
				-1.152207374572754,
				0.06481269001960754
			],
			"type":"VEC3"
		},
		{
			"bufferView":37,
			"componentType":5126,
			"count":116,
			"type":"VEC3"
		},
		{
			"bufferView":38,
			"componentType":5126,
			"count":116,
			"type":"VEC2"
		},
		{
			"bufferView":39,
			"componentType":5123,
			"count":198,
			"type":"SCALAR"
		},
		{
			"bufferView":40,
			"componentType":5126,
			"count":3840,
			"max":[
				2.045670509338379,
				3.3335862159729004,
				0.19603466987609863
			],
			"min":[
				-0.3067166209220886,
				-1.4014003276824951,
				-3.117068290710449
			],
			"type":"VEC3"
		},
		{
			"bufferView":41,
			"componentType":5126,
			"count":3840,
			"type":"VEC3"
		},
		{
			"bufferView":42,
			"componentType":5126,
			"count":3840,
			"type":"VEC2"
		},
		{
			"bufferView":43,
			"componentType":5123,
			"count":5736,
			"type":"SCALAR"
		},
		{
			"bufferView":44,
			"componentType":5126,
			"count":100,
			"max":[
				4.072301864624023,
				1.2249360084533691,
				3.435927629470825
			],
			"min":[
				-0.8669590353965759,
				-3.724668264389038,
				-1.760111689567566
			],
			"type":"VEC3"
		},
		{
			"bufferView":45,
			"componentType":5126,
			"count":100,
			"type":"VEC3"
		},
		{
			"bufferView":46,
			"componentType":5126,
			"count":100,
			"type":"VEC2"
		},
		{
			"bufferView":47,
			"componentType":5123,
			"count":174,
			"type":"SCALAR"
		},
		{
			"bufferView":48,
			"componentType":5126,
			"count":120,
			"max":[
				3.396696090698242,
				1.9479527473449707,
				2.2533562183380127
			],
			"min":[
				-1.9258917570114136,
				-3.057284355163574,
				0.06481269001960754
			],
			"type":"VEC3"
		},
		{
			"bufferView":49,
			"componentType":5126,
			"count":120,
			"type":"VEC3"
		},
		{
			"bufferView":50,
			"componentType":5126,
			"count":120,
			"type":"VEC2"
		},
		{
			"bufferView":51,
			"componentType":5123,
			"count":204,
			"type":"SCALAR"
		},
		{
			"bufferView":52,
			"componentType":5126,
			"count":3840,
			"max":[
				2.045670509338379,
				3.3335862159729004,
				0.19603466987609863
			],
			"min":[
				-0.3067166209220886,
				-1.4014003276824951,
				-3.117068290710449
			],
			"type":"VEC3"
		},
		{
			"bufferView":53,
			"componentType":5126,
			"count":3840,
			"type":"VEC3"
		},
		{
			"bufferView":54,
			"componentType":5126,
			"count":3840,
			"type":"VEC2"
		},
		{
			"bufferView":55,
			"componentType":5126,
			"count":1040,
			"max":[
				1.0983989238739014,
				2.5209314823150635,
				0.11546653509140015
			],
			"min":[
				-0.3172115385532379,
				-0.22886109352111816,
				-0.3200504779815674
			],
			"type":"VEC3"
		},
		{
			"bufferView":56,
			"componentType":5126,
			"count":1040,
			"type":"VEC3"
		},
		{
			"bufferView":57,
			"componentType":5126,
			"count":1040,
			"type":"VEC2"
		},
		{
			"bufferView":58,
			"componentType":5123,
			"count":1578,
			"type":"SCALAR"
		},
		{
			"bufferView":59,
			"componentType":5126,
			"count":42,
			"max":[
				0.2953846752643585,
				0.12430070340633392,
				0.5539942979812622
			],
			"min":[
				-0.28657299280166626,
				-0.12430070340633392,
				-0.49209845066070557
			],
			"type":"VEC3"
		},
		{
			"bufferView":60,
			"componentType":5126,
			"count":42,
			"type":"VEC3"
		},
		{
			"bufferView":61,
			"componentType":5126,
			"count":42,
			"type":"VEC2"
		},
		{
			"bufferView":62,
			"componentType":5123,
			"count":72,
			"type":"SCALAR"
		},
		{
			"bufferView":63,
			"componentType":5126,
			"count":42,
			"max":[
				0.2953846752643585,
				0.12430070340633392,
				0.5539942979812622
			],
			"min":[
				-0.28657299280166626,
				-0.12430070340633392,
				-0.49209845066070557
			],
			"type":"VEC3"
		},
		{
			"bufferView":64,
			"componentType":5126,
			"count":42,
			"type":"VEC3"
		},
		{
			"bufferView":65,
			"componentType":5126,
			"count":42,
			"type":"VEC2"
		}
	],
	"bufferViews":[
		{
			"buffer":0,
			"byteLength":4392,
			"byteOffset":0,
			"target":34962
		},
		{
			"buffer":0,
			"byteLength":4392,
			"byteOffset":4392,
			"target":34962
		},
		{
			"buffer":0,
			"byteLength":2928,
			"byteOffset":8784,
			"target":34962
		},
		{
			"buffer":0,
			"byteLength":1284,
			"byteOffset":11712,
			"target":34963
		},
		{
			"buffer":0,
			"byteLength":48,
			"byteOffset":12996,
			"target":34962
		},
		{
			"buffer":0,
			"byteLength":48,
			"byteOffset":13044,
			"target":34962
		},
		{
			"buffer":0,
			"byteLength":32,
			"byteOffset":13092,
			"target":34962
		},
		{
			"buffer":0,
			"byteLength":12,
			"byteOffset":13124,
			"target":34963
		},
		{
			"buffer":0,
			"byteLength":12480,
			"byteOffset":13136,
			"target":34962
		},
		{
			"buffer":0,
			"byteLength":12480,
			"byteOffset":25616,
			"target":34962
		},
		{
			"buffer":0,
			"byteLength":8320,
			"byteOffset":38096,
			"target":34962
		},
		{
			"buffer":0,
			"byteLength":3492,
			"byteOffset":46416,
			"target":34963
		},
		{
			"buffer":0,
			"byteLength":9612,
			"byteOffset":49908,
			"target":34962
		},
		{
			"buffer":0,
			"byteLength":9612,
			"byteOffset":59520,
			"target":34962
		},
		{
			"buffer":0,
			"byteLength":6408,
			"byteOffset":69132,
			"target":34962
		},
		{
			"buffer":0,
			"byteLength":2910,
			"byteOffset":75540,
			"target":34963
		},
		{
			"buffer":0,
			"byteLength":1056,
			"byteOffset":78452,
			"target":34962
		},
		{
			"buffer":0,
			"byteLength":1056,
			"byteOffset":79508,
			"target":34962
		},
		{
			"buffer":0,
			"byteLength":704,
			"byteOffset":80564,
			"target":34962
		},
		{
			"buffer":0,
			"byteLength":264,
			"byteOffset":81268,
			"target":34963
		},
		{
			"buffer":0,
			"byteLength":1056,
			"byteOffset":81532,
			"target":34962
		},
		{
			"buffer":0,
			"byteLength":1056,
			"byteOffset":82588,
			"target":34962
		},
		{
			"buffer":0,
			"byteLength":704,
			"byteOffset":83644,
			"target":34962
		},
		{
			"buffer":0,
			"byteLength":1056,
			"byteOffset":84348,
			"target":34962
		},
		{
			"buffer":0,
			"byteLength":1056,
			"byteOffset":85404,
			"target":34962
		},
		{
			"buffer":0,
			"byteLength":704,
			"byteOffset":86460,
			"target":34962
		},
		{
			"buffer":0,
			"byteLength":1056,
			"byteOffset":87164,
			"target":34962
		},
		{
			"buffer":0,
			"byteLength":1056,
			"byteOffset":88220,
			"target":34962
		},
		{
			"buffer":0,
			"byteLength":704,
			"byteOffset":89276,
			"target":34962
		},
		{
			"buffer":0,
			"byteLength":1056,
			"byteOffset":89980,
			"target":34962
		},
		{
			"buffer":0,
			"byteLength":1056,
			"byteOffset":91036,
			"target":34962
		},
		{
			"buffer":0,
			"byteLength":704,
			"byteOffset":92092,
			"target":34962
		},
		{
			"buffer":0,
			"byteLength":708,
			"byteOffset":92796,
			"target":34962
		},
		{
			"buffer":0,
			"byteLength":708,
			"byteOffset":93504,
			"target":34962
		},
		{
			"buffer":0,
			"byteLength":472,
			"byteOffset":94212,
			"target":34962
		},
		{
			"buffer":0,
			"byteLength":258,
			"byteOffset":94684,
			"target":34963
		},
		{
			"buffer":0,
			"byteLength":1392,
			"byteOffset":94944,
			"target":34962
		},
		{
			"buffer":0,
			"byteLength":1392,
			"byteOffset":96336,
			"target":34962
		},
		{
			"buffer":0,
			"byteLength":928,
			"byteOffset":97728,
			"target":34962
		},
		{
			"buffer":0,
			"byteLength":396,
			"byteOffset":98656,
			"target":34963
		},
		{
			"buffer":0,
			"byteLength":46080,
			"byteOffset":99052,
			"target":34962
		},
		{
			"buffer":0,
			"byteLength":46080,
			"byteOffset":145132,
			"target":34962
		},
		{
			"buffer":0,
			"byteLength":30720,
			"byteOffset":191212,
			"target":34962
		},
		{
			"buffer":0,
			"byteLength":11472,
			"byteOffset":221932,
			"target":34963
		},
		{
			"buffer":0,
			"byteLength":1200,
			"byteOffset":233404,
			"target":34962
		},
		{
			"buffer":0,
			"byteLength":1200,
			"byteOffset":234604,
			"target":34962
		},
		{
			"buffer":0,
			"byteLength":800,
			"byteOffset":235804,
			"target":34962
		},
		{
			"buffer":0,
			"byteLength":348,
			"byteOffset":236604,
			"target":34963
		},
		{
			"buffer":0,
			"byteLength":1440,
			"byteOffset":236952,
			"target":34962
		},
		{
			"buffer":0,
			"byteLength":1440,
			"byteOffset":238392,
			"target":34962
		},
		{
			"buffer":0,
			"byteLength":960,
			"byteOffset":239832,
			"target":34962
		},
		{
			"buffer":0,
			"byteLength":408,
			"byteOffset":240792,
			"target":34963
		},
		{
			"buffer":0,
			"byteLength":46080,
			"byteOffset":241200,
			"target":34962
		},
		{
			"buffer":0,
			"byteLength":46080,
			"byteOffset":287280,
			"target":34962
		},
		{
			"buffer":0,
			"byteLength":30720,
			"byteOffset":333360,
			"target":34962
		},
		{
			"buffer":0,
			"byteLength":12480,
			"byteOffset":364080,
			"target":34962
		},
		{
			"buffer":0,
			"byteLength":12480,
			"byteOffset":376560,
			"target":34962
		},
		{
			"buffer":0,
			"byteLength":8320,
			"byteOffset":389040,
			"target":34962
		},
		{
			"buffer":0,
			"byteLength":3156,
			"byteOffset":397360,
			"target":34963
		},
		{
			"buffer":0,
			"byteLength":504,
			"byteOffset":400516,
			"target":34962
		},
		{
			"buffer":0,
			"byteLength":504,
			"byteOffset":401020,
			"target":34962
		},
		{
			"buffer":0,
			"byteLength":336,
			"byteOffset":401524,
			"target":34962
		},
		{
			"buffer":0,
			"byteLength":144,
			"byteOffset":401860,
			"target":34963
		},
		{
			"buffer":0,
			"byteLength":504,
			"byteOffset":402004,
			"target":34962
		},
		{
			"buffer":0,
			"byteLength":504,
			"byteOffset":402508,
			"target":34962
		},
		{
			"buffer":0,
			"byteLength":336,
			"byteOffset":403012,
			"target":34962
		}
	],
	"samplers":[
		{
			"magFilter":9729,
			"minFilter":9987
		}
	],
	"buffers":[
		{
			"byteLength":403348,
			"uri":"castlecoaster.bin"
		}
	]
}
