{
	"asset":{
		"generator":"Khronos glTF Blender I/O v4.1.63",
		"version":"2.0"
	},
	"extensionsUsed":[
		"KHR_materials_emissive_strength"
	],
	"scene":0,
	"scenes":[
		{
			"name":"Scene",
			"nodes":[
				0,
				1,
				2,
				3,
				4,
				5,
				6,
				7,
				8,
				9,
				10,
				11,
				12,
				13,
				14,
				15,
				16,
				17,
				18,
				19,
				20,
				21,
				22,
				23,
				24,
				25,
				26
			]
		}
	],
	"nodes":[
		{
			"mesh":0,
			"name":"Platform1-col",
			"translation":[
				0.07528489828109741,
				0.21785539388656616,
				0.12887167930603027
			]
		},
		{
			"mesh":1,
			"name":"Ramp-col",
			"translation":[
				0.07528489828109741,
				0.21785539388656616,
				0.12887167930603027
			]
		},
		{
			"mesh":2,
			"name":"Platform2-col",
			"translation":[
				0.07528489828109741,
				0.21785539388656616,
				0.12887167930603027
			]
		},
		{
			"mesh":3,
			"name":"Gate-col",
			"scale":[
				0.10000002384185791,
				0.10000002384185791,
				0.10000002384185791
			],
			"translation":[
				-1.321218490600586,
				-3.2450406551361084,
				11.931424140930176
			]
		},
		{
			"mesh":4,
			"name":"Platform3-col",
			"translation":[
				0.3744449019432068,
				-3.2450406551361084,
				11.931424140930176
			]
		},
		{
			"mesh":5,
			"name":"Funnel-col",
			"rotation":[
				0,
				-0.004188179038465023,
				0,
				0.999991238117218
			],
			"translation":[
				3.099619150161743,
				3.781893014907837,
				32.70614242553711
			]
		},
		{
			"mesh":6,
			"name":"Cube-col.001",
			"scale":[
				0.0892210602760315,
				0.10000002384185791,
				0.10000002384185791
			],
			"translation":[
				13.752031326293945,
				-3.242603063583374,
				59.19222640991211
			]
		},
		{
			"mesh":7,
			"name":"Cube-col.002",
			"translation":[
				3.0577871799468994,
				-3.235921621322632,
				35.256710052490234
			]
		},
		{
			"mesh":6,
			"name":"Cube-col.003",
			"scale":[
				0.0892210602760315,
				0.10000002384185791,
				0.10000002384185791
			],
			"translation":[
				13.761552810668945,
				-3.242601156234741,
				79.83245086669922
			]
		},
		{
			"mesh":6,
			"name":"Cube-col.004",
			"scale":[
				0.0892210602760315,
				0.10000002384185791,
				0.10000002384185791
			],
			"translation":[
				13.765619277954102,
				-3.242601156234741,
				100.79094696044922
			]
		},
		{
			"mesh":8,
			"name":"Billboard1-col",
			"scale":[
				0.0892210602760315,
				0.10000002384185791,
				0.10000002384185791
			],
			"translation":[
				13.769182205200195,
				-2.9531686305999756,
				69.85521697998047
			]
		},
		{
			"mesh":8,
			"name":"Billboard2-col",
			"scale":[
				0.0892210602760315,
				0.10000002384185791,
				0.10000002384185791
			],
			"translation":[
				13.769182205200195,
				-2.9531686305999756,
				90.58538055419922
			]
		},
		{
			"mesh":9,
			"name":"Lamp-col",
			"translation":[
				0.2967013716697693,
				0.4727420508861542,
				-1.4559977054595947
			]
		},
		{
			"mesh":9,
			"name":"Lamp-col.001",
			"translation":[
				-0.3290577530860901,
				0.5893592238426208,
				-3.687168598175049
			]
		},
		{
			"mesh":9,
			"name":"Lamp-col.002",
			"translation":[
				3.5810797214508057,
				0.2487296462059021,
				-2.701450824737549
			]
		},
		{
			"mesh":9,
			"name":"Lamp-col.003",
			"translation":[
				2.8758604526519775,
				0.2404136061668396,
				-0.5062296390533447
			]
		},
		{
			"mesh":9,
			"name":"Lamp-col.004",
			"translation":[
				3.617231607437134,
				0.7539615035057068,
				2.185054302215576
			]
		},
		{
			"mesh":9,
			"name":"Lamp-col.005",
			"translation":[
				3.735018014907837,
				-3.0540406703948975,
				38.23751449584961
			]
		},
		{
			"mesh":9,
			"name":"Lamp-col.006",
			"translation":[
				2.425661325454712,
				-3.0260674953460693,
				45.179439544677734
			]
		},
		{
			"mesh":9,
			"name":"Lamp-col.007",
			"translation":[
				8.065163612365723,
				-3.0260674953460693,
				45.336299896240234
			]
		},
		{
			"mesh":9,
			"name":"Lamp-col.008",
			"translation":[
				12.19106388092041,
				-3.0260674953460693,
				46.675289154052734
			]
		},
		{
			"mesh":9,
			"name":"Lamp-col.009",
			"translation":[
				14.434839248657227,
				-3.0216615200042725,
				86.25630950927734
			]
		},
		{
			"mesh":9,
			"name":"Lamp-col.010",
			"translation":[
				14.330049514770508,
				-3.0216615200042725,
				99.53356170654297
			]
		},
		{
			"mesh":9,
			"name":"Lamp-col.011",
			"translation":[
				13.276215553283691,
				-3.0216615200042725,
				111.39104461669922
			]
		},
		{
			"mesh":10,
			"name":"Lamp-col.012",
			"translation":[
				-0.2470150589942932,
				0.44254109263420105,
				0.22854208946228027
			]
		},
		{
			"mesh":9,
			"name":"Lamp-col.013",
			"translation":[
				13.054741859436035,
				-3.022336721420288,
				53.104488372802734
			]
		},
		{
			"mesh":9,
			"name":"Lamp-col.014",
			"translation":[
				14.553346633911133,
				-3.045173406600952,
				67.64080047607422
			]
		}
	],
	"materials":[
		{
			"doubleSided":true,
			"name":"BRICKS",
			"pbrMetallicRoughness":{
				"baseColorTexture":{
					"index":0
				},
				"metallicFactor":0,
				"roughnessFactor":0.5
			}
		},
		{
			"doubleSided":true,
			"name":"BrickSpeed",
			"pbrMetallicRoughness":{
				"baseColorTexture":{
					"index":1
				},
				"metallicFactor":0,
				"roughnessFactor":0.5
			}
		},
		{
			"doubleSided":true,
			"name":"Material.001",
			"pbrMetallicRoughness":{
				"baseColorTexture":{
					"index":2
				},
				"metallicFactor":0,
				"roughnessFactor":0.5
			}
		},
		{
			"alphaMode":"BLEND",
			"doubleSided":true,
			"name":"TUBETEXTURE",
			"pbrMetallicRoughness":{
				"baseColorFactor":[
					1,
					1,
					1,
					0.32374101877212524
				],
				"baseColorTexture":{
					"index":3
				},
				"metallicFactor":0,
				"roughnessFactor":0.5
			}
		},
		{
			"doubleSided":true,
			"name":"BETON",
			"pbrMetallicRoughness":{
				"baseColorTexture":{
					"index":4
				},
				"metallicFactor":0,
				"roughnessFactor":0.5
			}
		},
		{
			"doubleSided":true,
			"name":"Billboard.002",
			"pbrMetallicRoughness":{
				"baseColorTexture":{
					"index":5
				},
				"metallicFactor":0,
				"roughnessFactor":0.5
			}
		},
		{
			"doubleSided":true,
			"name":"LAMPPOST",
			"pbrMetallicRoughness":{
				"baseColorTexture":{
					"index":6
				},
				"metallicFactor":0,
				"roughnessFactor":0.5
			}
		},
		{
			"alphaMode":"BLEND",
			"doubleSided":true,
			"emissiveFactor":[
				1,
				1,
				1
			],
			"extensions":{
				"KHR_materials_emissive_strength":{
					"emissiveStrength":1.5
				}
			},
			"name":"LAMPGLASS",
			"pbrMetallicRoughness":{
				"baseColorFactor":[
					0.800000011920929,
					0.800000011920929,
					0.800000011920929,
					0.4000000059604645
				],
				"metallicFactor":0,
				"roughnessFactor":0.5
			}
		}
	],
	"meshes":[
		{
			"name":"Plane",
			"primitives":[
				{
					"attributes":{
						"POSITION":0,
						"NORMAL":1,
						"TEXCOORD_0":2
					},
					"indices":3,
					"material":0
				}
			]
		},
		{
			"name":"Cylinder",
			"primitives":[
				{
					"attributes":{
						"POSITION":4,
						"NORMAL":5,
						"TEXCOORD_0":6
					},
					"indices":7,
					"material":0
				}
			]
		},
		{
			"name":"Plane.001",
			"primitives":[
				{
					"attributes":{
						"POSITION":8,
						"NORMAL":9,
						"TEXCOORD_0":10
					},
					"indices":11,
					"material":0
				},
				{
					"attributes":{
						"POSITION":12,
						"NORMAL":13,
						"TEXCOORD_0":14
					},
					"indices":15,
					"material":1
				}
			]
		},
		{
			"name":"Cube.002",
			"primitives":[
				{
					"attributes":{
						"POSITION":16,
						"NORMAL":17,
						"TEXCOORD_0":18
					},
					"indices":19,
					"material":2
				}
			]
		},
		{
			"name":"Plane.002",
			"primitives":[
				{
					"attributes":{
						"POSITION":20,
						"NORMAL":21,
						"TEXCOORD_0":22
					},
					"indices":23,
					"material":0
				}
			]
		},
		{
			"name":"Cylinder.001",
			"primitives":[
				{
					"attributes":{
						"POSITION":24,
						"NORMAL":25,
						"TEXCOORD_0":26
					},
					"indices":27,
					"material":3
				}
			]
		},
		{
			"name":"Cube.010",
			"primitives":[
				{
					"attributes":{
						"POSITION":28,
						"NORMAL":29,
						"TEXCOORD_0":30
					},
					"indices":31,
					"material":4
				}
			]
		},
		{
			"name":"Cube.008",
			"primitives":[
				{
					"attributes":{
						"POSITION":32,
						"NORMAL":33,
						"TEXCOORD_0":34
					},
					"indices":35,
					"material":4
				}
			]
		},
		{
			"name":"Cube.003",
			"primitives":[
				{
					"attributes":{
						"POSITION":36,
						"NORMAL":37,
						"TEXCOORD_0":38
					},
					"indices":39,
					"material":5
				}
			]
		},
		{
			"name":"Cube.020",
			"primitives":[
				{
					"attributes":{
						"POSITION":40,
						"NORMAL":41,
						"TEXCOORD_0":42
					},
					"indices":43,
					"material":6
				},
				{
					"attributes":{
						"POSITION":44,
						"NORMAL":45,
						"TEXCOORD_0":46
					},
					"indices":47,
					"material":7
				}
			]
		},
		{
			"name":"Cube.001",
			"primitives":[
				{
					"attributes":{
						"POSITION":48,
						"NORMAL":49,
						"TEXCOORD_0":50
					},
					"indices":51,
					"material":6
				},
				{
					"attributes":{
						"POSITION":52,
						"NORMAL":53,
						"TEXCOORD_0":54
					},
					"indices":55,
					"material":7
				}
			]
		}
	],
	"textures":[
		{
			"sampler":0,
			"source":0
		},
		{
			"sampler":0,
			"source":1
		},
		{
			"sampler":0,
			"source":0
		},
		{
			"sampler":0,
			"source":2
		},
		{
			"sampler":0,
			"source":3
		},
		{
			"sampler":0,
			"source":4
		},
		{
			"sampler":0,
			"source":5
		}
	],
	"images":[
		{
			"mimeType":"image/png",
			"name":"Tutshngl",
			"uri":"Tutshngl.png"
		},
		{
			"mimeType":"image/png",
			"name":"n_tutsh",
			"uri":"n_tutsh.png"
		},
		{
			"mimeType":"image/png",
			"name":"freeze",
			"uri":"freeze.png"
		},
		{
			"mimeType":"image/png",
			"name":"BETON",
			"uri":"BETON.png"
		},
		{
			"mimeType":"image/png",
			"name":"balls",
			"uri":"balls.png"
		},
		{
			"mimeType":"image/png",
			"name":"panel_3",
			"uri":"panel_3.png"
		}
	],
	"accessors":[
		{
			"bufferView":0,
			"componentType":5126,
			"count":110,
			"max":[
				0.4745944142341614,
				0.31342652440071106,
				0.4578986167907715
			],
			"min":[
				-0.6646850109100342,
				-0.29690080881118774,
				-3.890845537185669
			],
			"type":"VEC3"
		},
		{
			"bufferView":1,
			"componentType":5126,
			"count":110,
			"type":"VEC3"
		},
		{
			"bufferView":2,
			"componentType":5126,
			"count":110,
			"type":"VEC2"
		},
		{
			"bufferView":3,
			"componentType":5123,
			"count":186,
			"type":"SCALAR"
		},
		{
			"bufferView":4,
			"componentType":5126,
			"count":6626,
			"max":[
				3.365330934524536,
				0.814812958240509,
				-2.761054754257202
			],
			"min":[
				-0.29006364941596985,
				-0.23021984100341797,
				-5.522170543670654
			],
			"type":"VEC3"
		},
		{
			"bufferView":5,
			"componentType":5126,
			"count":6626,
			"type":"VEC3"
		},
		{
			"bufferView":6,
			"componentType":5126,
			"count":6626,
			"type":"VEC2"
		},
		{
			"bufferView":7,
			"componentType":5123,
			"count":10062,
			"type":"SCALAR"
		},
		{
			"bufferView":8,
			"componentType":5126,
			"count":108,
			"max":[
				3.760939836502075,
				2.977517604827881,
				5.445939064025879
			],
			"min":[
				2.587660551071167,
				-0.517228901386261,
				-2.9684834480285645
			],
			"type":"VEC3"
		},
		{
			"bufferView":9,
			"componentType":5126,
			"count":108,
			"type":"VEC3"
		},
		{
			"bufferView":10,
			"componentType":5126,
			"count":108,
			"type":"VEC2"
		},
		{
			"bufferView":11,
			"componentType":5123,
			"count":174,
			"type":"SCALAR"
		},
		{
			"bufferView":12,
			"componentType":5126,
			"count":4,
			"max":[
				3.636939764022827,
				2.773669719696045,
				5.389387607574463
			],
			"min":[
				2.711660385131836,
				-0.13019724190235138,
				1.7363039255142212
			],
			"type":"VEC3"
		},
		{
			"bufferView":13,
			"componentType":5126,
			"count":4,
			"type":"VEC3"
		},
		{
			"bufferView":14,
			"componentType":5126,
			"count":4,
			"type":"VEC2"
		},
		{
			"bufferView":15,
			"componentType":5123,
			"count":6,
			"type":"SCALAR"
		},
		{
			"bufferView":16,
			"componentType":5126,
			"count":56,
			"max":[
				156.4215850830078,
				4.760876655578613,
				378.5103454589844
			],
			"min":[
				144.9642333984375,
				-2.2333993911743164,
				375.9806213378906
			],
			"type":"VEC3"
		},
		{
			"bufferView":17,
			"componentType":5126,
			"count":56,
			"type":"VEC3"
		},
		{
			"bufferView":18,
			"componentType":5126,
			"count":56,
			"type":"VEC2"
		},
		{
			"bufferView":19,
			"componentType":5123,
			"count":96,
			"type":"SCALAR"
		},
		{
			"bufferView":20,
			"componentType":5126,
			"count":132,
			"max":[
				14.536592483520508,
				0.23563545942306519,
				100.14680480957031
			],
			"min":[
				1.5586661100387573,
				-0.44556209444999695,
				22.03803253173828
			],
			"type":"VEC3"
		},
		{
			"bufferView":21,
			"componentType":5126,
			"count":132,
			"type":"VEC3"
		},
		{
			"bufferView":22,
			"componentType":5126,
			"count":132,
			"type":"VEC2"
		},
		{
			"bufferView":23,
			"componentType":5123,
			"count":240,
			"type":"SCALAR"
		},
		{
			"bufferView":24,
			"componentType":5126,
			"count":8192,
			"max":[
				1.3835058212280273,
				3.7634477615356445,
				2.692103862762451
			],
			"min":[
				-1.4203826189041138,
				-4.68388032913208,
				-5.002963542938232
			],
			"type":"VEC3"
		},
		{
			"bufferView":25,
			"componentType":5126,
			"count":8192,
			"type":"VEC3"
		},
		{
			"bufferView":26,
			"componentType":5126,
			"count":8192,
			"type":"VEC2"
		},
		{
			"bufferView":27,
			"componentType":5123,
			"count":12288,
			"type":"SCALAR"
		},
		{
			"bufferView":28,
			"componentType":5126,
			"count":24,
			"max":[
				10.66171646118164,
				2.330052375793457,
				2.500263214111328
			],
			"min":[
				-10.66171646118164,
				-2.330052137374878,
				-2.500263214111328
			],
			"type":"VEC3"
		},
		{
			"bufferView":29,
			"componentType":5126,
			"count":24,
			"type":"VEC3"
		},
		{
			"bufferView":30,
			"componentType":5126,
			"count":24,
			"type":"VEC2"
		},
		{
			"bufferView":31,
			"componentType":5123,
			"count":36,
			"type":"SCALAR"
		},
		{
			"bufferView":32,
			"componentType":5126,
			"count":18,
			"max":[
				0.58326256275177,
				0.6941521167755127,
				0.6196162700653076
			],
			"min":[
				-0.6088072657585144,
				-0.23360806703567505,
				-0.9102432727813721
			],
			"type":"VEC3"
		},
		{
			"bufferView":33,
			"componentType":5126,
			"count":18,
			"type":"VEC3"
		},
		{
			"bufferView":34,
			"componentType":5126,
			"count":18,
			"type":"VEC2"
		},
		{
			"bufferView":35,
			"componentType":5123,
			"count":24,
			"type":"SCALAR"
		},
		{
			"bufferView":36,
			"componentType":5126,
			"count":114,
			"max":[
				10.519546508789062,
				17.11081314086914,
				1.67584228515625
			],
			"min":[
				-10.553680419921875,
				-6.619136810302734,
				-1.67547607421875
			],
			"type":"VEC3"
		},
		{
			"bufferView":37,
			"componentType":5126,
			"count":114,
			"type":"VEC3"
		},
		{
			"bufferView":38,
			"componentType":5126,
			"count":114,
			"type":"VEC2"
		},
		{
			"bufferView":39,
			"componentType":5123,
			"count":216,
			"type":"SCALAR"
		},
		{
			"bufferView":40,
			"componentType":5126,
			"count":40,
			"max":[
				0.07926210761070251,
				0.024152392521500587,
				0.07888639718294144
			],
			"min":[
				-0.0782950296998024,
				-0.4671352505683899,
				-0.07867074757814407
			],
			"type":"VEC3"
		},
		{
			"bufferView":41,
			"componentType":5126,
			"count":40,
			"type":"VEC3"
		},
		{
			"bufferView":42,
			"componentType":5126,
			"count":40,
			"type":"VEC2"
		},
		{
			"bufferView":43,
			"componentType":5123,
			"count":60,
			"type":"SCALAR"
		},
		{
			"bufferView":44,
			"componentType":5126,
			"count":1984,
			"max":[
				0.1988839954137802,
				0.3743111193180084,
				0.1968640238046646
			],
			"min":[
				-0.1936846673488617,
				-0.018257778137922287,
				-0.19570477306842804
			],
			"type":"VEC3"
		},
		{
			"bufferView":45,
			"componentType":5126,
			"count":1984,
			"type":"VEC3"
		},
		{
			"bufferView":46,
			"componentType":5126,
			"count":1984,
			"type":"VEC2"
		},
		{
			"bufferView":47,
			"componentType":5123,
			"count":2880,
			"type":"SCALAR"
		},
		{
			"bufferView":48,
			"componentType":5126,
			"count":40,
			"max":[
				0.07926210761070251,
				0.024152392521500587,
				0.07888639718294144
			],
			"min":[
				-0.0782950296998024,
				-0.4671352505683899,
				-0.07867074757814407
			],
			"type":"VEC3"
		},
		{
			"bufferView":49,
			"componentType":5126,
			"count":40,
			"type":"VEC3"
		},
		{
			"bufferView":50,
			"componentType":5126,
			"count":40,
			"type":"VEC2"
		},
		{
			"bufferView":51,
			"componentType":5123,
			"count":60,
			"type":"SCALAR"
		},
		{
			"bufferView":52,
			"componentType":5126,
			"count":559,
			"max":[
				0.1988839954137802,
				0.3743111193180084,
				0.1968640238046646
			],
			"min":[
				-0.1936846673488617,
				-0.018257778137922287,
				-0.19570477306842804
			],
			"type":"VEC3"
		},
		{
			"bufferView":53,
			"componentType":5126,
			"count":559,
			"type":"VEC3"
		},
		{
			"bufferView":54,
			"componentType":5126,
			"count":559,
			"type":"VEC2"
		},
		{
			"bufferView":55,
			"componentType":5123,
			"count":2880,
			"type":"SCALAR"
		}
	],
	"bufferViews":[
		{
			"buffer":0,
			"byteLength":1320,
			"byteOffset":0,
			"target":34962
		},
		{
			"buffer":0,
			"byteLength":1320,
			"byteOffset":1320,
			"target":34962
		},
		{
			"buffer":0,
			"byteLength":880,
			"byteOffset":2640,
			"target":34962
		},
		{
			"buffer":0,
			"byteLength":372,
			"byteOffset":3520,
			"target":34963
		},
		{
			"buffer":0,
			"byteLength":79512,
			"byteOffset":3892,
			"target":34962
		},
		{
			"buffer":0,
			"byteLength":79512,
			"byteOffset":83404,
			"target":34962
		},
		{
			"buffer":0,
			"byteLength":53008,
			"byteOffset":162916,
			"target":34962
		},
		{
			"buffer":0,
			"byteLength":20124,
			"byteOffset":215924,
			"target":34963
		},
		{
			"buffer":0,
			"byteLength":1296,
			"byteOffset":236048,
			"target":34962
		},
		{
			"buffer":0,
			"byteLength":1296,
			"byteOffset":237344,
			"target":34962
		},
		{
			"buffer":0,
			"byteLength":864,
			"byteOffset":238640,
			"target":34962
		},
		{
			"buffer":0,
			"byteLength":348,
			"byteOffset":239504,
			"target":34963
		},
		{
			"buffer":0,
			"byteLength":48,
			"byteOffset":239852,
			"target":34962
		},
		{
			"buffer":0,
			"byteLength":48,
			"byteOffset":239900,
			"target":34962
		},
		{
			"buffer":0,
			"byteLength":32,
			"byteOffset":239948,
			"target":34962
		},
		{
			"buffer":0,
			"byteLength":12,
			"byteOffset":239980,
			"target":34963
		},
		{
			"buffer":0,
			"byteLength":672,
			"byteOffset":239992,
			"target":34962
		},
		{
			"buffer":0,
			"byteLength":672,
			"byteOffset":240664,
			"target":34962
		},
		{
			"buffer":0,
			"byteLength":448,
			"byteOffset":241336,
			"target":34962
		},
		{
			"buffer":0,
			"byteLength":192,
			"byteOffset":241784,
			"target":34963
		},
		{
			"buffer":0,
			"byteLength":1584,
			"byteOffset":241976,
			"target":34962
		},
		{
			"buffer":0,
			"byteLength":1584,
			"byteOffset":243560,
			"target":34962
		},
		{
			"buffer":0,
			"byteLength":1056,
			"byteOffset":245144,
			"target":34962
		},
		{
			"buffer":0,
			"byteLength":480,
			"byteOffset":246200,
			"target":34963
		},
		{
			"buffer":0,
			"byteLength":98304,
			"byteOffset":246680,
			"target":34962
		},
		{
			"buffer":0,
			"byteLength":98304,
			"byteOffset":344984,
			"target":34962
		},
		{
			"buffer":0,
			"byteLength":65536,
			"byteOffset":443288,
			"target":34962
		},
		{
			"buffer":0,
			"byteLength":24576,
			"byteOffset":508824,
			"target":34963
		},
		{
			"buffer":0,
			"byteLength":288,
			"byteOffset":533400,
			"target":34962
		},
		{
			"buffer":0,
			"byteLength":288,
			"byteOffset":533688,
			"target":34962
		},
		{
			"buffer":0,
			"byteLength":192,
			"byteOffset":533976,
			"target":34962
		},
		{
			"buffer":0,
			"byteLength":72,
			"byteOffset":534168,
			"target":34963
		},
		{
			"buffer":0,
			"byteLength":216,
			"byteOffset":534240,
			"target":34962
		},
		{
			"buffer":0,
			"byteLength":216,
			"byteOffset":534456,
			"target":34962
		},
		{
			"buffer":0,
			"byteLength":144,
			"byteOffset":534672,
			"target":34962
		},
		{
			"buffer":0,
			"byteLength":48,
			"byteOffset":534816,
			"target":34963
		},
		{
			"buffer":0,
			"byteLength":1368,
			"byteOffset":534864,
			"target":34962
		},
		{
			"buffer":0,
			"byteLength":1368,
			"byteOffset":536232,
			"target":34962
		},
		{
			"buffer":0,
			"byteLength":912,
			"byteOffset":537600,
			"target":34962
		},
		{
			"buffer":0,
			"byteLength":432,
			"byteOffset":538512,
			"target":34963
		},
		{
			"buffer":0,
			"byteLength":480,
			"byteOffset":538944,
			"target":34962
		},
		{
			"buffer":0,
			"byteLength":480,
			"byteOffset":539424,
			"target":34962
		},
		{
			"buffer":0,
			"byteLength":320,
			"byteOffset":539904,
			"target":34962
		},
		{
			"buffer":0,
			"byteLength":120,
			"byteOffset":540224,
			"target":34963
		},
		{
			"buffer":0,
			"byteLength":23808,
			"byteOffset":540344,
			"target":34962
		},
		{
			"buffer":0,
			"byteLength":23808,
			"byteOffset":564152,
			"target":34962
		},
		{
			"buffer":0,
			"byteLength":15872,
			"byteOffset":587960,
			"target":34962
		},
		{
			"buffer":0,
			"byteLength":5760,
			"byteOffset":603832,
			"target":34963
		},
		{
			"buffer":0,
			"byteLength":480,
			"byteOffset":609592,
			"target":34962
		},
		{
			"buffer":0,
			"byteLength":480,
			"byteOffset":610072,
			"target":34962
		},
		{
			"buffer":0,
			"byteLength":320,
			"byteOffset":610552,
			"target":34962
		},
		{
			"buffer":0,
			"byteLength":120,
			"byteOffset":610872,
			"target":34963
		},
		{
			"buffer":0,
			"byteLength":6708,
			"byteOffset":610992,
			"target":34962
		},
		{
			"buffer":0,
			"byteLength":6708,
			"byteOffset":617700,
			"target":34962
		},
		{
			"buffer":0,
			"byteLength":4472,
			"byteOffset":624408,
			"target":34962
		},
		{
			"buffer":0,
			"byteLength":5760,
			"byteOffset":628880,
			"target":34963
		}
	],
	"samplers":[
		{
			"magFilter":9729,
			"minFilter":9987
		}
	],
	"buffers":[
		{
			"byteLength":634640,
			"uri":"chase.bin"
		}
	]
}
