{
	"asset":{
		"generator":"Khronos glTF Blender I/O v4.1.63",
		"version":"2.0"
	},
	"extensionsUsed":[
		"KHR_materials_emissive_strength"
	],
	"scene":0,
	"scenes":[
		{
			"name":"Scene",
			"nodes":[
				0,
				1,
				2,
				3,
				4,
				5,
				6,
				7,
				8,
				9,
				10,
				11,
				12,
				13,
				14,
				15,
				16,
				17,
				18,
				19,
				20,
				21,
				22,
				23,
				24,
				25,
				26
			]
		}
	],
	"nodes":[
		{
			"mesh":0,
			"name":"Platform1-col",
			"translation":[
				0.516883134841919,
				0,
				0
			]
		},
		{
			"mesh":1,
			"name":"Ramp-col",
			"translation":[
				0.516883134841919,
				0,
				0
			]
		},
		{
			"mesh":2,
			"name":"Platform2-col",
			"translation":[
				0.516883134841919,
				0,
				0
			]
		},
		{
			"mesh":3,
			"name":"Gate-col",
			"translation":[
				-13.44818115234375,
				-34.62896728515625,
				118.02538299560547
			]
		},
		{
			"mesh":4,
			"name":"Platform3-col",
			"scale":[
				0.8922103643417358,
				1,
				1
			],
			"translation":[
				3.508457660675049,
				-34.62896728515625,
				118.025390625
			]
		},
		{
			"mesh":5,
			"name":"Funnel-col",
			"rotation":[
				0,
				-0.004188179038465023,
				0,
				0.9999912977218628
			],
			"scale":[
				1.4492413997650146,
				1.4492413997650146,
				1.4492413997650146
			],
			"translation":[
				30.760223388671875,
				35.64036178588867,
				325.7726745605469
			]
		},
		{
			"mesh":6,
			"name":"Cube-col.001",
			"scale":[
				0.8922103643417358,
				1,
				1
			],
			"translation":[
				137.28436279296875,
				-34.60459518432617,
				590.6336059570312
			]
		},
		{
			"mesh":7,
			"name":"Cube-col.002",
			"scale":[
				0.8922103643417358,
				1,
				1
			],
			"translation":[
				30.341899871826172,
				-34.53778076171875,
				351.27838134765625
			]
		},
		{
			"mesh":6,
			"name":"Cube-col.003",
			"scale":[
				0.8922103643417358,
				1,
				1
			],
			"translation":[
				137.37953186035156,
				-34.604576110839844,
				797.0357666015625
			]
		},
		{
			"mesh":6,
			"name":"Cube-col.004",
			"scale":[
				0.8922103643417358,
				1,
				1
			],
			"translation":[
				137.4202117919922,
				-34.604576110839844,
				1006.6206665039062
			]
		},
		{
			"mesh":8,
			"name":"Billboard1-col",
			"scale":[
				0.8922103643417358,
				1,
				1
			],
			"translation":[
				137.4558563232422,
				-31.71025848388672,
				697.2635498046875
			]
		},
		{
			"mesh":8,
			"name":"Billboard2-col",
			"scale":[
				0.8922103643417358,
				1,
				1
			],
			"translation":[
				137.4558563232422,
				-31.71025848388672,
				904.56494140625
			]
		},
		{
			"mesh":9,
			"name":"Lamp-col",
			"translation":[
				2.7310471534729004,
				2.548860549926758,
				-15.848917007446289
			]
		},
		{
			"mesh":9,
			"name":"Lamp-col.001",
			"translation":[
				-3.526554822921753,
				3.7150299549102783,
				-38.160526275634766
			]
		},
		{
			"mesh":9,
			"name":"Lamp-col.002",
			"translation":[
				35.5748176574707,
				0.3087393641471863,
				-28.303220748901367
			]
		},
		{
			"mesh":9,
			"name":"Lamp-col.003",
			"translation":[
				28.522621154785156,
				0.22558479011058807,
				-6.351070404052734
			]
		},
		{
			"mesh":9,
			"name":"Lamp-col.004",
			"translation":[
				35.936344146728516,
				5.361051559448242,
				20.5617618560791
			]
		},
		{
			"mesh":9,
			"name":"Lamp-col.005",
			"translation":[
				37.11417770385742,
				-32.71897888183594,
				381.0862731933594
			]
		},
		{
			"mesh":9,
			"name":"Lamp-col.006",
			"translation":[
				24.020620346069336,
				-32.439239501953125,
				450.505615234375
			]
		},
		{
			"mesh":9,
			"name":"Lamp-col.007",
			"translation":[
				80.41567993164062,
				-32.439239501953125,
				452.0741882324219
			]
		},
		{
			"mesh":9,
			"name":"Lamp-col.008",
			"translation":[
				121.67463684082031,
				-32.439239501953125,
				465.464111328125
			]
		},
		{
			"mesh":9,
			"name":"Lamp-col.009",
			"translation":[
				144.1124267578125,
				-32.39517593383789,
				861.2744140625
			]
		},
		{
			"mesh":9,
			"name":"Lamp-col.010",
			"translation":[
				143.06454467773438,
				-32.39517593383789,
				994.0469970703125
			]
		},
		{
			"mesh":9,
			"name":"Lamp-col.011",
			"translation":[
				132.52618408203125,
				-32.39517593383789,
				1112.6220703125
			]
		},
		{
			"mesh":9,
			"name":"Lamp-col.012",
			"translation":[
				-2.7061190605163574,
				2.246858835220337,
				0.9967765808105469
			]
		},
		{
			"mesh":9,
			"name":"Lamp-col.013",
			"translation":[
				130.31146240234375,
				-32.40192794799805,
				529.7562255859375
			]
		},
		{
			"mesh":9,
			"name":"Lamp-col.014",
			"translation":[
				145.29745483398438,
				-32.63029098510742,
				675.119140625
			]
		}
	],
	"materials":[
		{
			"doubleSided":true,
			"name":"BRICKS",
			"pbrMetallicRoughness":{
				"baseColorTexture":{
					"index":0
				},
				"metallicFactor":0,
				"roughnessFactor":0.5
			}
		},
		{
			"doubleSided":true,
			"name":"BrickSpeed",
			"pbrMetallicRoughness":{
				"baseColorTexture":{
					"index":1
				},
				"metallicFactor":0,
				"roughnessFactor":0.5
			}
		},
		{
			"doubleSided":true,
			"name":"Material.001",
			"pbrMetallicRoughness":{
				"baseColorTexture":{
					"index":2
				},
				"metallicFactor":0,
				"roughnessFactor":0.5
			}
		},
		{
			"alphaMode":"BLEND",
			"doubleSided":true,
			"name":"TUBETEXTURE",
			"pbrMetallicRoughness":{
				"baseColorFactor":[
					1,
					1,
					1,
					0.32374101877212524
				],
				"baseColorTexture":{
					"index":3
				},
				"metallicFactor":0,
				"roughnessFactor":0.5
			}
		},
		{
			"doubleSided":true,
			"name":"BETON",
			"pbrMetallicRoughness":{
				"baseColorTexture":{
					"index":4
				},
				"metallicFactor":0,
				"roughnessFactor":0.5
			}
		},
		{
			"doubleSided":true,
			"name":"Billboard.002",
			"pbrMetallicRoughness":{
				"baseColorTexture":{
					"index":5
				},
				"metallicFactor":0,
				"roughnessFactor":0.5
			}
		},
		{
			"doubleSided":true,
			"name":"LAMPPOST",
			"pbrMetallicRoughness":{
				"baseColorTexture":{
					"index":6
				},
				"metallicFactor":0,
				"roughnessFactor":0.5
			}
		},
		{
			"alphaMode":"BLEND",
			"doubleSided":true,
			"emissiveFactor":[
				1,
				1,
				1
			],
			"extensions":{
				"KHR_materials_emissive_strength":{
					"emissiveStrength":1.5
				}
			},
			"name":"LAMPGLASS",
			"pbrMetallicRoughness":{
				"baseColorFactor":[
					0.800000011920929,
					0.800000011920929,
					0.800000011920929,
					0.4000000059604645
				],
				"metallicFactor":0,
				"roughnessFactor":0.5
			}
		}
	],
	"meshes":[
		{
			"name":"Plane",
			"primitives":[
				{
					"attributes":{
						"POSITION":0,
						"NORMAL":1,
						"TEXCOORD_0":2
					},
					"indices":3,
					"material":0
				}
			]
		},
		{
			"name":"Cylinder",
			"primitives":[
				{
					"attributes":{
						"POSITION":4,
						"NORMAL":5,
						"TEXCOORD_0":6
					},
					"indices":7,
					"material":0
				}
			]
		},
		{
			"name":"Plane.001",
			"primitives":[
				{
					"attributes":{
						"POSITION":8,
						"NORMAL":9,
						"TEXCOORD_0":10
					},
					"indices":11,
					"material":0
				},
				{
					"attributes":{
						"POSITION":12,
						"NORMAL":13,
						"TEXCOORD_0":14
					},
					"indices":15,
					"material":1
				}
			]
		},
		{
			"name":"Cube.002",
			"primitives":[
				{
					"attributes":{
						"POSITION":16,
						"NORMAL":17,
						"TEXCOORD_0":18
					},
					"indices":19,
					"material":2
				}
			]
		},
		{
			"name":"Plane.002",
			"primitives":[
				{
					"attributes":{
						"POSITION":20,
						"NORMAL":21,
						"TEXCOORD_0":22
					},
					"indices":23,
					"material":0
				}
			]
		},
		{
			"name":"Cylinder.001",
			"primitives":[
				{
					"attributes":{
						"POSITION":24,
						"NORMAL":25,
						"TEXCOORD_0":26
					},
					"indices":27,
					"material":3
				}
			]
		},
		{
			"name":"Cube.010",
			"primitives":[
				{
					"attributes":{
						"POSITION":28,
						"NORMAL":29,
						"TEXCOORD_0":30
					},
					"indices":31,
					"material":4
				}
			]
		},
		{
			"name":"Cube.008",
			"primitives":[
				{
					"attributes":{
						"POSITION":32,
						"NORMAL":33,
						"TEXCOORD_0":34
					},
					"indices":35,
					"material":4
				}
			]
		},
		{
			"name":"Cube.003",
			"primitives":[
				{
					"attributes":{
						"POSITION":36,
						"NORMAL":37,
						"TEXCOORD_0":38
					},
					"indices":39,
					"material":5
				}
			]
		},
		{
			"name":"Cube.020",
			"primitives":[
				{
					"attributes":{
						"POSITION":40,
						"NORMAL":41,
						"TEXCOORD_0":42
					},
					"indices":43,
					"material":6
				},
				{
					"attributes":{
						"POSITION":44,
						"NORMAL":45,
						"TEXCOORD_0":46
					},
					"indices":47,
					"material":7
				}
			]
		}
	],
	"textures":[
		{
			"sampler":0,
			"source":0
		},
		{
			"sampler":0,
			"source":1
		},
		{
			"sampler":0,
			"source":0
		},
		{
			"sampler":0,
			"source":2
		},
		{
			"sampler":0,
			"source":3
		},
		{
			"sampler":0,
			"source":4
		},
		{
			"sampler":0,
			"source":5
		}
	],
	"images":[
		{
			"mimeType":"image/png",
			"name":"Tutshngl",
			"uri":"Tutshngl.png"
		},
		{
			"mimeType":"image/png",
			"name":"n_tutsh",
			"uri":"n_tutsh.png"
		},
		{
			"mimeType":"image/png",
			"name":"freeze",
			"uri":"freeze.png"
		},
		{
			"mimeType":"image/png",
			"name":"BETON",
			"uri":"BETON.png"
		},
		{
			"mimeType":"image/png",
			"name":"balls",
			"uri":"balls.png"
		},
		{
			"mimeType":"image/png",
			"name":"panel_3",
			"uri":"panel_3.png"
		}
	],
	"accessors":[
		{
			"bufferView":0,
			"componentType":5126,
			"count":110,
			"max":[
				4.745943069458008,
				3.1342644691467285,
				4.578985214233398
			],
			"min":[
				-6.646848678588867,
				-2.9690074920654297,
				-38.908447265625
			],
			"type":"VEC3"
		},
		{
			"bufferView":1,
			"componentType":5126,
			"count":110,
			"type":"VEC3"
		},
		{
			"bufferView":2,
			"componentType":5126,
			"count":110,
			"type":"VEC2"
		},
		{
			"bufferView":3,
			"componentType":5123,
			"count":186,
			"type":"SCALAR"
		},
		{
			"bufferView":4,
			"componentType":5126,
			"count":6626,
			"max":[
				33.65330123901367,
				8.148127555847168,
				-27.61054039001465
			],
			"min":[
				-2.9006357192993164,
				-2.3021979331970215,
				-55.2216911315918
			],
			"type":"VEC3"
		},
		{
			"bufferView":5,
			"componentType":5126,
			"count":6626,
			"type":"VEC3"
		},
		{
			"bufferView":6,
			"componentType":5126,
			"count":6626,
			"type":"VEC2"
		},
		{
			"bufferView":7,
			"componentType":5123,
			"count":10062,
			"type":"SCALAR"
		},
		{
			"bufferView":8,
			"componentType":5126,
			"count":108,
			"max":[
				37.60939025878906,
				29.775169372558594,
				54.45937728881836
			],
			"min":[
				25.876598358154297,
				-5.172287940979004,
				-29.68482780456543
			],
			"type":"VEC3"
		},
		{
			"bufferView":9,
			"componentType":5126,
			"count":108,
			"type":"VEC3"
		},
		{
			"bufferView":10,
			"componentType":5126,
			"count":108,
			"type":"VEC2"
		},
		{
			"bufferView":11,
			"componentType":5123,
			"count":174,
			"type":"SCALAR"
		},
		{
			"bufferView":12,
			"componentType":5126,
			"count":4,
			"max":[
				36.369388580322266,
				27.736690521240234,
				53.893863677978516
			],
			"min":[
				27.116596221923828,
				-1.3019721508026123,
				17.363035202026367
			],
			"type":"VEC3"
		},
		{
			"bufferView":13,
			"componentType":5126,
			"count":4,
			"type":"VEC3"
		},
		{
			"bufferView":14,
			"componentType":5126,
			"count":4,
			"type":"VEC2"
		},
		{
			"bufferView":15,
			"componentType":5123,
			"count":6,
			"type":"SCALAR"
		},
		{
			"bufferView":16,
			"componentType":5126,
			"count":56,
			"max":[
				156.4215850830078,
				4.760876655578613,
				378.5103454589844
			],
			"min":[
				144.9642333984375,
				-2.2333993911743164,
				375.9806213378906
			],
			"type":"VEC3"
		},
		{
			"bufferView":17,
			"componentType":5126,
			"count":56,
			"type":"VEC3"
		},
		{
			"bufferView":18,
			"componentType":5126,
			"count":56,
			"type":"VEC2"
		},
		{
			"bufferView":19,
			"componentType":5123,
			"count":96,
			"type":"SCALAR"
		},
		{
			"bufferView":20,
			"componentType":5126,
			"count":132,
			"max":[
				162.9278106689453,
				2.356353998184204,
				1001.4677734375
			],
			"min":[
				17.469711303710938,
				-4.455619812011719,
				220.38026428222656
			],
			"type":"VEC3"
		},
		{
			"bufferView":21,
			"componentType":5126,
			"count":132,
			"type":"VEC3"
		},
		{
			"bufferView":22,
			"componentType":5126,
			"count":132,
			"type":"VEC2"
		},
		{
			"bufferView":23,
			"componentType":5123,
			"count":240,
			"type":"SCALAR"
		},
		{
			"bufferView":24,
			"componentType":5126,
			"count":8192,
			"max":[
				9.546417236328125,
				25.96839141845703,
				18.575958251953125
			],
			"min":[
				-9.800872802734375,
				-32.319522857666016,
				-34.521270751953125
			],
			"type":"VEC3"
		},
		{
			"bufferView":25,
			"componentType":5126,
			"count":8192,
			"type":"VEC3"
		},
		{
			"bufferView":26,
			"componentType":5126,
			"count":8192,
			"type":"VEC2"
		},
		{
			"bufferView":27,
			"componentType":5123,
			"count":12288,
			"type":"SCALAR"
		},
		{
			"bufferView":28,
			"componentType":5126,
			"count":24,
			"max":[
				10.66171646118164,
				2.330052375793457,
				2.500263214111328
			],
			"min":[
				-10.66171646118164,
				-2.330052137374878,
				-2.500263214111328
			],
			"type":"VEC3"
		},
		{
			"bufferView":29,
			"componentType":5126,
			"count":24,
			"type":"VEC3"
		},
		{
			"bufferView":30,
			"componentType":5126,
			"count":24,
			"type":"VEC2"
		},
		{
			"bufferView":31,
			"componentType":5123,
			"count":36,
			"type":"SCALAR"
		},
		{
			"bufferView":32,
			"componentType":5126,
			"count":18,
			"max":[
				6.537274360656738,
				6.941519260406494,
				6.196161270141602
			],
			"min":[
				-6.823582649230957,
				-2.3360800743103027,
				-9.10243034362793
			],
			"type":"VEC3"
		},
		{
			"bufferView":33,
			"componentType":5126,
			"count":18,
			"type":"VEC3"
		},
		{
			"bufferView":34,
			"componentType":5126,
			"count":18,
			"type":"VEC2"
		},
		{
			"bufferView":35,
			"componentType":5123,
			"count":24,
			"type":"SCALAR"
		},
		{
			"bufferView":36,
			"componentType":5126,
			"count":114,
			"max":[
				10.519546508789062,
				17.11081314086914,
				1.67584228515625
			],
			"min":[
				-10.553680419921875,
				-6.619136810302734,
				-1.67547607421875
			],
			"type":"VEC3"
		},
		{
			"bufferView":37,
			"componentType":5126,
			"count":114,
			"type":"VEC3"
		},
		{
			"bufferView":38,
			"componentType":5126,
			"count":114,
			"type":"VEC2"
		},
		{
			"bufferView":39,
			"componentType":5123,
			"count":216,
			"type":"SCALAR"
		},
		{
			"bufferView":40,
			"componentType":5126,
			"count":40,
			"max":[
				0.7926208972930908,
				0.2415238618850708,
				0.7888637781143188
			],
			"min":[
				-0.7829501032829285,
				-4.671351432800293,
				-0.7867072820663452
			],
			"type":"VEC3"
		},
		{
			"bufferView":41,
			"componentType":5126,
			"count":40,
			"type":"VEC3"
		},
		{
			"bufferView":42,
			"componentType":5126,
			"count":40,
			"type":"VEC2"
		},
		{
			"bufferView":43,
			"componentType":5123,
			"count":60,
			"type":"SCALAR"
		},
		{
			"bufferView":44,
			"componentType":5126,
			"count":1984,
			"max":[
				1.9888395071029663,
				3.743110418319702,
				1.9686397314071655
			],
			"min":[
				-1.9368462562561035,
				-0.1825777292251587,
				-1.9570472240447998
			],
			"type":"VEC3"
		},
		{
			"bufferView":45,
			"componentType":5126,
			"count":1984,
			"type":"VEC3"
		},
		{
			"bufferView":46,
			"componentType":5126,
			"count":1984,
			"type":"VEC2"
		},
		{
			"bufferView":47,
			"componentType":5123,
			"count":2880,
			"type":"SCALAR"
		}
	],
	"bufferViews":[
		{
			"buffer":0,
			"byteLength":1320,
			"byteOffset":0,
			"target":34962
		},
		{
			"buffer":0,
			"byteLength":1320,
			"byteOffset":1320,
			"target":34962
		},
		{
			"buffer":0,
			"byteLength":880,
			"byteOffset":2640,
			"target":34962
		},
		{
			"buffer":0,
			"byteLength":372,
			"byteOffset":3520,
			"target":34963
		},
		{
			"buffer":0,
			"byteLength":79512,
			"byteOffset":3892,
			"target":34962
		},
		{
			"buffer":0,
			"byteLength":79512,
			"byteOffset":83404,
			"target":34962
		},
		{
			"buffer":0,
			"byteLength":53008,
			"byteOffset":162916,
			"target":34962
		},
		{
			"buffer":0,
			"byteLength":20124,
			"byteOffset":215924,
			"target":34963
		},
		{
			"buffer":0,
			"byteLength":1296,
			"byteOffset":236048,
			"target":34962
		},
		{
			"buffer":0,
			"byteLength":1296,
			"byteOffset":237344,
			"target":34962
		},
		{
			"buffer":0,
			"byteLength":864,
			"byteOffset":238640,
			"target":34962
		},
		{
			"buffer":0,
			"byteLength":348,
			"byteOffset":239504,
			"target":34963
		},
		{
			"buffer":0,
			"byteLength":48,
			"byteOffset":239852,
			"target":34962
		},
		{
			"buffer":0,
			"byteLength":48,
			"byteOffset":239900,
			"target":34962
		},
		{
			"buffer":0,
			"byteLength":32,
			"byteOffset":239948,
			"target":34962
		},
		{
			"buffer":0,
			"byteLength":12,
			"byteOffset":239980,
			"target":34963
		},
		{
			"buffer":0,
			"byteLength":672,
			"byteOffset":239992,
			"target":34962
		},
		{
			"buffer":0,
			"byteLength":672,
			"byteOffset":240664,
			"target":34962
		},
		{
			"buffer":0,
			"byteLength":448,
			"byteOffset":241336,
			"target":34962
		},
		{
			"buffer":0,
			"byteLength":192,
			"byteOffset":241784,
			"target":34963
		},
		{
			"buffer":0,
			"byteLength":1584,
			"byteOffset":241976,
			"target":34962
		},
		{
			"buffer":0,
			"byteLength":1584,
			"byteOffset":243560,
			"target":34962
		},
		{
			"buffer":0,
			"byteLength":1056,
			"byteOffset":245144,
			"target":34962
		},
		{
			"buffer":0,
			"byteLength":480,
			"byteOffset":246200,
			"target":34963
		},
		{
			"buffer":0,
			"byteLength":98304,
			"byteOffset":246680,
			"target":34962
		},
		{
			"buffer":0,
			"byteLength":98304,
			"byteOffset":344984,
			"target":34962
		},
		{
			"buffer":0,
			"byteLength":65536,
			"byteOffset":443288,
			"target":34962
		},
		{
			"buffer":0,
			"byteLength":24576,
			"byteOffset":508824,
			"target":34963
		},
		{
			"buffer":0,
			"byteLength":288,
			"byteOffset":533400,
			"target":34962
		},
		{
			"buffer":0,
			"byteLength":288,
			"byteOffset":533688,
			"target":34962
		},
		{
			"buffer":0,
			"byteLength":192,
			"byteOffset":533976,
			"target":34962
		},
		{
			"buffer":0,
			"byteLength":72,
			"byteOffset":534168,
			"target":34963
		},
		{
			"buffer":0,
			"byteLength":216,
			"byteOffset":534240,
			"target":34962
		},
		{
			"buffer":0,
			"byteLength":216,
			"byteOffset":534456,
			"target":34962
		},
		{
			"buffer":0,
			"byteLength":144,
			"byteOffset":534672,
			"target":34962
		},
		{
			"buffer":0,
			"byteLength":48,
			"byteOffset":534816,
			"target":34963
		},
		{
			"buffer":0,
			"byteLength":1368,
			"byteOffset":534864,
			"target":34962
		},
		{
			"buffer":0,
			"byteLength":1368,
			"byteOffset":536232,
			"target":34962
		},
		{
			"buffer":0,
			"byteLength":912,
			"byteOffset":537600,
			"target":34962
		},
		{
			"buffer":0,
			"byteLength":432,
			"byteOffset":538512,
			"target":34963
		},
		{
			"buffer":0,
			"byteLength":480,
			"byteOffset":538944,
			"target":34962
		},
		{
			"buffer":0,
			"byteLength":480,
			"byteOffset":539424,
			"target":34962
		},
		{
			"buffer":0,
			"byteLength":320,
			"byteOffset":539904,
			"target":34962
		},
		{
			"buffer":0,
			"byteLength":120,
			"byteOffset":540224,
			"target":34963
		},
		{
			"buffer":0,
			"byteLength":23808,
			"byteOffset":540344,
			"target":34962
		},
		{
			"buffer":0,
			"byteLength":23808,
			"byteOffset":564152,
			"target":34962
		},
		{
			"buffer":0,
			"byteLength":15872,
			"byteOffset":587960,
			"target":34962
		},
		{
			"buffer":0,
			"byteLength":5760,
			"byteOffset":603832,
			"target":34963
		}
	],
	"samplers":[
		{
			"magFilter":9729,
			"minFilter":9987
		}
	],
	"buffers":[
		{
			"byteLength":609592,
			"uri":"chase.bin"
		}
	]
}
