{
	"asset":{
		"generator":"Khronos glTF Blender I/O v4.1.63",
		"version":"2.0"
	},
	"scene":0,
	"scenes":[
		{
			"name":"Scene",
			"nodes":[
				0,
				1,
				2,
				3,
				4,
				5,
				6,
				7
			]
		}
	],
	"nodes":[
		{
			"mesh":0,
			"name":"Platform-col",
			"translation":[
				0.0059556737542152405,
				0.060502588748931885,
				-0.031027674674987793
			]
		},
		{
			"mesh":1,
			"name":"block-col",
			"translation":[
				0.04238102585077286,
				0.060502588748931885,
				-0.06868922710418701
			]
		},
		{
			"mesh":2,
			"name":"bridge-col",
			"translation":[
				-0.3814910352230072,
				0.060502588748931885,
				-0.031027674674987793
			]
		},
		{
			"mesh":3,
			"name":"gate-col",
			"rotation":[
				3.3459855330875143e-05,
				0.018959704786539078,
				0.0008324469672515988,
				0.9998199343681335
			],
			"translation":[
				-1.3572919368743896,
				0.16603374481201172,
				1.0724904537200928
			]
		},
		{
			"mesh":4,
			"name":"revolve2-col",
			"translation":[
				-1.337874174118042,
				0.07435882091522217,
				-1.2329657077789307
			]
		},
		{
			"mesh":5,
			"name":"revolve3-col",
			"translation":[
				-1.337874174118042,
				0.07239830493927002,
				-0.16248130798339844
			]
		},
		{
			"mesh":6,
			"name":"revolve1-col",
			"rotation":[
				-0.0012271194718778133,
				-0.007255530916154385,
				0.007279547397047281,
				0.9999465346336365
			],
			"translation":[
				3.4009315967559814,
				0.08933216333389282,
				-0.8723585605621338
			]
		},
		{
			"mesh":7,
			"name":"spiral-col",
			"translation":[
				0.02947554737329483,
				-0.02538222074508667,
				0.018590807914733887
			]
		}
	],
	"materials":[
		{
			"doubleSided":true,
			"name":"HOTOGRET",
			"pbrMetallicRoughness":{
				"baseColorTexture":{
					"index":0
				},
				"metallicFactor":0,
				"roughnessFactor":0.5
			}
		},
		{
			"name":"Material.003",
			"pbrMetallicRoughness":{
				"baseColorTexture":{
					"index":1
				},
				"metallicFactor":0,
				"roughnessFactor":0.5
			}
		},
		{
			"alphaMode":"BLEND",
			"doubleSided":true,
			"name":"THUNDER",
			"pbrMetallicRoughness":{
				"baseColorTexture":{
					"index":2
				},
				"metallicFactor":0,
				"roughnessFactor":0.5
			}
		},
		{
			"doubleSided":true,
			"name":"Material.004",
			"pbrMetallicRoughness":{
				"baseColorTexture":{
					"index":3
				},
				"metallicFactor":0,
				"roughnessFactor":0.5
			}
		},
		{
			"doubleSided":true,
			"name":"METAL",
			"pbrMetallicRoughness":{
				"baseColorTexture":{
					"index":4
				},
				"metallicFactor":0,
				"roughnessFactor":0.5
			}
		},
		{
			"doubleSided":true,
			"name":"CHROME",
			"pbrMetallicRoughness":{
				"baseColorTexture":{
					"index":5
				},
				"metallicFactor":0,
				"roughnessFactor":0.5
			}
		}
	],
	"meshes":[
		{
			"name":"Plane",
			"primitives":[
				{
					"attributes":{
						"POSITION":0,
						"NORMAL":1,
						"TEXCOORD_0":2
					},
					"indices":3,
					"material":0
				}
			]
		},
		{
			"name":"Cube.001",
			"primitives":[
				{
					"attributes":{
						"POSITION":4,
						"NORMAL":5,
						"TEXCOORD_0":6
					},
					"indices":7,
					"material":1
				}
			]
		},
		{
			"name":"Plane.001",
			"primitives":[
				{
					"attributes":{
						"POSITION":8,
						"NORMAL":9,
						"TEXCOORD_0":10
					},
					"indices":11,
					"material":2
				}
			]
		},
		{
			"name":"Cube.002",
			"primitives":[
				{
					"attributes":{
						"POSITION":12,
						"NORMAL":13,
						"TEXCOORD_0":14
					},
					"indices":15,
					"material":3
				}
			]
		},
		{
			"name":"Plane.004",
			"primitives":[
				{
					"attributes":{
						"POSITION":16,
						"NORMAL":17,
						"TEXCOORD_0":18
					},
					"indices":19,
					"material":4
				}
			]
		},
		{
			"name":"Plane.005",
			"primitives":[
				{
					"attributes":{
						"POSITION":20,
						"NORMAL":21,
						"TEXCOORD_0":22
					},
					"indices":19,
					"material":4
				}
			]
		},
		{
			"name":"Plane.006",
			"primitives":[
				{
					"attributes":{
						"POSITION":23,
						"NORMAL":24,
						"TEXCOORD_0":25
					},
					"indices":26,
					"material":4
				}
			]
		},
		{
			"name":"Spiral",
			"primitives":[
				{
					"attributes":{
						"POSITION":27,
						"NORMAL":28,
						"TEXCOORD_0":29
					},
					"indices":30,
					"material":5
				}
			]
		}
	],
	"textures":[
		{
			"sampler":0,
			"source":0
		},
		{
			"sampler":0,
			"source":1
		},
		{
			"sampler":0,
			"source":2
		},
		{
			"sampler":0,
			"source":3
		},
		{
			"sampler":0,
			"source":4
		},
		{
			"sampler":0,
			"source":5
		}
	],
	"images":[
		{
			"mimeType":"image/png",
			"name":"hotorget",
			"uri":"hotorget.png"
		},
		{
			"mimeType":"image/png",
			"name":"talo2",
			"uri":"talo2.png"
		},
		{
			"mimeType":"image/png",
			"name":"thunder1",
			"uri":"thunder1.png"
		},
		{
			"mimeType":"image/png",
			"name":"capture",
			"uri":"capture.png"
		},
		{
			"mimeType":"image/png",
			"name":"metal",
			"uri":"metal.png"
		},
		{
			"mimeType":"image/png",
			"name":"crome",
			"uri":"crome.png"
		}
	],
	"accessors":[
		{
			"bufferView":0,
			"componentType":5126,
			"count":318,
			"max":[
				3.9496548175811768,
				0.40081897377967834,
				4.241189956665039
			],
			"min":[
				-1.7958298921585083,
				-0.2684337794780731,
				-3.262504816055298
			],
			"type":"VEC3"
		},
		{
			"bufferView":1,
			"componentType":5126,
			"count":318,
			"type":"VEC3"
		},
		{
			"bufferView":2,
			"componentType":5126,
			"count":318,
			"type":"VEC2"
		},
		{
			"bufferView":3,
			"componentType":5123,
			"count":618,
			"type":"SCALAR"
		},
		{
			"bufferView":4,
			"componentType":5126,
			"count":24,
			"max":[
				2.0544168949127197,
				2.484631299972534,
				1.2482165098190308
			],
			"min":[
				0.37670955061912537,
				-0.105531245470047,
				-0.42658114433288574
			],
			"type":"VEC3"
		},
		{
			"bufferView":5,
			"componentType":5126,
			"count":24,
			"type":"VEC3"
		},
		{
			"bufferView":6,
			"componentType":5126,
			"count":24,
			"type":"VEC2"
		},
		{
			"bufferView":7,
			"componentType":5123,
			"count":36,
			"type":"SCALAR"
		},
		{
			"bufferView":8,
			"componentType":5126,
			"count":132,
			"max":[
				2.20552659034729,
				0.23234321177005768,
				-1.7350753545761108
			],
			"min":[
				0.8615138530731201,
				0.10394719243049622,
				-2.8425827026367188
			],
			"type":"VEC3"
		},
		{
			"bufferView":9,
			"componentType":5126,
			"count":132,
			"type":"VEC3"
		},
		{
			"bufferView":10,
			"componentType":5126,
			"count":132,
			"type":"VEC2"
		},
		{
			"bufferView":11,
			"componentType":5123,
			"count":198,
			"type":"SCALAR"
		},
		{
			"bufferView":12,
			"componentType":5126,
			"count":56,
			"max":[
				0.4917758107185364,
				0.3358191251754761,
				0.12739038467407227
			],
			"min":[
				-0.43319204449653625,
				-0.22953878343105316,
				-0.07709100842475891
			],
			"type":"VEC3"
		},
		{
			"bufferView":13,
			"componentType":5126,
			"count":56,
			"type":"VEC3"
		},
		{
			"bufferView":14,
			"componentType":5126,
			"count":56,
			"type":"VEC2"
		},
		{
			"bufferView":15,
			"componentType":5123,
			"count":96,
			"type":"SCALAR"
		},
		{
			"bufferView":16,
			"componentType":5126,
			"count":112,
			"max":[
				0.42557409405708313,
				0.12375339865684509,
				0.42557433247566223
			],
			"min":[
				-0.4255748689174652,
				-0.1237533912062645,
				-0.42557448148727417
			],
			"type":"VEC3"
		},
		{
			"bufferView":17,
			"componentType":5126,
			"count":112,
			"type":"VEC3"
		},
		{
			"bufferView":18,
			"componentType":5126,
			"count":112,
			"type":"VEC2"
		},
		{
			"bufferView":19,
			"componentType":5123,
			"count":180,
			"type":"SCALAR"
		},
		{
			"bufferView":20,
			"componentType":5126,
			"count":112,
			"max":[
				0.42557409405708313,
				0.12179289013147354,
				0.4255744516849518
			],
			"min":[
				-0.4255748689174652,
				-0.12179289758205414,
				-0.42557430267333984
			],
			"type":"VEC3"
		},
		{
			"bufferView":21,
			"componentType":5126,
			"count":112,
			"type":"VEC3"
		},
		{
			"bufferView":22,
			"componentType":5126,
			"count":112,
			"type":"VEC2"
		},
		{
			"bufferView":23,
			"componentType":5126,
			"count":112,
			"max":[
				0.3510236442089081,
				0.36713844537734985,
				0.36713871359825134
			],
			"min":[
				-0.351023405790329,
				-0.36713889241218567,
				-0.36713850498199463
			],
			"type":"VEC3"
		},
		{
			"bufferView":24,
			"componentType":5126,
			"count":112,
			"type":"VEC3"
		},
		{
			"bufferView":25,
			"componentType":5126,
			"count":112,
			"type":"VEC2"
		},
		{
			"bufferView":26,
			"componentType":5123,
			"count":180,
			"type":"SCALAR"
		},
		{
			"bufferView":27,
			"componentType":5126,
			"count":678,
			"max":[
				1.3617690801620483,
				3.3491084575653076,
				6.746460914611816
			],
			"min":[
				-2.001214027404785,
				-0.2787226736545563,
				4.3270745277404785
			],
			"type":"VEC3"
		},
		{
			"bufferView":28,
			"componentType":5126,
			"count":678,
			"type":"VEC3"
		},
		{
			"bufferView":29,
			"componentType":5126,
			"count":678,
			"type":"VEC2"
		},
		{
			"bufferView":30,
			"componentType":5123,
			"count":2508,
			"type":"SCALAR"
		}
	],
	"bufferViews":[
		{
			"buffer":0,
			"byteLength":3816,
			"byteOffset":0,
			"target":34962
		},
		{
			"buffer":0,
			"byteLength":3816,
			"byteOffset":3816,
			"target":34962
		},
		{
			"buffer":0,
			"byteLength":2544,
			"byteOffset":7632,
			"target":34962
		},
		{
			"buffer":0,
			"byteLength":1236,
			"byteOffset":10176,
			"target":34963
		},
		{
			"buffer":0,
			"byteLength":288,
			"byteOffset":11412,
			"target":34962
		},
		{
			"buffer":0,
			"byteLength":288,
			"byteOffset":11700,
			"target":34962
		},
		{
			"buffer":0,
			"byteLength":192,
			"byteOffset":11988,
			"target":34962
		},
		{
			"buffer":0,
			"byteLength":72,
			"byteOffset":12180,
			"target":34963
		},
		{
			"buffer":0,
			"byteLength":1584,
			"byteOffset":12252,
			"target":34962
		},
		{
			"buffer":0,
			"byteLength":1584,
			"byteOffset":13836,
			"target":34962
		},
		{
			"buffer":0,
			"byteLength":1056,
			"byteOffset":15420,
			"target":34962
		},
		{
			"buffer":0,
			"byteLength":396,
			"byteOffset":16476,
			"target":34963
		},
		{
			"buffer":0,
			"byteLength":672,
			"byteOffset":16872,
			"target":34962
		},
		{
			"buffer":0,
			"byteLength":672,
			"byteOffset":17544,
			"target":34962
		},
		{
			"buffer":0,
			"byteLength":448,
			"byteOffset":18216,
			"target":34962
		},
		{
			"buffer":0,
			"byteLength":192,
			"byteOffset":18664,
			"target":34963
		},
		{
			"buffer":0,
			"byteLength":1344,
			"byteOffset":18856,
			"target":34962
		},
		{
			"buffer":0,
			"byteLength":1344,
			"byteOffset":20200,
			"target":34962
		},
		{
			"buffer":0,
			"byteLength":896,
			"byteOffset":21544,
			"target":34962
		},
		{
			"buffer":0,
			"byteLength":360,
			"byteOffset":22440,
			"target":34963
		},
		{
			"buffer":0,
			"byteLength":1344,
			"byteOffset":22800,
			"target":34962
		},
		{
			"buffer":0,
			"byteLength":1344,
			"byteOffset":24144,
			"target":34962
		},
		{
			"buffer":0,
			"byteLength":896,
			"byteOffset":25488,
			"target":34962
		},
		{
			"buffer":0,
			"byteLength":1344,
			"byteOffset":26384,
			"target":34962
		},
		{
			"buffer":0,
			"byteLength":1344,
			"byteOffset":27728,
			"target":34962
		},
		{
			"buffer":0,
			"byteLength":896,
			"byteOffset":29072,
			"target":34962
		},
		{
			"buffer":0,
			"byteLength":360,
			"byteOffset":29968,
			"target":34963
		},
		{
			"buffer":0,
			"byteLength":8136,
			"byteOffset":30328,
			"target":34962
		},
		{
			"buffer":0,
			"byteLength":8136,
			"byteOffset":38464,
			"target":34962
		},
		{
			"buffer":0,
			"byteLength":5424,
			"byteOffset":46600,
			"target":34962
		},
		{
			"buffer":0,
			"byteLength":5016,
			"byteOffset":52024,
			"target":34963
		}
	],
	"samplers":[
		{
			"magFilter":9729,
			"minFilter":9987
		}
	],
	"buffers":[
		{
			"byteLength":57040,
			"uri":"city.bin"
		}
	]
}
