{
	"asset":{
		"generator":"Khronos glTF Blender I/O v3.6.28",
		"version":"2.0"
	},
	"scene":0,
	"scenes":[
		{
			"name":"Scene",
			"nodes":[
				0,
				1,
				2,
				3,
				4,
				5,
				6,
				7
			]
		}
	],
	"nodes":[
		{
			"mesh":0,
			"name":"Platform-col",
			"scale":[
				0.6967689990997314,
				0.6967689990997314,
				0.6967689990997314
			],
			"translation":[
				-0.23519808053970337,
				0.8588486313819885,
				-0.4961848258972168
			]
		},
		{
			"mesh":1,
			"name":"block-col",
			"scale":[
				0.6967689990997314,
				0.6967689990997314,
				0.6967689990997314
			],
			"translation":[
				-0.23519808053970337,
				0.8588486313819885,
				-0.4961848258972168
			]
		},
		{
			"mesh":2,
			"name":"bridge-col",
			"scale":[
				0.9664478302001953,
				0.6967689990997314,
				0.6967689990997314
			],
			"translation":[
				-4.109665870666504,
				0.8588486313819885,
				-0.4961848258972168
			]
		},
		{
			"mesh":3,
			"name":"gate-col",
			"rotation":[
				3.3459855330875143e-05,
				0.018959706649184227,
				0.0008324469672515988,
				0.9998199343681335
			],
			"scale":[
				0.8073135614395142,
				0.8083149790763855,
				0.8083147406578064
			],
			"translation":[
				-13.86767292022705,
				1.9141591787338257,
				10.538991928100586
			]
		},
		{
			"mesh":4,
			"name":"revolve2-col",
			"scale":[
				0.6967689990997314,
				0.6967689990997314,
				0.6967689990997314
			],
			"translation":[
				-13.673501968383789,
				0.9974104762077332,
				-12.515560150146484
			]
		},
		{
			"mesh":5,
			"name":"revolve3-col",
			"scale":[
				0.6967689990997314,
				0.6967689990997314,
				0.6967689990997314
			],
			"translation":[
				-13.673501968383789,
				0.977805495262146,
				-1.8107222318649292
			]
		},
		{
			"mesh":6,
			"name":"revolve1-col",
			"rotation":[
				-0.0012271194718778133,
				-0.007255531381815672,
				0.007279547397047281,
				0.9999465346336365
			],
			"scale":[
				0.6967689394950867,
				0.6967689990997314,
				0.6967689990997314
			],
			"translation":[
				33.71455001831055,
				1.1471443176269531,
				-8.909490585327148
			]
		},
		{
			"mesh":7,
			"name":"spiral-col"
		}
	],
	"materials":[
		{
			"doubleSided":true,
			"name":"Bricks.001",
			"pbrMetallicRoughness":{
				"baseColorTexture":{
					"index":0
				},
				"metallicFactor":0,
				"roughnessFactor":0.5
			}
		},
		{
			"name":"Material.003",
			"pbrMetallicRoughness":{
				"baseColorTexture":{
					"index":1
				},
				"metallicFactor":0,
				"roughnessFactor":0.5
			}
		},
		{
			"alphaMode":"BLEND",
			"doubleSided":true,
			"name":"Material.001",
			"pbrMetallicRoughness":{
				"baseColorTexture":{
					"index":2
				},
				"metallicFactor":0,
				"roughnessFactor":0.5
			}
		},
		{
			"doubleSided":true,
			"name":"Material.004",
			"pbrMetallicRoughness":{
				"baseColorTexture":{
					"index":3
				},
				"metallicFactor":0,
				"roughnessFactor":0.5
			}
		},
		{
			"doubleSided":true,
			"name":"Material.005",
			"pbrMetallicRoughness":{
				"baseColorTexture":{
					"index":4
				},
				"metallicFactor":0,
				"roughnessFactor":0.5
			}
		},
		{
			"doubleSided":true,
			"name":"Material.006",
			"pbrMetallicRoughness":{
				"baseColorTexture":{
					"index":5
				},
				"metallicFactor":0,
				"roughnessFactor":0.5
			}
		}
	],
	"meshes":[
		{
			"name":"Plane",
			"primitives":[
				{
					"attributes":{
						"POSITION":0,
						"NORMAL":1,
						"TEXCOORD_0":2
					},
					"indices":3,
					"material":0
				}
			]
		},
		{
			"name":"Cube.001",
			"primitives":[
				{
					"attributes":{
						"POSITION":4,
						"NORMAL":5,
						"TEXCOORD_0":6
					},
					"indices":7,
					"material":1
				}
			]
		},
		{
			"name":"Plane.001",
			"primitives":[
				{
					"attributes":{
						"POSITION":8,
						"NORMAL":9,
						"TEXCOORD_0":10
					},
					"indices":11,
					"material":2
				}
			]
		},
		{
			"name":"Cube.002",
			"primitives":[
				{
					"attributes":{
						"POSITION":12,
						"NORMAL":13,
						"TEXCOORD_0":14
					},
					"indices":15,
					"material":3
				}
			]
		},
		{
			"name":"Plane.004",
			"primitives":[
				{
					"attributes":{
						"POSITION":16,
						"NORMAL":17,
						"TEXCOORD_0":18
					},
					"indices":19,
					"material":4
				}
			]
		},
		{
			"name":"Plane.005",
			"primitives":[
				{
					"attributes":{
						"POSITION":20,
						"NORMAL":21,
						"TEXCOORD_0":22
					},
					"indices":19,
					"material":4
				}
			]
		},
		{
			"name":"Plane.006",
			"primitives":[
				{
					"attributes":{
						"POSITION":23,
						"NORMAL":24,
						"TEXCOORD_0":25
					},
					"indices":26,
					"material":4
				}
			]
		},
		{
			"name":"Spiral",
			"primitives":[
				{
					"attributes":{
						"POSITION":27,
						"NORMAL":28,
						"TEXCOORD_0":29
					},
					"indices":30,
					"material":5
				}
			]
		}
	],
	"textures":[
		{
			"sampler":0,
			"source":0
		},
		{
			"sampler":0,
			"source":1
		},
		{
			"sampler":0,
			"source":2
		},
		{
			"sampler":0,
			"source":3
		},
		{
			"sampler":0,
			"source":4
		},
		{
			"sampler":0,
			"source":5
		}
	],
	"images":[
		{
			"mimeType":"image/png",
			"name":"hotorget",
			"uri":"hotorget.png"
		},
		{
			"mimeType":"image/png",
			"name":"KAAKELI2",
			"uri":"KAAKELI2.png"
		},
		{
			"mimeType":"image/png",
			"name":"thunder1",
			"uri":"thunder1.png"
		},
		{
			"mimeType":"image/png",
			"name":"capture",
			"uri":"capture.png"
		},
		{
			"mimeType":"image/png",
			"name":"metal",
			"uri":"metal.png"
		},
		{
			"mimeType":"image/png",
			"name":"crome",
			"uri":"crome.png"
		}
	],
	"accessors":[
		{
			"bufferView":0,
			"componentType":5126,
			"count":318,
			"max":[
				56.685272216796875,
				5.752536296844482,
				60.86936950683594
			],
			"min":[
				-25.773672103881836,
				-3.8525497913360596,
				-46.823326110839844
			],
			"type":"VEC3"
		},
		{
			"bufferView":1,
			"componentType":5126,
			"count":318,
			"type":"VEC3"
		},
		{
			"bufferView":2,
			"componentType":5126,
			"count":318,
			"type":"VEC2"
		},
		{
			"bufferView":3,
			"componentType":5123,
			"count":618,
			"type":"SCALAR"
		},
		{
			"bufferView":4,
			"componentType":5126,
			"count":24,
			"max":[
				32.08804702758789,
				34.922119140625,
				19.495960235595703
			],
			"min":[
				5.929293632507324,
				-1.5145769119262695,
				-6.6627936363220215
			],
			"type":"VEC3"
		},
		{
			"bufferView":5,
			"componentType":5126,
			"count":24,
			"type":"VEC3"
		},
		{
			"bufferView":6,
			"componentType":5126,
			"count":24,
			"type":"VEC2"
		},
		{
			"bufferView":7,
			"componentType":5123,
			"count":36,
			"type":"SCALAR"
		},
		{
			"bufferView":8,
			"componentType":5126,
			"count":132,
			"max":[
				22.820953369140625,
				3.3345794677734375,
				-24.90172576904297
			],
			"min":[
				8.914228439331055,
				1.4918454885482788,
				-40.79662322998047
			],
			"type":"VEC3"
		},
		{
			"bufferView":9,
			"componentType":5126,
			"count":132,
			"type":"VEC3"
		},
		{
			"bufferView":10,
			"componentType":5126,
			"count":132,
			"type":"VEC2"
		},
		{
			"bufferView":11,
			"componentType":5123,
			"count":198,
			"type":"SCALAR"
		},
		{
			"bufferView":12,
			"componentType":5126,
			"count":56,
			"max":[
				6.091507911682129,
				4.154556751251221,
				1.5759992599487305
			],
			"min":[
				-5.3658447265625,
				-2.839718818664551,
				-0.9537248611450195
			],
			"type":"VEC3"
		},
		{
			"bufferView":13,
			"componentType":5126,
			"count":56,
			"type":"VEC3"
		},
		{
			"bufferView":14,
			"componentType":5126,
			"count":56,
			"type":"VEC2"
		},
		{
			"bufferView":15,
			"componentType":5123,
			"count":96,
			"type":"SCALAR"
		},
		{
			"bufferView":16,
			"componentType":5126,
			"count":112,
			"max":[
				6.107820510864258,
				1.7761033773422241,
				6.107824325561523
			],
			"min":[
				-6.107831954956055,
				-1.7761032581329346,
				-6.107826232910156
			],
			"type":"VEC3"
		},
		{
			"bufferView":17,
			"componentType":5126,
			"count":112,
			"type":"VEC3"
		},
		{
			"bufferView":18,
			"componentType":5126,
			"count":112,
			"type":"VEC2"
		},
		{
			"bufferView":19,
			"componentType":5123,
			"count":180,
			"type":"SCALAR"
		},
		{
			"bufferView":20,
			"componentType":5126,
			"count":112,
			"max":[
				6.107820510864258,
				1.7479661703109741,
				6.107825756072998
			],
			"min":[
				-6.107831954956055,
				-1.7479662895202637,
				-6.107823848724365
			],
			"type":"VEC3"
		},
		{
			"bufferView":21,
			"componentType":5126,
			"count":112,
			"type":"VEC3"
		},
		{
			"bufferView":22,
			"componentType":5126,
			"count":112,
			"type":"VEC2"
		},
		{
			"bufferView":23,
			"componentType":5126,
			"count":112,
			"max":[
				5.037876129150391,
				5.269155025482178,
				5.269158840179443
			],
			"min":[
				-5.037872314453125,
				-5.269161224365234,
				-5.269155502319336
			],
			"type":"VEC3"
		},
		{
			"bufferView":24,
			"componentType":5126,
			"count":112,
			"type":"VEC3"
		},
		{
			"bufferView":25,
			"componentType":5126,
			"count":112,
			"type":"VEC2"
		},
		{
			"bufferView":26,
			"componentType":5123,
			"count":180,
			"type":"SCALAR"
		},
		{
			"bufferView":27,
			"componentType":5126,
			"count":678,
			"max":[
				13.617687225341797,
				33.4910774230957,
				67.46459197998047
			],
			"min":[
				-20.012136459350586,
				-2.7872259616851807,
				43.27073669433594
			],
			"type":"VEC3"
		},
		{
			"bufferView":28,
			"componentType":5126,
			"count":678,
			"type":"VEC3"
		},
		{
			"bufferView":29,
			"componentType":5126,
			"count":678,
			"type":"VEC2"
		},
		{
			"bufferView":30,
			"componentType":5123,
			"count":2508,
			"type":"SCALAR"
		}
	],
	"bufferViews":[
		{
			"buffer":0,
			"byteLength":3816,
			"byteOffset":0,
			"target":34962
		},
		{
			"buffer":0,
			"byteLength":3816,
			"byteOffset":3816,
			"target":34962
		},
		{
			"buffer":0,
			"byteLength":2544,
			"byteOffset":7632,
			"target":34962
		},
		{
			"buffer":0,
			"byteLength":1236,
			"byteOffset":10176,
			"target":34963
		},
		{
			"buffer":0,
			"byteLength":288,
			"byteOffset":11412,
			"target":34962
		},
		{
			"buffer":0,
			"byteLength":288,
			"byteOffset":11700,
			"target":34962
		},
		{
			"buffer":0,
			"byteLength":192,
			"byteOffset":11988,
			"target":34962
		},
		{
			"buffer":0,
			"byteLength":72,
			"byteOffset":12180,
			"target":34963
		},
		{
			"buffer":0,
			"byteLength":1584,
			"byteOffset":12252,
			"target":34962
		},
		{
			"buffer":0,
			"byteLength":1584,
			"byteOffset":13836,
			"target":34962
		},
		{
			"buffer":0,
			"byteLength":1056,
			"byteOffset":15420,
			"target":34962
		},
		{
			"buffer":0,
			"byteLength":396,
			"byteOffset":16476,
			"target":34963
		},
		{
			"buffer":0,
			"byteLength":672,
			"byteOffset":16872,
			"target":34962
		},
		{
			"buffer":0,
			"byteLength":672,
			"byteOffset":17544,
			"target":34962
		},
		{
			"buffer":0,
			"byteLength":448,
			"byteOffset":18216,
			"target":34962
		},
		{
			"buffer":0,
			"byteLength":192,
			"byteOffset":18664,
			"target":34963
		},
		{
			"buffer":0,
			"byteLength":1344,
			"byteOffset":18856,
			"target":34962
		},
		{
			"buffer":0,
			"byteLength":1344,
			"byteOffset":20200,
			"target":34962
		},
		{
			"buffer":0,
			"byteLength":896,
			"byteOffset":21544,
			"target":34962
		},
		{
			"buffer":0,
			"byteLength":360,
			"byteOffset":22440,
			"target":34963
		},
		{
			"buffer":0,
			"byteLength":1344,
			"byteOffset":22800,
			"target":34962
		},
		{
			"buffer":0,
			"byteLength":1344,
			"byteOffset":24144,
			"target":34962
		},
		{
			"buffer":0,
			"byteLength":896,
			"byteOffset":25488,
			"target":34962
		},
		{
			"buffer":0,
			"byteLength":1344,
			"byteOffset":26384,
			"target":34962
		},
		{
			"buffer":0,
			"byteLength":1344,
			"byteOffset":27728,
			"target":34962
		},
		{
			"buffer":0,
			"byteLength":896,
			"byteOffset":29072,
			"target":34962
		},
		{
			"buffer":0,
			"byteLength":360,
			"byteOffset":29968,
			"target":34963
		},
		{
			"buffer":0,
			"byteLength":8136,
			"byteOffset":30328,
			"target":34962
		},
		{
			"buffer":0,
			"byteLength":8136,
			"byteOffset":38464,
			"target":34962
		},
		{
			"buffer":0,
			"byteLength":5424,
			"byteOffset":46600,
			"target":34962
		},
		{
			"buffer":0,
			"byteLength":5016,
			"byteOffset":52024,
			"target":34963
		}
	],
	"samplers":[
		{
			"magFilter":9729,
			"minFilter":9987
		}
	],
	"buffers":[
		{
			"byteLength":57040,
			"uri":"city.bin"
		}
	]
}
