{
	"asset":{
		"generator":"Khronos glTF Blender I/O v4.1.63",
		"version":"2.0"
	},
	"scene":0,
	"scenes":[
		{
			"name":"Scene",
			"nodes":[
				0,
				1,
				2,
				3
			]
		}
	],
	"nodes":[
		{
			"mesh":0,
			"name":"disc-col",
			"rotation":[
				0,
				-0.7071067094802856,
				0,
				0.7071068286895752
			],
			"scale":[
				1.4772615432739258,
				1.4772615432739258,
				1.4772615432739258
			],
			"translation":[
				-1.3980913162231445,
				0,
				2.036470413208008
			]
		},
		{
			"mesh":1,
			"name":"gate-col",
			"rotation":[
				0,
				-0.7071067094802856,
				0,
				0.7071068286895752
			],
			"translation":[
				-1.3980913162231445,
				-0.4162951707839966,
				2.036470413208008
			]
		},
		{
			"mesh":2,
			"name":"bridge-col",
			"rotation":[
				0,
				-0.7071067094802856,
				0,
				0.7071068286895752
			],
			"translation":[
				12.93682861328125,
				5.171336650848389,
				-3.360781669616699
			]
		},
		{
			"mesh":3,
			"name":"platform-col",
			"rotation":[
				0.5000000596046448,
				0.5,
				0.5,
				0.5
			],
			"translation":[
				-53.33277893066406,
				13.251092910766602,
				-6.314815044403076
			]
		}
	],
	"materials":[
		{
			"doubleSided":true,
			"name":"Material.002",
			"pbrMetallicRoughness":{
				"baseColorTexture":{
					"index":0
				},
				"metallicFactor":0,
				"roughnessFactor":0.5
			}
		},
		{
			"doubleSided":true,
			"name":"Material.004",
			"pbrMetallicRoughness":{
				"baseColorTexture":{
					"index":1
				},
				"metallicFactor":0,
				"roughnessFactor":0.5
			}
		},
		{
			"alphaMode":"BLEND",
			"doubleSided":true,
			"name":"Material",
			"pbrMetallicRoughness":{
				"baseColorTexture":{
					"index":2
				},
				"metallicFactor":0,
				"roughnessFactor":0.5
			}
		},
		{
			"doubleSided":true,
			"name":"Material.001",
			"pbrMetallicRoughness":{
				"baseColorTexture":{
					"index":3
				},
				"metallicFactor":0,
				"roughnessFactor":0.5
			}
		},
		{
			"doubleSided":true,
			"name":"Material.003",
			"pbrMetallicRoughness":{
				"metallicFactor":0,
				"roughnessFactor":0.5
			}
		}
	],
	"meshes":[
		{
			"name":"Cube.001",
			"primitives":[
				{
					"attributes":{
						"POSITION":0,
						"NORMAL":1,
						"TEXCOORD_0":2
					},
					"indices":3,
					"material":0
				}
			]
		},
		{
			"name":"Cube.002",
			"primitives":[
				{
					"attributes":{
						"POSITION":4,
						"NORMAL":5,
						"TEXCOORD_0":6
					},
					"indices":7,
					"material":1
				}
			]
		},
		{
			"name":"Plane",
			"primitives":[
				{
					"attributes":{
						"POSITION":8,
						"NORMAL":9,
						"TEXCOORD_0":10
					},
					"indices":11,
					"material":2
				}
			]
		},
		{
			"name":"Cube.003",
			"primitives":[
				{
					"attributes":{
						"POSITION":12,
						"NORMAL":13,
						"TEXCOORD_0":14
					},
					"indices":15,
					"material":3
				},
				{
					"attributes":{
						"POSITION":16,
						"NORMAL":17,
						"TEXCOORD_0":18
					},
					"indices":19,
					"material":4
				}
			]
		}
	],
	"textures":[
		{
			"sampler":0,
			"source":0
		},
		{
			"sampler":0,
			"source":1
		},
		{
			"sampler":0,
			"source":2
		},
		{
			"sampler":0,
			"source":3
		}
	],
	"images":[
		{
			"mimeType":"image/png",
			"name":"KATTOT",
			"uri":"KATTOT.png"
		},
		{
			"mimeType":"image/png",
			"name":"capture",
			"uri":"capture.png"
		},
		{
			"mimeType":"image/png",
			"name":"thunder1",
			"uri":"thunder1.png"
		},
		{
			"mimeType":"image/png",
			"name":"n_kattot",
			"uri":"n_kattot.png"
		}
	],
	"accessors":[
		{
			"bufferView":0,
			"componentType":5126,
			"count":659,
			"max":[
				5.39996337890625,
				5.269113063812256,
				24.894668579101562
			],
			"min":[
				-42.56217575073242,
				-2.3813276290893555,
				-17.67070198059082
			],
			"type":"VEC3"
		},
		{
			"bufferView":1,
			"componentType":5126,
			"count":659,
			"type":"VEC3"
		},
		{
			"bufferView":2,
			"componentType":5126,
			"count":659,
			"type":"VEC2"
		},
		{
			"bufferView":3,
			"componentType":5123,
			"count":1287,
			"type":"SCALAR"
		},
		{
			"bufferView":4,
			"componentType":5126,
			"count":56,
			"max":[
				-3.4364013671875,
				9.642984390258789,
				24.1015625
			],
			"min":[
				-14.893753051757812,
				2.6487088203430176,
				21.57183837890625
			],
			"type":"VEC3"
		},
		{
			"bufferView":5,
			"componentType":5126,
			"count":56,
			"type":"VEC3"
		},
		{
			"bufferView":6,
			"componentType":5126,
			"count":56,
			"type":"VEC2"
		},
		{
			"bufferView":7,
			"componentType":5123,
			"count":96,
			"type":"SCALAR"
		},
		{
			"bufferView":8,
			"componentType":5126,
			"count":132,
			"max":[
				-0.5622298717498779,
				1.4947750568389893,
				29.10440444946289
			],
			"min":[
				-8.102010726928711,
				-2.3832759857177734,
				-3.066218137741089
			],
			"type":"VEC3"
		},
		{
			"bufferView":9,
			"componentType":5126,
			"count":132,
			"type":"VEC3"
		},
		{
			"bufferView":10,
			"componentType":5126,
			"count":132,
			"type":"VEC2"
		},
		{
			"bufferView":11,
			"componentType":5123,
			"count":198,
			"type":"SCALAR"
		},
		{
			"bufferView":12,
			"componentType":5126,
			"count":48,
			"max":[
				31.940536499023438,
				9.119580268859863,
				15.237987518310547
			],
			"min":[
				-12.217618942260742,
				-9.61351203918457,
				-6.887278079986572
			],
			"type":"VEC3"
		},
		{
			"bufferView":13,
			"componentType":5126,
			"count":48,
			"type":"VEC3"
		},
		{
			"bufferView":14,
			"componentType":5126,
			"count":48,
			"type":"VEC2"
		},
		{
			"bufferView":15,
			"componentType":5123,
			"count":72,
			"type":"SCALAR"
		},
		{
			"bufferView":16,
			"componentType":5126,
			"count":98,
			"max":[
				31.981292724609375,
				9.119580268859863,
				15.237987518310547
			],
			"min":[
				-12.217618942260742,
				-9.613513946533203,
				-8.886862754821777
			],
			"type":"VEC3"
		},
		{
			"bufferView":17,
			"componentType":5126,
			"count":98,
			"type":"VEC3"
		},
		{
			"bufferView":18,
			"componentType":5126,
			"count":98,
			"type":"VEC2"
		},
		{
			"bufferView":19,
			"componentType":5123,
			"count":216,
			"type":"SCALAR"
		}
	],
	"bufferViews":[
		{
			"buffer":0,
			"byteLength":7908,
			"byteOffset":0,
			"target":34962
		},
		{
			"buffer":0,
			"byteLength":7908,
			"byteOffset":7908,
			"target":34962
		},
		{
			"buffer":0,
			"byteLength":5272,
			"byteOffset":15816,
			"target":34962
		},
		{
			"buffer":0,
			"byteLength":2574,
			"byteOffset":21088,
			"target":34963
		},
		{
			"buffer":0,
			"byteLength":672,
			"byteOffset":23664,
			"target":34962
		},
		{
			"buffer":0,
			"byteLength":672,
			"byteOffset":24336,
			"target":34962
		},
		{
			"buffer":0,
			"byteLength":448,
			"byteOffset":25008,
			"target":34962
		},
		{
			"buffer":0,
			"byteLength":192,
			"byteOffset":25456,
			"target":34963
		},
		{
			"buffer":0,
			"byteLength":1584,
			"byteOffset":25648,
			"target":34962
		},
		{
			"buffer":0,
			"byteLength":1584,
			"byteOffset":27232,
			"target":34962
		},
		{
			"buffer":0,
			"byteLength":1056,
			"byteOffset":28816,
			"target":34962
		},
		{
			"buffer":0,
			"byteLength":396,
			"byteOffset":29872,
			"target":34963
		},
		{
			"buffer":0,
			"byteLength":576,
			"byteOffset":30268,
			"target":34962
		},
		{
			"buffer":0,
			"byteLength":576,
			"byteOffset":30844,
			"target":34962
		},
		{
			"buffer":0,
			"byteLength":384,
			"byteOffset":31420,
			"target":34962
		},
		{
			"buffer":0,
			"byteLength":144,
			"byteOffset":31804,
			"target":34963
		},
		{
			"buffer":0,
			"byteLength":1176,
			"byteOffset":31948,
			"target":34962
		},
		{
			"buffer":0,
			"byteLength":1176,
			"byteOffset":33124,
			"target":34962
		},
		{
			"buffer":0,
			"byteLength":784,
			"byteOffset":34300,
			"target":34962
		},
		{
			"buffer":0,
			"byteLength":432,
			"byteOffset":35084,
			"target":34963
		}
	],
	"samplers":[
		{
			"magFilter":9729,
			"minFilter":9987
		}
	],
	"buffers":[
		{
			"byteLength":35516,
			"uri":"disco.bin"
		}
	]
}
