{
	"asset":{
		"generator":"Khronos glTF Blender I/O v3.6.28",
		"version":"2.0"
	},
	"scene":0,
	"scenes":[
		{
			"name":"Scene",
			"nodes":[
				0
			]
		}
	],
	"nodes":[
		{
			"mesh":0,
			"name":"tube-col",
			"translation":[
				0,
				0.008947988972067833,
				0
			]
		}
	],
	"materials":[
		{
			"doubleSided":true,
			"name":"Material.003",
			"pbrMetallicRoughness":{
				"baseColorTexture":{
					"index":0
				},
				"metallicFactor":0,
				"roughnessFactor":0.5
			}
		}
	],
	"meshes":[
		{
			"name":"Cylinder.002",
			"primitives":[
				{
					"attributes":{
						"POSITION":0,
						"NORMAL":1,
						"TEXCOORD_0":2
					},
					"indices":3,
					"material":0
				}
			]
		}
	],
	"textures":[
		{
			"sampler":0,
			"source":0
		}
	],
	"images":[
		{
			"mimeType":"image/png",
			"name":"KATTOT",
			"uri":"KATTOT.png"
		}
	],
	"accessors":[
		{
			"bufferView":0,
			"componentType":5126,
			"count":10752,
			"max":[
				3.01585054397583,
				1.7629404067993164,
				0.7022560238838196
			],
			"min":[
				-4.547304630279541,
				-1.27190101146698,
				-0.7022561430931091
			],
			"type":"VEC3"
		},
		{
			"bufferView":1,
			"componentType":5126,
			"count":10752,
			"type":"VEC3"
		},
		{
			"bufferView":2,
			"componentType":5126,
			"count":10752,
			"type":"VEC2"
		},
		{
			"bufferView":3,
			"componentType":5123,
			"count":16128,
			"type":"SCALAR"
		}
	],
	"bufferViews":[
		{
			"buffer":0,
			"byteLength":129024,
			"byteOffset":0,
			"target":34962
		},
		{
			"buffer":0,
			"byteLength":129024,
			"byteOffset":129024,
			"target":34962
		},
		{
			"buffer":0,
			"byteLength":86016,
			"byteOffset":258048,
			"target":34962
		},
		{
			"buffer":0,
			"byteLength":32256,
			"byteOffset":344064,
			"target":34963
		}
	],
	"samplers":[
		{
			"magFilter":9729,
			"minFilter":9987
		}
	],
	"buffers":[
		{
			"byteLength":376320,
			"uri":"disco_tube.bin"
		}
	]
}
