{
	"asset":{
		"generator":"Khronos glTF Blender I/O v4.1.63",
		"version":"2.0"
	},
	"scene":0,
	"scenes":[
		{
			"name":"Scene",
			"nodes":[
				0,
				1,
				2,
				3
			]
		}
	],
	"nodes":[
		{
			"mesh":0,
			"name":"disc-col",
			"rotation":[
				0,
				-0.7071067094802856,
				0,
				0.7071068286895752
			],
			"translation":[
				-0.08772945404052734,
				0.2699919044971466,
				1.0157265663146973
			]
		},
		{
			"mesh":1,
			"name":"gate-col",
			"rotation":[
				0,
				-0.7071067094802856,
				0,
				0.7071068286895752
			],
			"translation":[
				-0.08772945404052734,
				0.22836260497570038,
				1.0157265663146973
			]
		},
		{
			"mesh":2,
			"name":"bridge-col",
			"rotation":[
				0,
				-0.7071067094802856,
				0,
				0.7071068286895752
			],
			"translation":[
				1.34576416015625,
				0.7871256470680237,
				0.4760013818740845
			]
		},
		{
			"mesh":3,
			"name":"platform-col",
			"rotation":[
				0.5000000596046448,
				0.5,
				0.5,
				0.5
			],
			"translation":[
				-5.281196594238281,
				1.5951013565063477,
				0.18059828877449036
			]
		}
	],
	"materials":[
		{
			"doubleSided":true,
			"name":"Material.002",
			"pbrMetallicRoughness":{
				"baseColorTexture":{
					"index":0
				},
				"metallicFactor":0,
				"roughnessFactor":0.5
			}
		},
		{
			"doubleSided":true,
			"name":"Material.004",
			"pbrMetallicRoughness":{
				"baseColorTexture":{
					"index":1
				},
				"metallicFactor":0,
				"roughnessFactor":0.5
			}
		},
		{
			"alphaMode":"BLEND",
			"doubleSided":true,
			"name":"Material",
			"pbrMetallicRoughness":{
				"baseColorTexture":{
					"index":2
				},
				"metallicFactor":0,
				"roughnessFactor":0.5
			}
		},
		{
			"doubleSided":true,
			"name":"Material.001",
			"pbrMetallicRoughness":{
				"baseColorTexture":{
					"index":3
				},
				"metallicFactor":0,
				"roughnessFactor":0.5
			}
		},
		{
			"doubleSided":true,
			"name":"Material.003",
			"pbrMetallicRoughness":{
				"baseColorTexture":{
					"index":4
				},
				"metallicFactor":0,
				"roughnessFactor":0.5
			}
		}
	],
	"meshes":[
		{
			"name":"Cube.001",
			"primitives":[
				{
					"attributes":{
						"POSITION":0,
						"NORMAL":1,
						"TEXCOORD_0":2
					},
					"indices":3,
					"material":0
				}
			]
		},
		{
			"name":"Cube.002",
			"primitives":[
				{
					"attributes":{
						"POSITION":4,
						"NORMAL":5,
						"TEXCOORD_0":6
					},
					"indices":7,
					"material":1
				}
			]
		},
		{
			"name":"Plane",
			"primitives":[
				{
					"attributes":{
						"POSITION":8,
						"NORMAL":9,
						"TEXCOORD_0":10
					},
					"indices":11,
					"material":2
				}
			]
		},
		{
			"name":"Cube.003",
			"primitives":[
				{
					"attributes":{
						"POSITION":12,
						"NORMAL":13,
						"TEXCOORD_0":14
					},
					"indices":15,
					"material":3
				},
				{
					"attributes":{
						"POSITION":16,
						"NORMAL":17,
						"TEXCOORD_0":18
					},
					"indices":19,
					"material":4
				}
			]
		}
	],
	"textures":[
		{
			"sampler":0,
			"source":0
		},
		{
			"sampler":0,
			"source":1
		},
		{
			"sampler":0,
			"source":2
		},
		{
			"sampler":0,
			"source":3
		},
		{
			"sampler":0,
			"source":0
		}
	],
	"images":[
		{
			"mimeType":"image/png",
			"name":"KATTOT",
			"uri":"KATTOT.png"
		},
		{
			"mimeType":"image/png",
			"name":"capture",
			"uri":"capture.png"
		},
		{
			"mimeType":"image/png",
			"name":"thunder1",
			"uri":"thunder1.png"
		},
		{
			"mimeType":"image/png",
			"name":"n_kattot",
			"uri":"n_kattot.png"
		}
	],
	"accessors":[
		{
			"bufferView":0,
			"componentType":5126,
			"count":662,
			"max":[
				0.7977160215377808,
				0.7783859968185425,
				3.6775946617126465
			],
			"min":[
				-6.287548065185547,
				-0.35178446769714355,
				-2.6104254722595215
			],
			"type":"VEC3"
		},
		{
			"bufferView":1,
			"componentType":5126,
			"count":662,
			"type":"VEC3"
		},
		{
			"bufferView":2,
			"componentType":5126,
			"count":662,
			"type":"VEC2"
		},
		{
			"bufferView":3,
			"componentType":5123,
			"count":1287,
			"type":"SCALAR"
		},
		{
			"bufferView":4,
			"componentType":5126,
			"count":56,
			"max":[
				-0.34364020824432373,
				0.964298665523529,
				2.410156726837158
			],
			"min":[
				-1.4893757104873657,
				0.26487094163894653,
				2.157184362411499
			],
			"type":"VEC3"
		},
		{
			"bufferView":5,
			"componentType":5126,
			"count":56,
			"type":"VEC3"
		},
		{
			"bufferView":6,
			"componentType":5126,
			"count":56,
			"type":"VEC2"
		},
		{
			"bufferView":7,
			"componentType":5123,
			"count":96,
			"type":"SCALAR"
		},
		{
			"bufferView":8,
			"componentType":5126,
			"count":132,
			"max":[
				-0.05622300133109093,
				0.1494775414466858,
				2.9104411602020264
			],
			"min":[
				-0.8102012872695923,
				-0.23832765221595764,
				-0.30662187933921814
			],
			"type":"VEC3"
		},
		{
			"bufferView":9,
			"componentType":5126,
			"count":132,
			"type":"VEC3"
		},
		{
			"bufferView":10,
			"componentType":5126,
			"count":132,
			"type":"VEC2"
		},
		{
			"bufferView":11,
			"componentType":5123,
			"count":198,
			"type":"SCALAR"
		},
		{
			"bufferView":12,
			"componentType":5126,
			"count":48,
			"max":[
				3.194054365158081,
				0.9119582176208496,
				1.5237990617752075
			],
			"min":[
				-1.2217621803283691,
				-0.9613514542579651,
				-0.6887279748916626
			],
			"type":"VEC3"
		},
		{
			"bufferView":13,
			"componentType":5126,
			"count":48,
			"type":"VEC3"
		},
		{
			"bufferView":14,
			"componentType":5126,
			"count":48,
			"type":"VEC2"
		},
		{
			"bufferView":15,
			"componentType":5123,
			"count":72,
			"type":"SCALAR"
		},
		{
			"bufferView":16,
			"componentType":5126,
			"count":98,
			"max":[
				3.1981301307678223,
				0.9119582176208496,
				1.5237990617752075
			],
			"min":[
				-1.2217621803283691,
				-0.9613516330718994,
				-0.88868647813797
			],
			"type":"VEC3"
		},
		{
			"bufferView":17,
			"componentType":5126,
			"count":98,
			"type":"VEC3"
		},
		{
			"bufferView":18,
			"componentType":5126,
			"count":98,
			"type":"VEC2"
		},
		{
			"bufferView":19,
			"componentType":5123,
			"count":216,
			"type":"SCALAR"
		}
	],
	"bufferViews":[
		{
			"buffer":0,
			"byteLength":7944,
			"byteOffset":0,
			"target":34962
		},
		{
			"buffer":0,
			"byteLength":7944,
			"byteOffset":7944,
			"target":34962
		},
		{
			"buffer":0,
			"byteLength":5296,
			"byteOffset":15888,
			"target":34962
		},
		{
			"buffer":0,
			"byteLength":2574,
			"byteOffset":21184,
			"target":34963
		},
		{
			"buffer":0,
			"byteLength":672,
			"byteOffset":23760,
			"target":34962
		},
		{
			"buffer":0,
			"byteLength":672,
			"byteOffset":24432,
			"target":34962
		},
		{
			"buffer":0,
			"byteLength":448,
			"byteOffset":25104,
			"target":34962
		},
		{
			"buffer":0,
			"byteLength":192,
			"byteOffset":25552,
			"target":34963
		},
		{
			"buffer":0,
			"byteLength":1584,
			"byteOffset":25744,
			"target":34962
		},
		{
			"buffer":0,
			"byteLength":1584,
			"byteOffset":27328,
			"target":34962
		},
		{
			"buffer":0,
			"byteLength":1056,
			"byteOffset":28912,
			"target":34962
		},
		{
			"buffer":0,
			"byteLength":396,
			"byteOffset":29968,
			"target":34963
		},
		{
			"buffer":0,
			"byteLength":576,
			"byteOffset":30364,
			"target":34962
		},
		{
			"buffer":0,
			"byteLength":576,
			"byteOffset":30940,
			"target":34962
		},
		{
			"buffer":0,
			"byteLength":384,
			"byteOffset":31516,
			"target":34962
		},
		{
			"buffer":0,
			"byteLength":144,
			"byteOffset":31900,
			"target":34963
		},
		{
			"buffer":0,
			"byteLength":1176,
			"byteOffset":32044,
			"target":34962
		},
		{
			"buffer":0,
			"byteLength":1176,
			"byteOffset":33220,
			"target":34962
		},
		{
			"buffer":0,
			"byteLength":784,
			"byteOffset":34396,
			"target":34962
		},
		{
			"buffer":0,
			"byteLength":432,
			"byteOffset":35180,
			"target":34963
		}
	],
	"samplers":[
		{
			"magFilter":9729,
			"minFilter":9987
		}
	],
	"buffers":[
		{
			"byteLength":35612,
			"uri":"disco.bin"
		}
	]
}
