{
	"asset":{
		"generator":"Khronos glTF Blender I/O v3.6.28",
		"version":"2.0"
	},
	"extensionsUsed":[
		"KHR_materials_specular",
		"KHR_materials_ior"
	],
	"scene":0,
	"scenes":[
		{
			"name":"Scene",
			"nodes":[
				0,
				1,
				2,
				3,
				4,
				5,
				6,
				7,
				8,
				9,
				10,
				11,
				12,
				13,
				14,
				15
			]
		}
	],
	"nodes":[
		{
			"mesh":0,
			"name":"platform1-col",
			"scale":[
				1.0378034114837646,
				1,
				1
			],
			"translation":[
				-0.1411500871181488,
				1.4449315071105957,
				-0.13382911682128906
			]
		},
		{
			"mesh":1,
			"name":"cone-col.002",
			"translation":[
				3.4559452533721924,
				-12.641490936279297,
				-96.90811157226562
			]
		},
		{
			"mesh":2,
			"name":"cone-col.006",
			"translation":[
				40.23011779785156,
				-25.78314208984375,
				-161.76870727539062
			]
		},
		{
			"mesh":3,
			"name":"cone-col.001",
			"translation":[
				41.13825607299805,
				-17.397371292114258,
				-150.87612915039062
			]
		},
		{
			"mesh":4,
			"name":"halfpipe-col",
			"rotation":[
				0,
				0.08231249451637268,
				0,
				0.9966066479682922
			],
			"translation":[
				174.16395568847656,
				-18.19695281982422,
				-214.36378479003906
			]
		},
		{
			"mesh":5,
			"name":"halfpipe-col.001",
			"rotation":[
				0.005133945029228926,
				-0.9999271631240845,
				0.008665032684803009,
				0.006649011746048927
			],
			"translation":[
				-37.2938117980957,
				-40.427146911621094,
				-399.5003356933594
			]
		},
		{
			"mesh":6,
			"name":"cone-col.003",
			"rotation":[
				0.007469203323125839,
				-0.9898267388343811,
				0.006756568793207407,
				0.14192180335521698
			],
			"translation":[
				138.68746948242188,
				-30.052549362182617,
				-306.93402099609375
			]
		},
		{
			"mesh":7,
			"name":"cone-col.004",
			"rotation":[
				0.007469203323125839,
				-0.9898267388343811,
				0.006756568793207407,
				0.14192180335521698
			],
			"translation":[
				87.44960021972656,
				-36.128662109375,
				-348.0786437988281
			]
		},
		{
			"mesh":8,
			"name":"cone-col.005",
			"rotation":[
				0.007469203323125839,
				-0.9898267388343811,
				0.006756568793207407,
				0.14192180335521698
			],
			"translation":[
				88.88162994384766,
				-45.62058639526367,
				-376.15924072265625
			]
		},
		{
			"mesh":9,
			"name":"gate-col",
			"rotation":[
				0,
				-0.02301289141178131,
				0,
				0.9997351765632629
			],
			"translation":[
				0.2463671714067459,
				5.18424129486084,
				-23.91035270690918
			]
		},
		{
			"mesh":10,
			"name":"plane-col",
			"rotation":[
				0,
				-0.16634008288383484,
				0,
				0.9860685467720032
			],
			"translation":[
				-27.409915924072266,
				-38.03453826904297,
				-474.09130859375
			]
		},
		{
			"mesh":11,
			"name":"plane2-col",
			"rotation":[
				0,
				-0.16634009778499603,
				0,
				0.9860685467720032
			],
			"scale":[
				0.7845310568809509,
				0.7845311164855957,
				0.7845310568809509
			],
			"translation":[
				11.565144538879395,
				-54.42097473144531,
				-538.111328125
			]
		},
		{
			"mesh":12,
			"name":"gate-col.001",
			"rotation":[
				0,
				-0.02301289141178131,
				0,
				0.9997351765632629
			],
			"translation":[
				146.7120361328125,
				-56.97844314575195,
				-555.5042114257812
			]
		},
		{
			"mesh":13,
			"name":"cube-col",
			"scale":[
				26.214637756347656,
				26.214637756347656,
				26.214637756347656
			],
			"translation":[
				535.9829711914062,
				-114.16841125488281,
				-787.446533203125
			]
		},
		{
			"name":"Cone",
			"rotation":[
				-1,
				0,
				0,
				4.371138828673793e-08
			],
			"scale":[
				1,
				1.3082126379013062,
				1
			],
			"translation":[
				313.95880126953125,
				-87.02359008789062,
				-783.6244506835938
			]
		},
		{
			"mesh":14,
			"name":"funnel-col",
			"rotation":[
				-1,
				0,
				0,
				4.371138828673793e-08
			],
			"scale":[
				1.566081166267395,
				1.3082126379013062,
				1.566081166267395
			],
			"translation":[
				534.6149291992188,
				-100.98511505126953,
				-787.1473999023438
			]
		}
	],
	"materials":[
		{
			"extensions":{
				"KHR_materials_specular":{
					"specularColorFactor":[
						0,
						0,
						0
					]
				},
				"KHR_materials_ior":{
					"ior":1.4500000476837158
				}
			},
			"name":"Material.001",
			"pbrMetallicRoughness":{
				"baseColorTexture":{
					"index":0
				},
				"metallicFactor":0
			}
		},
		{
			"extensions":{
				"KHR_materials_specular":{
					"specularColorFactor":[
						0,
						0,
						0
					]
				},
				"KHR_materials_ior":{
					"ior":1.4500000476837158
				}
			},
			"name":"Material.002",
			"pbrMetallicRoughness":{
				"baseColorTexture":{
					"index":1
				},
				"metallicFactor":0
			}
		},
		{
			"doubleSided":true,
			"name":"Material.003",
			"pbrMetallicRoughness":{
				"baseColorTexture":{
					"index":2
				},
				"metallicFactor":0,
				"roughnessFactor":0.5
			}
		},
		{
			"alphaMode":"BLEND",
			"doubleSided":true,
			"name":"Material.004",
			"pbrMetallicRoughness":{
				"baseColorFactor":[
					1,
					1,
					1,
					0.37988829612731934
				],
				"baseColorTexture":{
					"index":3
				},
				"metallicFactor":0,
				"roughnessFactor":0.5
			}
		}
	],
	"meshes":[
		{
			"name":"Plane",
			"primitives":[
				{
					"attributes":{
						"POSITION":0,
						"NORMAL":1,
						"TEXCOORD_0":2
					},
					"indices":3,
					"material":0
				}
			]
		},
		{
			"name":"Cone",
			"primitives":[
				{
					"attributes":{
						"POSITION":4,
						"NORMAL":5,
						"TEXCOORD_0":6
					},
					"indices":7,
					"material":0
				}
			]
		},
		{
			"name":"Cone.001",
			"primitives":[
				{
					"attributes":{
						"POSITION":8,
						"NORMAL":9,
						"TEXCOORD_0":10
					},
					"indices":11,
					"material":0
				}
			]
		},
		{
			"name":"Cone.002",
			"primitives":[
				{
					"attributes":{
						"POSITION":12,
						"NORMAL":13,
						"TEXCOORD_0":14
					},
					"indices":15,
					"material":0
				}
			]
		},
		{
			"name":"Cylinder.003",
			"primitives":[
				{
					"attributes":{
						"POSITION":16,
						"NORMAL":17,
						"TEXCOORD_0":18
					},
					"indices":19,
					"material":0
				}
			]
		},
		{
			"name":"Cylinder.001",
			"primitives":[
				{
					"attributes":{
						"POSITION":20,
						"NORMAL":21,
						"TEXCOORD_0":22
					},
					"indices":23,
					"material":0
				}
			]
		},
		{
			"name":"Cone.003",
			"primitives":[
				{
					"attributes":{
						"POSITION":24,
						"NORMAL":25,
						"TEXCOORD_0":26
					},
					"indices":27,
					"material":0
				}
			]
		},
		{
			"name":"Cone.004",
			"primitives":[
				{
					"attributes":{
						"POSITION":28,
						"NORMAL":29,
						"TEXCOORD_0":30
					},
					"indices":31,
					"material":0
				}
			]
		},
		{
			"name":"Cone.005",
			"primitives":[
				{
					"attributes":{
						"POSITION":32,
						"NORMAL":33,
						"TEXCOORD_0":34
					},
					"indices":35,
					"material":0
				}
			]
		},
		{
			"name":"Cube.002",
			"primitives":[
				{
					"attributes":{
						"POSITION":36,
						"NORMAL":37,
						"TEXCOORD_0":38
					},
					"indices":39,
					"material":0
				}
			]
		},
		{
			"name":"Plane.001",
			"primitives":[
				{
					"attributes":{
						"POSITION":40,
						"NORMAL":41,
						"TEXCOORD_0":42
					},
					"indices":43,
					"material":0
				}
			]
		},
		{
			"name":"Plane.002",
			"primitives":[
				{
					"attributes":{
						"POSITION":44,
						"NORMAL":45,
						"TEXCOORD_0":46
					},
					"indices":47,
					"material":0
				}
			]
		},
		{
			"name":"Cube.001",
			"primitives":[
				{
					"attributes":{
						"POSITION":48,
						"NORMAL":49,
						"TEXCOORD_0":50
					},
					"indices":51,
					"material":1
				}
			]
		},
		{
			"name":"Cube",
			"primitives":[
				{
					"attributes":{
						"POSITION":52,
						"NORMAL":53,
						"TEXCOORD_0":54
					},
					"indices":55,
					"material":2
				}
			]
		},
		{
			"name":"Cone.007",
			"primitives":[
				{
					"attributes":{
						"POSITION":56,
						"NORMAL":57,
						"TEXCOORD_0":58
					},
					"indices":59,
					"material":3
				}
			]
		}
	],
	"textures":[
		{
			"sampler":0,
			"source":0
		},
		{
			"sampler":0,
			"source":1
		},
		{
			"sampler":0,
			"source":2
		},
		{
			"sampler":0,
			"source":2
		}
	],
	"images":[
		{
			"mimeType":"image/png",
			"name":"Loosedrt",
			"uri":"Loosedrt.png"
		},
		{
			"mimeType":"image/png",
			"name":"Loosedrt.bmp",
			"uri":"Loosedrt_bmp.png"
		},
		{
			"mimeType":"image/png",
			"name":"ballsEndless",
			"uri":"ballsEndless.png"
		}
	],
	"accessors":[
		{
			"bufferView":0,
			"componentType":5126,
			"count":220,
			"max":[
				4.264461517333984,
				7.465325832366943,
				4.077010154724121
			],
			"min":[
				-4.264461517333984,
				-0.4617703855037689,
				-39.017086029052734
			],
			"type":"VEC3"
		},
		{
			"bufferView":1,
			"componentType":5126,
			"count":220,
			"type":"VEC3"
		},
		{
			"bufferView":2,
			"componentType":5126,
			"count":220,
			"type":"VEC2"
		},
		{
			"bufferView":3,
			"componentType":5123,
			"count":372,
			"type":"SCALAR"
		},
		{
			"bufferView":4,
			"componentType":5126,
			"count":256,
			"max":[
				6.619213104248047,
				11.547137260437012,
				6.619212627410889
			],
			"min":[
				-6.619211196899414,
				-11.03201961517334,
				-6.619212627410889
			],
			"type":"VEC3"
		},
		{
			"bufferView":5,
			"componentType":5126,
			"count":256,
			"type":"VEC3"
		},
		{
			"bufferView":6,
			"componentType":5126,
			"count":256,
			"type":"VEC2"
		},
		{
			"bufferView":7,
			"componentType":5123,
			"count":378,
			"type":"SCALAR"
		},
		{
			"bufferView":8,
			"componentType":5126,
			"count":256,
			"max":[
				67.02559661865234,
				12.346273422241211,
				-6.1340460777282715
			],
			"min":[
				53.787174224853516,
				-33.783451080322266,
				-19.37247085571289
			],
			"type":"VEC3"
		},
		{
			"bufferView":9,
			"componentType":5126,
			"count":256,
			"type":"VEC3"
		},
		{
			"bufferView":10,
			"componentType":5126,
			"count":256,
			"type":"VEC2"
		},
		{
			"bufferView":11,
			"componentType":5123,
			"count":378,
			"type":"SCALAR"
		},
		{
			"bufferView":12,
			"componentType":5126,
			"count":256,
			"max":[
				6.619212627410889,
				8.591443061828613,
				6.619212627410889
			],
			"min":[
				-6.619211673736572,
				-7.722414016723633,
				-6.619212627410889
			],
			"type":"VEC3"
		},
		{
			"bufferView":13,
			"componentType":5126,
			"count":256,
			"type":"VEC3"
		},
		{
			"bufferView":14,
			"componentType":5126,
			"count":256,
			"type":"VEC2"
		},
		{
			"bufferView":15,
			"componentType":5123,
			"count":378,
			"type":"SCALAR"
		},
		{
			"bufferView":16,
			"componentType":5126,
			"count":7336,
			"max":[
				31.54701805114746,
				8.03890609741211,
				33.56440734863281
			],
			"min":[
				-19.896709442138672,
				-2.3920512199401855,
				-48.74582290649414
			],
			"type":"VEC3"
		},
		{
			"bufferView":17,
			"componentType":5126,
			"count":7336,
			"type":"VEC3"
		},
		{
			"bufferView":18,
			"componentType":5126,
			"count":7336,
			"type":"VEC2"
		},
		{
			"bufferView":19,
			"componentType":5123,
			"count":11004,
			"type":"SCALAR"
		},
		{
			"bufferView":20,
			"componentType":5126,
			"count":7336,
			"max":[
				31.54701805114746,
				8.03890609741211,
				48.74582290649414
			],
			"min":[
				-19.896709442138672,
				-2.3920512199401855,
				-33.56440734863281
			],
			"type":"VEC3"
		},
		{
			"bufferView":21,
			"componentType":5126,
			"count":7336,
			"type":"VEC3"
		},
		{
			"bufferView":22,
			"componentType":5126,
			"count":7336,
			"type":"VEC2"
		},
		{
			"bufferView":23,
			"componentType":5123,
			"count":11004,
			"type":"SCALAR"
		},
		{
			"bufferView":24,
			"componentType":5126,
			"count":256,
			"max":[
				6.619213104248047,
				11.698267936706543,
				6.716435432434082
			],
			"min":[
				-6.807366371154785,
				-11.03201961517334,
				-6.619212627410889
			],
			"type":"VEC3"
		},
		{
			"bufferView":25,
			"componentType":5126,
			"count":256,
			"type":"VEC3"
		},
		{
			"bufferView":26,
			"componentType":5126,
			"count":256,
			"type":"VEC2"
		},
		{
			"bufferView":27,
			"componentType":5123,
			"count":378,
			"type":"SCALAR"
		},
		{
			"bufferView":28,
			"componentType":5126,
			"count":256,
			"max":[
				6.619212627410889,
				8.563156127929688,
				6.619212627410889
			],
			"min":[
				-6.630033016204834,
				-7.722414016723633,
				-6.6322431564331055
			],
			"type":"VEC3"
		},
		{
			"bufferView":29,
			"componentType":5126,
			"count":256,
			"type":"VEC3"
		},
		{
			"bufferView":30,
			"componentType":5126,
			"count":256,
			"type":"VEC2"
		},
		{
			"bufferView":31,
			"componentType":5123,
			"count":378,
			"type":"SCALAR"
		},
		{
			"bufferView":32,
			"componentType":5126,
			"count":256,
			"max":[
				67.02559661865234,
				12.403965950012207,
				19.37247085571289
			],
			"min":[
				53.76951599121094,
				-33.783451080322266,
				6.1127824783325195
			],
			"type":"VEC3"
		},
		{
			"bufferView":33,
			"componentType":5126,
			"count":256,
			"type":"VEC3"
		},
		{
			"bufferView":34,
			"componentType":5126,
			"count":256,
			"type":"VEC2"
		},
		{
			"bufferView":35,
			"componentType":5123,
			"count":378,
			"type":"SCALAR"
		},
		{
			"bufferView":36,
			"componentType":5126,
			"count":56,
			"max":[
				3.8427484035491943,
				3.436676502227783,
				1.4230546951293945
			],
			"min":[
				-4.644402980804443,
				-4.152768135070801,
				-1.9092504978179932
			],
			"type":"VEC3"
		},
		{
			"bufferView":37,
			"componentType":5126,
			"count":56,
			"type":"VEC3"
		},
		{
			"bufferView":38,
			"componentType":5126,
			"count":56,
			"type":"VEC2"
		},
		{
			"bufferView":39,
			"componentType":5123,
			"count":96,
			"type":"SCALAR"
		},
		{
			"bufferView":40,
			"componentType":5126,
			"count":144,
			"max":[
				75.66154479980469,
				-10.148883819580078,
				26.744117736816406
			],
			"min":[
				-78.57765197753906,
				-14.138246536254883,
				-42.02287292480469
			],
			"type":"VEC3"
		},
		{
			"bufferView":41,
			"componentType":5126,
			"count":144,
			"type":"VEC3"
		},
		{
			"bufferView":42,
			"componentType":5126,
			"count":144,
			"type":"VEC2"
		},
		{
			"bufferView":43,
			"componentType":5123,
			"count":276,
			"type":"SCALAR"
		},
		{
			"bufferView":44,
			"componentType":5126,
			"count":231,
			"max":[
				263.99151611328125,
				-8.04523754119873,
				38.17447280883789
			],
			"min":[
				32.590023040771484,
				-12.667215347290039,
				-119.01634216308594
			],
			"type":"VEC3"
		},
		{
			"bufferView":45,
			"componentType":5126,
			"count":231,
			"type":"VEC3"
		},
		{
			"bufferView":46,
			"componentType":5126,
			"count":231,
			"type":"VEC2"
		},
		{
			"bufferView":47,
			"componentType":5123,
			"count":570,
			"type":"SCALAR"
		},
		{
			"bufferView":48,
			"componentType":5126,
			"count":56,
			"max":[
				26.997161865234375,
				3.3681604862213135,
				1.6776537895202637
			],
			"min":[
				14.532220840454102,
				-4.2421112060546875,
				-7.935342311859131
			],
			"type":"VEC3"
		},
		{
			"bufferView":49,
			"componentType":5126,
			"count":56,
			"type":"VEC3"
		},
		{
			"bufferView":50,
			"componentType":5126,
			"count":56,
			"type":"VEC2"
		},
		{
			"bufferView":51,
			"componentType":5123,
			"count":96,
			"type":"SCALAR"
		},
		{
			"bufferView":52,
			"componentType":5126,
			"count":48,
			"max":[
				1.0208680629730225,
				0.07700687646865845,
				1.020867943763733
			],
			"min":[
				-1.0403997898101807,
				-1.0818896293640137,
				-1.0403999090194702
			],
			"type":"VEC3"
		},
		{
			"bufferView":53,
			"componentType":5126,
			"count":48,
			"type":"VEC3"
		},
		{
			"bufferView":54,
			"componentType":5126,
			"count":48,
			"type":"VEC2"
		},
		{
			"bufferView":55,
			"componentType":5123,
			"count":84,
			"type":"SCALAR"
		},
		{
			"bufferView":56,
			"componentType":5126,
			"count":128,
			"max":[
				51.74333572387695,
				10.0649995803833,
				51.74333190917969
			],
			"min":[
				-51.74333572387695,
				-10.065000534057617,
				-51.743343353271484
			],
			"type":"VEC3"
		},
		{
			"bufferView":57,
			"componentType":5126,
			"count":128,
			"type":"VEC3"
		},
		{
			"bufferView":58,
			"componentType":5126,
			"count":128,
			"type":"VEC2"
		},
		{
			"bufferView":59,
			"componentType":5123,
			"count":192,
			"type":"SCALAR"
		}
	],
	"bufferViews":[
		{
			"buffer":0,
			"byteLength":2640,
			"byteOffset":0,
			"target":34962
		},
		{
			"buffer":0,
			"byteLength":2640,
			"byteOffset":2640,
			"target":34962
		},
		{
			"buffer":0,
			"byteLength":1760,
			"byteOffset":5280,
			"target":34962
		},
		{
			"buffer":0,
			"byteLength":744,
			"byteOffset":7040,
			"target":34963
		},
		{
			"buffer":0,
			"byteLength":3072,
			"byteOffset":7784,
			"target":34962
		},
		{
			"buffer":0,
			"byteLength":3072,
			"byteOffset":10856,
			"target":34962
		},
		{
			"buffer":0,
			"byteLength":2048,
			"byteOffset":13928,
			"target":34962
		},
		{
			"buffer":0,
			"byteLength":756,
			"byteOffset":15976,
			"target":34963
		},
		{
			"buffer":0,
			"byteLength":3072,
			"byteOffset":16732,
			"target":34962
		},
		{
			"buffer":0,
			"byteLength":3072,
			"byteOffset":19804,
			"target":34962
		},
		{
			"buffer":0,
			"byteLength":2048,
			"byteOffset":22876,
			"target":34962
		},
		{
			"buffer":0,
			"byteLength":756,
			"byteOffset":24924,
			"target":34963
		},
		{
			"buffer":0,
			"byteLength":3072,
			"byteOffset":25680,
			"target":34962
		},
		{
			"buffer":0,
			"byteLength":3072,
			"byteOffset":28752,
			"target":34962
		},
		{
			"buffer":0,
			"byteLength":2048,
			"byteOffset":31824,
			"target":34962
		},
		{
			"buffer":0,
			"byteLength":756,
			"byteOffset":33872,
			"target":34963
		},
		{
			"buffer":0,
			"byteLength":88032,
			"byteOffset":34628,
			"target":34962
		},
		{
			"buffer":0,
			"byteLength":88032,
			"byteOffset":122660,
			"target":34962
		},
		{
			"buffer":0,
			"byteLength":58688,
			"byteOffset":210692,
			"target":34962
		},
		{
			"buffer":0,
			"byteLength":22008,
			"byteOffset":269380,
			"target":34963
		},
		{
			"buffer":0,
			"byteLength":88032,
			"byteOffset":291388,
			"target":34962
		},
		{
			"buffer":0,
			"byteLength":88032,
			"byteOffset":379420,
			"target":34962
		},
		{
			"buffer":0,
			"byteLength":58688,
			"byteOffset":467452,
			"target":34962
		},
		{
			"buffer":0,
			"byteLength":22008,
			"byteOffset":526140,
			"target":34963
		},
		{
			"buffer":0,
			"byteLength":3072,
			"byteOffset":548148,
			"target":34962
		},
		{
			"buffer":0,
			"byteLength":3072,
			"byteOffset":551220,
			"target":34962
		},
		{
			"buffer":0,
			"byteLength":2048,
			"byteOffset":554292,
			"target":34962
		},
		{
			"buffer":0,
			"byteLength":756,
			"byteOffset":556340,
			"target":34963
		},
		{
			"buffer":0,
			"byteLength":3072,
			"byteOffset":557096,
			"target":34962
		},
		{
			"buffer":0,
			"byteLength":3072,
			"byteOffset":560168,
			"target":34962
		},
		{
			"buffer":0,
			"byteLength":2048,
			"byteOffset":563240,
			"target":34962
		},
		{
			"buffer":0,
			"byteLength":756,
			"byteOffset":565288,
			"target":34963
		},
		{
			"buffer":0,
			"byteLength":3072,
			"byteOffset":566044,
			"target":34962
		},
		{
			"buffer":0,
			"byteLength":3072,
			"byteOffset":569116,
			"target":34962
		},
		{
			"buffer":0,
			"byteLength":2048,
			"byteOffset":572188,
			"target":34962
		},
		{
			"buffer":0,
			"byteLength":756,
			"byteOffset":574236,
			"target":34963
		},
		{
			"buffer":0,
			"byteLength":672,
			"byteOffset":574992,
			"target":34962
		},
		{
			"buffer":0,
			"byteLength":672,
			"byteOffset":575664,
			"target":34962
		},
		{
			"buffer":0,
			"byteLength":448,
			"byteOffset":576336,
			"target":34962
		},
		{
			"buffer":0,
			"byteLength":192,
			"byteOffset":576784,
			"target":34963
		},
		{
			"buffer":0,
			"byteLength":1728,
			"byteOffset":576976,
			"target":34962
		},
		{
			"buffer":0,
			"byteLength":1728,
			"byteOffset":578704,
			"target":34962
		},
		{
			"buffer":0,
			"byteLength":1152,
			"byteOffset":580432,
			"target":34962
		},
		{
			"buffer":0,
			"byteLength":552,
			"byteOffset":581584,
			"target":34963
		},
		{
			"buffer":0,
			"byteLength":2772,
			"byteOffset":582136,
			"target":34962
		},
		{
			"buffer":0,
			"byteLength":2772,
			"byteOffset":584908,
			"target":34962
		},
		{
			"buffer":0,
			"byteLength":1848,
			"byteOffset":587680,
			"target":34962
		},
		{
			"buffer":0,
			"byteLength":1140,
			"byteOffset":589528,
			"target":34963
		},
		{
			"buffer":0,
			"byteLength":672,
			"byteOffset":590668,
			"target":34962
		},
		{
			"buffer":0,
			"byteLength":672,
			"byteOffset":591340,
			"target":34962
		},
		{
			"buffer":0,
			"byteLength":448,
			"byteOffset":592012,
			"target":34962
		},
		{
			"buffer":0,
			"byteLength":192,
			"byteOffset":592460,
			"target":34963
		},
		{
			"buffer":0,
			"byteLength":576,
			"byteOffset":592652,
			"target":34962
		},
		{
			"buffer":0,
			"byteLength":576,
			"byteOffset":593228,
			"target":34962
		},
		{
			"buffer":0,
			"byteLength":384,
			"byteOffset":593804,
			"target":34962
		},
		{
			"buffer":0,
			"byteLength":168,
			"byteOffset":594188,
			"target":34963
		},
		{
			"buffer":0,
			"byteLength":1536,
			"byteOffset":594356,
			"target":34962
		},
		{
			"buffer":0,
			"byteLength":1536,
			"byteOffset":595892,
			"target":34962
		},
		{
			"buffer":0,
			"byteLength":1024,
			"byteOffset":597428,
			"target":34962
		},
		{
			"buffer":0,
			"byteLength":384,
			"byteOffset":598452,
			"target":34963
		}
	],
	"samplers":[
		{
			"magFilter":9729,
			"minFilter":9987
		}
	],
	"buffers":[
		{
			"byteLength":598836,
			"uri":"jump.bin"
		}
	]
}
