{
	"asset":{
		"generator":"Khronos glTF Blender I/O v4.1.63",
		"version":"2.0"
	},
	"extensionsUsed":[
		"KHR_materials_specular",
		"KHR_materials_ior"
	],
	"scene":0,
	"scenes":[
		{
			"name":"Scene",
			"nodes":[
				0,
				1,
				2,
				3,
				4,
				5,
				6,
				7,
				8,
				9,
				10,
				11,
				12,
				13,
				14,
				15
			]
		}
	],
	"nodes":[
		{
			"mesh":0,
			"name":"platform1-col",
			"translation":[
				-0.01424400880932808,
				0.1903807818889618,
				0.010346204042434692
			]
		},
		{
			"mesh":1,
			"name":"cone-col.002",
			"translation":[
				0.3454667031764984,
				-1.2182612419128418,
				-9.667083740234375
			]
		},
		{
			"mesh":2,
			"name":"cone-col.006",
			"translation":[
				4.022881031036377,
				-2.532428503036499,
				-16.153135299682617
			]
		},
		{
			"mesh":3,
			"name":"cone-col.001",
			"translation":[
				4.113693714141846,
				-1.6938509941101074,
				-15.063873291015625
			]
		},
		{
			"mesh":4,
			"name":"halfpipe-col",
			"rotation":[
				0,
				0.08231249451637268,
				0,
				0.9966066479682922
			],
			"translation":[
				17.416259765625,
				-1.7738070487976074,
				-21.412656784057617
			]
		},
		{
			"mesh":5,
			"name":"halfpipe-col.001",
			"rotation":[
				0.005133945029228926,
				-0.9999271631240845,
				0.008665032684803009,
				0.006649011746048927
			],
			"translation":[
				-3.7295074462890625,
				-3.996825933456421,
				-39.92629623413086
			]
		},
		{
			"mesh":6,
			"name":"cone-col.003",
			"rotation":[
				0.007469203323125839,
				-0.9898267388343811,
				0.006756568793207407,
				0.14192180335521698
			],
			"translation":[
				13.868621826171875,
				-2.959369421005249,
				-30.669675827026367
			]
		},
		{
			"mesh":7,
			"name":"cone-col.004",
			"rotation":[
				0.007469203323125839,
				-0.9898267388343811,
				0.006756568793207407,
				0.14192180335521698
			],
			"translation":[
				8.744827270507812,
				-3.5669782161712646,
				-34.78414535522461
			]
		},
		{
			"mesh":8,
			"name":"cone-col.005",
			"rotation":[
				0.007469203323125839,
				-0.9898267388343811,
				0.006756568793207407,
				0.14192180335521698
			],
			"translation":[
				8.888031005859375,
				-4.516170024871826,
				-37.59218978881836
			]
		},
		{
			"mesh":9,
			"name":"gate-col",
			"rotation":[
				0,
				-0.02301289141178131,
				0,
				0.9997351765632629
			],
			"translation":[
				0.02450568601489067,
				0.5643126964569092,
				-2.3673086166381836
			]
		},
		{
			"mesh":10,
			"name":"plane-col",
			"rotation":[
				0,
				-0.16634008288383484,
				0,
				0.9860685467720032
			],
			"translation":[
				-2.741119384765625,
				-3.757568120956421,
				-47.38540267944336
			]
		},
		{
			"mesh":11,
			"name":"plane2-col",
			"rotation":[
				0,
				-0.16634008288383484,
				0,
				0.9860685467720032
			],
			"translation":[
				1.1563873291015625,
				-5.396209239959717,
				-53.787410736083984
			]
		},
		{
			"mesh":12,
			"name":"gate-col.001",
			"rotation":[
				0,
				-0.02301289141178131,
				0,
				0.9997351765632629
			],
			"translation":[
				14.671066284179688,
				-5.651957988739014,
				-55.52669906616211
			]
		},
		{
			"mesh":13,
			"name":"cube-col",
			"translation":[
				53.59816360473633,
				-11.370956420898438,
				-78.7209243774414
			]
		},
		{
			"name":"Cone",
			"rotation":[
				-1,
				0,
				0,
				4.371138828673793e-08
			],
			"translation":[
				31.395751953125,
				-8.656471252441406,
				-78.3387222290039
			]
		},
		{
			"mesh":14,
			"name":"funnel-col",
			"rotation":[
				-1,
				0,
				0,
				4.371138828673793e-08
			],
			"translation":[
				53.46138381958008,
				-10.052623748779297,
				-78.6910171508789
			]
		}
	],
	"materials":[
		{
			"extensions":{
				"KHR_materials_specular":{
					"specularFactor":0
				},
				"KHR_materials_ior":{
					"ior":1.4500000476837158
				}
			},
			"name":"DIRT",
			"pbrMetallicRoughness":{
				"baseColorTexture":{
					"index":0
				},
				"metallicFactor":0
			}
		},
		{
			"doubleSided":true,
			"name":"Material.003",
			"pbrMetallicRoughness":{
				"baseColorTexture":{
					"index":1
				},
				"metallicFactor":0,
				"roughnessFactor":0.5
			}
		},
		{
			"alphaMode":"BLEND",
			"doubleSided":true,
			"name":"Material.004",
			"pbrMetallicRoughness":{
				"baseColorFactor":[
					1,
					1,
					1,
					0.37988829612731934
				],
				"baseColorTexture":{
					"index":2
				},
				"metallicFactor":0,
				"roughnessFactor":0.5
			}
		}
	],
	"meshes":[
		{
			"name":"Plane",
			"primitives":[
				{
					"attributes":{
						"POSITION":0,
						"NORMAL":1,
						"TEXCOORD_0":2
					},
					"indices":3,
					"material":0
				}
			]
		},
		{
			"name":"Cone",
			"primitives":[
				{
					"attributes":{
						"POSITION":4,
						"NORMAL":5,
						"TEXCOORD_0":6
					},
					"indices":7,
					"material":0
				}
			]
		},
		{
			"name":"Cone.001",
			"primitives":[
				{
					"attributes":{
						"POSITION":8,
						"NORMAL":9,
						"TEXCOORD_0":10
					},
					"indices":11,
					"material":0
				}
			]
		},
		{
			"name":"Cone.002",
			"primitives":[
				{
					"attributes":{
						"POSITION":12,
						"NORMAL":13,
						"TEXCOORD_0":14
					},
					"indices":15,
					"material":0
				}
			]
		},
		{
			"name":"Cylinder.003",
			"primitives":[
				{
					"attributes":{
						"POSITION":16,
						"NORMAL":17,
						"TEXCOORD_0":18
					},
					"indices":19,
					"material":0
				}
			]
		},
		{
			"name":"Cylinder.001",
			"primitives":[
				{
					"attributes":{
						"POSITION":20,
						"NORMAL":21,
						"TEXCOORD_0":22
					},
					"indices":23,
					"material":0
				}
			]
		},
		{
			"name":"Cone.003",
			"primitives":[
				{
					"attributes":{
						"POSITION":24,
						"NORMAL":25,
						"TEXCOORD_0":26
					},
					"indices":27,
					"material":0
				}
			]
		},
		{
			"name":"Cone.004",
			"primitives":[
				{
					"attributes":{
						"POSITION":28,
						"NORMAL":29,
						"TEXCOORD_0":30
					},
					"indices":31,
					"material":0
				}
			]
		},
		{
			"name":"Cone.005",
			"primitives":[
				{
					"attributes":{
						"POSITION":32,
						"NORMAL":33,
						"TEXCOORD_0":34
					},
					"indices":35,
					"material":0
				}
			]
		},
		{
			"name":"Cube.002",
			"primitives":[
				{
					"attributes":{
						"POSITION":36,
						"NORMAL":37,
						"TEXCOORD_0":38
					},
					"indices":39,
					"material":0
				}
			]
		},
		{
			"name":"Plane.001",
			"primitives":[
				{
					"attributes":{
						"POSITION":40,
						"NORMAL":41,
						"TEXCOORD_0":42
					},
					"indices":43,
					"material":0
				}
			]
		},
		{
			"name":"Plane.002",
			"primitives":[
				{
					"attributes":{
						"POSITION":44,
						"NORMAL":45,
						"TEXCOORD_0":46
					},
					"indices":47,
					"material":0
				}
			]
		},
		{
			"name":"Cube.001",
			"primitives":[
				{
					"attributes":{
						"POSITION":48,
						"NORMAL":49,
						"TEXCOORD_0":50
					},
					"indices":51,
					"material":0
				}
			]
		},
		{
			"name":"Cube",
			"primitives":[
				{
					"attributes":{
						"POSITION":52,
						"NORMAL":53,
						"TEXCOORD_0":54
					},
					"indices":55,
					"material":1
				}
			]
		},
		{
			"name":"Cone.007",
			"primitives":[
				{
					"attributes":{
						"POSITION":56,
						"NORMAL":57,
						"TEXCOORD_0":58
					},
					"indices":59,
					"material":2
				}
			]
		}
	],
	"textures":[
		{
			"sampler":0,
			"source":0
		},
		{
			"sampler":0,
			"source":1
		},
		{
			"sampler":0,
			"source":1
		}
	],
	"images":[
		{
			"mimeType":"image/png",
			"name":"Loosedrt",
			"uri":"Loosedrt.png"
		},
		{
			"mimeType":"image/png",
			"name":"ballsEndless",
			"uri":"ballsEndless.png"
		}
	],
	"accessors":[
		{
			"bufferView":0,
			"componentType":5126,
			"count":220,
			"max":[
				0.442567378282547,
				0.7465327382087708,
				0.4077011048793793
			],
			"min":[
				-0.442567378282547,
				-0.04617704823613167,
				-3.90170955657959
			],
			"type":"VEC3"
		},
		{
			"bufferView":1,
			"componentType":5126,
			"count":220,
			"type":"VEC3"
		},
		{
			"bufferView":2,
			"componentType":5126,
			"count":220,
			"type":"VEC2"
		},
		{
			"bufferView":3,
			"componentType":5123,
			"count":372,
			"type":"SCALAR"
		},
		{
			"bufferView":4,
			"componentType":5126,
			"count":256,
			"max":[
				0.6619214415550232,
				1.1547139883041382,
				0.6619214415550232
			],
			"min":[
				-0.6619212627410889,
				-1.103202223777771,
				-0.6619214415550232
			],
			"type":"VEC3"
		},
		{
			"bufferView":5,
			"componentType":5126,
			"count":256,
			"type":"VEC3"
		},
		{
			"bufferView":6,
			"componentType":5126,
			"count":256,
			"type":"VEC2"
		},
		{
			"bufferView":7,
			"componentType":5123,
			"count":378,
			"type":"SCALAR"
		},
		{
			"bufferView":8,
			"componentType":5126,
			"count":256,
			"max":[
				6.702561378479004,
				1.234627604484558,
				-0.6134047508239746
			],
			"min":[
				5.378718852996826,
				-3.3783459663391113,
				-1.9372475147247314
			],
			"type":"VEC3"
		},
		{
			"bufferView":9,
			"componentType":5126,
			"count":256,
			"type":"VEC3"
		},
		{
			"bufferView":10,
			"componentType":5126,
			"count":256,
			"type":"VEC2"
		},
		{
			"bufferView":11,
			"componentType":5123,
			"count":378,
			"type":"SCALAR"
		},
		{
			"bufferView":12,
			"componentType":5126,
			"count":256,
			"max":[
				0.6619214415550232,
				0.8591445088386536,
				0.6619214415550232
			],
			"min":[
				-0.6619213223457336,
				-0.7722415924072266,
				-0.6619214415550232
			],
			"type":"VEC3"
		},
		{
			"bufferView":13,
			"componentType":5126,
			"count":256,
			"type":"VEC3"
		},
		{
			"bufferView":14,
			"componentType":5126,
			"count":256,
			"type":"VEC2"
		},
		{
			"bufferView":15,
			"componentType":5123,
			"count":378,
			"type":"SCALAR"
		},
		{
			"bufferView":16,
			"componentType":5126,
			"count":7336,
			"max":[
				3.154702663421631,
				0.8038908243179321,
				3.3564414978027344
			],
			"min":[
				-1.9896714687347412,
				-0.23920518159866333,
				-4.8745832443237305
			],
			"type":"VEC3"
		},
		{
			"bufferView":17,
			"componentType":5126,
			"count":7336,
			"type":"VEC3"
		},
		{
			"bufferView":18,
			"componentType":5126,
			"count":7336,
			"type":"VEC2"
		},
		{
			"bufferView":19,
			"componentType":5123,
			"count":11004,
			"type":"SCALAR"
		},
		{
			"bufferView":20,
			"componentType":5126,
			"count":7336,
			"max":[
				3.154702663421631,
				0.8038908243179321,
				4.8745832443237305
			],
			"min":[
				-1.9896714687347412,
				-0.23920518159866333,
				-3.3564414978027344
			],
			"type":"VEC3"
		},
		{
			"bufferView":21,
			"componentType":5126,
			"count":7336,
			"type":"VEC3"
		},
		{
			"bufferView":22,
			"componentType":5126,
			"count":7336,
			"type":"VEC2"
		},
		{
			"bufferView":23,
			"componentType":5123,
			"count":11004,
			"type":"SCALAR"
		},
		{
			"bufferView":24,
			"componentType":5126,
			"count":256,
			"max":[
				0.6619214415550232,
				1.1698271036148071,
				0.6716436743736267
			],
			"min":[
				-0.680736780166626,
				-1.103202223777771,
				-0.6619214415550232
			],
			"type":"VEC3"
		},
		{
			"bufferView":25,
			"componentType":5126,
			"count":256,
			"type":"VEC3"
		},
		{
			"bufferView":26,
			"componentType":5126,
			"count":256,
			"type":"VEC2"
		},
		{
			"bufferView":27,
			"componentType":5123,
			"count":378,
			"type":"SCALAR"
		},
		{
			"bufferView":28,
			"componentType":5126,
			"count":256,
			"max":[
				0.6619214415550232,
				0.8563157916069031,
				0.6619214415550232
			],
			"min":[
				-0.6630034446716309,
				-0.7722415924072266,
				-0.663224458694458
			],
			"type":"VEC3"
		},
		{
			"bufferView":29,
			"componentType":5126,
			"count":256,
			"type":"VEC3"
		},
		{
			"bufferView":30,
			"componentType":5126,
			"count":256,
			"type":"VEC2"
		},
		{
			"bufferView":31,
			"componentType":5123,
			"count":378,
			"type":"SCALAR"
		},
		{
			"bufferView":32,
			"componentType":5126,
			"count":256,
			"max":[
				6.702561378479004,
				1.2403968572616577,
				1.9372475147247314
			],
			"min":[
				5.376952648162842,
				-3.3783459663391113,
				0.6112784147262573
			],
			"type":"VEC3"
		},
		{
			"bufferView":33,
			"componentType":5126,
			"count":256,
			"type":"VEC3"
		},
		{
			"bufferView":34,
			"componentType":5126,
			"count":256,
			"type":"VEC2"
		},
		{
			"bufferView":35,
			"componentType":5123,
			"count":378,
			"type":"SCALAR"
		},
		{
			"bufferView":36,
			"componentType":5126,
			"count":56,
			"max":[
				0.3842749297618866,
				0.34366774559020996,
				0.14230550825595856
			],
			"min":[
				-0.46444040536880493,
				-0.4152769148349762,
				-0.19092509150505066
			],
			"type":"VEC3"
		},
		{
			"bufferView":37,
			"componentType":5126,
			"count":56,
			"type":"VEC3"
		},
		{
			"bufferView":38,
			"componentType":5126,
			"count":56,
			"type":"VEC2"
		},
		{
			"bufferView":39,
			"componentType":5123,
			"count":96,
			"type":"SCALAR"
		},
		{
			"bufferView":40,
			"componentType":5126,
			"count":144,
			"max":[
				7.566156387329102,
				-1.0148886442184448,
				2.674412488937378
			],
			"min":[
				-7.857767105102539,
				-1.4138250350952148,
				-4.2022881507873535
			],
			"type":"VEC3"
		},
		{
			"bufferView":41,
			"componentType":5126,
			"count":144,
			"type":"VEC3"
		},
		{
			"bufferView":42,
			"componentType":5126,
			"count":144,
			"type":"VEC2"
		},
		{
			"bufferView":43,
			"componentType":5123,
			"count":276,
			"type":"SCALAR"
		},
		{
			"bufferView":44,
			"componentType":5126,
			"count":231,
			"max":[
				20.710960388183594,
				-0.6311740875244141,
				2.9949069023132324
			],
			"min":[
				2.5567893981933594,
				-0.9937826991081238,
				-9.337204933166504
			],
			"type":"VEC3"
		},
		{
			"bufferView":45,
			"componentType":5126,
			"count":231,
			"type":"VEC3"
		},
		{
			"bufferView":46,
			"componentType":5126,
			"count":231,
			"type":"VEC2"
		},
		{
			"bufferView":47,
			"componentType":5123,
			"count":570,
			"type":"SCALAR"
		},
		{
			"bufferView":48,
			"componentType":5126,
			"count":56,
			"max":[
				2.699716806411743,
				0.33681613206863403,
				0.16776542365550995
			],
			"min":[
				1.453222393989563,
				-0.4242112338542938,
				-0.7935343980789185
			],
			"type":"VEC3"
		},
		{
			"bufferView":49,
			"componentType":5126,
			"count":56,
			"type":"VEC3"
		},
		{
			"bufferView":50,
			"componentType":5126,
			"count":56,
			"type":"VEC2"
		},
		{
			"bufferView":51,
			"componentType":5123,
			"count":96,
			"type":"SCALAR"
		},
		{
			"bufferView":52,
			"componentType":5126,
			"count":48,
			"max":[
				2.6761693954467773,
				0.20187079906463623,
				2.6761691570281982
			],
			"min":[
				-2.7273712158203125,
				-2.836135149002075,
				-2.7273714542388916
			],
			"type":"VEC3"
		},
		{
			"bufferView":53,
			"componentType":5126,
			"count":48,
			"type":"VEC3"
		},
		{
			"bufferView":54,
			"componentType":5126,
			"count":48,
			"type":"VEC2"
		},
		{
			"bufferView":55,
			"componentType":5123,
			"count":84,
			"type":"SCALAR"
		},
		{
			"bufferView":56,
			"componentType":5126,
			"count":128,
			"max":[
				8.10342788696289,
				1.316716194152832,
				8.10342788696289
			],
			"min":[
				-8.10342788696289,
				-1.3167163133621216,
				-8.103428840637207
			],
			"type":"VEC3"
		},
		{
			"bufferView":57,
			"componentType":5126,
			"count":128,
			"type":"VEC3"
		},
		{
			"bufferView":58,
			"componentType":5126,
			"count":128,
			"type":"VEC2"
		},
		{
			"bufferView":59,
			"componentType":5123,
			"count":192,
			"type":"SCALAR"
		}
	],
	"bufferViews":[
		{
			"buffer":0,
			"byteLength":2640,
			"byteOffset":0,
			"target":34962
		},
		{
			"buffer":0,
			"byteLength":2640,
			"byteOffset":2640,
			"target":34962
		},
		{
			"buffer":0,
			"byteLength":1760,
			"byteOffset":5280,
			"target":34962
		},
		{
			"buffer":0,
			"byteLength":744,
			"byteOffset":7040,
			"target":34963
		},
		{
			"buffer":0,
			"byteLength":3072,
			"byteOffset":7784,
			"target":34962
		},
		{
			"buffer":0,
			"byteLength":3072,
			"byteOffset":10856,
			"target":34962
		},
		{
			"buffer":0,
			"byteLength":2048,
			"byteOffset":13928,
			"target":34962
		},
		{
			"buffer":0,
			"byteLength":756,
			"byteOffset":15976,
			"target":34963
		},
		{
			"buffer":0,
			"byteLength":3072,
			"byteOffset":16732,
			"target":34962
		},
		{
			"buffer":0,
			"byteLength":3072,
			"byteOffset":19804,
			"target":34962
		},
		{
			"buffer":0,
			"byteLength":2048,
			"byteOffset":22876,
			"target":34962
		},
		{
			"buffer":0,
			"byteLength":756,
			"byteOffset":24924,
			"target":34963
		},
		{
			"buffer":0,
			"byteLength":3072,
			"byteOffset":25680,
			"target":34962
		},
		{
			"buffer":0,
			"byteLength":3072,
			"byteOffset":28752,
			"target":34962
		},
		{
			"buffer":0,
			"byteLength":2048,
			"byteOffset":31824,
			"target":34962
		},
		{
			"buffer":0,
			"byteLength":756,
			"byteOffset":33872,
			"target":34963
		},
		{
			"buffer":0,
			"byteLength":88032,
			"byteOffset":34628,
			"target":34962
		},
		{
			"buffer":0,
			"byteLength":88032,
			"byteOffset":122660,
			"target":34962
		},
		{
			"buffer":0,
			"byteLength":58688,
			"byteOffset":210692,
			"target":34962
		},
		{
			"buffer":0,
			"byteLength":22008,
			"byteOffset":269380,
			"target":34963
		},
		{
			"buffer":0,
			"byteLength":88032,
			"byteOffset":291388,
			"target":34962
		},
		{
			"buffer":0,
			"byteLength":88032,
			"byteOffset":379420,
			"target":34962
		},
		{
			"buffer":0,
			"byteLength":58688,
			"byteOffset":467452,
			"target":34962
		},
		{
			"buffer":0,
			"byteLength":22008,
			"byteOffset":526140,
			"target":34963
		},
		{
			"buffer":0,
			"byteLength":3072,
			"byteOffset":548148,
			"target":34962
		},
		{
			"buffer":0,
			"byteLength":3072,
			"byteOffset":551220,
			"target":34962
		},
		{
			"buffer":0,
			"byteLength":2048,
			"byteOffset":554292,
			"target":34962
		},
		{
			"buffer":0,
			"byteLength":756,
			"byteOffset":556340,
			"target":34963
		},
		{
			"buffer":0,
			"byteLength":3072,
			"byteOffset":557096,
			"target":34962
		},
		{
			"buffer":0,
			"byteLength":3072,
			"byteOffset":560168,
			"target":34962
		},
		{
			"buffer":0,
			"byteLength":2048,
			"byteOffset":563240,
			"target":34962
		},
		{
			"buffer":0,
			"byteLength":756,
			"byteOffset":565288,
			"target":34963
		},
		{
			"buffer":0,
			"byteLength":3072,
			"byteOffset":566044,
			"target":34962
		},
		{
			"buffer":0,
			"byteLength":3072,
			"byteOffset":569116,
			"target":34962
		},
		{
			"buffer":0,
			"byteLength":2048,
			"byteOffset":572188,
			"target":34962
		},
		{
			"buffer":0,
			"byteLength":756,
			"byteOffset":574236,
			"target":34963
		},
		{
			"buffer":0,
			"byteLength":672,
			"byteOffset":574992,
			"target":34962
		},
		{
			"buffer":0,
			"byteLength":672,
			"byteOffset":575664,
			"target":34962
		},
		{
			"buffer":0,
			"byteLength":448,
			"byteOffset":576336,
			"target":34962
		},
		{
			"buffer":0,
			"byteLength":192,
			"byteOffset":576784,
			"target":34963
		},
		{
			"buffer":0,
			"byteLength":1728,
			"byteOffset":576976,
			"target":34962
		},
		{
			"buffer":0,
			"byteLength":1728,
			"byteOffset":578704,
			"target":34962
		},
		{
			"buffer":0,
			"byteLength":1152,
			"byteOffset":580432,
			"target":34962
		},
		{
			"buffer":0,
			"byteLength":552,
			"byteOffset":581584,
			"target":34963
		},
		{
			"buffer":0,
			"byteLength":2772,
			"byteOffset":582136,
			"target":34962
		},
		{
			"buffer":0,
			"byteLength":2772,
			"byteOffset":584908,
			"target":34962
		},
		{
			"buffer":0,
			"byteLength":1848,
			"byteOffset":587680,
			"target":34962
		},
		{
			"buffer":0,
			"byteLength":1140,
			"byteOffset":589528,
			"target":34963
		},
		{
			"buffer":0,
			"byteLength":672,
			"byteOffset":590668,
			"target":34962
		},
		{
			"buffer":0,
			"byteLength":672,
			"byteOffset":591340,
			"target":34962
		},
		{
			"buffer":0,
			"byteLength":448,
			"byteOffset":592012,
			"target":34962
		},
		{
			"buffer":0,
			"byteLength":192,
			"byteOffset":592460,
			"target":34963
		},
		{
			"buffer":0,
			"byteLength":576,
			"byteOffset":592652,
			"target":34962
		},
		{
			"buffer":0,
			"byteLength":576,
			"byteOffset":593228,
			"target":34962
		},
		{
			"buffer":0,
			"byteLength":384,
			"byteOffset":593804,
			"target":34962
		},
		{
			"buffer":0,
			"byteLength":168,
			"byteOffset":594188,
			"target":34963
		},
		{
			"buffer":0,
			"byteLength":1536,
			"byteOffset":594356,
			"target":34962
		},
		{
			"buffer":0,
			"byteLength":1536,
			"byteOffset":595892,
			"target":34962
		},
		{
			"buffer":0,
			"byteLength":1024,
			"byteOffset":597428,
			"target":34962
		},
		{
			"buffer":0,
			"byteLength":384,
			"byteOffset":598452,
			"target":34963
		}
	],
	"samplers":[
		{
			"magFilter":9729,
			"minFilter":9987
		}
	],
	"buffers":[
		{
			"byteLength":598836,
			"uri":"jump.bin"
		}
	]
}
