{
	"asset":{
		"generator":"Khronos glTF Blender I/O v3.6.28",
		"version":"2.0"
	},
	"scene":0,
	"scenes":[
		{
			"name":"Scene",
			"nodes":[
				0,
				1,
				2,
				3,
				4,
				5,
				6,
				7,
				8
			]
		}
	],
	"nodes":[
		{
			"mesh":0,
			"name":"platform1-col",
			"translation":[
				-0.1411500871181488,
				-0.8103965520858765,
				-0.13382911682128906
			]
		},
		{
			"mesh":1,
			"name":"cone-col.002",
			"translation":[
				3.4559452533721924,
				-14.896819114685059,
				-96.90811157226562
			]
		},
		{
			"mesh":2,
			"name":"cone-col",
			"translation":[
				49.442588806152344,
				-30.843700408935547,
				-182.52626037597656
			]
		},
		{
			"mesh":3,
			"name":"cone-col.001",
			"translation":[
				41.13825607299805,
				-19.652700424194336,
				-150.87612915039062
			]
		},
		{
			"mesh":4,
			"name":"halfpipe-col",
			"rotation":[
				0,
				0.08231249451637268,
				0,
				0.9966066479682922
			],
			"translation":[
				183.3764190673828,
				-26.00031280517578,
				-235.121337890625
			]
		},
		{
			"mesh":5,
			"name":"halfpipe-col.001",
			"rotation":[
				0,
				0.08715575188398361,
				0,
				0.9961947202682495
			],
			"translation":[
				9.93775749206543,
				-48.82972717285156,
				-390.4517517089844
			]
		},
		{
			"mesh":6,
			"name":"cone-col.003",
			"rotation":[
				0,
				0.08715575188398361,
				0,
				0.9961947202682495
			],
			"translation":[
				156.6396026611328,
				-42.8363151550293,
				-310.7850341796875
			]
		},
		{
			"mesh":7,
			"name":"cone-col.004",
			"rotation":[
				0,
				0.08715575188398361,
				0,
				0.9961947202682495
			],
			"translation":[
				124.48187255859375,
				-44.354122161865234,
				-344.9319763183594
			]
		},
		{
			"mesh":8,
			"name":"cone-col.005",
			"rotation":[
				0,
				0.08715575188398361,
				0,
				0.9961947202682495
			],
			"translation":[
				142.72763061523438,
				-51.331321716308594,
				-367.6673278808594
			]
		}
	],
	"meshes":[
		{
			"name":"Plane",
			"primitives":[
				{
					"attributes":{
						"POSITION":0,
						"NORMAL":1,
						"TEXCOORD_0":2
					},
					"indices":3
				}
			]
		},
		{
			"name":"Cone",
			"primitives":[
				{
					"attributes":{
						"POSITION":4,
						"NORMAL":5,
						"TEXCOORD_0":6
					},
					"indices":7
				}
			]
		},
		{
			"name":"Cone.001",
			"primitives":[
				{
					"attributes":{
						"POSITION":8,
						"NORMAL":9,
						"TEXCOORD_0":10
					},
					"indices":7
				}
			]
		},
		{
			"name":"Cone.002",
			"primitives":[
				{
					"attributes":{
						"POSITION":11,
						"NORMAL":12,
						"TEXCOORD_0":13
					},
					"indices":7
				}
			]
		},
		{
			"name":"Cylinder.003",
			"primitives":[
				{
					"attributes":{
						"POSITION":14,
						"NORMAL":15,
						"TEXCOORD_0":16
					},
					"indices":17
				}
			]
		},
		{
			"name":"Cylinder.004",
			"primitives":[
				{
					"attributes":{
						"POSITION":18,
						"NORMAL":19,
						"TEXCOORD_0":20
					},
					"indices":21
				}
			]
		},
		{
			"name":"Cone.009",
			"primitives":[
				{
					"attributes":{
						"POSITION":22,
						"NORMAL":23,
						"TEXCOORD_0":24
					},
					"indices":25
				}
			]
		},
		{
			"name":"Cone.010",
			"primitives":[
				{
					"attributes":{
						"POSITION":26,
						"NORMAL":27,
						"TEXCOORD_0":28
					},
					"indices":25
				}
			]
		},
		{
			"name":"Cone.011",
			"primitives":[
				{
					"attributes":{
						"POSITION":29,
						"NORMAL":30,
						"TEXCOORD_0":31
					},
					"indices":25
				}
			]
		}
	],
	"accessors":[
		{
			"bufferView":0,
			"componentType":5126,
			"count":64,
			"max":[
				3.6244618892669678,
				7.465325832366943,
				3.6244618892669678
			],
			"min":[
				-3.6244618892669678,
				0,
				-38.8375244140625
			],
			"type":"VEC3"
		},
		{
			"bufferView":1,
			"componentType":5126,
			"count":64,
			"type":"VEC3"
		},
		{
			"bufferView":2,
			"componentType":5126,
			"count":64,
			"type":"VEC2"
		},
		{
			"bufferView":3,
			"componentType":5123,
			"count":132,
			"type":"SCALAR"
		},
		{
			"bufferView":4,
			"componentType":5126,
			"count":128,
			"max":[
				6.619213104248047,
				11.032020568847656,
				6.619212627410889
			],
			"min":[
				-6.619211196899414,
				-11.03201961517334,
				-6.619212627410889
			],
			"type":"VEC3"
		},
		{
			"bufferView":5,
			"componentType":5126,
			"count":128,
			"type":"VEC3"
		},
		{
			"bufferView":6,
			"componentType":5126,
			"count":128,
			"type":"VEC2"
		},
		{
			"bufferView":7,
			"componentType":5123,
			"count":186,
			"type":"SCALAR"
		},
		{
			"bufferView":8,
			"componentType":5126,
			"count":128,
			"max":[
				67.02559661865234,
				11.032020568847656,
				-6.1340460777282715
			],
			"min":[
				53.787174224853516,
				-22.540122985839844,
				-19.37247085571289
			],
			"type":"VEC3"
		},
		{
			"bufferView":9,
			"componentType":5126,
			"count":128,
			"type":"VEC3"
		},
		{
			"bufferView":10,
			"componentType":5126,
			"count":128,
			"type":"VEC2"
		},
		{
			"bufferView":11,
			"componentType":5126,
			"count":128,
			"max":[
				6.619212627410889,
				7.722414493560791,
				6.619212627410889
			],
			"min":[
				-6.619211673736572,
				-7.722414016723633,
				-6.619212627410889
			],
			"type":"VEC3"
		},
		{
			"bufferView":12,
			"componentType":5126,
			"count":128,
			"type":"VEC3"
		},
		{
			"bufferView":13,
			"componentType":5126,
			"count":128,
			"type":"VEC2"
		},
		{
			"bufferView":14,
			"componentType":5126,
			"count":3432,
			"max":[
				30.340557098388672,
				8.03890609741211,
				32.35151672363281
			],
			"min":[
				-19.885475158691406,
				-1.11228609085083,
				-47.974727630615234
			],
			"type":"VEC3"
		},
		{
			"bufferView":15,
			"componentType":5126,
			"count":3432,
			"type":"VEC3"
		},
		{
			"bufferView":16,
			"componentType":5126,
			"count":3432,
			"type":"VEC2"
		},
		{
			"bufferView":17,
			"componentType":5123,
			"count":5148,
			"type":"SCALAR"
		},
		{
			"bufferView":18,
			"componentType":5126,
			"count":3432,
			"max":[
				19.885480880737305,
				8.03890609741211,
				32.35152053833008
			],
			"min":[
				-30.34056282043457,
				-1.11228609085083,
				-47.974727630615234
			],
			"type":"VEC3"
		},
		{
			"bufferView":19,
			"componentType":5126,
			"count":3432,
			"type":"VEC3"
		},
		{
			"bufferView":20,
			"componentType":5126,
			"count":3432,
			"type":"VEC2"
		},
		{
			"bufferView":21,
			"componentType":5123,
			"count":5148,
			"type":"SCALAR"
		},
		{
			"bufferView":22,
			"componentType":5126,
			"count":128,
			"max":[
				6.619211673736572,
				11.032020568847656,
				6.619213104248047
			],
			"min":[
				-6.619213581085205,
				-11.03201961517334,
				-6.619213104248047
			],
			"type":"VEC3"
		},
		{
			"bufferView":23,
			"componentType":5126,
			"count":128,
			"type":"VEC3"
		},
		{
			"bufferView":24,
			"componentType":5126,
			"count":128,
			"type":"VEC2"
		},
		{
			"bufferView":25,
			"componentType":5123,
			"count":186,
			"type":"SCALAR"
		},
		{
			"bufferView":26,
			"componentType":5126,
			"count":128,
			"max":[
				6.6192121505737305,
				7.722414493560791,
				6.619213104248047
			],
			"min":[
				-6.619213104248047,
				-7.722414016723633,
				-6.619213104248047
			],
			"type":"VEC3"
		},
		{
			"bufferView":27,
			"componentType":5126,
			"count":128,
			"type":"VEC3"
		},
		{
			"bufferView":28,
			"componentType":5126,
			"count":128,
			"type":"VEC2"
		},
		{
			"bufferView":29,
			"componentType":5126,
			"count":128,
			"max":[
				-53.78717803955078,
				11.032020568847656,
				-6.134037971496582
			],
			"min":[
				-67.02560424804688,
				-22.540122985839844,
				-19.372465133666992
			],
			"type":"VEC3"
		},
		{
			"bufferView":30,
			"componentType":5126,
			"count":128,
			"type":"VEC3"
		},
		{
			"bufferView":31,
			"componentType":5126,
			"count":128,
			"type":"VEC2"
		}
	],
	"bufferViews":[
		{
			"buffer":0,
			"byteLength":768,
			"byteOffset":0,
			"target":34962
		},
		{
			"buffer":0,
			"byteLength":768,
			"byteOffset":768,
			"target":34962
		},
		{
			"buffer":0,
			"byteLength":512,
			"byteOffset":1536,
			"target":34962
		},
		{
			"buffer":0,
			"byteLength":264,
			"byteOffset":2048,
			"target":34963
		},
		{
			"buffer":0,
			"byteLength":1536,
			"byteOffset":2312,
			"target":34962
		},
		{
			"buffer":0,
			"byteLength":1536,
			"byteOffset":3848,
			"target":34962
		},
		{
			"buffer":0,
			"byteLength":1024,
			"byteOffset":5384,
			"target":34962
		},
		{
			"buffer":0,
			"byteLength":372,
			"byteOffset":6408,
			"target":34963
		},
		{
			"buffer":0,
			"byteLength":1536,
			"byteOffset":6780,
			"target":34962
		},
		{
			"buffer":0,
			"byteLength":1536,
			"byteOffset":8316,
			"target":34962
		},
		{
			"buffer":0,
			"byteLength":1024,
			"byteOffset":9852,
			"target":34962
		},
		{
			"buffer":0,
			"byteLength":1536,
			"byteOffset":10876,
			"target":34962
		},
		{
			"buffer":0,
			"byteLength":1536,
			"byteOffset":12412,
			"target":34962
		},
		{
			"buffer":0,
			"byteLength":1024,
			"byteOffset":13948,
			"target":34962
		},
		{
			"buffer":0,
			"byteLength":41184,
			"byteOffset":14972,
			"target":34962
		},
		{
			"buffer":0,
			"byteLength":41184,
			"byteOffset":56156,
			"target":34962
		},
		{
			"buffer":0,
			"byteLength":27456,
			"byteOffset":97340,
			"target":34962
		},
		{
			"buffer":0,
			"byteLength":10296,
			"byteOffset":124796,
			"target":34963
		},
		{
			"buffer":0,
			"byteLength":41184,
			"byteOffset":135092,
			"target":34962
		},
		{
			"buffer":0,
			"byteLength":41184,
			"byteOffset":176276,
			"target":34962
		},
		{
			"buffer":0,
			"byteLength":27456,
			"byteOffset":217460,
			"target":34962
		},
		{
			"buffer":0,
			"byteLength":10296,
			"byteOffset":244916,
			"target":34963
		},
		{
			"buffer":0,
			"byteLength":1536,
			"byteOffset":255212,
			"target":34962
		},
		{
			"buffer":0,
			"byteLength":1536,
			"byteOffset":256748,
			"target":34962
		},
		{
			"buffer":0,
			"byteLength":1024,
			"byteOffset":258284,
			"target":34962
		},
		{
			"buffer":0,
			"byteLength":372,
			"byteOffset":259308,
			"target":34963
		},
		{
			"buffer":0,
			"byteLength":1536,
			"byteOffset":259680,
			"target":34962
		},
		{
			"buffer":0,
			"byteLength":1536,
			"byteOffset":261216,
			"target":34962
		},
		{
			"buffer":0,
			"byteLength":1024,
			"byteOffset":262752,
			"target":34962
		},
		{
			"buffer":0,
			"byteLength":1536,
			"byteOffset":263776,
			"target":34962
		},
		{
			"buffer":0,
			"byteLength":1536,
			"byteOffset":265312,
			"target":34962
		},
		{
			"buffer":0,
			"byteLength":1024,
			"byteOffset":266848,
			"target":34962
		}
	],
	"buffers":[
		{
			"byteLength":267872,
			"uri":"jump.bin"
		}
	]
}
