{
	"asset":{
		"generator":"Khronos glTF Blender I/O v3.6.28",
		"version":"2.0"
	},
	"scene":0,
	"scenes":[
		{
			"name":"Scene",
			"nodes":[
				0,
				1,
				2,
				3,
				4,
				5,
				6,
				7,
				8
			]
		}
	],
	"nodes":[
		{
			"mesh":0,
			"name":"level-col",
			"translation":[
				-50.976951599121094,
				-1.0453190803527832,
				-48.904930114746094
			]
		},
		{
			"mesh":1,
			"name":"platform-col",
			"translation":[
				-42.72068786621094,
				-0.09104415774345398,
				-23.404048919677734
			]
		},
		{
			"mesh":2,
			"name":"gate-col",
			"translation":[
				1.6156235933303833,
				5.334670543670654,
				-72.758056640625
			]
		},
		{
			"mesh":3,
			"name":"Cube-col",
			"translation":[
				-2.0502328872680664,
				-9.349838256835938,
				-146.1954345703125
			]
		},
		{
			"mesh":4,
			"name":"Cube-col.001",
			"translation":[
				-71.50066375732422,
				-9.349838256835938,
				-146.1954345703125
			]
		},
		{
			"mesh":5,
			"name":"Cube-col.002",
			"scale":[
				0.8455820083618164,
				0.8455820083618164,
				0.8455820083618164
			],
			"translation":[
				-16.669605255126953,
				60.81354522705078,
				-164.87242126464844
			]
		},
		{
			"mesh":6,
			"name":"Cube-col.003",
			"scale":[
				0.8694000840187073,
				0.6073337197303772,
				0.8694000840187073
			],
			"translation":[
				-128.02415466308594,
				12.477890014648438,
				-120.57052612304688
			]
		},
		{
			"mesh":7,
			"name":"Cube-col.004",
			"scale":[
				0.8694000840187073,
				0.6073337197303772,
				0.8694000840187073
			],
			"translation":[
				-128.02415466308594,
				25.414806365966797,
				-43.842491149902344
			]
		},
		{
			"mesh":8,
			"name":"Cube-col.005",
			"scale":[
				0.8694000840187073,
				0.6073337197303772,
				0.8694000840187073
			],
			"translation":[
				-157.424560546875,
				45.54187774658203,
				-9.090030670166016
			]
		}
	],
	"materials":[
		{
			"name":"Material",
			"pbrMetallicRoughness":{
				"baseColorTexture":{
					"index":0
				},
				"metallicFactor":0,
				"roughnessFactor":0.5
			}
		},
		{
			"name":"Material.003",
			"pbrMetallicRoughness":{
				"baseColorTexture":{
					"index":1
				},
				"metallicFactor":0,
				"roughnessFactor":0.5
			}
		},
		{
			"name":"Material.004",
			"pbrMetallicRoughness":{
				"baseColorTexture":{
					"index":2
				},
				"metallicFactor":0,
				"roughnessFactor":0.5
			}
		},
		{
			"name":"Material.005",
			"pbrMetallicRoughness":{
				"baseColorTexture":{
					"index":3
				},
				"metallicFactor":0,
				"roughnessFactor":0.5
			}
		}
	],
	"meshes":[
		{
			"name":"Cube.001",
			"primitives":[
				{
					"attributes":{
						"POSITION":0,
						"NORMAL":1,
						"TEXCOORD_0":2
					},
					"indices":3,
					"material":0
				},
				{
					"attributes":{
						"POSITION":4,
						"NORMAL":5,
						"TEXCOORD_0":6
					},
					"indices":7,
					"material":0
				}
			]
		},
		{
			"name":"Cylinder",
			"primitives":[
				{
					"attributes":{
						"POSITION":8,
						"NORMAL":9,
						"TEXCOORD_0":10
					},
					"indices":11
				},
				{
					"attributes":{
						"POSITION":12,
						"NORMAL":13,
						"TEXCOORD_0":14
					},
					"indices":15
				}
			]
		},
		{
			"name":"Cube.006",
			"primitives":[
				{
					"attributes":{
						"POSITION":16,
						"NORMAL":17,
						"TEXCOORD_0":18
					},
					"indices":19,
					"material":0
				}
			]
		},
		{
			"name":"Cube.007",
			"primitives":[
				{
					"attributes":{
						"POSITION":20,
						"NORMAL":21,
						"TEXCOORD_0":22
					},
					"indices":23,
					"material":0
				}
			]
		},
		{
			"name":"Cube.008",
			"primitives":[
				{
					"attributes":{
						"POSITION":24,
						"NORMAL":25,
						"TEXCOORD_0":26
					},
					"indices":23,
					"material":0
				}
			]
		},
		{
			"name":"Cube.009",
			"primitives":[
				{
					"attributes":{
						"POSITION":27,
						"NORMAL":28,
						"TEXCOORD_0":29
					},
					"indices":23,
					"material":1
				}
			]
		},
		{
			"name":"Cube.010",
			"primitives":[
				{
					"attributes":{
						"POSITION":30,
						"NORMAL":31,
						"TEXCOORD_0":32
					},
					"indices":33,
					"material":0
				}
			]
		},
		{
			"name":"Cube.011",
			"primitives":[
				{
					"attributes":{
						"POSITION":34,
						"NORMAL":35,
						"TEXCOORD_0":36
					},
					"indices":33,
					"material":2
				}
			]
		},
		{
			"name":"Cube.012",
			"primitives":[
				{
					"attributes":{
						"POSITION":37,
						"NORMAL":38,
						"TEXCOORD_0":39
					},
					"indices":33,
					"material":3
				}
			]
		}
	],
	"textures":[
		{
			"sampler":0,
			"source":0
		},
		{
			"sampler":0,
			"source":0
		},
		{
			"sampler":0,
			"source":0
		},
		{
			"sampler":0,
			"source":0
		}
	],
	"images":[
		{
			"mimeType":"image/png",
			"name":"KAAKELI2",
			"uri":"KAAKELI2.png"
		}
	],
	"accessors":[
		{
			"bufferView":0,
			"componentType":5126,
			"count":136,
			"max":[
				60.82052230834961,
				21.528358459472656,
				59.38760757446289
			],
			"min":[
				-30.24007797241211,
				-14.549160957336426,
				-60.654178619384766
			],
			"type":"VEC3"
		},
		{
			"bufferView":1,
			"componentType":5126,
			"count":136,
			"type":"VEC3"
		},
		{
			"bufferView":2,
			"componentType":5126,
			"count":136,
			"type":"VEC2"
		},
		{
			"bufferView":3,
			"componentType":5123,
			"count":252,
			"type":"SCALAR"
		},
		{
			"bufferView":4,
			"componentType":5126,
			"count":362,
			"max":[
				60.82052230834961,
				21.528358459472656,
				59.38760757446289
			],
			"min":[
				-30.24007797241211,
				-14.549160957336426,
				-30.120906829833984
			],
			"type":"VEC3"
		},
		{
			"bufferView":5,
			"componentType":5126,
			"count":362,
			"type":"VEC3"
		},
		{
			"bufferView":6,
			"componentType":5126,
			"count":362,
			"type":"VEC2"
		},
		{
			"bufferView":7,
			"componentType":5123,
			"count":663,
			"type":"SCALAR"
		},
		{
			"bufferView":8,
			"componentType":5126,
			"count":266,
			"max":[
				19.596073150634766,
				2.614600419998169,
				19.727855682373047
			],
			"min":[
				-19.539907455444336,
				-4.523150444030762,
				-19.718769073486328
			],
			"type":"VEC3"
		},
		{
			"bufferView":9,
			"componentType":5126,
			"count":266,
			"type":"VEC3"
		},
		{
			"bufferView":10,
			"componentType":5126,
			"count":266,
			"type":"VEC2"
		},
		{
			"bufferView":11,
			"componentType":5123,
			"count":642,
			"type":"SCALAR"
		},
		{
			"bufferView":12,
			"componentType":5126,
			"count":244,
			"max":[
				19.596073150634766,
				2.614600419998169,
				19.727855682373047
			],
			"min":[
				-19.539907455444336,
				-4.523150444030762,
				-19.718769073486328
			],
			"type":"VEC3"
		},
		{
			"bufferView":13,
			"componentType":5126,
			"count":244,
			"type":"VEC3"
		},
		{
			"bufferView":14,
			"componentType":5126,
			"count":244,
			"type":"VEC2"
		},
		{
			"bufferView":15,
			"componentType":5123,
			"count":366,
			"type":"SCALAR"
		},
		{
			"bufferView":16,
			"componentType":5126,
			"count":56,
			"max":[
				5.615840911865234,
				3.448080062866211,
				-23.36902618408203
			],
			"min":[
				-5.839502334594727,
				-3.5066945552825928,
				-25.913646697998047
			],
			"type":"VEC3"
		},
		{
			"bufferView":17,
			"componentType":5126,
			"count":56,
			"type":"VEC3"
		},
		{
			"bufferView":18,
			"componentType":5126,
			"count":56,
			"type":"VEC2"
		},
		{
			"bufferView":19,
			"componentType":5123,
			"count":96,
			"type":"SCALAR"
		},
		{
			"bufferView":20,
			"componentType":5126,
			"count":44,
			"max":[
				8.07346248626709,
				11.873395919799805,
				28.200576782226562
			],
			"min":[
				-31.798009872436523,
				-6.244639873504639,
				-0.6930637359619141
			],
			"type":"VEC3"
		},
		{
			"bufferView":21,
			"componentType":5126,
			"count":44,
			"type":"VEC3"
		},
		{
			"bufferView":22,
			"componentType":5126,
			"count":44,
			"type":"VEC2"
		},
		{
			"bufferView":23,
			"componentType":5123,
			"count":84,
			"type":"SCALAR"
		},
		{
			"bufferView":24,
			"componentType":5126,
			"count":44,
			"max":[
				22.310230255126953,
				11.873395919799805,
				37.99470520019531
			],
			"min":[
				-14.746498107910156,
				-6.244639873504639,
				-0.6930713653564453
			],
			"type":"VEC3"
		},
		{
			"bufferView":25,
			"componentType":5126,
			"count":44,
			"type":"VEC3"
		},
		{
			"bufferView":26,
			"componentType":5126,
			"count":44,
			"type":"VEC2"
		},
		{
			"bufferView":27,
			"componentType":5126,
			"count":44,
			"max":[
				-156.89569091796875,
				8.50545883178711,
				151.63279724121094
			],
			"min":[
				-216.02713012695312,
				-9.612577438354492,
				8.14544677734375
			],
			"type":"VEC3"
		},
		{
			"bufferView":28,
			"componentType":5126,
			"count":44,
			"type":"VEC3"
		},
		{
			"bufferView":29,
			"componentType":5126,
			"count":44,
			"type":"VEC2"
		},
		{
			"bufferView":30,
			"componentType":5126,
			"count":24,
			"max":[
				12.5,
				12.5,
				12.5
			],
			"min":[
				-12.5,
				-12.5,
				-12.5
			],
			"type":"VEC3"
		},
		{
			"bufferView":31,
			"componentType":5126,
			"count":24,
			"type":"VEC3"
		},
		{
			"bufferView":32,
			"componentType":5126,
			"count":24,
			"type":"VEC2"
		},
		{
			"bufferView":33,
			"componentType":5123,
			"count":36,
			"type":"SCALAR"
		},
		{
			"bufferView":34,
			"componentType":5126,
			"count":24,
			"max":[
				12.5,
				12.5,
				12.5
			],
			"min":[
				-12.5,
				-12.5,
				-12.5
			],
			"type":"VEC3"
		},
		{
			"bufferView":35,
			"componentType":5126,
			"count":24,
			"type":"VEC3"
		},
		{
			"bufferView":36,
			"componentType":5126,
			"count":24,
			"type":"VEC2"
		},
		{
			"bufferView":37,
			"componentType":5126,
			"count":24,
			"max":[
				12.5,
				12.5,
				12.5
			],
			"min":[
				-12.5,
				-12.5,
				-12.5
			],
			"type":"VEC3"
		},
		{
			"bufferView":38,
			"componentType":5126,
			"count":24,
			"type":"VEC3"
		},
		{
			"bufferView":39,
			"componentType":5126,
			"count":24,
			"type":"VEC2"
		}
	],
	"bufferViews":[
		{
			"buffer":0,
			"byteLength":1632,
			"byteOffset":0,
			"target":34962
		},
		{
			"buffer":0,
			"byteLength":1632,
			"byteOffset":1632,
			"target":34962
		},
		{
			"buffer":0,
			"byteLength":1088,
			"byteOffset":3264,
			"target":34962
		},
		{
			"buffer":0,
			"byteLength":504,
			"byteOffset":4352,
			"target":34963
		},
		{
			"buffer":0,
			"byteLength":4344,
			"byteOffset":4856,
			"target":34962
		},
		{
			"buffer":0,
			"byteLength":4344,
			"byteOffset":9200,
			"target":34962
		},
		{
			"buffer":0,
			"byteLength":2896,
			"byteOffset":13544,
			"target":34962
		},
		{
			"buffer":0,
			"byteLength":1326,
			"byteOffset":16440,
			"target":34963
		},
		{
			"buffer":0,
			"byteLength":3192,
			"byteOffset":17768,
			"target":34962
		},
		{
			"buffer":0,
			"byteLength":3192,
			"byteOffset":20960,
			"target":34962
		},
		{
			"buffer":0,
			"byteLength":2128,
			"byteOffset":24152,
			"target":34962
		},
		{
			"buffer":0,
			"byteLength":1284,
			"byteOffset":26280,
			"target":34963
		},
		{
			"buffer":0,
			"byteLength":2928,
			"byteOffset":27564,
			"target":34962
		},
		{
			"buffer":0,
			"byteLength":2928,
			"byteOffset":30492,
			"target":34962
		},
		{
			"buffer":0,
			"byteLength":1952,
			"byteOffset":33420,
			"target":34962
		},
		{
			"buffer":0,
			"byteLength":732,
			"byteOffset":35372,
			"target":34963
		},
		{
			"buffer":0,
			"byteLength":672,
			"byteOffset":36104,
			"target":34962
		},
		{
			"buffer":0,
			"byteLength":672,
			"byteOffset":36776,
			"target":34962
		},
		{
			"buffer":0,
			"byteLength":448,
			"byteOffset":37448,
			"target":34962
		},
		{
			"buffer":0,
			"byteLength":192,
			"byteOffset":37896,
			"target":34963
		},
		{
			"buffer":0,
			"byteLength":528,
			"byteOffset":38088,
			"target":34962
		},
		{
			"buffer":0,
			"byteLength":528,
			"byteOffset":38616,
			"target":34962
		},
		{
			"buffer":0,
			"byteLength":352,
			"byteOffset":39144,
			"target":34962
		},
		{
			"buffer":0,
			"byteLength":168,
			"byteOffset":39496,
			"target":34963
		},
		{
			"buffer":0,
			"byteLength":528,
			"byteOffset":39664,
			"target":34962
		},
		{
			"buffer":0,
			"byteLength":528,
			"byteOffset":40192,
			"target":34962
		},
		{
			"buffer":0,
			"byteLength":352,
			"byteOffset":40720,
			"target":34962
		},
		{
			"buffer":0,
			"byteLength":528,
			"byteOffset":41072,
			"target":34962
		},
		{
			"buffer":0,
			"byteLength":528,
			"byteOffset":41600,
			"target":34962
		},
		{
			"buffer":0,
			"byteLength":352,
			"byteOffset":42128,
			"target":34962
		},
		{
			"buffer":0,
			"byteLength":288,
			"byteOffset":42480,
			"target":34962
		},
		{
			"buffer":0,
			"byteLength":288,
			"byteOffset":42768,
			"target":34962
		},
		{
			"buffer":0,
			"byteLength":192,
			"byteOffset":43056,
			"target":34962
		},
		{
			"buffer":0,
			"byteLength":72,
			"byteOffset":43248,
			"target":34963
		},
		{
			"buffer":0,
			"byteLength":288,
			"byteOffset":43320,
			"target":34962
		},
		{
			"buffer":0,
			"byteLength":288,
			"byteOffset":43608,
			"target":34962
		},
		{
			"buffer":0,
			"byteLength":192,
			"byteOffset":43896,
			"target":34962
		},
		{
			"buffer":0,
			"byteLength":288,
			"byteOffset":44088,
			"target":34962
		},
		{
			"buffer":0,
			"byteLength":288,
			"byteOffset":44376,
			"target":34962
		},
		{
			"buffer":0,
			"byteLength":192,
			"byteOffset":44664,
			"target":34962
		}
	],
	"samplers":[
		{
			"magFilter":9729,
			"minFilter":9987
		}
	],
	"buffers":[
		{
			"byteLength":44856,
			"uri":"killer.bin"
		}
	]
}
