{
	"asset":{
		"generator":"Khronos glTF Blender I/O v4.1.63",
		"version":"2.0"
	},
	"scene":0,
	"scenes":[
		{
			"name":"Scene",
			"nodes":[
				0,
				1,
				2,
				3,
				4,
				5,
				6,
				7,
				8,
				9,
				10,
				11,
				12,
				13
			]
		}
	],
	"nodes":[
		{
			"mesh":0,
			"name":"Plane1-col",
			"translation":[
				1.6209111213684082,
				-0.2741764187812805,
				-0.2303576022386551
			]
		},
		{
			"mesh":1,
			"name":"Ramp-col",
			"translation":[
				1.5302281379699707,
				-0.33514100313186646,
				-1.3958619832992554
			]
		},
		{
			"mesh":2,
			"name":"Plane2-col",
			"translation":[
				1.8306584358215332,
				-0.5169790387153625,
				-1.5024827718734741
			]
		},
		{
			"mesh":3,
			"name":"Sphere-col",
			"rotation":[
				-0.0002700604381971061,
				0.0009825981687754393,
				-0.005244238302111626,
				0.9999858140945435
			],
			"translation":[
				3.0314698219299316,
				-4.423645973205566,
				-39.588497161865234
			]
		},
		{
			"mesh":4,
			"name":"Gate-col",
			"rotation":[
				0,
				0,
				-0.11472965031862259,
				0.9933967590332031
			],
			"translation":[
				5.767266273498535,
				-0.8173101544380188,
				-1.5859483480453491
			]
		},
		{
			"mesh":5,
			"name":"propeller2-col",
			"rotation":[
				0,
				0,
				0.4226182997226715,
				0.9063078165054321
			],
			"translation":[
				0.6419870853424072,
				-4.813535690307617,
				-20.439489364624023
			]
		},
		{
			"mesh":6,
			"name":"propeller-col",
			"rotation":[
				0,
				-0.7071067094802856,
				0,
				0.7071068286895752
			],
			"translation":[
				3.6115572452545166,
				-1.0708556175231934,
				-0.2921891510486603
			]
		},
		{
			"mesh":7,
			"name":"propeller4-col",
			"rotation":[
				0,
				0,
				0.9063078165054321,
				0.4226182699203491
			],
			"translation":[
				0.6419870853424072,
				-4.813535690307617,
				-25.924270629882812
			]
		},
		{
			"mesh":8,
			"name":"propeller6-col",
			"rotation":[
				0,
				0,
				-0.9762960076332092,
				0.2164396047592163
			],
			"translation":[
				0.6419870853424072,
				-4.813535690307617,
				-30.908702850341797
			]
		},
		{
			"mesh":9,
			"name":"propeller8-col",
			"rotation":[
				0,
				0,
				-0.7933533787727356,
				0.6087614297866821
			],
			"translation":[
				0.6419870853424072,
				-4.813535690307617,
				-36.15171432495117
			]
		},
		{
			"mesh":10,
			"name":"propeller1-col",
			"rotation":[
				0,
				1,
				0,
				7.549790126404332e-08
			],
			"translation":[
				5.070158958435059,
				-4.813535690307617,
				-17.888900756835938
			]
		},
		{
			"mesh":11,
			"name":"propeller3-col",
			"rotation":[
				0.6427876353263855,
				0.7660444974899292,
				0,
				4.690921073802201e-08
			],
			"translation":[
				5.070159435272217,
				-4.813535690307617,
				-23.07928466796875
			]
		},
		{
			"mesh":12,
			"name":"propeller5-col",
			"rotation":[
				0.9961947798728943,
				0.08715573698282242,
				0,
				6.852901179854598e-08
			],
			"translation":[
				5.070159912109375,
				-4.813535690307617,
				-28.34574317932129
			]
		},
		{
			"mesh":13,
			"name":"propeller7-col",
			"rotation":[
				-0.9396926760673523,
				0.3420201241970062,
				0,
				1.1938739419292688e-07
			],
			"translation":[
				5.070160388946533,
				-4.813535690307617,
				-33.548282623291016
			]
		}
	],
	"materials":[
		{
			"doubleSided":true,
			"name":"Material.001",
			"pbrMetallicRoughness":{
				"baseColorTexture":{
					"index":0
				},
				"metallicFactor":0,
				"roughnessFactor":0.10000000149011612
			}
		},
		{
			"alphaMode":"BLEND",
			"doubleSided":true,
			"name":"Material.002",
			"pbrMetallicRoughness":{
				"baseColorFactor":[
					1,
					1,
					1,
					0.5
				],
				"baseColorTexture":{
					"index":1
				},
				"metallicFactor":0,
				"roughnessFactor":0
			}
		},
		{
			"doubleSided":true,
			"name":"Material.003",
			"pbrMetallicRoughness":{
				"baseColorTexture":{
					"index":2
				},
				"metallicFactor":0,
				"roughnessFactor":0.30000001192092896
			}
		},
		{
			"doubleSided":true,
			"name":"Material.004",
			"pbrMetallicRoughness":{
				"baseColorTexture":{
					"index":3
				},
				"metallicFactor":0,
				"roughnessFactor":0.10000000149011612
			}
		},
		{
			"doubleSided":true,
			"name":"Material.005",
			"pbrMetallicRoughness":{
				"baseColorTexture":{
					"index":4
				},
				"metallicFactor":0.5,
				"roughnessFactor":0.5
			}
		},
		{
			"doubleSided":true,
			"name":"Material",
			"pbrMetallicRoughness":{
				"baseColorTexture":{
					"index":5
				},
				"metallicFactor":0,
				"roughnessFactor":0.10000000149011612
			}
		},
		{
			"alphaMode":"BLEND",
			"doubleSided":true,
			"emissiveFactor":[
				0.26918653110718793,
				0.9417086626980904,
				0.9145306962947473
			],
			"name":"Material.006",
			"pbrMetallicRoughness":{
				"baseColorFactor":[
					1,
					1,
					1,
					0.4954545497894287
				],
				"baseColorTexture":{
					"index":6
				},
				"metallicFactor":0,
				"roughnessFactor":0.5
			}
		},
		{
			"alphaMode":"BLEND",
			"doubleSided":true,
			"emissiveFactor":[
				0.26918653110718793,
				0.9417086626980904,
				0.9145306962947473
			],
			"name":"Material.007",
			"pbrMetallicRoughness":{
				"baseColorFactor":[
					1,
					1,
					1,
					0.4954545497894287
				],
				"baseColorTexture":{
					"index":7
				},
				"metallicFactor":0,
				"roughnessFactor":0.5
			}
		},
		{
			"alphaMode":"BLEND",
			"doubleSided":true,
			"emissiveFactor":[
				0.26918653110718793,
				0.9417086626980904,
				0.9145306962947473
			],
			"name":"Material.008",
			"pbrMetallicRoughness":{
				"baseColorFactor":[
					1,
					1,
					1,
					0.4954545497894287
				],
				"baseColorTexture":{
					"index":8
				},
				"metallicFactor":0,
				"roughnessFactor":0.5
			}
		},
		{
			"alphaMode":"BLEND",
			"doubleSided":true,
			"emissiveFactor":[
				0.26918653110718793,
				0.9417086626980904,
				0.9145306962947473
			],
			"name":"Material.009",
			"pbrMetallicRoughness":{
				"baseColorFactor":[
					1,
					1,
					1,
					0.4954545497894287
				],
				"baseColorTexture":{
					"index":9
				},
				"metallicFactor":0,
				"roughnessFactor":0.5
			}
		},
		{
			"alphaMode":"BLEND",
			"doubleSided":true,
			"emissiveFactor":[
				0.26918653110718793,
				0.9417086626980904,
				0.9145306962947473
			],
			"name":"Material.010",
			"pbrMetallicRoughness":{
				"baseColorFactor":[
					1,
					1,
					1,
					0.4954545497894287
				],
				"baseColorTexture":{
					"index":10
				},
				"metallicFactor":0,
				"roughnessFactor":0.5
			}
		},
		{
			"alphaMode":"BLEND",
			"doubleSided":true,
			"emissiveFactor":[
				0.26918653110718793,
				0.9417086626980904,
				0.9145306962947473
			],
			"name":"Material.011",
			"pbrMetallicRoughness":{
				"baseColorFactor":[
					1,
					1,
					1,
					0.4954545497894287
				],
				"baseColorTexture":{
					"index":11
				},
				"metallicFactor":0,
				"roughnessFactor":0.5
			}
		},
		{
			"alphaMode":"BLEND",
			"doubleSided":true,
			"emissiveFactor":[
				0.26918653110718793,
				0.9417086626980904,
				0.9145306962947473
			],
			"name":"Material.012",
			"pbrMetallicRoughness":{
				"baseColorFactor":[
					1,
					1,
					1,
					0.4954545497894287
				],
				"baseColorTexture":{
					"index":12
				},
				"metallicFactor":0,
				"roughnessFactor":0.5
			}
		},
		{
			"alphaMode":"BLEND",
			"doubleSided":true,
			"emissiveFactor":[
				0.26918653110718793,
				0.9417086626980904,
				0.9145306962947473
			],
			"name":"Material.013",
			"pbrMetallicRoughness":{
				"baseColorFactor":[
					1,
					1,
					1,
					0.4954545497894287
				],
				"baseColorTexture":{
					"index":13
				},
				"metallicFactor":0,
				"roughnessFactor":0.5
			}
		},
		{
			"alphaMode":"BLEND",
			"doubleSided":true,
			"emissiveFactor":[
				0.26918653110718793,
				0.9417086626980904,
				0.9145306962947473
			],
			"name":"Material.014",
			"pbrMetallicRoughness":{
				"baseColorFactor":[
					1,
					1,
					1,
					0.4954545497894287
				],
				"baseColorTexture":{
					"index":14
				},
				"metallicFactor":0,
				"roughnessFactor":0.5
			}
		}
	],
	"meshes":[
		{
			"name":"Plane",
			"primitives":[
				{
					"attributes":{
						"POSITION":0,
						"NORMAL":1,
						"TEXCOORD_0":2
					},
					"indices":3,
					"material":0
				},
				{
					"attributes":{
						"POSITION":4,
						"NORMAL":5,
						"TEXCOORD_0":6
					},
					"indices":7,
					"material":1
				}
			]
		},
		{
			"name":"Cylinder.001",
			"primitives":[
				{
					"attributes":{
						"POSITION":8,
						"NORMAL":9,
						"TEXCOORD_0":10
					},
					"indices":11,
					"material":2
				}
			]
		},
		{
			"name":"Plane.001",
			"primitives":[
				{
					"attributes":{
						"POSITION":12,
						"NORMAL":13,
						"TEXCOORD_0":14
					},
					"indices":15,
					"material":3
				},
				{
					"attributes":{
						"POSITION":16,
						"NORMAL":17,
						"TEXCOORD_0":18
					},
					"indices":19,
					"material":1
				}
			]
		},
		{
			"name":"Sphere.002",
			"primitives":[
				{
					"attributes":{
						"POSITION":20,
						"NORMAL":21,
						"TEXCOORD_0":22
					},
					"indices":23,
					"material":4
				}
			]
		},
		{
			"name":"Cube.002",
			"primitives":[
				{
					"attributes":{
						"POSITION":24,
						"NORMAL":25,
						"TEXCOORD_0":26
					},
					"indices":27,
					"material":5
				}
			]
		},
		{
			"name":"Cube.001",
			"primitives":[
				{
					"attributes":{
						"POSITION":28,
						"NORMAL":29,
						"TEXCOORD_0":30
					},
					"indices":31,
					"material":6
				}
			]
		},
		{
			"name":"Cube.003",
			"primitives":[
				{
					"attributes":{
						"POSITION":32,
						"NORMAL":33,
						"TEXCOORD_0":34
					},
					"indices":35,
					"material":7
				}
			]
		},
		{
			"name":"Cube.004",
			"primitives":[
				{
					"attributes":{
						"POSITION":36,
						"NORMAL":37,
						"TEXCOORD_0":38
					},
					"indices":31,
					"material":8
				}
			]
		},
		{
			"name":"Cube.005",
			"primitives":[
				{
					"attributes":{
						"POSITION":39,
						"NORMAL":40,
						"TEXCOORD_0":41
					},
					"indices":31,
					"material":9
				}
			]
		},
		{
			"name":"Cube.006",
			"primitives":[
				{
					"attributes":{
						"POSITION":42,
						"NORMAL":43,
						"TEXCOORD_0":44
					},
					"indices":31,
					"material":10
				}
			]
		},
		{
			"name":"Cube.007",
			"primitives":[
				{
					"attributes":{
						"POSITION":45,
						"NORMAL":46,
						"TEXCOORD_0":47
					},
					"indices":31,
					"material":11
				}
			]
		},
		{
			"name":"Cube.008",
			"primitives":[
				{
					"attributes":{
						"POSITION":48,
						"NORMAL":49,
						"TEXCOORD_0":50
					},
					"indices":31,
					"material":12
				}
			]
		},
		{
			"name":"Cube.009",
			"primitives":[
				{
					"attributes":{
						"POSITION":51,
						"NORMAL":52,
						"TEXCOORD_0":53
					},
					"indices":31,
					"material":13
				}
			]
		},
		{
			"name":"Cube.010",
			"primitives":[
				{
					"attributes":{
						"POSITION":54,
						"NORMAL":55,
						"TEXCOORD_0":56
					},
					"indices":31,
					"material":14
				}
			]
		}
	],
	"textures":[
		{
			"sampler":0,
			"source":0
		},
		{
			"sampler":0,
			"source":1
		},
		{
			"sampler":0,
			"source":0
		},
		{
			"sampler":0,
			"source":0
		},
		{
			"sampler":0,
			"source":0
		},
		{
			"sampler":0,
			"source":0
		},
		{
			"sampler":0,
			"source":0
		},
		{
			"sampler":0,
			"source":0
		},
		{
			"sampler":0,
			"source":0
		},
		{
			"sampler":0,
			"source":0
		},
		{
			"sampler":0,
			"source":0
		},
		{
			"sampler":0,
			"source":0
		},
		{
			"sampler":0,
			"source":0
		},
		{
			"sampler":0,
			"source":0
		},
		{
			"sampler":0,
			"source":0
		}
	],
	"images":[
		{
			"mimeType":"image/png",
			"name":"rrr",
			"uri":"rrr.png"
		},
		{
			"mimeType":"image/png",
			"name":"freeze",
			"uri":"freeze.png"
		}
	],
	"accessors":[
		{
			"bufferView":0,
			"componentType":5126,
			"count":241,
			"max":[
				5.117818355560303,
				0.2782260775566101,
				1.0772960186004639
			],
			"min":[
				-2.281930446624756,
				-0.830433189868927,
				-5.978593826293945
			],
			"type":"VEC3"
		},
		{
			"bufferView":1,
			"componentType":5126,
			"count":241,
			"type":"VEC3"
		},
		{
			"bufferView":2,
			"componentType":5126,
			"count":241,
			"type":"VEC2"
		},
		{
			"bufferView":3,
			"componentType":5123,
			"count":420,
			"type":"SCALAR"
		},
		{
			"bufferView":4,
			"componentType":5126,
			"count":190,
			"max":[
				5.12807035446167,
				0.5554934144020081,
				1.0772960186004639
			],
			"min":[
				-2.298750638961792,
				-0.8293890953063965,
				-5.995203495025635
			],
			"type":"VEC3"
		},
		{
			"bufferView":5,
			"componentType":5126,
			"count":190,
			"type":"VEC3"
		},
		{
			"bufferView":6,
			"componentType":5126,
			"count":190,
			"type":"VEC2"
		},
		{
			"bufferView":7,
			"componentType":5123,
			"count":312,
			"type":"SCALAR"
		},
		{
			"bufferView":8,
			"componentType":5126,
			"count":8968,
			"max":[
				5.12971830368042,
				-0.7996041178703308,
				3.7395970821380615
			],
			"min":[
				0.6609235405921936,
				-3.9850850105285645,
				2.691645622253418
			],
			"type":"VEC3"
		},
		{
			"bufferView":9,
			"componentType":5126,
			"count":8968,
			"type":"VEC3"
		},
		{
			"bufferView":10,
			"componentType":5126,
			"count":8968,
			"type":"VEC2"
		},
		{
			"bufferView":11,
			"componentType":5123,
			"count":13452,
			"type":"SCALAR"
		},
		{
			"bufferView":12,
			"componentType":5126,
			"count":73,
			"max":[
				3.4298288822174072,
				-3.401041269302368,
				4.664344787597656
			],
			"min":[
				-2.5355067253112793,
				-4.768010139465332,
				-36.54293441772461
			],
			"type":"VEC3"
		},
		{
			"bufferView":13,
			"componentType":5126,
			"count":73,
			"type":"VEC3"
		},
		{
			"bufferView":14,
			"componentType":5126,
			"count":73,
			"type":"VEC2"
		},
		{
			"bufferView":15,
			"componentType":5123,
			"count":123,
			"type":"SCALAR"
		},
		{
			"bufferView":16,
			"componentType":5126,
			"count":142,
			"max":[
				2.8082685470581055,
				-3.0891833305358887,
				4.664344787597656
			],
			"min":[
				-2.5355067253112793,
				-4.768010139465332,
				-38.74510955810547
			],
			"type":"VEC3"
		},
		{
			"bufferView":17,
			"componentType":5126,
			"count":142,
			"type":"VEC3"
		},
		{
			"bufferView":18,
			"componentType":5126,
			"count":142,
			"type":"VEC2"
		},
		{
			"bufferView":19,
			"componentType":5123,
			"count":222,
			"type":"SCALAR"
		},
		{
			"bufferView":20,
			"componentType":5126,
			"count":119382,
			"max":[
				3.0392656326293945,
				4.585105895996094,
				2.365403413772583
			],
			"min":[
				-3.304769277572632,
				-1.8659132719039917,
				-3.6368141174316406
			],
			"type":"VEC3"
		},
		{
			"bufferView":21,
			"componentType":5126,
			"count":119382,
			"type":"VEC3"
		},
		{
			"bufferView":22,
			"componentType":5126,
			"count":119382,
			"type":"VEC2"
		},
		{
			"bufferView":23,
			"componentType":5125,
			"count":179184,
			"type":"SCALAR"
		},
		{
			"bufferView":24,
			"componentType":5126,
			"count":56,
			"max":[
				1.0022976398468018,
				0.5250197052955627,
				0.1348172128200531
			],
			"min":[
				-0.11561941355466843,
				-0.2859245836734772,
				-0.11815343052148819
			],
			"type":"VEC3"
		},
		{
			"bufferView":25,
			"componentType":5126,
			"count":56,
			"type":"VEC3"
		},
		{
			"bufferView":26,
			"componentType":5126,
			"count":56,
			"type":"VEC2"
		},
		{
			"bufferView":27,
			"componentType":5123,
			"count":96,
			"type":"SCALAR"
		},
		{
			"bufferView":28,
			"componentType":5126,
			"count":32,
			"max":[
				4.460076808929443,
				0.14773228764533997,
				0.33463233709335327
			],
			"min":[
				-0.012844696640968323,
				-0.04679182171821594,
				-0.285697877407074
			],
			"type":"VEC3"
		},
		{
			"bufferView":29,
			"componentType":5126,
			"count":32,
			"type":"VEC3"
		},
		{
			"bufferView":30,
			"componentType":5126,
			"count":32,
			"type":"VEC2"
		},
		{
			"bufferView":31,
			"componentType":5123,
			"count":54,
			"type":"SCALAR"
		},
		{
			"bufferView":32,
			"componentType":5126,
			"count":32,
			"max":[
				1.1005480289459229,
				0.04394373670220375,
				0.1428215503692627
			],
			"min":[
				-1.1332111358642578,
				-0.03353474289178848,
				-0.1447703093290329
			],
			"type":"VEC3"
		},
		{
			"bufferView":33,
			"componentType":5126,
			"count":32,
			"type":"VEC3"
		},
		{
			"bufferView":34,
			"componentType":5126,
			"count":32,
			"type":"VEC2"
		},
		{
			"bufferView":35,
			"componentType":5123,
			"count":54,
			"type":"SCALAR"
		},
		{
			"bufferView":36,
			"componentType":5126,
			"count":32,
			"max":[
				4.460076808929443,
				0.14773228764533997,
				0.33463233709335327
			],
			"min":[
				-0.012844696640968323,
				-0.04679182171821594,
				-0.285697877407074
			],
			"type":"VEC3"
		},
		{
			"bufferView":37,
			"componentType":5126,
			"count":32,
			"type":"VEC3"
		},
		{
			"bufferView":38,
			"componentType":5126,
			"count":32,
			"type":"VEC2"
		},
		{
			"bufferView":39,
			"componentType":5126,
			"count":32,
			"max":[
				4.460076808929443,
				0.14773228764533997,
				0.33463233709335327
			],
			"min":[
				-0.012844696640968323,
				-0.04679182171821594,
				-0.285697877407074
			],
			"type":"VEC3"
		},
		{
			"bufferView":40,
			"componentType":5126,
			"count":32,
			"type":"VEC3"
		},
		{
			"bufferView":41,
			"componentType":5126,
			"count":32,
			"type":"VEC2"
		},
		{
			"bufferView":42,
			"componentType":5126,
			"count":32,
			"max":[
				4.460076808929443,
				0.14773228764533997,
				0.33463233709335327
			],
			"min":[
				-0.012844696640968323,
				-0.04679182171821594,
				-0.285697877407074
			],
			"type":"VEC3"
		},
		{
			"bufferView":43,
			"componentType":5126,
			"count":32,
			"type":"VEC3"
		},
		{
			"bufferView":44,
			"componentType":5126,
			"count":32,
			"type":"VEC2"
		},
		{
			"bufferView":45,
			"componentType":5126,
			"count":32,
			"max":[
				4.460076808929443,
				0.14773228764533997,
				0.33463233709335327
			],
			"min":[
				-0.012844696640968323,
				-0.04679182171821594,
				-0.285697877407074
			],
			"type":"VEC3"
		},
		{
			"bufferView":46,
			"componentType":5126,
			"count":32,
			"type":"VEC3"
		},
		{
			"bufferView":47,
			"componentType":5126,
			"count":32,
			"type":"VEC2"
		},
		{
			"bufferView":48,
			"componentType":5126,
			"count":32,
			"max":[
				4.460076808929443,
				0.14773228764533997,
				0.33463233709335327
			],
			"min":[
				-0.012844696640968323,
				-0.04679182171821594,
				-0.285697877407074
			],
			"type":"VEC3"
		},
		{
			"bufferView":49,
			"componentType":5126,
			"count":32,
			"type":"VEC3"
		},
		{
			"bufferView":50,
			"componentType":5126,
			"count":32,
			"type":"VEC2"
		},
		{
			"bufferView":51,
			"componentType":5126,
			"count":32,
			"max":[
				4.460076808929443,
				0.14773228764533997,
				0.33463233709335327
			],
			"min":[
				-0.012844696640968323,
				-0.04679182171821594,
				-0.285697877407074
			],
			"type":"VEC3"
		},
		{
			"bufferView":52,
			"componentType":5126,
			"count":32,
			"type":"VEC3"
		},
		{
			"bufferView":53,
			"componentType":5126,
			"count":32,
			"type":"VEC2"
		},
		{
			"bufferView":54,
			"componentType":5126,
			"count":32,
			"max":[
				4.460076808929443,
				0.14773228764533997,
				0.33463233709335327
			],
			"min":[
				-0.012844696640968323,
				-0.04679182171821594,
				-0.285697877407074
			],
			"type":"VEC3"
		},
		{
			"bufferView":55,
			"componentType":5126,
			"count":32,
			"type":"VEC3"
		},
		{
			"bufferView":56,
			"componentType":5126,
			"count":32,
			"type":"VEC2"
		}
	],
	"bufferViews":[
		{
			"buffer":0,
			"byteLength":2892,
			"byteOffset":0,
			"target":34962
		},
		{
			"buffer":0,
			"byteLength":2892,
			"byteOffset":2892,
			"target":34962
		},
		{
			"buffer":0,
			"byteLength":1928,
			"byteOffset":5784,
			"target":34962
		},
		{
			"buffer":0,
			"byteLength":840,
			"byteOffset":7712,
			"target":34963
		},
		{
			"buffer":0,
			"byteLength":2280,
			"byteOffset":8552,
			"target":34962
		},
		{
			"buffer":0,
			"byteLength":2280,
			"byteOffset":10832,
			"target":34962
		},
		{
			"buffer":0,
			"byteLength":1520,
			"byteOffset":13112,
			"target":34962
		},
		{
			"buffer":0,
			"byteLength":624,
			"byteOffset":14632,
			"target":34963
		},
		{
			"buffer":0,
			"byteLength":107616,
			"byteOffset":15256,
			"target":34962
		},
		{
			"buffer":0,
			"byteLength":107616,
			"byteOffset":122872,
			"target":34962
		},
		{
			"buffer":0,
			"byteLength":71744,
			"byteOffset":230488,
			"target":34962
		},
		{
			"buffer":0,
			"byteLength":26904,
			"byteOffset":302232,
			"target":34963
		},
		{
			"buffer":0,
			"byteLength":876,
			"byteOffset":329136,
			"target":34962
		},
		{
			"buffer":0,
			"byteLength":876,
			"byteOffset":330012,
			"target":34962
		},
		{
			"buffer":0,
			"byteLength":584,
			"byteOffset":330888,
			"target":34962
		},
		{
			"buffer":0,
			"byteLength":246,
			"byteOffset":331472,
			"target":34963
		},
		{
			"buffer":0,
			"byteLength":1704,
			"byteOffset":331720,
			"target":34962
		},
		{
			"buffer":0,
			"byteLength":1704,
			"byteOffset":333424,
			"target":34962
		},
		{
			"buffer":0,
			"byteLength":1136,
			"byteOffset":335128,
			"target":34962
		},
		{
			"buffer":0,
			"byteLength":444,
			"byteOffset":336264,
			"target":34963
		},
		{
			"buffer":0,
			"byteLength":1432584,
			"byteOffset":336708,
			"target":34962
		},
		{
			"buffer":0,
			"byteLength":1432584,
			"byteOffset":1769292,
			"target":34962
		},
		{
			"buffer":0,
			"byteLength":955056,
			"byteOffset":3201876,
			"target":34962
		},
		{
			"buffer":0,
			"byteLength":716736,
			"byteOffset":4156932,
			"target":34963
		},
		{
			"buffer":0,
			"byteLength":672,
			"byteOffset":4873668,
			"target":34962
		},
		{
			"buffer":0,
			"byteLength":672,
			"byteOffset":4874340,
			"target":34962
		},
		{
			"buffer":0,
			"byteLength":448,
			"byteOffset":4875012,
			"target":34962
		},
		{
			"buffer":0,
			"byteLength":192,
			"byteOffset":4875460,
			"target":34963
		},
		{
			"buffer":0,
			"byteLength":384,
			"byteOffset":4875652,
			"target":34962
		},
		{
			"buffer":0,
			"byteLength":384,
			"byteOffset":4876036,
			"target":34962
		},
		{
			"buffer":0,
			"byteLength":256,
			"byteOffset":4876420,
			"target":34962
		},
		{
			"buffer":0,
			"byteLength":108,
			"byteOffset":4876676,
			"target":34963
		},
		{
			"buffer":0,
			"byteLength":384,
			"byteOffset":4876784,
			"target":34962
		},
		{
			"buffer":0,
			"byteLength":384,
			"byteOffset":4877168,
			"target":34962
		},
		{
			"buffer":0,
			"byteLength":256,
			"byteOffset":4877552,
			"target":34962
		},
		{
			"buffer":0,
			"byteLength":108,
			"byteOffset":4877808,
			"target":34963
		},
		{
			"buffer":0,
			"byteLength":384,
			"byteOffset":4877916,
			"target":34962
		},
		{
			"buffer":0,
			"byteLength":384,
			"byteOffset":4878300,
			"target":34962
		},
		{
			"buffer":0,
			"byteLength":256,
			"byteOffset":4878684,
			"target":34962
		},
		{
			"buffer":0,
			"byteLength":384,
			"byteOffset":4878940,
			"target":34962
		},
		{
			"buffer":0,
			"byteLength":384,
			"byteOffset":4879324,
			"target":34962
		},
		{
			"buffer":0,
			"byteLength":256,
			"byteOffset":4879708,
			"target":34962
		},
		{
			"buffer":0,
			"byteLength":384,
			"byteOffset":4879964,
			"target":34962
		},
		{
			"buffer":0,
			"byteLength":384,
			"byteOffset":4880348,
			"target":34962
		},
		{
			"buffer":0,
			"byteLength":256,
			"byteOffset":4880732,
			"target":34962
		},
		{
			"buffer":0,
			"byteLength":384,
			"byteOffset":4880988,
			"target":34962
		},
		{
			"buffer":0,
			"byteLength":384,
			"byteOffset":4881372,
			"target":34962
		},
		{
			"buffer":0,
			"byteLength":256,
			"byteOffset":4881756,
			"target":34962
		},
		{
			"buffer":0,
			"byteLength":384,
			"byteOffset":4882012,
			"target":34962
		},
		{
			"buffer":0,
			"byteLength":384,
			"byteOffset":4882396,
			"target":34962
		},
		{
			"buffer":0,
			"byteLength":256,
			"byteOffset":4882780,
			"target":34962
		},
		{
			"buffer":0,
			"byteLength":384,
			"byteOffset":4883036,
			"target":34962
		},
		{
			"buffer":0,
			"byteLength":384,
			"byteOffset":4883420,
			"target":34962
		},
		{
			"buffer":0,
			"byteLength":256,
			"byteOffset":4883804,
			"target":34962
		},
		{
			"buffer":0,
			"byteLength":384,
			"byteOffset":4884060,
			"target":34962
		},
		{
			"buffer":0,
			"byteLength":384,
			"byteOffset":4884444,
			"target":34962
		},
		{
			"buffer":0,
			"byteLength":256,
			"byteOffset":4884828,
			"target":34962
		}
	],
	"samplers":[
		{
			"magFilter":9729,
			"minFilter":9987
		}
	],
	"buffers":[
		{
			"byteLength":4885084,
			"uri":"lazermaze.bin"
		}
	]
}
