{
	"asset":{
		"generator":"Khronos glTF Blender I/O v4.1.63",
		"version":"2.0"
	},
	"scene":0,
	"scenes":[
		{
			"name":"Scene",
			"nodes":[
				0,
				1,
				2,
				3,
				4,
				5,
				6,
				7,
				8,
				9,
				10,
				11,
				12,
				13,
				14,
				15,
				16
			]
		}
	],
	"nodes":[
		{
			"mesh":0,
			"name":"Platform1-col"
		},
		{
			"mesh":1,
			"name":"Platform2-col"
		},
		{
			"mesh":2,
			"name":"Loop1-col",
			"translation":[
				-60.32514572143555,
				14.013917922973633,
				-123.46566772460938
			]
		},
		{
			"mesh":3,
			"name":"StrLmp1_Post.001-col"
		},
		{
			"mesh":4,
			"name":"StrLmp1_Lamp.001-col"
		},
		{
			"mesh":5,
			"name":"StrLmp1_Post.002-col"
		},
		{
			"mesh":6,
			"name":"StrLmp1_Lamp.002-col"
		},
		{
			"mesh":7,
			"name":"StrLmp1_Post.003-col"
		},
		{
			"mesh":8,
			"name":"StrLmp1_Lamp.003-col",
			"translation":[
				-55.18678283691406,
				20.183374404907227,
				-101.74333190917969
			]
		},
		{
			"mesh":9,
			"name":"StrLmp1_Post.004-col"
		},
		{
			"mesh":8,
			"name":"StrLmp1_Lamp.004-col",
			"translation":[
				-107.12347412109375,
				20.18337631225586,
				-58.02716827392578
			]
		},
		{
			"mesh":10,
			"name":"StrLmp1_Post.002-col.001"
		},
		{
			"mesh":8,
			"name":"StrLmp1_Lamp.002-col.001",
			"translation":[
				-65.11245727539062,
				20.183374404907227,
				-4.76209831237793
			]
		},
		{
			"mesh":11,
			"name":"StrLmp1_Post.002-col.002",
			"translation":[
				63.156044006347656,
				-3.3223042488098145,
				-60.846561431884766
			]
		},
		{
			"mesh":8,
			"name":"StrLmp1_Lamp.002-col.002",
			"translation":[
				-1.9564132690429688,
				16.86107063293457,
				-65.60865783691406
			]
		},
		{
			"mesh":12,
			"name":"Loop1-col.001",
			"translation":[
				-60.01002502441406,
				14.024477005004883,
				14.932568550109863
			]
		},
		{
			"mesh":13,
			"name":"Loop1-col.002",
			"translation":[
				-127.44478607177734,
				14.024477005004883,
				-52.84212112426758
			]
		}
	],
	"materials":[
		{
			"doubleSided":true,
			"name":"Tutshngl",
			"pbrMetallicRoughness":{
				"baseColorTexture":{
					"index":0
				},
				"metallicFactor":0,
				"roughnessFactor":0.5
			}
		},
		{
			"alphaMode":"BLEND",
			"doubleSided":true,
			"emissiveFactor":[
				0.2198285013437271,
				0.04432767629623413,
				0.13733862340450287
			],
			"name":"PUNA",
			"pbrMetallicRoughness":{
				"baseColorFactor":[
					1,
					1,
					1,
					0.20000000298023224
				],
				"baseColorTexture":{
					"index":1
				},
				"metallicFactor":0,
				"roughnessFactor":0
			}
		},
		{
			"doubleSided":true,
			"name":"BETON",
			"pbrMetallicRoughness":{
				"baseColorTexture":{
					"index":2
				},
				"metallicFactor":0,
				"roughnessFactor":0.5
			}
		},
		{
			"alphaMode":"BLEND",
			"doubleSided":true,
			"emissiveFactor":[
				0.8970856070518494,
				0.8383427262306213,
				0.01228289119899273
			],
			"name":"Material.007",
			"pbrMetallicRoughness":{
				"baseColorFactor":[
					0.800000011920929,
					0.800000011920929,
					0.800000011920929,
					0.5
				],
				"metallicFactor":0,
				"roughnessFactor":0.5
			}
		},
		{
			"doubleSided":true,
			"name":"M_Street_Lamp_1.002",
			"pbrMetallicRoughness":{
				"metallicFactor":0,
				"roughnessFactor":0.5
			}
		}
	],
	"meshes":[
		{
			"name":"Plane.001",
			"primitives":[
				{
					"attributes":{
						"POSITION":0,
						"NORMAL":1,
						"TEXCOORD_0":2
					},
					"indices":3,
					"material":0
				}
			]
		},
		{
			"name":"Circle.005",
			"primitives":[
				{
					"attributes":{
						"POSITION":4,
						"NORMAL":5,
						"TEXCOORD_0":6
					},
					"indices":7,
					"material":0
				}
			]
		},
		{
			"name":"Cube.007",
			"primitives":[
				{
					"attributes":{
						"POSITION":8,
						"NORMAL":9,
						"TEXCOORD_0":10
					},
					"indices":11,
					"material":1
				}
			]
		},
		{
			"name":"Cylinder.001",
			"primitives":[
				{
					"attributes":{
						"POSITION":12,
						"NORMAL":13,
						"TEXCOORD_0":14
					},
					"indices":15,
					"material":2
				}
			]
		},
		{
			"name":"Sphere.001",
			"primitives":[
				{
					"attributes":{
						"POSITION":16,
						"NORMAL":17,
						"TEXCOORD_0":18
					},
					"indices":19,
					"material":1
				}
			]
		},
		{
			"name":"Cylinder.002",
			"primitives":[
				{
					"attributes":{
						"POSITION":20,
						"NORMAL":21,
						"TEXCOORD_0":22
					},
					"indices":23,
					"material":2
				}
			]
		},
		{
			"name":"Sphere.003",
			"primitives":[
				{
					"attributes":{
						"POSITION":24,
						"NORMAL":25,
						"TEXCOORD_0":26
					},
					"indices":27,
					"material":3
				}
			]
		},
		{
			"name":"Cylinder.003",
			"primitives":[
				{
					"attributes":{
						"POSITION":28,
						"NORMAL":29,
						"TEXCOORD_0":30
					},
					"indices":23,
					"material":2
				}
			]
		},
		{
			"name":"Sphere.007",
			"primitives":[
				{
					"attributes":{
						"POSITION":31,
						"NORMAL":32,
						"TEXCOORD_0":33
					},
					"indices":27,
					"material":3
				}
			]
		},
		{
			"name":"Cylinder.004",
			"primitives":[
				{
					"attributes":{
						"POSITION":34,
						"NORMAL":35,
						"TEXCOORD_0":36
					},
					"indices":23,
					"material":2
				}
			]
		},
		{
			"name":"Cylinder.005",
			"primitives":[
				{
					"attributes":{
						"POSITION":37,
						"NORMAL":38,
						"TEXCOORD_0":39
					},
					"indices":23,
					"material":4
				}
			]
		},
		{
			"name":"Cylinder.006",
			"primitives":[
				{
					"attributes":{
						"POSITION":40,
						"NORMAL":41,
						"TEXCOORD_0":42
					},
					"indices":23,
					"material":2
				}
			]
		},
		{
			"name":"Cube.003",
			"primitives":[
				{
					"attributes":{
						"POSITION":43,
						"NORMAL":44,
						"TEXCOORD_0":45
					},
					"indices":46,
					"material":1
				}
			]
		},
		{
			"name":"Cube.004",
			"primitives":[
				{
					"attributes":{
						"POSITION":47,
						"NORMAL":48,
						"TEXCOORD_0":49
					},
					"indices":50,
					"material":1
				}
			]
		}
	],
	"textures":[
		{
			"sampler":0,
			"source":0
		},
		{
			"sampler":0,
			"source":1
		},
		{
			"sampler":0,
			"source":2
		}
	],
	"images":[
		{
			"mimeType":"image/png",
			"name":"Tutshngl",
			"uri":"Tutshngl.png"
		},
		{
			"mimeType":"image/png",
			"name":"puna",
			"uri":"puna.png"
		},
		{
			"mimeType":"image/png",
			"name":"BETON",
			"uri":"BETON.png"
		}
	],
	"accessors":[
		{
			"bufferView":0,
			"componentType":5126,
			"count":1904,
			"max":[
				5.998443603515625,
				17.20450210571289,
				3.9848005771636963
			],
			"min":[
				-34.38123321533203,
				-4.0004987716674805,
				-68.0673828125
			],
			"type":"VEC3"
		},
		{
			"bufferView":1,
			"componentType":5126,
			"count":1904,
			"type":"VEC3"
		},
		{
			"bufferView":2,
			"componentType":5126,
			"count":1904,
			"type":"VEC2"
		},
		{
			"bufferView":3,
			"componentType":5123,
			"count":2940,
			"type":"SCALAR"
		},
		{
			"bufferView":4,
			"componentType":5126,
			"count":404,
			"max":[
				-40.9923210144043,
				19.191577911376953,
				14.197175025939941
			],
			"min":[
				-127.10982513427734,
				10.05220890045166,
				-123.1084213256836
			],
			"type":"VEC3"
		},
		{
			"bufferView":5,
			"componentType":5126,
			"count":404,
			"type":"VEC3"
		},
		{
			"bufferView":6,
			"componentType":5126,
			"count":404,
			"type":"VEC2"
		},
		{
			"bufferView":7,
			"componentType":5123,
			"count":1026,
			"type":"SCALAR"
		},
		{
			"bufferView":8,
			"componentType":5126,
			"count":1238,
			"max":[
				5.483564853668213,
				26.04784393310547,
				14.623291015625
			],
			"min":[
				-5.31445837020874,
				-3.1601953506469727,
				-14.774999618530273
			],
			"type":"VEC3"
		},
		{
			"bufferView":9,
			"componentType":5126,
			"count":1238,
			"type":"VEC3"
		},
		{
			"bufferView":10,
			"componentType":5126,
			"count":1238,
			"type":"VEC2"
		},
		{
			"bufferView":11,
			"componentType":5123,
			"count":1908,
			"type":"SCALAR"
		},
		{
			"bufferView":12,
			"componentType":5126,
			"count":12496,
			"max":[
				-57.10672378540039,
				23.425395965576172,
				-50.074615478515625
			],
			"min":[
				-63.34169006347656,
				16.795013427734375,
				-56.30958938598633
			],
			"type":"VEC3"
		},
		{
			"bufferView":13,
			"componentType":5126,
			"count":12496,
			"type":"VEC3"
		},
		{
			"bufferView":14,
			"componentType":5126,
			"count":12496,
			"type":"VEC2"
		},
		{
			"bufferView":15,
			"componentType":5123,
			"count":50304,
			"type":"SCALAR"
		},
		{
			"bufferView":16,
			"componentType":5126,
			"count":794,
			"max":[
				-57.31675338745117,
				29.21868133544922,
				-50.284664154052734
			],
			"min":[
				-63.13163375854492,
				23.38583755493164,
				-56.09953689575195
			],
			"type":"VEC3"
		},
		{
			"bufferView":17,
			"componentType":5126,
			"count":794,
			"type":"VEC3"
		},
		{
			"bufferView":18,
			"componentType":5126,
			"count":794,
			"type":"VEC2"
		},
		{
			"bufferView":19,
			"componentType":5123,
			"count":3360,
			"type":"SCALAR"
		},
		{
			"bufferView":20,
			"componentType":5126,
			"count":6448,
			"max":[
				-64.5888442993164,
				19.051513671875,
				-4.238492012023926
			],
			"min":[
				-65.63605499267578,
				13.391587257385254,
				-5.28570556640625
			],
			"type":"VEC3"
		},
		{
			"bufferView":21,
			"componentType":5126,
			"count":6448,
			"type":"VEC3"
		},
		{
			"bufferView":22,
			"componentType":5126,
			"count":6448,
			"type":"VEC2"
		},
		{
			"bufferView":23,
			"componentType":5123,
			"count":31248,
			"type":"SCALAR"
		},
		{
			"bufferView":24,
			"componentType":5126,
			"count":794,
			"max":[
				-63.98023223876953,
				21.319101333618164,
				-3.629871368408203
			],
			"min":[
				-66.24468994140625,
				19.04764747619629,
				-5.894325256347656
			],
			"type":"VEC3"
		},
		{
			"bufferView":25,
			"componentType":5126,
			"count":794,
			"type":"VEC3"
		},
		{
			"bufferView":26,
			"componentType":5126,
			"count":794,
			"type":"VEC2"
		},
		{
			"bufferView":27,
			"componentType":5123,
			"count":3360,
			"type":"SCALAR"
		},
		{
			"bufferView":28,
			"componentType":5126,
			"count":6448,
			"max":[
				-54.66318130493164,
				19.051513671875,
				-101.21973419189453
			],
			"min":[
				-55.71038818359375,
				13.391587257385254,
				-102.26693725585938
			],
			"type":"VEC3"
		},
		{
			"bufferView":29,
			"componentType":5126,
			"count":6448,
			"type":"VEC3"
		},
		{
			"bufferView":30,
			"componentType":5126,
			"count":6448,
			"type":"VEC2"
		},
		{
			"bufferView":31,
			"componentType":5126,
			"count":794,
			"max":[
				1.1322250366210938,
				1.1357269287109375,
				1.1322269439697266
			],
			"min":[
				-1.132232666015625,
				-1.1357269287109375,
				-1.1322269439697266
			],
			"type":"VEC3"
		},
		{
			"bufferView":32,
			"componentType":5126,
			"count":794,
			"type":"VEC3"
		},
		{
			"bufferView":33,
			"componentType":5126,
			"count":794,
			"type":"VEC2"
		},
		{
			"bufferView":34,
			"componentType":5126,
			"count":6448,
			"max":[
				-106.59986114501953,
				19.051515579223633,
				-57.50356674194336
			],
			"min":[
				-107.64705657958984,
				13.39158821105957,
				-58.5507698059082
			],
			"type":"VEC3"
		},
		{
			"bufferView":35,
			"componentType":5126,
			"count":6448,
			"type":"VEC3"
		},
		{
			"bufferView":36,
			"componentType":5126,
			"count":6448,
			"type":"VEC2"
		},
		{
			"bufferView":37,
			"componentType":5126,
			"count":6448,
			"max":[
				-64.5888442993164,
				19.051513671875,
				-4.238492012023926
			],
			"min":[
				-65.63605499267578,
				13.391587257385254,
				-5.28570556640625
			],
			"type":"VEC3"
		},
		{
			"bufferView":38,
			"componentType":5126,
			"count":6448,
			"type":"VEC3"
		},
		{
			"bufferView":39,
			"componentType":5126,
			"count":6448,
			"type":"VEC2"
		},
		{
			"bufferView":40,
			"componentType":5126,
			"count":6448,
			"max":[
				-64.5888442993164,
				19.051513671875,
				-4.238492012023926
			],
			"min":[
				-65.63605499267578,
				13.391587257385254,
				-5.28570556640625
			],
			"type":"VEC3"
		},
		{
			"bufferView":41,
			"componentType":5126,
			"count":6448,
			"type":"VEC3"
		},
		{
			"bufferView":42,
			"componentType":5126,
			"count":6448,
			"type":"VEC2"
		},
		{
			"bufferView":43,
			"componentType":5126,
			"count":1238,
			"max":[
				5.314456462860107,
				26.04784393310547,
				14.774999618530273
			],
			"min":[
				-5.48356294631958,
				-3.1601953506469727,
				-14.623291015625
			],
			"type":"VEC3"
		},
		{
			"bufferView":44,
			"componentType":5126,
			"count":1238,
			"type":"VEC3"
		},
		{
			"bufferView":45,
			"componentType":5126,
			"count":1238,
			"type":"VEC2"
		},
		{
			"bufferView":46,
			"componentType":5123,
			"count":1908,
			"type":"SCALAR"
		},
		{
			"bufferView":47,
			"componentType":5126,
			"count":1238,
			"max":[
				14.623291015625,
				26.04784393310547,
				5.314457416534424
			],
			"min":[
				-14.774999618530273,
				-3.1601953506469727,
				-5.4835638999938965
			],
			"type":"VEC3"
		},
		{
			"bufferView":48,
			"componentType":5126,
			"count":1238,
			"type":"VEC3"
		},
		{
			"bufferView":49,
			"componentType":5126,
			"count":1238,
			"type":"VEC2"
		},
		{
			"bufferView":50,
			"componentType":5123,
			"count":1908,
			"type":"SCALAR"
		}
	],
	"bufferViews":[
		{
			"buffer":0,
			"byteLength":22848,
			"byteOffset":0,
			"target":34962
		},
		{
			"buffer":0,
			"byteLength":22848,
			"byteOffset":22848,
			"target":34962
		},
		{
			"buffer":0,
			"byteLength":15232,
			"byteOffset":45696,
			"target":34962
		},
		{
			"buffer":0,
			"byteLength":5880,
			"byteOffset":60928,
			"target":34963
		},
		{
			"buffer":0,
			"byteLength":4848,
			"byteOffset":66808,
			"target":34962
		},
		{
			"buffer":0,
			"byteLength":4848,
			"byteOffset":71656,
			"target":34962
		},
		{
			"buffer":0,
			"byteLength":3232,
			"byteOffset":76504,
			"target":34962
		},
		{
			"buffer":0,
			"byteLength":2052,
			"byteOffset":79736,
			"target":34963
		},
		{
			"buffer":0,
			"byteLength":14856,
			"byteOffset":81788,
			"target":34962
		},
		{
			"buffer":0,
			"byteLength":14856,
			"byteOffset":96644,
			"target":34962
		},
		{
			"buffer":0,
			"byteLength":9904,
			"byteOffset":111500,
			"target":34962
		},
		{
			"buffer":0,
			"byteLength":3816,
			"byteOffset":121404,
			"target":34963
		},
		{
			"buffer":0,
			"byteLength":149952,
			"byteOffset":125220,
			"target":34962
		},
		{
			"buffer":0,
			"byteLength":149952,
			"byteOffset":275172,
			"target":34962
		},
		{
			"buffer":0,
			"byteLength":99968,
			"byteOffset":425124,
			"target":34962
		},
		{
			"buffer":0,
			"byteLength":100608,
			"byteOffset":525092,
			"target":34963
		},
		{
			"buffer":0,
			"byteLength":9528,
			"byteOffset":625700,
			"target":34962
		},
		{
			"buffer":0,
			"byteLength":9528,
			"byteOffset":635228,
			"target":34962
		},
		{
			"buffer":0,
			"byteLength":6352,
			"byteOffset":644756,
			"target":34962
		},
		{
			"buffer":0,
			"byteLength":6720,
			"byteOffset":651108,
			"target":34963
		},
		{
			"buffer":0,
			"byteLength":77376,
			"byteOffset":657828,
			"target":34962
		},
		{
			"buffer":0,
			"byteLength":77376,
			"byteOffset":735204,
			"target":34962
		},
		{
			"buffer":0,
			"byteLength":51584,
			"byteOffset":812580,
			"target":34962
		},
		{
			"buffer":0,
			"byteLength":62496,
			"byteOffset":864164,
			"target":34963
		},
		{
			"buffer":0,
			"byteLength":9528,
			"byteOffset":926660,
			"target":34962
		},
		{
			"buffer":0,
			"byteLength":9528,
			"byteOffset":936188,
			"target":34962
		},
		{
			"buffer":0,
			"byteLength":6352,
			"byteOffset":945716,
			"target":34962
		},
		{
			"buffer":0,
			"byteLength":6720,
			"byteOffset":952068,
			"target":34963
		},
		{
			"buffer":0,
			"byteLength":77376,
			"byteOffset":958788,
			"target":34962
		},
		{
			"buffer":0,
			"byteLength":77376,
			"byteOffset":1036164,
			"target":34962
		},
		{
			"buffer":0,
			"byteLength":51584,
			"byteOffset":1113540,
			"target":34962
		},
		{
			"buffer":0,
			"byteLength":9528,
			"byteOffset":1165124,
			"target":34962
		},
		{
			"buffer":0,
			"byteLength":9528,
			"byteOffset":1174652,
			"target":34962
		},
		{
			"buffer":0,
			"byteLength":6352,
			"byteOffset":1184180,
			"target":34962
		},
		{
			"buffer":0,
			"byteLength":77376,
			"byteOffset":1190532,
			"target":34962
		},
		{
			"buffer":0,
			"byteLength":77376,
			"byteOffset":1267908,
			"target":34962
		},
		{
			"buffer":0,
			"byteLength":51584,
			"byteOffset":1345284,
			"target":34962
		},
		{
			"buffer":0,
			"byteLength":77376,
			"byteOffset":1396868,
			"target":34962
		},
		{
			"buffer":0,
			"byteLength":77376,
			"byteOffset":1474244,
			"target":34962
		},
		{
			"buffer":0,
			"byteLength":51584,
			"byteOffset":1551620,
			"target":34962
		},
		{
			"buffer":0,
			"byteLength":77376,
			"byteOffset":1603204,
			"target":34962
		},
		{
			"buffer":0,
			"byteLength":77376,
			"byteOffset":1680580,
			"target":34962
		},
		{
			"buffer":0,
			"byteLength":51584,
			"byteOffset":1757956,
			"target":34962
		},
		{
			"buffer":0,
			"byteLength":14856,
			"byteOffset":1809540,
			"target":34962
		},
		{
			"buffer":0,
			"byteLength":14856,
			"byteOffset":1824396,
			"target":34962
		},
		{
			"buffer":0,
			"byteLength":9904,
			"byteOffset":1839252,
			"target":34962
		},
		{
			"buffer":0,
			"byteLength":3816,
			"byteOffset":1849156,
			"target":34963
		},
		{
			"buffer":0,
			"byteLength":14856,
			"byteOffset":1852972,
			"target":34962
		},
		{
			"buffer":0,
			"byteLength":14856,
			"byteOffset":1867828,
			"target":34962
		},
		{
			"buffer":0,
			"byteLength":9904,
			"byteOffset":1882684,
			"target":34962
		},
		{
			"buffer":0,
			"byteLength":3816,
			"byteOffset":1892588,
			"target":34963
		}
	],
	"samplers":[
		{
			"magFilter":9729,
			"minFilter":9987
		}
	],
	"buffers":[
		{
			"byteLength":1896404,
			"uri":"loops.bin"
		}
	]
}
