{
	"asset":{
		"generator":"Khronos glTF Blender I/O v4.1.63",
		"version":"2.0"
	},
	"scene":0,
	"scenes":[
		{
			"name":"Scene",
			"nodes":[
				0,
				1,
				2,
				3,
				4,
				5,
				6,
				7,
				8,
				9,
				10,
				11,
				12,
				13,
				14,
				15,
				16
			]
		}
	],
	"nodes":[
		{
			"mesh":0,
			"name":"Platform1-col",
			"translation":[
				0.017984576523303986,
				0.3365589380264282,
				0.13269758224487305
			]
		},
		{
			"mesh":1,
			"name":"Platform2-col",
			"translation":[
				0.017984576523303986,
				0.3365589380264282,
				0.13269758224487305
			]
		},
		{
			"mesh":2,
			"name":"Loop1-col",
			"translation":[
				-6.014529705047607,
				1.7379510402679443,
				-12.2138671875
			]
		},
		{
			"mesh":3,
			"name":"StrLmp1_Post.001-col",
			"translation":[
				0.017984576523303986,
				0.3365589380264282,
				0.13269758224487305
			]
		},
		{
			"mesh":4,
			"name":"StrLmp1_Lamp.001-col",
			"translation":[
				0.017984576523303986,
				0.3365589380264282,
				0.13269758224487305
			]
		},
		{
			"mesh":5,
			"name":"StrLmp1_Post.002-col",
			"translation":[
				0.017984576523303986,
				0.3365589380264282,
				0.13269758224487305
			]
		},
		{
			"mesh":6,
			"name":"StrLmp1_Lamp.002-col",
			"translation":[
				0.017984576523303986,
				0.3365589380264282,
				0.13269758224487305
			]
		},
		{
			"mesh":7,
			"name":"StrLmp1_Post.003-col",
			"translation":[
				0.017984576523303986,
				0.3365589380264282,
				0.13269758224487305
			]
		},
		{
			"mesh":8,
			"name":"StrLmp1_Lamp.003-col",
			"translation":[
				-5.5006937980651855,
				2.354896306991577,
				-10.041633605957031
			]
		},
		{
			"mesh":9,
			"name":"StrLmp1_Post.004-col",
			"translation":[
				0.017984576523303986,
				0.3365589380264282,
				0.13269758224487305
			]
		},
		{
			"mesh":8,
			"name":"StrLmp1_Lamp.004-col",
			"translation":[
				-10.69436264038086,
				2.3548972606658936,
				-5.670017719268799
			]
		},
		{
			"mesh":10,
			"name":"StrLmp1_Post.002-col.001",
			"translation":[
				0.017984576523303986,
				0.3365589380264282,
				0.13269758224487305
			]
		},
		{
			"mesh":8,
			"name":"StrLmp1_Lamp.002-col.001",
			"translation":[
				-6.493262767791748,
				2.354896306991577,
				-0.3435177803039551
			]
		},
		{
			"mesh":11,
			"name":"StrLmp1_Post.002-col.002",
			"translation":[
				6.333591938018799,
				0.0043288469314575195,
				-5.951958179473877
			]
		},
		{
			"mesh":8,
			"name":"StrLmp1_Lamp.002-col.002",
			"translation":[
				-0.17765790224075317,
				2.0226666927337646,
				-6.4281697273254395
			]
		},
		{
			"mesh":12,
			"name":"Loop1-col.001",
			"translation":[
				-5.983016490936279,
				1.739006757736206,
				1.625953197479248
			]
		},
		{
			"mesh":13,
			"name":"Loop1-col.002",
			"translation":[
				-12.726497650146484,
				1.739006757736206,
				-5.151516437530518
			]
		}
	],
	"materials":[
		{
			"doubleSided":true,
			"name":"Tutshngl",
			"pbrMetallicRoughness":{
				"baseColorTexture":{
					"index":0
				},
				"metallicFactor":0,
				"roughnessFactor":0.5
			}
		},
		{
			"alphaMode":"BLEND",
			"doubleSided":true,
			"emissiveFactor":[
				0.2198285013437271,
				0.04432767629623413,
				0.13733862340450287
			],
			"name":"PUNA",
			"pbrMetallicRoughness":{
				"baseColorFactor":[
					1,
					1,
					1,
					0.20000000298023224
				],
				"baseColorTexture":{
					"index":1
				},
				"metallicFactor":0,
				"roughnessFactor":0
			}
		},
		{
			"doubleSided":true,
			"name":"BETON",
			"pbrMetallicRoughness":{
				"baseColorTexture":{
					"index":2
				},
				"metallicFactor":0,
				"roughnessFactor":0.5
			}
		},
		{
			"alphaMode":"BLEND",
			"doubleSided":true,
			"emissiveFactor":[
				0.8970856070518494,
				0.8383427262306213,
				0.01228289119899273
			],
			"name":"Material.007",
			"pbrMetallicRoughness":{
				"baseColorFactor":[
					0.800000011920929,
					0.800000011920929,
					0.800000011920929,
					0.5
				],
				"metallicFactor":0,
				"roughnessFactor":0.5
			}
		}
	],
	"meshes":[
		{
			"name":"Plane.001",
			"primitives":[
				{
					"attributes":{
						"POSITION":0,
						"NORMAL":1,
						"TEXCOORD_0":2
					},
					"indices":3,
					"material":0
				}
			]
		},
		{
			"name":"Circle.005",
			"primitives":[
				{
					"attributes":{
						"POSITION":4,
						"NORMAL":5,
						"TEXCOORD_0":6
					},
					"indices":7,
					"material":0
				}
			]
		},
		{
			"name":"Cube.007",
			"primitives":[
				{
					"attributes":{
						"POSITION":8,
						"NORMAL":9,
						"TEXCOORD_0":10
					},
					"indices":11,
					"material":1
				}
			]
		},
		{
			"name":"Cylinder.001",
			"primitives":[
				{
					"attributes":{
						"POSITION":12,
						"NORMAL":13,
						"TEXCOORD_0":14
					},
					"indices":15,
					"material":2
				}
			]
		},
		{
			"name":"Sphere.001",
			"primitives":[
				{
					"attributes":{
						"POSITION":16,
						"NORMAL":17,
						"TEXCOORD_0":18
					},
					"indices":19,
					"material":1
				}
			]
		},
		{
			"name":"Cylinder.002",
			"primitives":[
				{
					"attributes":{
						"POSITION":20,
						"NORMAL":21,
						"TEXCOORD_0":22
					},
					"indices":23,
					"material":2
				}
			]
		},
		{
			"name":"Sphere.003",
			"primitives":[
				{
					"attributes":{
						"POSITION":24,
						"NORMAL":25,
						"TEXCOORD_0":26
					},
					"indices":27,
					"material":3
				}
			]
		},
		{
			"name":"Cylinder.003",
			"primitives":[
				{
					"attributes":{
						"POSITION":28,
						"NORMAL":29,
						"TEXCOORD_0":30
					},
					"indices":23,
					"material":2
				}
			]
		},
		{
			"name":"Sphere.007",
			"primitives":[
				{
					"attributes":{
						"POSITION":31,
						"NORMAL":32,
						"TEXCOORD_0":33
					},
					"indices":27,
					"material":3
				}
			]
		},
		{
			"name":"Cylinder.004",
			"primitives":[
				{
					"attributes":{
						"POSITION":34,
						"NORMAL":35,
						"TEXCOORD_0":36
					},
					"indices":23,
					"material":2
				}
			]
		},
		{
			"name":"Cylinder.005",
			"primitives":[
				{
					"attributes":{
						"POSITION":37,
						"NORMAL":38,
						"TEXCOORD_0":39
					},
					"indices":23,
					"material":2
				}
			]
		},
		{
			"name":"Cylinder.006",
			"primitives":[
				{
					"attributes":{
						"POSITION":40,
						"NORMAL":41,
						"TEXCOORD_0":42
					},
					"indices":23,
					"material":2
				}
			]
		},
		{
			"name":"Cube.003",
			"primitives":[
				{
					"attributes":{
						"POSITION":43,
						"NORMAL":44,
						"TEXCOORD_0":45
					},
					"indices":46,
					"material":1
				}
			]
		},
		{
			"name":"Cube.004",
			"primitives":[
				{
					"attributes":{
						"POSITION":47,
						"NORMAL":48,
						"TEXCOORD_0":49
					},
					"indices":50,
					"material":1
				}
			]
		}
	],
	"textures":[
		{
			"sampler":0,
			"source":0
		},
		{
			"sampler":0,
			"source":1
		},
		{
			"sampler":0,
			"source":2
		}
	],
	"images":[
		{
			"mimeType":"image/png",
			"name":"Tutshngl",
			"uri":"Tutshngl.png"
		},
		{
			"mimeType":"image/png",
			"name":"puna",
			"uri":"puna.png"
		},
		{
			"mimeType":"image/png",
			"name":"BETON",
			"uri":"BETON.png"
		}
	],
	"accessors":[
		{
			"bufferView":0,
			"componentType":5126,
			"count":1904,
			"max":[
				0.5998445153236389,
				1.7204506397247314,
				0.3984801471233368
			],
			"min":[
				-3.438124179840088,
				-0.40004998445510864,
				-6.806739807128906
			],
			"type":"VEC3"
		},
		{
			"bufferView":1,
			"componentType":5126,
			"count":1904,
			"type":"VEC3"
		},
		{
			"bufferView":2,
			"componentType":5126,
			"count":1904,
			"type":"VEC2"
		},
		{
			"bufferView":3,
			"componentType":5123,
			"count":2940,
			"type":"SCALAR"
		},
		{
			"bufferView":4,
			"componentType":5126,
			"count":404,
			"max":[
				-4.099233150482178,
				1.9191582202911377,
				1.419717788696289
			],
			"min":[
				-12.71098518371582,
				1.0052211284637451,
				-12.310845375061035
			],
			"type":"VEC3"
		},
		{
			"bufferView":5,
			"componentType":5126,
			"count":404,
			"type":"VEC3"
		},
		{
			"bufferView":6,
			"componentType":5126,
			"count":404,
			"type":"VEC2"
		},
		{
			"bufferView":7,
			"componentType":5123,
			"count":1026,
			"type":"SCALAR"
		},
		{
			"bufferView":8,
			"componentType":5126,
			"count":1238,
			"max":[
				0.5483565926551819,
				2.6047849655151367,
				1.4623295068740845
			],
			"min":[
				-0.5314459800720215,
				-0.31601962447166443,
				-1.477500319480896
			],
			"type":"VEC3"
		},
		{
			"bufferView":9,
			"componentType":5126,
			"count":1238,
			"type":"VEC3"
		},
		{
			"bufferView":10,
			"componentType":5126,
			"count":1238,
			"type":"VEC2"
		},
		{
			"bufferView":11,
			"componentType":5123,
			"count":1908,
			"type":"SCALAR"
		},
		{
			"bufferView":12,
			"componentType":5126,
			"count":12498,
			"max":[
				-5.710673809051514,
				2.3425402641296387,
				-5.007462978363037
			],
			"min":[
				-6.334170341491699,
				1.6795017719268799,
				-5.630960464477539
			],
			"type":"VEC3"
		},
		{
			"bufferView":13,
			"componentType":5126,
			"count":12498,
			"type":"VEC3"
		},
		{
			"bufferView":14,
			"componentType":5126,
			"count":12498,
			"type":"VEC2"
		},
		{
			"bufferView":15,
			"componentType":5123,
			"count":50304,
			"type":"SCALAR"
		},
		{
			"bufferView":16,
			"componentType":5126,
			"count":794,
			"max":[
				-5.7316765785217285,
				2.9218688011169434,
				-5.028467655181885
			],
			"min":[
				-6.313164710998535,
				2.3385844230651855,
				-5.609954833984375
			],
			"type":"VEC3"
		},
		{
			"bufferView":17,
			"componentType":5126,
			"count":794,
			"type":"VEC3"
		},
		{
			"bufferView":18,
			"componentType":5126,
			"count":794,
			"type":"VEC2"
		},
		{
			"bufferView":19,
			"componentType":5123,
			"count":3360,
			"type":"SCALAR"
		},
		{
			"bufferView":20,
			"componentType":5126,
			"count":6448,
			"max":[
				-6.45888614654541,
				1.9051518440246582,
				-0.42384931445121765
			],
			"min":[
				-6.563607215881348,
				1.3391590118408203,
				-0.5285707116127014
			],
			"type":"VEC3"
		},
		{
			"bufferView":21,
			"componentType":5126,
			"count":6448,
			"type":"VEC3"
		},
		{
			"bufferView":22,
			"componentType":5126,
			"count":6448,
			"type":"VEC2"
		},
		{
			"bufferView":23,
			"componentType":5123,
			"count":31248,
			"type":"SCALAR"
		},
		{
			"bufferView":24,
			"componentType":5126,
			"count":794,
			"max":[
				-6.398024559020996,
				2.131910562515259,
				-0.362987220287323
			],
			"min":[
				-6.6244707107543945,
				1.904765248298645,
				-0.5894326567649841
			],
			"type":"VEC3"
		},
		{
			"bufferView":25,
			"componentType":5126,
			"count":794,
			"type":"VEC3"
		},
		{
			"bufferView":26,
			"componentType":5126,
			"count":794,
			"type":"VEC2"
		},
		{
			"bufferView":27,
			"componentType":5123,
			"count":3360,
			"type":"SCALAR"
		},
		{
			"bufferView":28,
			"componentType":5126,
			"count":6448,
			"max":[
				-5.466319561004639,
				1.9051518440246582,
				-10.121975898742676
			],
			"min":[
				-5.571040153503418,
				1.3391590118408203,
				-10.226696014404297
			],
			"type":"VEC3"
		},
		{
			"bufferView":29,
			"componentType":5126,
			"count":6448,
			"type":"VEC3"
		},
		{
			"bufferView":30,
			"componentType":5126,
			"count":6448,
			"type":"VEC2"
		},
		{
			"bufferView":31,
			"componentType":5126,
			"count":794,
			"max":[
				0.11322253197431564,
				0.11357271671295166,
				0.11322271823883057
			],
			"min":[
				-0.11322329193353653,
				-0.11357271671295166,
				-0.11322271823883057
			],
			"type":"VEC3"
		},
		{
			"bufferView":32,
			"componentType":5126,
			"count":794,
			"type":"VEC3"
		},
		{
			"bufferView":33,
			"componentType":5126,
			"count":794,
			"type":"VEC2"
		},
		{
			"bufferView":34,
			"componentType":5126,
			"count":6448,
			"max":[
				-10.659988403320312,
				1.9051519632339478,
				-5.7503581047058105
			],
			"min":[
				-10.764708518981934,
				1.3391591310501099,
				-5.855078220367432
			],
			"type":"VEC3"
		},
		{
			"bufferView":35,
			"componentType":5126,
			"count":6448,
			"type":"VEC3"
		},
		{
			"bufferView":36,
			"componentType":5126,
			"count":6448,
			"type":"VEC2"
		},
		{
			"bufferView":37,
			"componentType":5126,
			"count":6448,
			"max":[
				-6.45888614654541,
				1.9051518440246582,
				-0.42384931445121765
			],
			"min":[
				-6.563607215881348,
				1.3391590118408203,
				-0.5285707116127014
			],
			"type":"VEC3"
		},
		{
			"bufferView":38,
			"componentType":5126,
			"count":6448,
			"type":"VEC3"
		},
		{
			"bufferView":39,
			"componentType":5126,
			"count":6448,
			"type":"VEC2"
		},
		{
			"bufferView":40,
			"componentType":5126,
			"count":6448,
			"max":[
				-6.45888614654541,
				1.9051518440246582,
				-0.42384931445121765
			],
			"min":[
				-6.563607215881348,
				1.3391590118408203,
				-0.5285707116127014
			],
			"type":"VEC3"
		},
		{
			"bufferView":41,
			"componentType":5126,
			"count":6448,
			"type":"VEC3"
		},
		{
			"bufferView":42,
			"componentType":5126,
			"count":6448,
			"type":"VEC2"
		},
		{
			"bufferView":43,
			"componentType":5126,
			"count":1238,
			"max":[
				0.5314458012580872,
				2.6047849655151367,
				1.477500319480896
			],
			"min":[
				-0.5483564138412476,
				-0.31601962447166443,
				-1.4623295068740845
			],
			"type":"VEC3"
		},
		{
			"bufferView":44,
			"componentType":5126,
			"count":1238,
			"type":"VEC3"
		},
		{
			"bufferView":45,
			"componentType":5126,
			"count":1238,
			"type":"VEC2"
		},
		{
			"bufferView":46,
			"componentType":5123,
			"count":1908,
			"type":"SCALAR"
		},
		{
			"bufferView":47,
			"componentType":5126,
			"count":1238,
			"max":[
				1.4623295068740845,
				2.6047849655151367,
				0.5314458608627319
			],
			"min":[
				-1.477500319480896,
				-0.31601962447166443,
				-0.5483565330505371
			],
			"type":"VEC3"
		},
		{
			"bufferView":48,
			"componentType":5126,
			"count":1238,
			"type":"VEC3"
		},
		{
			"bufferView":49,
			"componentType":5126,
			"count":1238,
			"type":"VEC2"
		},
		{
			"bufferView":50,
			"componentType":5123,
			"count":1908,
			"type":"SCALAR"
		}
	],
	"bufferViews":[
		{
			"buffer":0,
			"byteLength":22848,
			"byteOffset":0,
			"target":34962
		},
		{
			"buffer":0,
			"byteLength":22848,
			"byteOffset":22848,
			"target":34962
		},
		{
			"buffer":0,
			"byteLength":15232,
			"byteOffset":45696,
			"target":34962
		},
		{
			"buffer":0,
			"byteLength":5880,
			"byteOffset":60928,
			"target":34963
		},
		{
			"buffer":0,
			"byteLength":4848,
			"byteOffset":66808,
			"target":34962
		},
		{
			"buffer":0,
			"byteLength":4848,
			"byteOffset":71656,
			"target":34962
		},
		{
			"buffer":0,
			"byteLength":3232,
			"byteOffset":76504,
			"target":34962
		},
		{
			"buffer":0,
			"byteLength":2052,
			"byteOffset":79736,
			"target":34963
		},
		{
			"buffer":0,
			"byteLength":14856,
			"byteOffset":81788,
			"target":34962
		},
		{
			"buffer":0,
			"byteLength":14856,
			"byteOffset":96644,
			"target":34962
		},
		{
			"buffer":0,
			"byteLength":9904,
			"byteOffset":111500,
			"target":34962
		},
		{
			"buffer":0,
			"byteLength":3816,
			"byteOffset":121404,
			"target":34963
		},
		{
			"buffer":0,
			"byteLength":149976,
			"byteOffset":125220,
			"target":34962
		},
		{
			"buffer":0,
			"byteLength":149976,
			"byteOffset":275196,
			"target":34962
		},
		{
			"buffer":0,
			"byteLength":99984,
			"byteOffset":425172,
			"target":34962
		},
		{
			"buffer":0,
			"byteLength":100608,
			"byteOffset":525156,
			"target":34963
		},
		{
			"buffer":0,
			"byteLength":9528,
			"byteOffset":625764,
			"target":34962
		},
		{
			"buffer":0,
			"byteLength":9528,
			"byteOffset":635292,
			"target":34962
		},
		{
			"buffer":0,
			"byteLength":6352,
			"byteOffset":644820,
			"target":34962
		},
		{
			"buffer":0,
			"byteLength":6720,
			"byteOffset":651172,
			"target":34963
		},
		{
			"buffer":0,
			"byteLength":77376,
			"byteOffset":657892,
			"target":34962
		},
		{
			"buffer":0,
			"byteLength":77376,
			"byteOffset":735268,
			"target":34962
		},
		{
			"buffer":0,
			"byteLength":51584,
			"byteOffset":812644,
			"target":34962
		},
		{
			"buffer":0,
			"byteLength":62496,
			"byteOffset":864228,
			"target":34963
		},
		{
			"buffer":0,
			"byteLength":9528,
			"byteOffset":926724,
			"target":34962
		},
		{
			"buffer":0,
			"byteLength":9528,
			"byteOffset":936252,
			"target":34962
		},
		{
			"buffer":0,
			"byteLength":6352,
			"byteOffset":945780,
			"target":34962
		},
		{
			"buffer":0,
			"byteLength":6720,
			"byteOffset":952132,
			"target":34963
		},
		{
			"buffer":0,
			"byteLength":77376,
			"byteOffset":958852,
			"target":34962
		},
		{
			"buffer":0,
			"byteLength":77376,
			"byteOffset":1036228,
			"target":34962
		},
		{
			"buffer":0,
			"byteLength":51584,
			"byteOffset":1113604,
			"target":34962
		},
		{
			"buffer":0,
			"byteLength":9528,
			"byteOffset":1165188,
			"target":34962
		},
		{
			"buffer":0,
			"byteLength":9528,
			"byteOffset":1174716,
			"target":34962
		},
		{
			"buffer":0,
			"byteLength":6352,
			"byteOffset":1184244,
			"target":34962
		},
		{
			"buffer":0,
			"byteLength":77376,
			"byteOffset":1190596,
			"target":34962
		},
		{
			"buffer":0,
			"byteLength":77376,
			"byteOffset":1267972,
			"target":34962
		},
		{
			"buffer":0,
			"byteLength":51584,
			"byteOffset":1345348,
			"target":34962
		},
		{
			"buffer":0,
			"byteLength":77376,
			"byteOffset":1396932,
			"target":34962
		},
		{
			"buffer":0,
			"byteLength":77376,
			"byteOffset":1474308,
			"target":34962
		},
		{
			"buffer":0,
			"byteLength":51584,
			"byteOffset":1551684,
			"target":34962
		},
		{
			"buffer":0,
			"byteLength":77376,
			"byteOffset":1603268,
			"target":34962
		},
		{
			"buffer":0,
			"byteLength":77376,
			"byteOffset":1680644,
			"target":34962
		},
		{
			"buffer":0,
			"byteLength":51584,
			"byteOffset":1758020,
			"target":34962
		},
		{
			"buffer":0,
			"byteLength":14856,
			"byteOffset":1809604,
			"target":34962
		},
		{
			"buffer":0,
			"byteLength":14856,
			"byteOffset":1824460,
			"target":34962
		},
		{
			"buffer":0,
			"byteLength":9904,
			"byteOffset":1839316,
			"target":34962
		},
		{
			"buffer":0,
			"byteLength":3816,
			"byteOffset":1849220,
			"target":34963
		},
		{
			"buffer":0,
			"byteLength":14856,
			"byteOffset":1853036,
			"target":34962
		},
		{
			"buffer":0,
			"byteLength":14856,
			"byteOffset":1867892,
			"target":34962
		},
		{
			"buffer":0,
			"byteLength":9904,
			"byteOffset":1882748,
			"target":34962
		},
		{
			"buffer":0,
			"byteLength":3816,
			"byteOffset":1892652,
			"target":34963
		}
	],
	"samplers":[
		{
			"magFilter":9729,
			"minFilter":9987
		}
	],
	"buffers":[
		{
			"byteLength":1896468,
			"uri":"loops.bin"
		}
	]
}
