{
	"asset":{
		"generator":"Khronos glTF Blender I/O v4.1.63",
		"version":"2.0"
	},
	"scene":0,
	"scenes":[
		{
			"name":"Scene",
			"nodes":[
				0
			]
		}
	],
	"nodes":[
		{
			"mesh":0,
			"name":"Sphere-col",
			"translation":[
				0,
				-0.48157528042793274,
				0
			]
		}
	],
	"materials":[
		{
			"doubleSided":true,
			"name":"Material.001",
			"pbrMetallicRoughness":{
				"baseColorTexture":{
					"index":0
				},
				"metallicFactor":0,
				"roughnessFactor":0.5
			}
		}
	],
	"meshes":[
		{
			"name":"Sphere",
			"primitives":[
				{
					"attributes":{
						"POSITION":0,
						"NORMAL":1,
						"TEXCOORD_0":2
					},
					"indices":3,
					"material":0
				}
			]
		}
	],
	"textures":[
		{
			"sampler":0,
			"source":0
		}
	],
	"images":[
		{
			"mimeType":"image/png",
			"name":"1ball",
			"uri":"1ball.png"
		}
	],
	"accessors":[
		{
			"bufferView":0,
			"componentType":5126,
			"count":1938,
			"max":[
				11.948385238647461,
				0.4579797685146332,
				11.948382377624512
			],
			"min":[
				-11.948380470275879,
				-10.371407508850098,
				-11.948387145996094
			],
			"type":"VEC3"
		},
		{
			"bufferView":1,
			"componentType":5126,
			"count":1938,
			"type":"VEC3"
		},
		{
			"bufferView":2,
			"componentType":5126,
			"count":1938,
			"type":"VEC2"
		},
		{
			"bufferView":3,
			"componentType":5123,
			"count":2874,
			"type":"SCALAR"
		}
	],
	"bufferViews":[
		{
			"buffer":0,
			"byteLength":23256,
			"byteOffset":0,
			"target":34962
		},
		{
			"buffer":0,
			"byteLength":23256,
			"byteOffset":23256,
			"target":34962
		},
		{
			"buffer":0,
			"byteLength":15504,
			"byteOffset":46512,
			"target":34962
		},
		{
			"buffer":0,
			"byteLength":5748,
			"byteOffset":62016,
			"target":34963
		}
	],
	"samplers":[
		{
			"magFilter":9729,
			"minFilter":9987
		}
	],
	"buffers":[
		{
			"byteLength":67764,
			"uri":"nightmare.bin"
		}
	]
}
