{
	"asset":{
		"generator":"Khronos glTF Blender I/O v4.1.63",
		"version":"2.0"
	},
	"scene":0,
	"scenes":[
		{
			"name":"Scene",
			"nodes":[
				0
			]
		}
	],
	"nodes":[
		{
			"mesh":0,
			"name":"Sphere-col",
			"translation":[
				0,
				-0.04324556514620781,
				0
			]
		}
	],
	"materials":[
		{
			"doubleSided":true,
			"name":"Material.001",
			"pbrMetallicRoughness":{
				"baseColorTexture":{
					"index":0
				},
				"metallicFactor":0,
				"roughnessFactor":0.5
			}
		}
	],
	"meshes":[
		{
			"name":"Sphere",
			"primitives":[
				{
					"attributes":{
						"POSITION":0,
						"NORMAL":1,
						"TEXCOORD_0":2
					},
					"indices":3,
					"material":0
				}
			]
		}
	],
	"textures":[
		{
			"sampler":0,
			"source":0
		}
	],
	"images":[
		{
			"mimeType":"image/png",
			"name":"1ball",
			"uri":"1ball.png"
		}
	],
	"accessors":[
		{
			"bufferView":0,
			"componentType":5126,
			"count":1930,
			"max":[
				1.1948387622833252,
				0.04579798877239227,
				1.194838523864746
			],
			"min":[
				-1.194838285446167,
				-1.037140965461731,
				-1.1948390007019043
			],
			"type":"VEC3"
		},
		{
			"bufferView":1,
			"componentType":5126,
			"count":1930,
			"type":"VEC3"
		},
		{
			"bufferView":2,
			"componentType":5126,
			"count":1930,
			"type":"VEC2"
		},
		{
			"bufferView":3,
			"componentType":5123,
			"count":2874,
			"type":"SCALAR"
		}
	],
	"bufferViews":[
		{
			"buffer":0,
			"byteLength":23160,
			"byteOffset":0,
			"target":34962
		},
		{
			"buffer":0,
			"byteLength":23160,
			"byteOffset":23160,
			"target":34962
		},
		{
			"buffer":0,
			"byteLength":15440,
			"byteOffset":46320,
			"target":34962
		},
		{
			"buffer":0,
			"byteLength":5748,
			"byteOffset":61760,
			"target":34963
		}
	],
	"samplers":[
		{
			"magFilter":9729,
			"minFilter":9987
		}
	],
	"buffers":[
		{
			"byteLength":67508,
			"uri":"nightmare.bin"
		}
	]
}
