{
	"asset":{
		"generator":"Khronos glTF Blender I/O v4.1.63",
		"version":"2.0"
	},
	"scene":0,
	"scenes":[
		{
			"name":"Scene",
			"nodes":[
				0,
				1
			]
		}
	],
	"nodes":[
		{
			"mesh":0,
			"name":"Sphere-col",
			"translation":[
				-0.02766793593764305,
				-0.06634914875030518,
				-0.007052071392536163
			]
		},
		{
			"mesh":1,
			"name":"gate-col",
			"rotation":[
				-0.00040963850915431976,
				-0.9999999403953552,
				0,
				7.54978870531886e-08
			],
			"translation":[
				0.028076115995645523,
				0.2346726655960083,
				-0.4418013095855713
			]
		}
	],
	"materials":[
		{
			"doubleSided":true,
			"name":"Material.001",
			"pbrMetallicRoughness":{
				"baseColorTexture":{
					"index":0
				},
				"metallicFactor":0,
				"roughnessFactor":0
			}
		}
	],
	"meshes":[
		{
			"name":"Sphere",
			"primitives":[
				{
					"attributes":{
						"POSITION":0,
						"NORMAL":1,
						"TEXCOORD_0":2
					},
					"indices":3,
					"material":0
				}
			]
		},
		{
			"name":"Cube.002",
			"primitives":[
				{
					"attributes":{
						"POSITION":4,
						"NORMAL":5,
						"TEXCOORD_0":6
					},
					"indices":7,
					"material":0
				}
			]
		}
	],
	"textures":[
		{
			"sampler":0,
			"source":0
		}
	],
	"images":[
		{
			"mimeType":"image/png",
			"name":"1ball",
			"uri":"1ball.png"
		}
	],
	"accessors":[
		{
			"bufferView":0,
			"componentType":5126,
			"count":1920,
			"max":[
				1.0753549337387085,
				0.041218191385269165,
				1.0753546953201294
			],
			"min":[
				-1.0753544569015503,
				-0.9334269165992737,
				-1.0753551721572876
			],
			"type":"VEC3"
		},
		{
			"bufferView":1,
			"componentType":5126,
			"count":1920,
			"type":"VEC3"
		},
		{
			"bufferView":2,
			"componentType":5126,
			"count":1920,
			"type":"VEC2"
		},
		{
			"bufferView":3,
			"componentType":5123,
			"count":2874,
			"type":"SCALAR"
		},
		{
			"bufferView":4,
			"componentType":5126,
			"count":56,
			"max":[
				0.609150767326355,
				0.41545572876930237,
				0.1576000601053238
			],
			"min":[
				-0.5365846753120422,
				-0.28397199511528015,
				-0.09537241607904434
			],
			"type":"VEC3"
		},
		{
			"bufferView":5,
			"componentType":5126,
			"count":56,
			"type":"VEC3"
		},
		{
			"bufferView":6,
			"componentType":5126,
			"count":56,
			"type":"VEC2"
		},
		{
			"bufferView":7,
			"componentType":5123,
			"count":96,
			"type":"SCALAR"
		}
	],
	"bufferViews":[
		{
			"buffer":0,
			"byteLength":23040,
			"byteOffset":0,
			"target":34962
		},
		{
			"buffer":0,
			"byteLength":23040,
			"byteOffset":23040,
			"target":34962
		},
		{
			"buffer":0,
			"byteLength":15360,
			"byteOffset":46080,
			"target":34962
		},
		{
			"buffer":0,
			"byteLength":5748,
			"byteOffset":61440,
			"target":34963
		},
		{
			"buffer":0,
			"byteLength":672,
			"byteOffset":67188,
			"target":34962
		},
		{
			"buffer":0,
			"byteLength":672,
			"byteOffset":67860,
			"target":34962
		},
		{
			"buffer":0,
			"byteLength":448,
			"byteOffset":68532,
			"target":34962
		},
		{
			"buffer":0,
			"byteLength":192,
			"byteOffset":68980,
			"target":34963
		}
	],
	"samplers":[
		{
			"magFilter":9729,
			"minFilter":9987
		}
	],
	"buffers":[
		{
			"byteLength":69172,
			"uri":"nightmare_begin.bin"
		}
	]
}
