{
	"asset":{
		"generator":"Khronos glTF Blender I/O v3.6.28",
		"version":"2.0"
	},
	"scene":0,
	"scenes":[
		{
			"name":"Scene",
			"nodes":[
				0,
				1,
				2,
				3,
				4,
				5,
				6,
				7
			]
		}
	],
	"nodes":[
		{
			"mesh":0,
			"name":"Platform1-col"
		},
		{
			"mesh":1,
			"name":"gate-col"
		},
		{
			"mesh":2,
			"name":"Spiral1-col"
		},
		{
			"mesh":3,
			"name":"plane-col",
			"translation":[
				-0.9814811944961548,
				0,
				0
			]
		},
		{
			"mesh":4,
			"name":"Spiral.002-col",
			"translation":[
				-0.9814811944961548,
				0,
				0
			]
		},
		{
			"mesh":5,
			"name":"plane-col.001",
			"translation":[
				-0.9814811944961548,
				0,
				0
			]
		},
		{
			"mesh":6,
			"name":"cylinder-col",
			"translation":[
				-13.432232856750488,
				-20.04061508178711,
				-95.60539245605469
			]
		},
		{
			"mesh":7,
			"name":"cyl_rotate-col",
			"translation":[
				28.26677131652832,
				-90.37830352783203,
				-680.273681640625
			]
		}
	],
	"materials":[
		{
			"doubleSided":true,
			"name":"Material.001",
			"pbrMetallicRoughness":{
				"baseColorTexture":{
					"index":0
				},
				"metallicFactor":0,
				"roughnessFactor":0.5
			}
		},
		{
			"doubleSided":true,
			"name":"Material.002",
			"pbrMetallicRoughness":{
				"baseColorTexture":{
					"index":1
				},
				"metallicFactor":0,
				"roughnessFactor":0.5
			}
		},
		{
			"alphaMode":"BLEND",
			"doubleSided":true,
			"name":"Material.003",
			"pbrMetallicRoughness":{
				"baseColorFactor":[
					1,
					1,
					1,
					0.459090918302536
				],
				"baseColorTexture":{
					"index":2
				},
				"metallicFactor":0,
				"roughnessFactor":0.5
			}
		}
	],
	"meshes":[
		{
			"name":"Plane.001",
			"primitives":[
				{
					"attributes":{
						"POSITION":0,
						"NORMAL":1,
						"TEXCOORD_0":2
					},
					"indices":3,
					"material":0
				}
			]
		},
		{
			"name":"Cube.002",
			"primitives":[
				{
					"attributes":{
						"POSITION":4,
						"NORMAL":5,
						"TEXCOORD_0":6
					},
					"indices":7,
					"material":0
				}
			]
		},
		{
			"name":"Spiral.001",
			"primitives":[
				{
					"attributes":{
						"POSITION":8,
						"NORMAL":9,
						"TEXCOORD_0":10
					},
					"indices":11,
					"material":1
				}
			]
		},
		{
			"name":"Plane",
			"primitives":[
				{
					"attributes":{
						"POSITION":12,
						"NORMAL":13,
						"TEXCOORD_0":14
					},
					"indices":15,
					"material":0
				}
			]
		},
		{
			"name":"Spiral.003",
			"primitives":[
				{
					"attributes":{
						"POSITION":16,
						"NORMAL":17,
						"TEXCOORD_0":18
					},
					"indices":19,
					"material":2
				}
			]
		},
		{
			"name":"Plane.002",
			"primitives":[
				{
					"attributes":{
						"POSITION":20,
						"NORMAL":21,
						"TEXCOORD_0":22
					},
					"indices":23,
					"material":0
				}
			]
		},
		{
			"name":"Cylinder",
			"primitives":[
				{
					"attributes":{
						"POSITION":24,
						"NORMAL":25,
						"TEXCOORD_0":26
					},
					"indices":27,
					"material":0
				}
			]
		},
		{
			"name":"Cylinder.005",
			"primitives":[
				{
					"attributes":{
						"POSITION":28,
						"NORMAL":29,
						"TEXCOORD_0":30
					},
					"indices":31,
					"material":0
				}
			]
		}
	],
	"textures":[
		{
			"sampler":0,
			"source":0
		},
		{
			"sampler":0,
			"source":1
		},
		{
			"sampler":0,
			"source":2
		}
	],
	"images":[
		{
			"mimeType":"image/png",
			"name":"Tutshngl",
			"uri":"Tutshngl.png"
		},
		{
			"mimeType":"image/png",
			"name":"Metal7",
			"uri":"Metal7.png"
		},
		{
			"mimeType":"image/png",
			"name":"freeze",
			"uri":"freeze.png"
		}
	],
	"accessors":[
		{
			"bufferView":0,
			"componentType":5126,
			"count":56,
			"max":[
				5.768621921539307,
				-0.6183983087539673,
				3.5713090896606445
			],
			"min":[
				-6.0413923263549805,
				-3.678591012954712,
				-27.00857925415039
			],
			"type":"VEC3"
		},
		{
			"bufferView":1,
			"componentType":5126,
			"count":56,
			"type":"VEC3"
		},
		{
			"bufferView":2,
			"componentType":5126,
			"count":56,
			"type":"VEC2"
		},
		{
			"bufferView":3,
			"componentType":5123,
			"count":84,
			"type":"SCALAR"
		},
		{
			"bufferView":4,
			"componentType":5126,
			"count":56,
			"max":[
				5.615840911865234,
				3.448080062866211,
				-23.36902618408203
			],
			"min":[
				-5.839502334594727,
				-3.5066945552825928,
				-25.913646697998047
			],
			"type":"VEC3"
		},
		{
			"bufferView":5,
			"componentType":5126,
			"count":56,
			"type":"VEC3"
		},
		{
			"bufferView":6,
			"componentType":5126,
			"count":56,
			"type":"VEC2"
		},
		{
			"bufferView":7,
			"componentType":5123,
			"count":96,
			"type":"SCALAR"
		},
		{
			"bufferView":8,
			"componentType":5126,
			"count":1848,
			"max":[
				59.291282653808594,
				-1.0328452587127686,
				9.481254577636719
			],
			"min":[
				-20.432039260864258,
				-56.19586944580078,
				-61.797645568847656
			],
			"type":"VEC3"
		},
		{
			"bufferView":9,
			"componentType":5126,
			"count":1848,
			"type":"VEC3"
		},
		{
			"bufferView":10,
			"componentType":5126,
			"count":1848,
			"type":"VEC2"
		},
		{
			"bufferView":11,
			"componentType":5123,
			"count":10680,
			"type":"SCALAR"
		},
		{
			"bufferView":12,
			"componentType":5126,
			"count":40,
			"max":[
				19.61563491821289,
				-54.981563568115234,
				-48.79724884033203
			],
			"min":[
				-18.30887222290039,
				-69.81356811523438,
				-221.5777587890625
			],
			"type":"VEC3"
		},
		{
			"bufferView":13,
			"componentType":5126,
			"count":40,
			"type":"VEC3"
		},
		{
			"bufferView":14,
			"componentType":5126,
			"count":40,
			"type":"VEC2"
		},
		{
			"bufferView":15,
			"componentType":5123,
			"count":60,
			"type":"SCALAR"
		},
		{
			"bufferView":16,
			"componentType":5126,
			"count":467,
			"max":[
				25.855634689331055,
				25.030603408813477,
				-195.55299377441406
			],
			"min":[
				-40.09691619873047,
				-69.34960174560547,
				-272.8930969238281
			],
			"type":"VEC3"
		},
		{
			"bufferView":17,
			"componentType":5126,
			"count":467,
			"type":"VEC3"
		},
		{
			"bufferView":18,
			"componentType":5126,
			"count":467,
			"type":"VEC2"
		},
		{
			"bufferView":19,
			"componentType":5123,
			"count":1800,
			"type":"SCALAR"
		},
		{
			"bufferView":20,
			"componentType":5126,
			"count":280,
			"max":[
				14.333642959594727,
				-48.9822998046875,
				-258.001953125
			],
			"min":[
				-37.453792572021484,
				-78.64315032958984,
				-423.61871337890625
			],
			"type":"VEC3"
		},
		{
			"bufferView":21,
			"componentType":5126,
			"count":280,
			"type":"VEC3"
		},
		{
			"bufferView":22,
			"componentType":5126,
			"count":280,
			"type":"VEC2"
		},
		{
			"bufferView":23,
			"componentType":5123,
			"count":420,
			"type":"SCALAR"
		},
		{
			"bufferView":24,
			"componentType":5126,
			"count":7040,
			"max":[
				55.40089416503906,
				15.423555374145508,
				-367.29364013671875
			],
			"min":[
				12.151365280151367,
				-82.65337371826172,
				-467.9573974609375
			],
			"type":"VEC3"
		},
		{
			"bufferView":25,
			"componentType":5126,
			"count":7040,
			"type":"VEC3"
		},
		{
			"bufferView":26,
			"componentType":5126,
			"count":7040,
			"type":"VEC2"
		},
		{
			"bufferView":27,
			"componentType":5123,
			"count":10560,
			"type":"SCALAR"
		},
		{
			"bufferView":28,
			"componentType":5126,
			"count":1484,
			"max":[
				11.80782699584961,
				11.826083183288574,
				116.71094512939453
			],
			"min":[
				-11.782405853271484,
				-12.181504249572754,
				-102.1701889038086
			],
			"type":"VEC3"
		},
		{
			"bufferView":29,
			"componentType":5126,
			"count":1484,
			"type":"VEC3"
		},
		{
			"bufferView":30,
			"componentType":5126,
			"count":1484,
			"type":"VEC2"
		},
		{
			"bufferView":31,
			"componentType":5123,
			"count":3492,
			"type":"SCALAR"
		}
	],
	"bufferViews":[
		{
			"buffer":0,
			"byteLength":672,
			"byteOffset":0,
			"target":34962
		},
		{
			"buffer":0,
			"byteLength":672,
			"byteOffset":672,
			"target":34962
		},
		{
			"buffer":0,
			"byteLength":448,
			"byteOffset":1344,
			"target":34962
		},
		{
			"buffer":0,
			"byteLength":168,
			"byteOffset":1792,
			"target":34963
		},
		{
			"buffer":0,
			"byteLength":672,
			"byteOffset":1960,
			"target":34962
		},
		{
			"buffer":0,
			"byteLength":672,
			"byteOffset":2632,
			"target":34962
		},
		{
			"buffer":0,
			"byteLength":448,
			"byteOffset":3304,
			"target":34962
		},
		{
			"buffer":0,
			"byteLength":192,
			"byteOffset":3752,
			"target":34963
		},
		{
			"buffer":0,
			"byteLength":22176,
			"byteOffset":3944,
			"target":34962
		},
		{
			"buffer":0,
			"byteLength":22176,
			"byteOffset":26120,
			"target":34962
		},
		{
			"buffer":0,
			"byteLength":14784,
			"byteOffset":48296,
			"target":34962
		},
		{
			"buffer":0,
			"byteLength":21360,
			"byteOffset":63080,
			"target":34963
		},
		{
			"buffer":0,
			"byteLength":480,
			"byteOffset":84440,
			"target":34962
		},
		{
			"buffer":0,
			"byteLength":480,
			"byteOffset":84920,
			"target":34962
		},
		{
			"buffer":0,
			"byteLength":320,
			"byteOffset":85400,
			"target":34962
		},
		{
			"buffer":0,
			"byteLength":120,
			"byteOffset":85720,
			"target":34963
		},
		{
			"buffer":0,
			"byteLength":5604,
			"byteOffset":85840,
			"target":34962
		},
		{
			"buffer":0,
			"byteLength":5604,
			"byteOffset":91444,
			"target":34962
		},
		{
			"buffer":0,
			"byteLength":3736,
			"byteOffset":97048,
			"target":34962
		},
		{
			"buffer":0,
			"byteLength":3600,
			"byteOffset":100784,
			"target":34963
		},
		{
			"buffer":0,
			"byteLength":3360,
			"byteOffset":104384,
			"target":34962
		},
		{
			"buffer":0,
			"byteLength":3360,
			"byteOffset":107744,
			"target":34962
		},
		{
			"buffer":0,
			"byteLength":2240,
			"byteOffset":111104,
			"target":34962
		},
		{
			"buffer":0,
			"byteLength":840,
			"byteOffset":113344,
			"target":34963
		},
		{
			"buffer":0,
			"byteLength":84480,
			"byteOffset":114184,
			"target":34962
		},
		{
			"buffer":0,
			"byteLength":84480,
			"byteOffset":198664,
			"target":34962
		},
		{
			"buffer":0,
			"byteLength":56320,
			"byteOffset":283144,
			"target":34962
		},
		{
			"buffer":0,
			"byteLength":21120,
			"byteOffset":339464,
			"target":34963
		},
		{
			"buffer":0,
			"byteLength":17808,
			"byteOffset":360584,
			"target":34962
		},
		{
			"buffer":0,
			"byteLength":17808,
			"byteOffset":378392,
			"target":34962
		},
		{
			"buffer":0,
			"byteLength":11872,
			"byteOffset":396200,
			"target":34962
		},
		{
			"buffer":0,
			"byteLength":6984,
			"byteOffset":408072,
			"target":34963
		}
	],
	"samplers":[
		{
			"magFilter":9729,
			"minFilter":9987
		}
	],
	"buffers":[
		{
			"byteLength":415056,
			"uri":"rollercoaster.bin"
		}
	]
}
