{
	"asset":{
		"generator":"Khronos glTF Blender I/O v4.1.63",
		"version":"2.0"
	},
	"scene":0,
	"scenes":[
		{
			"name":"Scene",
			"nodes":[
				0,
				1,
				2,
				3,
				4,
				5,
				6,
				7
			]
		}
	],
	"nodes":[
		{
			"mesh":0,
			"name":"Platform1-col",
			"translation":[
				0.008519496768712997,
				0.2394128441810608,
				-0.047642529010772705
			]
		},
		{
			"mesh":1,
			"name":"gate-col",
			"translation":[
				0.008519496768712997,
				0.2394128441810608,
				-0.047642529010772705
			]
		},
		{
			"mesh":2,
			"name":"Spiral1-col",
			"translation":[
				0.008519496768712997,
				0.2394128441810608,
				-0.047642529010772705
			]
		},
		{
			"mesh":3,
			"name":"plane-col",
			"translation":[
				-0.08962789177894592,
				0.2394128441810608,
				-0.047642529010772705
			]
		},
		{
			"mesh":4,
			"name":"Spiral.002-col",
			"translation":[
				-0.08962789177894592,
				0.2394128441810608,
				-0.047642529010772705
			]
		},
		{
			"mesh":5,
			"name":"plane-col.001",
			"translation":[
				-0.08962789177894592,
				0.2394128441810608,
				-0.047642529010772705
			]
		},
		{
			"mesh":6,
			"name":"cylinder-col",
			"translation":[
				1.758862853050232,
				-0.9657749533653259,
				-19.18104362487793
			]
		},
		{
			"mesh":7,
			"name":"cyl_rotate-col",
			"translation":[
				5.928762435913086,
				-7.999543190002441,
				-77.64785766601562
			]
		}
	],
	"materials":[
		{
			"doubleSided":true,
			"name":"Tutsnhgl",
			"pbrMetallicRoughness":{
				"baseColorTexture":{
					"index":0
				},
				"metallicFactor":0,
				"roughnessFactor":0.5
			}
		},
		{
			"doubleSided":true,
			"name":"Metal",
			"pbrMetallicRoughness":{
				"baseColorTexture":{
					"index":1
				},
				"metallicFactor":0,
				"roughnessFactor":0.5
			}
		},
		{
			"alphaMode":"BLEND",
			"doubleSided":true,
			"name":"Material.003",
			"pbrMetallicRoughness":{
				"baseColorFactor":[
					1,
					1,
					1,
					0.459090918302536
				],
				"baseColorTexture":{
					"index":2
				},
				"metallicFactor":0,
				"roughnessFactor":0.5
			}
		}
	],
	"meshes":[
		{
			"name":"Plane.001",
			"primitives":[
				{
					"attributes":{
						"POSITION":0,
						"NORMAL":1,
						"TEXCOORD_0":2
					},
					"indices":3,
					"material":0
				}
			]
		},
		{
			"name":"Cube.002",
			"primitives":[
				{
					"attributes":{
						"POSITION":4,
						"NORMAL":5,
						"TEXCOORD_0":6
					},
					"indices":7,
					"material":0
				}
			]
		},
		{
			"name":"Spiral.001",
			"primitives":[
				{
					"attributes":{
						"POSITION":8,
						"NORMAL":9,
						"TEXCOORD_0":10
					},
					"indices":11,
					"material":1
				}
			]
		},
		{
			"name":"Plane",
			"primitives":[
				{
					"attributes":{
						"POSITION":12,
						"NORMAL":13,
						"TEXCOORD_0":14
					},
					"indices":15,
					"material":0
				}
			]
		},
		{
			"name":"Spiral.003",
			"primitives":[
				{
					"attributes":{
						"POSITION":16,
						"NORMAL":17,
						"TEXCOORD_0":18
					},
					"indices":19,
					"material":2
				}
			]
		},
		{
			"name":"Plane.002",
			"primitives":[
				{
					"attributes":{
						"POSITION":20,
						"NORMAL":21,
						"TEXCOORD_0":22
					},
					"indices":23,
					"material":0
				}
			]
		},
		{
			"name":"Cylinder",
			"primitives":[
				{
					"attributes":{
						"POSITION":24,
						"NORMAL":25,
						"TEXCOORD_0":26
					},
					"indices":27,
					"material":0
				}
			]
		},
		{
			"name":"Cylinder.005",
			"primitives":[
				{
					"attributes":{
						"POSITION":28,
						"NORMAL":29,
						"TEXCOORD_0":30
					},
					"indices":31,
					"material":0
				}
			]
		}
	],
	"textures":[
		{
			"sampler":0,
			"source":0
		},
		{
			"sampler":0,
			"source":1
		},
		{
			"sampler":0,
			"source":2
		}
	],
	"images":[
		{
			"mimeType":"image/png",
			"name":"Tutshngl",
			"uri":"Tutshngl.png"
		},
		{
			"mimeType":"image/png",
			"name":"Metal7",
			"uri":"Metal7.png"
		},
		{
			"mimeType":"image/png",
			"name":"freeze",
			"uri":"freeze.png"
		}
	],
	"accessors":[
		{
			"bufferView":0,
			"componentType":5126,
			"count":56,
			"max":[
				0.5768623352050781,
				-0.06183984503149986,
				0.3571310043334961
			],
			"min":[
				-0.6041393876075745,
				-0.3678591847419739,
				-2.7008585929870605
			],
			"type":"VEC3"
		},
		{
			"bufferView":1,
			"componentType":5126,
			"count":56,
			"type":"VEC3"
		},
		{
			"bufferView":2,
			"componentType":5126,
			"count":56,
			"type":"VEC2"
		},
		{
			"bufferView":3,
			"componentType":5123,
			"count":84,
			"type":"SCALAR"
		},
		{
			"bufferView":4,
			"componentType":5126,
			"count":56,
			"max":[
				0.5615842342376709,
				0.34480810165405273,
				-2.3369030952453613
			],
			"min":[
				-0.583950400352478,
				-0.3506695330142975,
				-2.591365337371826
			],
			"type":"VEC3"
		},
		{
			"bufferView":5,
			"componentType":5126,
			"count":56,
			"type":"VEC3"
		},
		{
			"bufferView":6,
			"componentType":5126,
			"count":56,
			"type":"VEC2"
		},
		{
			"bufferView":7,
			"componentType":5123,
			"count":96,
			"type":"SCALAR"
		},
		{
			"bufferView":8,
			"componentType":5126,
			"count":1848,
			"max":[
				5.929129600524902,
				-0.103284552693367,
				0.9481256604194641
			],
			"min":[
				-2.0432043075561523,
				-5.619588375091553,
				-6.1797661781311035
			],
			"type":"VEC3"
		},
		{
			"bufferView":9,
			"componentType":5126,
			"count":1848,
			"type":"VEC3"
		},
		{
			"bufferView":10,
			"componentType":5126,
			"count":1848,
			"type":"VEC2"
		},
		{
			"bufferView":11,
			"componentType":5123,
			"count":10680,
			"type":"SCALAR"
		},
		{
			"bufferView":12,
			"componentType":5126,
			"count":40,
			"max":[
				1.9615639448165894,
				-5.498157501220703,
				-4.879725933074951
			],
			"min":[
				-1.8308876752853394,
				-6.981358528137207,
				-22.15778160095215
			],
			"type":"VEC3"
		},
		{
			"bufferView":13,
			"componentType":5126,
			"count":40,
			"type":"VEC3"
		},
		{
			"bufferView":14,
			"componentType":5126,
			"count":40,
			"type":"VEC2"
		},
		{
			"bufferView":15,
			"componentType":5123,
			"count":60,
			"type":"SCALAR"
		},
		{
			"bufferView":16,
			"componentType":5126,
			"count":467,
			"max":[
				2.585564136505127,
				2.503061056137085,
				-19.5553035736084
			],
			"min":[
				-4.009692668914795,
				-6.934961795806885,
				-27.289316177368164
			],
			"type":"VEC3"
		},
		{
			"bufferView":17,
			"componentType":5126,
			"count":467,
			"type":"VEC3"
		},
		{
			"bufferView":18,
			"componentType":5126,
			"count":467,
			"type":"VEC2"
		},
		{
			"bufferView":19,
			"componentType":5123,
			"count":1800,
			"type":"SCALAR"
		},
		{
			"bufferView":20,
			"componentType":5126,
			"count":206,
			"max":[
				1.284123182296753,
				-5.007629871368408,
				-25.800201416015625
			],
			"min":[
				-3.745380163192749,
				-7.864316940307617,
				-42.63027572631836
			],
			"type":"VEC3"
		},
		{
			"bufferView":21,
			"componentType":5126,
			"count":206,
			"type":"VEC3"
		},
		{
			"bufferView":22,
			"componentType":5126,
			"count":206,
			"type":"VEC2"
		},
		{
			"bufferView":23,
			"componentType":5123,
			"count":312,
			"type":"SCALAR"
		},
		{
			"bufferView":24,
			"componentType":5126,
			"count":7040,
			"max":[
				5.540090560913086,
				1.5423558950424194,
				-36.729373931884766
			],
			"min":[
				1.2151367664337158,
				-8.265338897705078,
				-46.79574966430664
			],
			"type":"VEC3"
		},
		{
			"bufferView":25,
			"componentType":5126,
			"count":7040,
			"type":"VEC3"
		},
		{
			"bufferView":26,
			"componentType":5126,
			"count":7040,
			"type":"VEC2"
		},
		{
			"bufferView":27,
			"componentType":5123,
			"count":10560,
			"type":"SCALAR"
		},
		{
			"bufferView":28,
			"componentType":5126,
			"count":1484,
			"max":[
				1.1807830333709717,
				1.1826086044311523,
				11.671097755432129
			],
			"min":[
				-1.1782408952713013,
				-1.2181507349014282,
				-10.217020988464355
			],
			"type":"VEC3"
		},
		{
			"bufferView":29,
			"componentType":5126,
			"count":1484,
			"type":"VEC3"
		},
		{
			"bufferView":30,
			"componentType":5126,
			"count":1484,
			"type":"VEC2"
		},
		{
			"bufferView":31,
			"componentType":5123,
			"count":3492,
			"type":"SCALAR"
		}
	],
	"bufferViews":[
		{
			"buffer":0,
			"byteLength":672,
			"byteOffset":0,
			"target":34962
		},
		{
			"buffer":0,
			"byteLength":672,
			"byteOffset":672,
			"target":34962
		},
		{
			"buffer":0,
			"byteLength":448,
			"byteOffset":1344,
			"target":34962
		},
		{
			"buffer":0,
			"byteLength":168,
			"byteOffset":1792,
			"target":34963
		},
		{
			"buffer":0,
			"byteLength":672,
			"byteOffset":1960,
			"target":34962
		},
		{
			"buffer":0,
			"byteLength":672,
			"byteOffset":2632,
			"target":34962
		},
		{
			"buffer":0,
			"byteLength":448,
			"byteOffset":3304,
			"target":34962
		},
		{
			"buffer":0,
			"byteLength":192,
			"byteOffset":3752,
			"target":34963
		},
		{
			"buffer":0,
			"byteLength":22176,
			"byteOffset":3944,
			"target":34962
		},
		{
			"buffer":0,
			"byteLength":22176,
			"byteOffset":26120,
			"target":34962
		},
		{
			"buffer":0,
			"byteLength":14784,
			"byteOffset":48296,
			"target":34962
		},
		{
			"buffer":0,
			"byteLength":21360,
			"byteOffset":63080,
			"target":34963
		},
		{
			"buffer":0,
			"byteLength":480,
			"byteOffset":84440,
			"target":34962
		},
		{
			"buffer":0,
			"byteLength":480,
			"byteOffset":84920,
			"target":34962
		},
		{
			"buffer":0,
			"byteLength":320,
			"byteOffset":85400,
			"target":34962
		},
		{
			"buffer":0,
			"byteLength":120,
			"byteOffset":85720,
			"target":34963
		},
		{
			"buffer":0,
			"byteLength":5604,
			"byteOffset":85840,
			"target":34962
		},
		{
			"buffer":0,
			"byteLength":5604,
			"byteOffset":91444,
			"target":34962
		},
		{
			"buffer":0,
			"byteLength":3736,
			"byteOffset":97048,
			"target":34962
		},
		{
			"buffer":0,
			"byteLength":3600,
			"byteOffset":100784,
			"target":34963
		},
		{
			"buffer":0,
			"byteLength":2472,
			"byteOffset":104384,
			"target":34962
		},
		{
			"buffer":0,
			"byteLength":2472,
			"byteOffset":106856,
			"target":34962
		},
		{
			"buffer":0,
			"byteLength":1648,
			"byteOffset":109328,
			"target":34962
		},
		{
			"buffer":0,
			"byteLength":624,
			"byteOffset":110976,
			"target":34963
		},
		{
			"buffer":0,
			"byteLength":84480,
			"byteOffset":111600,
			"target":34962
		},
		{
			"buffer":0,
			"byteLength":84480,
			"byteOffset":196080,
			"target":34962
		},
		{
			"buffer":0,
			"byteLength":56320,
			"byteOffset":280560,
			"target":34962
		},
		{
			"buffer":0,
			"byteLength":21120,
			"byteOffset":336880,
			"target":34963
		},
		{
			"buffer":0,
			"byteLength":17808,
			"byteOffset":358000,
			"target":34962
		},
		{
			"buffer":0,
			"byteLength":17808,
			"byteOffset":375808,
			"target":34962
		},
		{
			"buffer":0,
			"byteLength":11872,
			"byteOffset":393616,
			"target":34962
		},
		{
			"buffer":0,
			"byteLength":6984,
			"byteOffset":405488,
			"target":34963
		}
	],
	"samplers":[
		{
			"magFilter":9729,
			"minFilter":9987
		}
	],
	"buffers":[
		{
			"byteLength":412472,
			"uri":"rollercoaster.bin"
		}
	]
}
