{
	"asset":{
		"generator":"Khronos glTF Blender I/O v3.6.28",
		"version":"2.0"
	},
	"extensionsUsed":[
		"KHR_materials_specular",
		"KHR_materials_ior"
	],
	"scene":0,
	"scenes":[
		{
			"name":"Scene",
			"nodes":[
				0,
				1,
				2,
				3,
				4,
				5,
				6,
				7,
				8,
				9,
				10
			]
		}
	],
	"nodes":[
		{
			"mesh":0,
			"name":"Cube-col",
			"translation":[
				-1.6916835308074951,
				0.26207950711250305,
				-2.974717140197754
			]
		},
		{
			"mesh":1,
			"name":"Cube.001-col",
			"rotation":[
				-0.5,
				-0.4999999403953552,
				0.5,
				0.5000000596046448
			],
			"translation":[
				-4.274806022644043,
				0.26207950711250305,
				-4.460719108581543
			]
		},
		{
			"mesh":2,
			"name":"Plane-col-col",
			"translation":[
				-1.0409648418426514,
				-0.18778297305107117,
				3.17195987701416
			]
		},
		{
			"mesh":3,
			"name":"Circle-col",
			"rotation":[
				0,
				0.13052619993686676,
				0,
				0.9914448857307434
			],
			"translation":[
				-7.137946128845215,
				-0.18778297305107117,
				3.480727195739746
			]
		},
		{
			"mesh":4,
			"name":"Plane.001-col",
			"translation":[
				-18.265092849731445,
				0.36765506863594055,
				3.29781436920166
			]
		},
		{
			"mesh":5,
			"name":"sphere-col",
			"translation":[
				-0.03190875053405762,
				-0.3344862163066864,
				-3.232020378112793
			]
		},
		{
			"mesh":6,
			"name":"Sphere",
			"translation":[
				-17.630998611450195,
				0.6938459873199463,
				9.065346717834473
			]
		},
		{
			"mesh":7,
			"name":"Cylinder-col",
			"translation":[
				-7.094546318054199,
				0.8676550388336182,
				3.4900293350219727
			]
		},
		{
			"mesh":8,
			"name":"Cylinder-col.001",
			"translation":[
				-0.9958092570304871,
				0.8676550388336182,
				4.705360412597656
			]
		},
		{
			"mesh":9,
			"name":"light",
			"rotation":[
				0.0221556443721056,
				0.06955926865339279,
				-0.41236376762390137,
				0.9080896377563477
			],
			"translation":[
				-7.222868919372559,
				1.6126773357391357,
				3.485356330871582
			]
		},
		{
			"mesh":10,
			"name":"Guard",
			"scale":[
				0.25919556617736816,
				0.25919556617736816,
				0.25919556617736816
			],
			"translation":[
				0.08017567545175552,
				0.3848779499530792,
				5.716649055480957
			]
		}
	],
	"animations":[
		{
			"channels":[
				{
					"sampler":0,
					"target":{
						"node":10,
						"path":"translation"
					}
				},
				{
					"sampler":1,
					"target":{
						"node":10,
						"path":"rotation"
					}
				}
			],
			"name":"CubeAction-loop",
			"samplers":[
				{
					"input":47,
					"interpolation":"LINEAR",
					"output":48
				},
				{
					"input":47,
					"interpolation":"LINEAR",
					"output":49
				}
			]
		}
	],
	"materials":[
		{
			"extensions":{
				"KHR_materials_specular":{
					"specularColorFactor":[
						0,
						0,
						0
					]
				},
				"KHR_materials_ior":{
					"ior":1.4500000476837158
				}
			},
			"name":"stone",
			"pbrMetallicRoughness":{
				"baseColorTexture":{
					"index":0
				},
				"metallicFactor":0,
				"roughnessFactor":0.5
			}
		},
		{
			"extensions":{
				"KHR_materials_specular":{
					"specularColorFactor":[
						0,
						0,
						0
					]
				},
				"KHR_materials_ior":{
					"ior":1.4500000476837158
				}
			},
			"name":"Material",
			"pbrMetallicRoughness":{
				"baseColorTexture":{
					"index":1
				},
				"metallicFactor":0,
				"roughnessFactor":0.5
			}
		},
		{
			"doubleSided":true,
			"name":"1ball",
			"pbrMetallicRoughness":{
				"baseColorTexture":{
					"index":2
				},
				"metallicFactor":0,
				"roughnessFactor":0.5
			}
		},
		{
			"alphaMode":"BLEND",
			"doubleSided":true,
			"emissiveFactor":[
				0.20000000298023224,
				0.16766748678188748,
				0.17217319268246278
			],
			"extensions":{
				"KHR_materials_specular":{
					"specularColorFactor":[
						0,
						0,
						0
					]
				}
			},
			"name":"Material.002",
			"pbrMetallicRoughness":{
				"baseColorFactor":[
					0.8020891547203064,
					0.14894773066043854,
					0.5520668625831604,
					0.24550896883010864
				],
				"metallicFactor":0,
				"roughnessFactor":0
			}
		},
		{
			"doubleSided":true,
			"name":"Material.005",
			"pbrMetallicRoughness":{
				"baseColorTexture":{
					"index":3
				},
				"metallicFactor":0,
				"roughnessFactor":0.5
			}
		},
		{
			"alphaMode":"BLEND",
			"doubleSided":true,
			"emissiveFactor":[
				0.00833859946578741,
				0.45305755734443665,
				0.5
			],
			"name":"Material.001",
			"pbrMetallicRoughness":{
				"baseColorFactor":[
					1,
					1,
					1,
					0.3854748606681824
				],
				"baseColorTexture":{
					"index":4
				},
				"metallicFactor":0,
				"roughnessFactor":0.5
			}
		}
	],
	"meshes":[
		{
			"name":"Cube",
			"primitives":[
				{
					"attributes":{
						"POSITION":0,
						"NORMAL":1,
						"TEXCOORD_0":2
					},
					"indices":3,
					"material":0
				},
				{
					"attributes":{
						"POSITION":4,
						"NORMAL":5,
						"TEXCOORD_0":6
					},
					"indices":7,
					"material":0
				}
			]
		},
		{
			"name":"Cube.002",
			"primitives":[
				{
					"attributes":{
						"POSITION":8,
						"NORMAL":9,
						"TEXCOORD_0":10
					},
					"indices":11,
					"material":0
				}
			]
		},
		{
			"name":"Plane",
			"primitives":[
				{
					"attributes":{
						"POSITION":12,
						"NORMAL":13,
						"TEXCOORD_0":14
					},
					"indices":15,
					"material":0
				}
			]
		},
		{
			"name":"Circle",
			"primitives":[
				{
					"attributes":{
						"POSITION":16,
						"NORMAL":17,
						"TEXCOORD_0":18
					},
					"indices":19,
					"material":0
				}
			]
		},
		{
			"name":"Plane.001",
			"primitives":[
				{
					"attributes":{
						"POSITION":20,
						"NORMAL":21,
						"TEXCOORD_0":22
					},
					"indices":23,
					"material":1
				}
			]
		},
		{
			"name":"Sphere",
			"primitives":[
				{
					"attributes":{
						"POSITION":24,
						"NORMAL":25,
						"TEXCOORD_0":26
					},
					"indices":27,
					"material":2
				}
			]
		},
		{
			"name":"Sphere.001",
			"primitives":[
				{
					"attributes":{
						"POSITION":28,
						"NORMAL":29,
						"TEXCOORD_0":30
					},
					"indices":31,
					"material":3
				}
			]
		},
		{
			"name":"Cylinder",
			"primitives":[
				{
					"attributes":{
						"POSITION":32,
						"NORMAL":33,
						"TEXCOORD_0":34
					},
					"indices":35,
					"material":4
				}
			]
		},
		{
			"name":"Cylinder.001",
			"primitives":[
				{
					"attributes":{
						"POSITION":36,
						"NORMAL":37,
						"TEXCOORD_0":38
					},
					"indices":35,
					"material":4
				}
			]
		},
		{
			"name":"Cone",
			"primitives":[
				{
					"attributes":{
						"POSITION":39,
						"NORMAL":40,
						"TEXCOORD_0":41
					},
					"indices":42,
					"material":3
				}
			]
		},
		{
			"name":"Cube.001",
			"primitives":[
				{
					"attributes":{
						"POSITION":43,
						"NORMAL":44,
						"TEXCOORD_0":45
					},
					"indices":46,
					"material":5
				}
			]
		}
	],
	"textures":[
		{
			"sampler":0,
			"source":0
		},
		{
			"sampler":0,
			"source":1
		},
		{
			"sampler":0,
			"source":2
		},
		{
			"sampler":0,
			"source":3
		},
		{
			"sampler":0,
			"source":4
		}
	],
	"images":[
		{
			"mimeType":"image/png",
			"name":"stone",
			"uri":"stone.png"
		},
		{
			"mimeType":"image/png",
			"name":"KIVI",
			"uri":"KIVI.png"
		},
		{
			"mimeType":"image/png",
			"name":"1ball",
			"uri":"1ball.png"
		},
		{
			"mimeType":"image/png",
			"name":"Tutshngl",
			"uri":"Tutshngl.png"
		},
		{
			"mimeType":"image/png",
			"name":"Metal7",
			"uri":"Metal7.png"
		}
	],
	"accessors":[
		{
			"bufferView":0,
			"componentType":5126,
			"count":259,
			"max":[
				2.238565444946289,
				0.10557546466588974,
				3.296074628829956
			],
			"min":[
				-1.5028878450393677,
				-0.44986265897750854,
				-3.462758779525757
			],
			"type":"VEC3"
		},
		{
			"bufferView":1,
			"componentType":5126,
			"count":259,
			"type":"VEC3"
		},
		{
			"bufferView":2,
			"componentType":5126,
			"count":259,
			"type":"VEC2"
		},
		{
			"bufferView":3,
			"componentType":5123,
			"count":525,
			"type":"SCALAR"
		},
		{
			"bufferView":4,
			"componentType":5126,
			"count":13,
			"max":[
				2.238565444946289,
				0.10557546466588974,
				2.0837013721466064
			],
			"min":[
				1.0481723546981812,
				-0.27839362621307373,
				-0.9776931405067444
			],
			"type":"VEC3"
		},
		{
			"bufferView":5,
			"componentType":5126,
			"count":13,
			"type":"VEC3"
		},
		{
			"bufferView":6,
			"componentType":5126,
			"count":13,
			"type":"VEC2"
		},
		{
			"bufferView":7,
			"componentType":5123,
			"count":21,
			"type":"SCALAR"
		},
		{
			"bufferView":8,
			"componentType":5126,
			"count":216,
			"max":[
				0.716718316078186,
				2.8394949436187744,
				0.02190612629055977
			],
			"min":[
				-0.44986236095428467,
				-2.7769880261985236e-07,
				-5.992466449737549
			],
			"type":"VEC3"
		},
		{
			"bufferView":9,
			"componentType":5126,
			"count":216,
			"type":"VEC3"
		},
		{
			"bufferView":10,
			"componentType":5126,
			"count":216,
			"type":"VEC2"
		},
		{
			"bufferView":11,
			"componentType":5123,
			"count":420,
			"type":"SCALAR"
		},
		{
			"bufferView":12,
			"componentType":5126,
			"count":40,
			"max":[
				1.5878398418426514,
				0.5554381608963013,
				2.8908162117004395
			],
			"min":[
				-2.153613567352295,
				0,
				-2.7584283351898193
			],
			"type":"VEC3"
		},
		{
			"bufferView":13,
			"componentType":5126,
			"count":40,
			"type":"VEC3"
		},
		{
			"bufferView":14,
			"componentType":5126,
			"count":40,
			"type":"VEC2"
		},
		{
			"bufferView":15,
			"componentType":5123,
			"count":72,
			"type":"SCALAR"
		},
		{
			"bufferView":16,
			"componentType":5126,
			"count":72,
			"max":[
				2.9417526721954346,
				0.5554381012916565,
				2.9417526721954346
			],
			"min":[
				-2.9417526721954346,
				0,
				-2.9417526721954346
			],
			"type":"VEC3"
		},
		{
			"bufferView":17,
			"componentType":5126,
			"count":72,
			"type":"VEC3"
		},
		{
			"bufferView":18,
			"componentType":5126,
			"count":72,
			"type":"VEC2"
		},
		{
			"bufferView":19,
			"componentType":5123,
			"count":132,
			"type":"SCALAR"
		},
		{
			"bufferView":20,
			"componentType":5126,
			"count":282,
			"max":[
				5.373391151428223,
				0.3261910080909729,
				8.143179893493652
			],
			"min":[
				-9.53616714477539,
				-0.5554379820823669,
				-7.453491687774658
			],
			"type":"VEC3"
		},
		{
			"bufferView":21,
			"componentType":5126,
			"count":282,
			"type":"VEC3"
		},
		{
			"bufferView":22,
			"componentType":5126,
			"count":282,
			"type":"VEC2"
		},
		{
			"bufferView":23,
			"componentType":5123,
			"count":564,
			"type":"SCALAR"
		},
		{
			"bufferView":24,
			"componentType":5126,
			"count":480,
			"max":[
				0.4266991913318634,
				0.4048190414905548,
				0.42669904232025146
			],
			"min":[
				-0.4266989231109619,
				0.3181726634502411,
				-0.42669928073883057
			],
			"type":"VEC3"
		},
		{
			"bufferView":25,
			"componentType":5126,
			"count":480,
			"type":"VEC3"
		},
		{
			"bufferView":26,
			"componentType":5126,
			"count":480,
			"type":"VEC2"
		},
		{
			"bufferView":27,
			"componentType":5123,
			"count":672,
			"type":"SCALAR"
		},
		{
			"bufferView":28,
			"componentType":5126,
			"count":992,
			"max":[
				1.9999998807907104,
				2.000000476837158,
				1.999999761581421
			],
			"min":[
				-1.9999995231628418,
				0,
				-1.9999992847442627
			],
			"type":"VEC3"
		},
		{
			"bufferView":29,
			"componentType":5126,
			"count":992,
			"type":"VEC3"
		},
		{
			"bufferView":30,
			"componentType":5126,
			"count":992,
			"type":"VEC2"
		},
		{
			"bufferView":31,
			"componentType":5123,
			"count":1440,
			"type":"SCALAR"
		},
		{
			"bufferView":32,
			"componentType":5126,
			"count":576,
			"max":[
				0.2529265880584717,
				0.735123872756958,
				0.2529265582561493
			],
			"min":[
				-0.2529265284538269,
				-0.5000001192092896,
				-0.2529265582561493
			],
			"type":"VEC3"
		},
		{
			"bufferView":33,
			"componentType":5126,
			"count":576,
			"type":"VEC3"
		},
		{
			"bufferView":34,
			"componentType":5126,
			"count":576,
			"type":"VEC2"
		},
		{
			"bufferView":35,
			"componentType":5123,
			"count":948,
			"type":"SCALAR"
		},
		{
			"bufferView":36,
			"componentType":5126,
			"count":576,
			"max":[
				0.2529265880584717,
				0.735123872756958,
				0.2529265582561493
			],
			"min":[
				-0.2529265284538269,
				-0.5000001192092896,
				-0.2529265582561493
			],
			"type":"VEC3"
		},
		{
			"bufferView":37,
			"componentType":5126,
			"count":576,
			"type":"VEC3"
		},
		{
			"bufferView":38,
			"componentType":5126,
			"count":576,
			"type":"VEC2"
		},
		{
			"bufferView":39,
			"componentType":5126,
			"count":192,
			"max":[
				0.5318828821182251,
				0.015438500791788101,
				0.9681355953216553
			],
			"min":[
				-0.796511173248291,
				-2.794273853302002,
				-1.0206284523010254
			],
			"type":"VEC3"
		},
		{
			"bufferView":40,
			"componentType":5126,
			"count":192,
			"type":"VEC3"
		},
		{
			"bufferView":41,
			"componentType":5126,
			"count":192,
			"type":"VEC2"
		},
		{
			"bufferView":42,
			"componentType":5123,
			"count":372,
			"type":"SCALAR"
		},
		{
			"bufferView":43,
			"componentType":5126,
			"count":16,
			"max":[
				1.0181423425674438,
				1.197160243988037,
				0.3691348731517792
			],
			"min":[
				-1.0321016311645508,
				-0.06870117783546448,
				-2.654118299484253
			],
			"type":"VEC3"
		},
		{
			"bufferView":44,
			"componentType":5126,
			"count":16,
			"type":"VEC3"
		},
		{
			"bufferView":45,
			"componentType":5126,
			"count":16,
			"type":"VEC2"
		},
		{
			"bufferView":46,
			"componentType":5123,
			"count":18,
			"type":"SCALAR"
		},
		{
			"bufferView":47,
			"componentType":5126,
			"count":351,
			"max":[
				14.583333333333334
			],
			"min":[
				0
			],
			"type":"SCALAR"
		},
		{
			"bufferView":48,
			"componentType":5126,
			"count":351,
			"type":"VEC3"
		},
		{
			"bufferView":49,
			"componentType":5126,
			"count":351,
			"type":"VEC4"
		}
	],
	"bufferViews":[
		{
			"buffer":0,
			"byteLength":3108,
			"byteOffset":0,
			"target":34962
		},
		{
			"buffer":0,
			"byteLength":3108,
			"byteOffset":3108,
			"target":34962
		},
		{
			"buffer":0,
			"byteLength":2072,
			"byteOffset":6216,
			"target":34962
		},
		{
			"buffer":0,
			"byteLength":1050,
			"byteOffset":8288,
			"target":34963
		},
		{
			"buffer":0,
			"byteLength":156,
			"byteOffset":9340,
			"target":34962
		},
		{
			"buffer":0,
			"byteLength":156,
			"byteOffset":9496,
			"target":34962
		},
		{
			"buffer":0,
			"byteLength":104,
			"byteOffset":9652,
			"target":34962
		},
		{
			"buffer":0,
			"byteLength":42,
			"byteOffset":9756,
			"target":34963
		},
		{
			"buffer":0,
			"byteLength":2592,
			"byteOffset":9800,
			"target":34962
		},
		{
			"buffer":0,
			"byteLength":2592,
			"byteOffset":12392,
			"target":34962
		},
		{
			"buffer":0,
			"byteLength":1728,
			"byteOffset":14984,
			"target":34962
		},
		{
			"buffer":0,
			"byteLength":840,
			"byteOffset":16712,
			"target":34963
		},
		{
			"buffer":0,
			"byteLength":480,
			"byteOffset":17552,
			"target":34962
		},
		{
			"buffer":0,
			"byteLength":480,
			"byteOffset":18032,
			"target":34962
		},
		{
			"buffer":0,
			"byteLength":320,
			"byteOffset":18512,
			"target":34962
		},
		{
			"buffer":0,
			"byteLength":144,
			"byteOffset":18832,
			"target":34963
		},
		{
			"buffer":0,
			"byteLength":864,
			"byteOffset":18976,
			"target":34962
		},
		{
			"buffer":0,
			"byteLength":864,
			"byteOffset":19840,
			"target":34962
		},
		{
			"buffer":0,
			"byteLength":576,
			"byteOffset":20704,
			"target":34962
		},
		{
			"buffer":0,
			"byteLength":264,
			"byteOffset":21280,
			"target":34963
		},
		{
			"buffer":0,
			"byteLength":3384,
			"byteOffset":21544,
			"target":34962
		},
		{
			"buffer":0,
			"byteLength":3384,
			"byteOffset":24928,
			"target":34962
		},
		{
			"buffer":0,
			"byteLength":2256,
			"byteOffset":28312,
			"target":34962
		},
		{
			"buffer":0,
			"byteLength":1128,
			"byteOffset":30568,
			"target":34963
		},
		{
			"buffer":0,
			"byteLength":5760,
			"byteOffset":31696,
			"target":34962
		},
		{
			"buffer":0,
			"byteLength":5760,
			"byteOffset":37456,
			"target":34962
		},
		{
			"buffer":0,
			"byteLength":3840,
			"byteOffset":43216,
			"target":34962
		},
		{
			"buffer":0,
			"byteLength":1344,
			"byteOffset":47056,
			"target":34963
		},
		{
			"buffer":0,
			"byteLength":11904,
			"byteOffset":48400,
			"target":34962
		},
		{
			"buffer":0,
			"byteLength":11904,
			"byteOffset":60304,
			"target":34962
		},
		{
			"buffer":0,
			"byteLength":7936,
			"byteOffset":72208,
			"target":34962
		},
		{
			"buffer":0,
			"byteLength":2880,
			"byteOffset":80144,
			"target":34963
		},
		{
			"buffer":0,
			"byteLength":6912,
			"byteOffset":83024,
			"target":34962
		},
		{
			"buffer":0,
			"byteLength":6912,
			"byteOffset":89936,
			"target":34962
		},
		{
			"buffer":0,
			"byteLength":4608,
			"byteOffset":96848,
			"target":34962
		},
		{
			"buffer":0,
			"byteLength":1896,
			"byteOffset":101456,
			"target":34963
		},
		{
			"buffer":0,
			"byteLength":6912,
			"byteOffset":103352,
			"target":34962
		},
		{
			"buffer":0,
			"byteLength":6912,
			"byteOffset":110264,
			"target":34962
		},
		{
			"buffer":0,
			"byteLength":4608,
			"byteOffset":117176,
			"target":34962
		},
		{
			"buffer":0,
			"byteLength":2304,
			"byteOffset":121784,
			"target":34962
		},
		{
			"buffer":0,
			"byteLength":2304,
			"byteOffset":124088,
			"target":34962
		},
		{
			"buffer":0,
			"byteLength":1536,
			"byteOffset":126392,
			"target":34962
		},
		{
			"buffer":0,
			"byteLength":744,
			"byteOffset":127928,
			"target":34963
		},
		{
			"buffer":0,
			"byteLength":192,
			"byteOffset":128672,
			"target":34962
		},
		{
			"buffer":0,
			"byteLength":192,
			"byteOffset":128864,
			"target":34962
		},
		{
			"buffer":0,
			"byteLength":128,
			"byteOffset":129056,
			"target":34962
		},
		{
			"buffer":0,
			"byteLength":36,
			"byteOffset":129184,
			"target":34963
		},
		{
			"buffer":0,
			"byteLength":1404,
			"byteOffset":129220
		},
		{
			"buffer":0,
			"byteLength":4212,
			"byteOffset":130624
		},
		{
			"buffer":0,
			"byteLength":5616,
			"byteOffset":134836
		}
	],
	"samplers":[
		{
			"magFilter":9729,
			"minFilter":9987
		}
	],
	"buffers":[
		{
			"byteLength":140452,
			"uri":"trapped.bin"
		}
	]
}
