{
	"asset":{
		"generator":"Khronos glTF Blender I/O v4.1.63",
		"version":"2.0"
	},
	"extensionsUsed":[
		"KHR_materials_specular",
		"KHR_materials_ior"
	],
	"scene":0,
	"scenes":[
		{
			"name":"Scene",
			"nodes":[
				0,
				1,
				2,
				3,
				4,
				5,
				6,
				7,
				8,
				9,
				10
			]
		}
	],
	"nodes":[
		{
			"mesh":0,
			"name":"Cube-col",
			"scale":[
				2.140079975128174,
				2.140079975128174,
				2.140079975128174
			],
			"translation":[
				-16.76390266418457,
				2.0779919624328613,
				-28.830995559692383
			]
		},
		{
			"mesh":1,
			"name":"Cube.001-col",
			"rotation":[
				-0.5,
				-0.4999999403953552,
				0.5,
				0.5000000596046448
			],
			"scale":[
				2.140079975128174,
				2.140079975128174,
				2.140079975128174
			],
			"translation":[
				-42.595115661621094,
				2.0779919624328613,
				-43.691036224365234
			]
		},
		{
			"mesh":2,
			"name":"Plane-col-col",
			"scale":[
				2.140079975128174,
				2.140079975128174,
				2.140079975128174
			],
			"translation":[
				-10.256643295288086,
				-2.4206337928771973,
				32.635746002197266
			]
		},
		{
			"mesh":3,
			"name":"Circle-col",
			"rotation":[
				0,
				0.13052618503570557,
				0,
				0.9914448857307434
			],
			"scale":[
				2.7113685607910156,
				2.140079975128174,
				2.7113685607910156
			],
			"translation":[
				-71.22651672363281,
				-2.4206337928771973,
				35.72341537475586
			]
		},
		{
			"mesh":4,
			"name":"Plane.001-col",
			"scale":[
				2.140079975128174,
				2.140079975128174,
				2.140079975128174
			],
			"translation":[
				-182.49798583984375,
				3.1337454319000244,
				33.8942985534668
			]
		},
		{
			"mesh":5,
			"name":"sphere-col",
			"scale":[
				1.323341727256775,
				0.9867632389068604,
				1.323341727256775
			],
			"translation":[
				-0.16611981391906738,
				-3.887669563293457,
				-31.40402603149414
			]
		},
		{
			"mesh":6,
			"name":"Sphere",
			"translation":[
				-176.15704345703125,
				6.395654678344727,
				91.56962585449219
			]
		},
		{
			"mesh":7,
			"name":"Cylinder-col",
			"translation":[
				-70.79251098632812,
				8.133746147155762,
				35.816436767578125
			]
		},
		{
			"mesh":8,
			"name":"Cylinder-col.001",
			"translation":[
				-6.420316696166992,
				8.133746147155762,
				52.183021545410156
			]
		},
		{
			"mesh":9,
			"name":"light",
			"rotation":[
				0.0221556443721056,
				0.06955926865339279,
				-0.41236376762390137,
				0.9080896377563477
			],
			"translation":[
				-72.07571411132812,
				15.583964347839355,
				35.76970291137695
			]
		},
		{
			"mesh":10,
			"name":"light.001",
			"rotation":[
				0.26832467317581177,
				-0.4969349801540375,
				-0.31390535831451416,
				0.7632306218147278
			],
			"translation":[
				-7.0228271484375,
				15.81351375579834,
				50.58534622192383
			]
		}
	],
	"materials":[
		{
			"extensions":{
				"KHR_materials_specular":{
					"specularFactor":0
				},
				"KHR_materials_ior":{
					"ior":1.4500000476837158
				}
			},
			"name":"stone",
			"pbrMetallicRoughness":{
				"baseColorTexture":{
					"index":0
				},
				"metallicFactor":0,
				"roughnessFactor":0.5
			}
		},
		{
			"extensions":{
				"KHR_materials_specular":{
					"specularFactor":0
				},
				"KHR_materials_ior":{
					"ior":1.4500000476837158
				}
			},
			"name":"Material",
			"pbrMetallicRoughness":{
				"baseColorTexture":{
					"index":1
				},
				"metallicFactor":0,
				"roughnessFactor":0.5
			}
		},
		{
			"doubleSided":true,
			"name":"1ball",
			"pbrMetallicRoughness":{
				"baseColorTexture":{
					"index":2
				},
				"metallicFactor":0,
				"roughnessFactor":0.5
			}
		},
		{
			"alphaMode":"BLEND",
			"doubleSided":true,
			"emissiveFactor":[
				0.6000020503997803,
				0.5030041717772065,
				0.5165213354700029
			],
			"extensions":{
				"KHR_materials_specular":{
					"specularFactor":0
				}
			},
			"name":"Material.002",
			"pbrMetallicRoughness":{
				"baseColorFactor":[
					0.8020891547203064,
					0.14894773066043854,
					0.5520668625831604,
					0.24550896883010864
				],
				"metallicFactor":0,
				"roughnessFactor":0
			}
		},
		{
			"doubleSided":true,
			"name":"Material.004",
			"pbrMetallicRoughness":{
				"metallicFactor":0,
				"roughnessFactor":0.5
			}
		},
		{
			"doubleSided":true,
			"name":"Material.005",
			"pbrMetallicRoughness":{
				"metallicFactor":0,
				"roughnessFactor":0.5
			}
		}
	],
	"meshes":[
		{
			"name":"Cube",
			"primitives":[
				{
					"attributes":{
						"POSITION":0,
						"NORMAL":1,
						"TEXCOORD_0":2
					},
					"indices":3,
					"material":0
				},
				{
					"attributes":{
						"POSITION":4,
						"NORMAL":5,
						"TEXCOORD_0":6
					},
					"indices":7,
					"material":0
				}
			]
		},
		{
			"name":"Cube.002",
			"primitives":[
				{
					"attributes":{
						"POSITION":8,
						"NORMAL":9,
						"TEXCOORD_0":10
					},
					"indices":11,
					"material":0
				}
			]
		},
		{
			"name":"Plane",
			"primitives":[
				{
					"attributes":{
						"POSITION":12,
						"NORMAL":13,
						"TEXCOORD_0":14
					},
					"indices":15,
					"material":0
				}
			]
		},
		{
			"name":"Circle",
			"primitives":[
				{
					"attributes":{
						"POSITION":16,
						"NORMAL":17,
						"TEXCOORD_0":18
					},
					"indices":19,
					"material":0
				}
			]
		},
		{
			"name":"Plane.001",
			"primitives":[
				{
					"attributes":{
						"POSITION":20,
						"NORMAL":21,
						"TEXCOORD_0":22
					},
					"indices":23,
					"material":1
				}
			]
		},
		{
			"name":"Sphere",
			"primitives":[
				{
					"attributes":{
						"POSITION":24,
						"NORMAL":25,
						"TEXCOORD_0":26
					},
					"indices":27,
					"material":2
				}
			]
		},
		{
			"name":"Sphere.001",
			"primitives":[
				{
					"attributes":{
						"POSITION":28,
						"NORMAL":29,
						"TEXCOORD_0":30
					},
					"indices":31,
					"material":3
				}
			]
		},
		{
			"name":"Cylinder",
			"primitives":[
				{
					"attributes":{
						"POSITION":32,
						"NORMAL":33,
						"TEXCOORD_0":34
					},
					"indices":35,
					"material":4
				}
			]
		},
		{
			"name":"Cylinder.001",
			"primitives":[
				{
					"attributes":{
						"POSITION":36,
						"NORMAL":37,
						"TEXCOORD_0":38
					},
					"indices":35,
					"material":5
				}
			]
		},
		{
			"name":"Cone",
			"primitives":[
				{
					"attributes":{
						"POSITION":39,
						"NORMAL":40,
						"TEXCOORD_0":41
					},
					"indices":42,
					"material":3
				}
			]
		},
		{
			"name":"Cone.001",
			"primitives":[
				{
					"attributes":{
						"POSITION":43,
						"NORMAL":44,
						"TEXCOORD_0":45
					},
					"indices":42,
					"material":3
				}
			]
		}
	],
	"textures":[
		{
			"sampler":0,
			"source":0
		},
		{
			"sampler":0,
			"source":1
		},
		{
			"sampler":0,
			"source":2
		}
	],
	"images":[
		{
			"mimeType":"image/png",
			"name":"stone",
			"uri":"stone.png"
		},
		{
			"mimeType":"image/png",
			"name":"KIVI",
			"uri":"KIVI.png"
		},
		{
			"mimeType":"image/png",
			"name":"1ball",
			"uri":"1ball.png"
		}
	],
	"accessors":[
		{
			"bufferView":0,
			"componentType":5126,
			"count":259,
			"max":[
				10.460192680358887,
				0.49332475662231445,
				15.401638984680176
			],
			"min":[
				-7.022576332092285,
				-2.1020829677581787,
				-16.18050765991211
			],
			"type":"VEC3"
		},
		{
			"bufferView":1,
			"componentType":5126,
			"count":259,
			"type":"VEC3"
		},
		{
			"bufferView":2,
			"componentType":5126,
			"count":259,
			"type":"VEC2"
		},
		{
			"bufferView":3,
			"componentType":5123,
			"count":525,
			"type":"SCALAR"
		},
		{
			"bufferView":4,
			"componentType":5126,
			"count":13,
			"max":[
				10.460192680358887,
				0.49332472681999207,
				9.736556053161621
			],
			"min":[
				4.897817611694336,
				-1.3008558750152588,
				-4.568487644195557
			],
			"type":"VEC3"
		},
		{
			"bufferView":5,
			"componentType":5126,
			"count":13,
			"type":"VEC3"
		},
		{
			"bufferView":6,
			"componentType":5126,
			"count":13,
			"type":"VEC2"
		},
		{
			"bufferView":7,
			"componentType":5123,
			"count":21,
			"type":"SCALAR"
		},
		{
			"bufferView":8,
			"componentType":5126,
			"count":216,
			"max":[
				3.349025011062622,
				13.268169403076172,
				0.10236122459173203
			],
			"min":[
				-2.102081537246704,
				-1.2976091738892137e-06,
				-28.001127243041992
			],
			"type":"VEC3"
		},
		{
			"bufferView":9,
			"componentType":5126,
			"count":216,
			"type":"VEC3"
		},
		{
			"bufferView":10,
			"componentType":5126,
			"count":216,
			"type":"VEC2"
		},
		{
			"bufferView":11,
			"componentType":5123,
			"count":420,
			"type":"SCALAR"
		},
		{
			"bufferView":12,
			"componentType":5126,
			"count":40,
			"max":[
				7.4195332527160645,
				2.595407724380493,
				13.507979393005371
			],
			"min":[
				-10.063236236572266,
				0,
				-12.88936710357666
			],
			"type":"VEC3"
		},
		{
			"bufferView":13,
			"componentType":5126,
			"count":40,
			"type":"VEC3"
		},
		{
			"bufferView":14,
			"componentType":5126,
			"count":40,
			"type":"VEC2"
		},
		{
			"bufferView":15,
			"componentType":5123,
			"count":72,
			"type":"SCALAR"
		},
		{
			"bufferView":16,
			"componentType":5126,
			"count":72,
			"max":[
				10.84969425201416,
				2.595407485961914,
				10.84969425201416
			],
			"min":[
				-10.84969425201416,
				0,
				-10.84969425201416
			],
			"type":"VEC3"
		},
		{
			"bufferView":17,
			"componentType":5126,
			"count":72,
			"type":"VEC3"
		},
		{
			"bufferView":18,
			"componentType":5126,
			"count":72,
			"type":"VEC2"
		},
		{
			"bufferView":19,
			"componentType":5123,
			"count":132,
			"type":"SCALAR"
		},
		{
			"bufferView":20,
			"componentType":5126,
			"count":282,
			"max":[
				25.108360290527344,
				1.5241997241973877,
				38.050811767578125
			],
			"min":[
				-44.559852600097656,
				-2.595407009124756,
				-34.82809066772461
			],
			"type":"VEC3"
		},
		{
			"bufferView":21,
			"componentType":5126,
			"count":282,
			"type":"VEC3"
		},
		{
			"bufferView":22,
			"componentType":5126,
			"count":282,
			"type":"VEC2"
		},
		{
			"bufferView":23,
			"componentType":5123,
			"count":564,
			"type":"SCALAR"
		},
		{
			"bufferView":24,
			"componentType":5126,
			"count":480,
			"max":[
				3.2244060039520264,
				4.1024932861328125,
				3.224404811859131
			],
			"min":[
				-3.2244038581848145,
				3.2244067192077637,
				-3.2244067192077637
			],
			"type":"VEC3"
		},
		{
			"bufferView":25,
			"componentType":5126,
			"count":480,
			"type":"VEC3"
		},
		{
			"bufferView":26,
			"componentType":5126,
			"count":480,
			"type":"VEC2"
		},
		{
			"bufferView":27,
			"componentType":5123,
			"count":672,
			"type":"SCALAR"
		},
		{
			"bufferView":28,
			"componentType":5126,
			"count":992,
			"max":[
				19.9999942779541,
				20,
				19.99999237060547
			],
			"min":[
				-19.999990463256836,
				0,
				-19.999988555908203
			],
			"type":"VEC3"
		},
		{
			"bufferView":29,
			"componentType":5126,
			"count":992,
			"type":"VEC3"
		},
		{
			"bufferView":30,
			"componentType":5126,
			"count":992,
			"type":"VEC2"
		},
		{
			"bufferView":31,
			"componentType":5123,
			"count":1440,
			"type":"SCALAR"
		},
		{
			"bufferView":32,
			"componentType":5126,
			"count":576,
			"max":[
				2.5292651653289795,
				7.351236820220947,
				2.5292649269104004
			],
			"min":[
				-2.5292646884918213,
				-5,
				-2.5292649269104004
			],
			"type":"VEC3"
		},
		{
			"bufferView":33,
			"componentType":5126,
			"count":576,
			"type":"VEC3"
		},
		{
			"bufferView":34,
			"componentType":5126,
			"count":576,
			"type":"VEC2"
		},
		{
			"bufferView":35,
			"componentType":5123,
			"count":948,
			"type":"SCALAR"
		},
		{
			"bufferView":36,
			"componentType":5126,
			"count":576,
			"max":[
				2.5292651653289795,
				7.351236820220947,
				2.5292649269104004
			],
			"min":[
				-2.5292646884918213,
				-5,
				-2.5292649269104004
			],
			"type":"VEC3"
		},
		{
			"bufferView":37,
			"componentType":5126,
			"count":576,
			"type":"VEC3"
		},
		{
			"bufferView":38,
			"componentType":5126,
			"count":576,
			"type":"VEC2"
		},
		{
			"bufferView":39,
			"componentType":5126,
			"count":192,
			"max":[
				5.323575973510742,
				0.15438497066497803,
				9.681974411010742
			],
			"min":[
				-7.960360527038574,
				-27.94692611694336,
				-10.205659866333008
			],
			"type":"VEC3"
		},
		{
			"bufferView":40,
			"componentType":5126,
			"count":192,
			"type":"VEC3"
		},
		{
			"bufferView":41,
			"componentType":5126,
			"count":192,
			"type":"VEC2"
		},
		{
			"bufferView":42,
			"componentType":5123,
			"count":372,
			"type":"SCALAR"
		},
		{
			"bufferView":43,
			"componentType":5126,
			"count":192,
			"max":[
				5.318814754486084,
				0.15438497066497803,
				9.681351661682129
			],
			"min":[
				-7.965120315551758,
				-27.942718505859375,
				-10.206283569335938
			],
			"type":"VEC3"
		},
		{
			"bufferView":44,
			"componentType":5126,
			"count":192,
			"type":"VEC3"
		},
		{
			"bufferView":45,
			"componentType":5126,
			"count":192,
			"type":"VEC2"
		}
	],
	"bufferViews":[
		{
			"buffer":0,
			"byteLength":3108,
			"byteOffset":0,
			"target":34962
		},
		{
			"buffer":0,
			"byteLength":3108,
			"byteOffset":3108,
			"target":34962
		},
		{
			"buffer":0,
			"byteLength":2072,
			"byteOffset":6216,
			"target":34962
		},
		{
			"buffer":0,
			"byteLength":1050,
			"byteOffset":8288,
			"target":34963
		},
		{
			"buffer":0,
			"byteLength":156,
			"byteOffset":9340,
			"target":34962
		},
		{
			"buffer":0,
			"byteLength":156,
			"byteOffset":9496,
			"target":34962
		},
		{
			"buffer":0,
			"byteLength":104,
			"byteOffset":9652,
			"target":34962
		},
		{
			"buffer":0,
			"byteLength":42,
			"byteOffset":9756,
			"target":34963
		},
		{
			"buffer":0,
			"byteLength":2592,
			"byteOffset":9800,
			"target":34962
		},
		{
			"buffer":0,
			"byteLength":2592,
			"byteOffset":12392,
			"target":34962
		},
		{
			"buffer":0,
			"byteLength":1728,
			"byteOffset":14984,
			"target":34962
		},
		{
			"buffer":0,
			"byteLength":840,
			"byteOffset":16712,
			"target":34963
		},
		{
			"buffer":0,
			"byteLength":480,
			"byteOffset":17552,
			"target":34962
		},
		{
			"buffer":0,
			"byteLength":480,
			"byteOffset":18032,
			"target":34962
		},
		{
			"buffer":0,
			"byteLength":320,
			"byteOffset":18512,
			"target":34962
		},
		{
			"buffer":0,
			"byteLength":144,
			"byteOffset":18832,
			"target":34963
		},
		{
			"buffer":0,
			"byteLength":864,
			"byteOffset":18976,
			"target":34962
		},
		{
			"buffer":0,
			"byteLength":864,
			"byteOffset":19840,
			"target":34962
		},
		{
			"buffer":0,
			"byteLength":576,
			"byteOffset":20704,
			"target":34962
		},
		{
			"buffer":0,
			"byteLength":264,
			"byteOffset":21280,
			"target":34963
		},
		{
			"buffer":0,
			"byteLength":3384,
			"byteOffset":21544,
			"target":34962
		},
		{
			"buffer":0,
			"byteLength":3384,
			"byteOffset":24928,
			"target":34962
		},
		{
			"buffer":0,
			"byteLength":2256,
			"byteOffset":28312,
			"target":34962
		},
		{
			"buffer":0,
			"byteLength":1128,
			"byteOffset":30568,
			"target":34963
		},
		{
			"buffer":0,
			"byteLength":5760,
			"byteOffset":31696,
			"target":34962
		},
		{
			"buffer":0,
			"byteLength":5760,
			"byteOffset":37456,
			"target":34962
		},
		{
			"buffer":0,
			"byteLength":3840,
			"byteOffset":43216,
			"target":34962
		},
		{
			"buffer":0,
			"byteLength":1344,
			"byteOffset":47056,
			"target":34963
		},
		{
			"buffer":0,
			"byteLength":11904,
			"byteOffset":48400,
			"target":34962
		},
		{
			"buffer":0,
			"byteLength":11904,
			"byteOffset":60304,
			"target":34962
		},
		{
			"buffer":0,
			"byteLength":7936,
			"byteOffset":72208,
			"target":34962
		},
		{
			"buffer":0,
			"byteLength":2880,
			"byteOffset":80144,
			"target":34963
		},
		{
			"buffer":0,
			"byteLength":6912,
			"byteOffset":83024,
			"target":34962
		},
		{
			"buffer":0,
			"byteLength":6912,
			"byteOffset":89936,
			"target":34962
		},
		{
			"buffer":0,
			"byteLength":4608,
			"byteOffset":96848,
			"target":34962
		},
		{
			"buffer":0,
			"byteLength":1896,
			"byteOffset":101456,
			"target":34963
		},
		{
			"buffer":0,
			"byteLength":6912,
			"byteOffset":103352,
			"target":34962
		},
		{
			"buffer":0,
			"byteLength":6912,
			"byteOffset":110264,
			"target":34962
		},
		{
			"buffer":0,
			"byteLength":4608,
			"byteOffset":117176,
			"target":34962
		},
		{
			"buffer":0,
			"byteLength":2304,
			"byteOffset":121784,
			"target":34962
		},
		{
			"buffer":0,
			"byteLength":2304,
			"byteOffset":124088,
			"target":34962
		},
		{
			"buffer":0,
			"byteLength":1536,
			"byteOffset":126392,
			"target":34962
		},
		{
			"buffer":0,
			"byteLength":744,
			"byteOffset":127928,
			"target":34963
		},
		{
			"buffer":0,
			"byteLength":2304,
			"byteOffset":128672,
			"target":34962
		},
		{
			"buffer":0,
			"byteLength":2304,
			"byteOffset":130976,
			"target":34962
		},
		{
			"buffer":0,
			"byteLength":1536,
			"byteOffset":133280,
			"target":34962
		}
	],
	"samplers":[
		{
			"magFilter":9729,
			"minFilter":9987
		}
	],
	"buffers":[
		{
			"byteLength":134816,
			"uri":"trapped.bin"
		}
	]
}
